<?xml version="1.0" encoding="UTF-8"?><svg id="Layer_6" xmlns="http://www.w3.org/2000/svg" viewBox="0 0 273.27 407.06"><defs><style>.cls-1{fill:#fff;}.cls-1,.cls-2,.cls-3{stroke:#000;stroke-miterlimit:10;}.cls-2{fill:red;}.cls-3{fill:#fffa96;font-family:FasterOne-Regular, 'Faster One';font-size:113.56px;}</style></defs><g><g><rect class="cls-2" x="8.75" y="113.2" width="201" height="293"/><polygon class="cls-2" points="209.75 113.2 271.72 78.95 271.72 371.09 209.75 406.2 209.75 113.2"/><rect class="cls-1" x="7.23" y="113.2" width="38.02" height="293"/><rect class="cls-1" x="76.23" y="113.2" width="38.02" height="293"/><rect class="cls-1" x="144.23" y="113.2" width="38.02" height="293"/><path class="cls-1" d="M8.75,113.2c-1.97-1.87-6.84-7.03-8-15-1.54-10.61,4.38-20.2,11-25,6.34-4.6,14.38-5.57,18-6,7.88-.95,12.53,.52,14-2,1.78-3.07-4.29-6.65-4-13,.34-7.43,9.27-15.31,18-16,7.97-.63,12.48,5.44,16,3,3.3-2.29-.22-7.83,3-14,3.75-7.19,14.12-10.4,22-10,10.35,.52,11.9,7.06,19,6,9.78-1.46,9.31-14.19,21-19,8.82-3.63,20.9-1.23,28,5,8.35,7.33,7.43,17.86,14,19,3.7,.64,4.51-2.59,11-4,6.47-1.4,14.44-.18,20,4,7.51,5.64,5.61,12.43,12,15,6.29,2.52,9.5-3.48,18-1,4.36,1.27,9.13,4.5,12,9,2.53,3.97,1.44,5.56,4,8,4.07,3.88,8.29,1.21,12,5,3.31,3.38,3.06,8.69,3,10-.15,3.23-1.27,5.67-2,7l-61,34H8.75Z"/><path class="cls-1" d="M185.75,97.2c6.88-6.02,9.14-14.85,6-21-3.17-6.21-11.27-8.52-17-8-7.99,.72-13.4,7.11-16,5-.99-.81-.54-2.02-1-4-1.34-5.78-8.9-11.41-16-11-8.85,.51-11.05,15.76-16,15-3.28-.5-2.57-6.9-7-12-8.63-9.93-32.47-10.04-40,1-3.91,5.73-2.8,13.85-2,20,.78,5.98,2.53,10.75,4,14"/></g><path class="cls-1" d="M227.75,104.11c8.75-5,17.51-10,26.26-15-.6,97.89-1.2,195.79-1.81,293.68-8.15,4.44-16.3,8.88-24.45,13.32V104.11Z"/></g><text class="cls-3" transform="translate(35.57 300.97) scale(.44 1)"><tspan x="0" y="0">POP!</tspan></text></svg>