<?xml version="1.0" encoding="UTF-8"?><svg xmlns="http://www.w3.org/2000/svg" viewBox="0 0 395 516"><defs><style>.cls-1{fill:none;stroke:#000;stroke-miterlimit:10;}</style></defs><g id="Layer_6"><path class="cls-1" d="M392.33,298.53c-2.68-1.44-5.98-3.71-8.67-7.34-5.52-7.46-5.11-16.15-5.11-16.15s-.41,8.69,5.11,16.15c2.69,3.63,5.99,5.9,8.67,7.34Z"/></g><g id="Layer_8"><g><g><g><path d="M323.11,197.02s-.07,0-.11,0c-.72-.03-1.37-.38-1.74-.92-.54-.79-.46-1.91,.2-2.73l.13-.11c1.08-.66,2.46-.45,3.16,.48,.57,.77,.56,1.88-.02,2.58-.37,.44-.97,.7-1.61,.7Zm-.93-2.96c-.33,.47-.38,1.07-.1,1.47,.2,.28,.56,.46,.96,.48,.4,.02,.72-.11,.91-.34,.28-.34,.28-.94-.02-1.34-.37-.49-1.13-.61-1.75-.27Z"/><g><g><path d="M.36,498.36V-.5l89.02,.02c12.34,3.15,35.78,11.74,54.06,33.81,3.88,4.69,14.19,17.13,19.15,36.32,3.71,14.34,2.03,22.94-.5,35.95-1.91,9.8-4.29,22-5.09,40.96-.51,12.13-.02,18.72,.4,24.54,.5,6.8,.94,12.67-.41,25.17-1.07,9.99-2.31,15.36-3.88,22.16-1.46,6.32-3.11,13.48-5.09,26.4-2.02,13.13-2.45,19.62-2.86,25.9-.41,6.21-.8,12.08-2.74,23.78-3.52,21.25-6.07,36.59-14.61,54.32-3.83,7.94-6.7,11.9-9.74,16.08-2.97,4.09-6.04,8.31-10.44,16.67-9.13,17.36-12.8,31.3-15.22,40.52-.58,2.2-1.08,4.09-1.56,5.68-8.18,26.97-38.4,50.62-89.81,70.32l-.68,.26ZM1.36,.5V496.91c50.7-19.52,80.48-42.88,88.54-69.41,.48-1.57,.97-3.46,1.55-5.64,2.44-9.27,6.11-23.27,15.3-40.73,4.43-8.42,7.52-12.68,10.52-16.8,3.01-4.15,5.86-8.07,9.65-15.93,8.48-17.6,11.02-32.89,14.53-54.05,1.93-11.66,2.32-17.5,2.73-23.68,.42-6.3,.85-12.81,2.87-25.98,1.99-12.96,3.65-20.14,5.1-26.48,1.56-6.77,2.79-12.12,3.86-22.04,1.33-12.41,.9-18.24,.4-24.99-.43-5.84-.92-12.46-.41-24.65,.8-19.03,3.19-31.28,5.11-41.11,2.51-12.88,4.17-21.38,.51-35.51-4.91-18.97-15.11-31.29-18.95-35.93C124.59,12.15,101.43,3.64,89.19,.5H1.36Z"/><path d="M396.36,479.22l-.71-.33c-32-14.74-60.16-34.15-83.72-57.68-11.68-11.67-15.06-17.11-20.67-26.14-6-9.67-14.23-22.9-37.64-51.79-1.94-2.39-3.79-4.66-5.58-6.84-16.17-19.76-25.93-31.69-28.16-50.99-1.11-9.59,.34-15.36,2.02-22.04,1.41-5.62,3.02-11.99,3.58-22.08,.99-17.77-2.29-28.1-6.83-42.39-2.4-7.57-5.12-16.14-7.73-27.46-5.74-24.93-13.6-59.08-4.48-92.82,6.91-25.54,23.63-49.44,48.36-69.12L266.14-.5h130.22V479.22ZM266.52,.5l-11.07,9.81c-24.58,19.57-41.19,43.29-48.04,68.62-9.06,33.49-1.23,67.5,4.49,92.33,2.6,11.28,5.31,19.83,7.71,27.38,4.57,14.4,7.87,24.8,6.87,42.75-.57,10.18-2.18,16.6-3.61,22.27-1.72,6.86-3.09,12.27-2,21.68,2.2,19.01,11.88,30.86,27.94,50.48,1.78,2.18,3.64,4.45,5.58,6.84,23.45,28.94,31.7,42.21,37.72,51.9,5.57,8.97,8.93,14.38,20.53,25.96,23.3,23.27,51.13,42.5,82.72,57.15V.5h-128.84Z"/><path d="M322.11,516.5H183.31l-2.88-6.55c-10.83-16.39-18.55-34.13-22.92-52.67-4.83-20.48-4.84-39.88-.05-76.85,3.53-27.26,6.7-40.65,10.37-56.14,3.2-13.5,6.82-28.81,11.31-56.42,9.03-55.49,9.48-76.02,9.17-92.3-.09-4.96-.28-9.38-.48-14.06-.35-8.25-.74-17.6-.77-32.98-.09-35.02,.05-47.88,3.35-62.68l.32-1.45c2.79-12.57,5.2-23.42,13.31-35.32,4.24-6.22,13.07-19.17,28.38-24.42,7.06-2.42,16.9-3.67,20.13-4.08,4.57-.58,9.2-.94,13.77-1.06l1.4-.04-19.42,16.86c-11.77,9.68-27.77,26.48-37.23,51.53-6.26,16.59-7.18,30.67-7.68,38.23-1.08,16.6,.6,33.23,5.02,49.41,1.2,8.61,3.05,16.97,5.51,24.9,1.21,3.89,2.38,7.1,3.5,10.2,1.77,4.85,3.44,9.44,5.2,16.34,1.37,5.35,2.46,10.81,3.24,16.22,1.28,10.41,1,20.79-.83,30.87-1,5.52-2.14,9.2-3.35,13.11-.92,2.97-1.87,6.04-2.79,10.06-2.95,12.93-2.6,22.75-2.12,36.34,.37,10.5,2.11,20.46,4.51,34.25,1.21,6.92,2.57,14.76,4.04,24.19,3.02,19.43,4.72,29.29,10.35,41.12,5.16,10.84,12.32,20.74,21.29,29.41l65.14,74.01Zm-138.14-1h135.93l-63.65-72.32c-9.03-8.73-16.26-18.72-21.47-29.67-5.69-11.95-7.4-21.87-10.43-41.39-1.46-9.42-2.83-17.25-4.04-24.17-2.41-13.83-4.15-23.82-4.53-34.38-.49-13.67-.84-23.54,2.14-36.6,.93-4.06,1.88-7.14,2.81-10.13,1.2-3.87,2.33-7.53,3.32-12.99,1.81-9.98,2.09-20.26,.82-30.56-.78-5.37-1.86-10.79-3.22-16.11-1.75-6.85-3.41-11.42-5.17-16.25-1.13-3.11-2.31-6.33-3.52-10.25-2.48-7.99-4.34-16.4-5.54-25-4.43-16.23-6.13-32.96-5.04-49.68,.5-7.61,1.42-21.79,7.74-38.52,9.54-25.26,25.67-42.19,37.52-51.94L264.94,.55c-4.08,.16-8.2,.5-12.27,1.01-3.21,.41-12.97,1.65-19.93,4.03-15,5.14-23.7,17.9-27.88,24.04-8,11.74-10.39,22.51-13.16,34.98l-.32,1.45c-3.27,14.7-3.41,27.53-3.32,62.46,.04,15.37,.43,24.71,.77,32.94,.2,4.68,.38,9.11,.48,14.08,.38,19.91-1.02,42.33-9.18,92.48-4.5,27.65-8.12,42.97-11.33,56.49-3.66,15.47-6.83,28.83-10.35,56.04-4.77,36.84-4.76,56.15,.03,76.5,4.34,18.42,12.02,36.05,22.82,52.42l2.66,6.03Z"/></g><path d="M147.25,209.7c-.92,0-1.16-1.27-1.63-3.73-.78-4.07-2.09-10.87-7.15-16.37-6.08-6.6-14.84-8.16-19.06-8.91-5.44-.97-8.59-.47-12.57,.15-3.12,.49-6.65,1.04-12.12,1.07-6.28,.03-25.36,.1-27.67-6.99h0c-1.96-6.03,8.93-16,19.62-20.55,14.86-6.33,29.39-1.83,37.2,.59,9.28,2.87,17.29,5.35,22.03,12.9,3.59,5.71,3.63,12.37,3.7,25.64,.03,5.98-.21,16.04-2.27,16.21-.03,0-.06,0-.09,0Zm-33.55-30.56c1.71,0,3.6,.16,5.88,.56,4.32,.77,13.31,2.37,19.62,9.22,5.26,5.71,6.6,12.69,7.4,16.86,.23,1.17,.48,2.49,.71,2.87,.66-.73,1.35-6.48,1.3-15.16-.08-13.08-.11-19.64-3.55-25.12-4.54-7.23-12.01-9.55-21.48-12.48-7.69-2.38-21.99-6.81-36.52-.62-10.08,4.3-20.83,13.88-19.06,19.33,1.38,4.25,10.37,6.34,26.71,6.3,5.4-.02,8.89-.57,11.97-1.05,2.41-.38,4.53-.71,7.01-.71Z"/><path d="M236.16,197.62s-.06,0-.09,0l-.24-.02-.2-.25c-.73-1.1-1.3-12.2,2.43-24.53,2.34-7.75,5.62-13.63,7.96-17.2,0,0,.29-.44,.6-.88,7.62-11.01,47.34-28.79,49.03-29.54,5.89-2.61,10.25-4.67,13.75-6.33,9.06-4.3,11.5-5.46,16.45-4.43,9.17,1.89,17.38,9.48,20.46,15.66,1.35,2.72,1.66,5.01,.89,6.64-1.03,2.18-4.01,3.29-9.1,3.39-8.15,1.23-16.2,3.09-23.87,5.51-5.76,1.82-9.92,3.13-15.5,5.68-1.23,.56-2.33,1.09-3.4,1.6-3.11,1.48-5.79,2.76-10.03,4.23-2.6,.9-5.47,1.64-9.04,2.32-3.32,.63-6.21,1.02-8.75,1.37-6.87,.93-11.41,1.54-16.42,5.68-5.31,4.39-8.3,10.45-9.42,12.73-3.48,7.06-4.28,13.24-4.66,16.21-.21,1.62-.28,2.18-.82,2.18Zm86.68-82.53c-3.17,0-6.12,1.4-13.02,4.67-3.5,1.66-7.87,3.73-13.77,6.34-.41,.18-41.15,18.41-48.61,29.19-.29,.43-.58,.86-.58,.86-2.3,3.51-5.54,9.3-7.84,16.94-2.71,8.98-3.08,17.17-2.88,21.17,.45-3.29,1.43-9.01,4.62-15.47,1.15-2.33,4.21-8.54,9.68-13.06,5.22-4.32,10.13-4.98,16.92-5.9,2.54-.34,5.41-.73,8.7-1.36,3.52-.67,6.35-1.39,8.9-2.28,4.19-1.45,6.85-2.72,9.93-4.19,1.07-.51,2.18-1.04,3.42-1.6,5.63-2.57,9.82-3.89,15.61-5.72,7.72-2.44,15.82-4.3,24.09-5.55,4.67-.1,7.44-1.05,8.29-2.83,.62-1.32,.31-3.37-.88-5.76-2.97-5.97-10.91-13.3-19.77-15.13-1.01-.21-1.91-.32-2.8-.32Z"/><path d="M107.76,240.86c-5.7,0-13.14-1.49-18.69-3.25-6.01-1.9-9.93-4.17-17.73-8.68l-.18-.1c-13.7-7.92-19.37-11.2-18.73-13.79,.28-1.13,1.44-2.09,3.43-2.86,8.71-3.34,30.11-2.21,46,8.56,6.77,4.59,16.13,12.98,14.17,17.29-.92,2.04-4.14,2.82-8.28,2.82Zm-40.22-29.29c-4.92,0-8.93,.64-11.31,1.56-1.63,.62-2.63,1.39-2.82,2.16-.46,1.85,6.59,5.93,18.26,12.68l.17,.1c7.74,4.48,11.63,6.72,17.54,8.59,9.57,3.03,24,4.86,25.76,.97h0c1.45-3.2-5.89-10.67-13.83-16.05-11.18-7.58-24.19-10.02-33.76-10.02Z"/><path d="M287.69,221.1c-.75,0-1.53-.02-2.32-.05-3.87-.17-6-.26-6.87-1.61h0c-2.54-3.95,6.38-15.04,15.47-21.35,12.06-8.37,24.48-8.86,33.56-9.21,18.59-.72,20.88,2.99,21.14,4.15,.54,2.41-3.06,5.17-4.18,5.96-2.24,1.59-4.3,1.9-6.29,2.2-.81,.12-1.65,.25-2.49,.47-3.23,.83-4.67,2.47-6.67,4.75-1.18,1.34-2.51,2.86-4.47,4.48-5.03,4.18-11.72,5.75-25.04,8.89-2.21,.52-6.48,1.32-11.84,1.32Zm43.75-31.3c-1.29,0-2.59,.03-3.87,.08-8.95,.35-21.2,.83-33.02,9.04-9.99,6.93-17.03,17.13-15.2,19.99h0c.56,.88,2.37,.99,6.07,1.15,6.31,.28,11.41-.66,13.89-1.24,13.17-3.11,19.79-4.67,24.63-8.69,1.89-1.57,3.2-3.06,4.35-4.37,2.04-2.32,3.65-4.15,7.17-5.06,.88-.23,1.75-.36,2.59-.49,1.96-.3,3.81-.58,5.86-2.03,1.57-1.11,4.12-3.39,3.78-4.92-.55-2.44-8.22-3.44-16.25-3.44Z"/><path d="M129.71,231.98l-.19-.13c-.22-.15-.23-.24-.34-1.14-.5-3.99-1.35-7.66-2.53-11-1.92-4.83-6.33-13.18-15.35-19.11-4-2.51-8.05-4.08-11.46-5.1-.44-.13-.87-.25-1.29-.37-2.49-.68-4.56-1.05-5.87-1.29-1.94-.35-3.83-.58-5.64-.7-3.84-.24-7.14-.04-9.66,.28-.41,.05-.87,.11-1.39,.18-5.02,.75-8.8,2.08-10.82,2.9-7.85,3.32-13.06,8.5-14.77,10.2-.69,.68-.79,.75-1.04,.76h-.22s-.3-.34-.3-.34l.02-.23c.06-.58,3.29-3.78,6.61-6.15,.18-.13,4.45-3.17,9.3-5.16,4.54-1.92,8.55-2.63,11.18-2.99,3.24-.48,6.98-.72,11.09-.45,3.49,.22,7.42,.8,11.62,1.98,.02,0,.04,.01,.06,.02,.5,.13,1.02,.28,1.55,.44,3.24,.95,7.09,2.26,11.42,5.08,.02,.01,.03,.02,.05,.03,3.64,2.27,7.26,5.3,10.35,9.35,2.27,2.98,4.1,6.42,5.49,10.31,.08,.2,.16,.4,.23,.59,2.07,5.49,2.79,11.04,2.45,11.7l-.1,.2-.45,.13Z"/><path d="M263.81,218.97l-.47-.04-.16-.22c-.41-.61-.52-7.66,1.89-15.48,.78-2.52,1.76-4.93,2.92-7.19,2.89-5.66,6.66-9.75,10.09-12.76,2.18-1.93,4.16-3.36,5.55-4.37,1.06-.78,2.65-1.94,4.72-3.22,3.65-2.27,8.57-4.77,14.79-6.2,1.23-.29,2.51-.53,3.83-.71,4.22-.6,7.99-.54,11.3-.21,3.43,.26,10.03,1.13,17.78,3.96,6.03,2.2,11.93,5.38,12.16,5.96l.08,.21-.19,.4-.21,.07c-.25,.08-.3,.04-1.17-.45-2.53-1.44-10.22-5.83-20.84-7.91-2.23-.44-4.83-.95-7.78-1.24-.08,0-.16-.01-.24-.02-2.01-.14-5.38-.38-9.46,.06-.41,.04-.82,.09-1.22,.15-.81,.11-1.63,.25-2.47,.42-.43,.08-.85,.17-1.26,.27-5.9,1.35-10.74,3.75-14.26,5.88-2.06,1.26-3.72,2.46-5,3.39-1.6,1.17-3.6,2.64-5.72,4.53-3.23,2.9-6.86,6.9-9.61,12.25h0c-4.56,8.95-4.65,17.52-4.68,20.75-.01,1.19-.01,1.37-.23,1.57l-.16,.15Z"/><path d="M307.68,215.98c-2.37,0-5.21-.46-8-2.09-2.99-1.75-7.87-6.01-7.19-10.83h0c.54-3.81,4.13-5.86,9.11-8.69,4.77-2.71,8.86-3.54,13.19-4.42,4.48-.91,6.95-1.41,8.59-.45,1.58,.92,2.75,2.69,3.38,5.1,1.07,4.11,.36,9.17-1.83,12.88-3.52,5.99-10.09,7.42-12.25,7.89-1,.22-2.81,.61-5.01,.61Zm-14.19-12.79h0c-.61,4.3,3.93,8.2,6.7,9.83,5.04,2.95,10.3,1.8,12.28,1.37,2.06-.45,8.31-1.81,11.61-7.42,2.06-3.5,2.73-8.25,1.72-12.12-.55-2.12-1.59-3.72-2.92-4.49-1.32-.77-3.66-.3-7.89,.56-4.25,.86-8.27,1.68-12.9,4.31-4.73,2.69-8.14,4.63-8.61,7.96Z"/><path d="M310.7,205.98c-1.79,0-3.57-1.01-4.58-2.38-1.02-1.38-1.59-3.58-.56-5.36,.47-.82,1.47-1.86,3.55-2.2h0c.32-.05,3.17-.44,4.91,1.59,.95,1.12,1.37,2.73,1.12,4.32-.23,1.47-.99,2.67-2.13,3.37-.73,.45-1.53,.65-2.32,.65Zm-1.43-8.95h0c-1.36,.22-2.32,.8-2.85,1.71-.8,1.39-.32,3.14,.5,4.26,1.2,1.63,3.73,2.61,5.57,1.47,.89-.55,1.48-1.5,1.67-2.68,.2-1.29-.14-2.63-.89-3.52-1.41-1.65-3.89-1.27-3.99-1.25h0Z"/><path d="M317.41,200.78h-.04c-.81-.02-1.44-.74-1.77-1.4-.33-.66-.51-1.6-.04-2.24h0c.45-.62,1.33-.76,2.02-.69,.88,.09,1.58,.51,1.86,1.14,.28,.6,.16,1.39-.31,2.1-.45,.68-1.11,1.1-1.73,1.1Zm-.14-3.35c-.45,0-.79,.14-.9,.3h0c-.14,.19-.13,.67,.13,1.21,.24,.49,.61,.84,.9,.85,.23,0,.64-.27,.9-.66,.27-.41,.36-.85,.23-1.13-.13-.29-.54-.51-1.05-.56-.07,0-.15-.01-.22-.01Z"/><path d="M84.47,225.86c-.11,0-.23,0-.34-.01-2.76-.2-4.61-2.8-4.95-5.14-.28-1.89,.3-5.09,3.01-6.15,1.96-.77,4.28-.13,5.84,1.58,.64-.2,1.36-.19,2.01,.17,1.38,.75,1.61,2.61,1.03,3.9-.24,.55-.66,1.02-1.2,1.37-.03,.31-.18,.7-.45,1.15-.86,1.48-2.66,3.13-4.94,3.13Zm-.56-10.63c-.46,0-.92,.08-1.36,.25-2.17,.85-2.61,3.5-2.38,5.08,.28,1.96,1.79,4.13,4.03,4.29,1.46,.11,2.62-.68,3.33-1.35,.66-.63,1.06-1.28,1.23-1.68-.39,.08-.94,.15-1.49-.16-.64-.36-1.16-1.19-1.32-2.12-.16-.94,.06-1.84,.62-2.48,.15-.17,.32-.33,.52-.47-.9-.88-2.05-1.37-3.17-1.37Zm4.95,6.23h0Zm-.02-4.45c-.58,0-1.17,.3-1.53,.71-.49,.56-.45,1.27-.39,1.65,.11,.62,.45,1.2,.82,1.41,.3,.17,.63,.09,.95,.02,.17-.04,.39-.09,.6-.06,.28-.18,.64-.48,.85-.95,.34-.75,.32-2.12-.6-2.62-.22-.12-.46-.17-.7-.17Z"/><path d="M86.81,235.62c-4.56,0-7.88-2.19-9.72-3.4-1.28-.85-3.66-2.42-5.45-5.46-.78-1.33-1.36-2.8-1.69-4.27-.97-4.42-.45-7.58,1.57-9.39,.81-.73,1.84-1.21,3.07-1.42,.95-.18,1.91-.25,2.87-.23,1.4,.04,2.37,.28,3.96,.7,3.3,.86,4.95,1.3,5.79,1.57,1.93,.62,3.86,1.34,5.59,2.09,1.27,.55,2.15,.99,3.91,1.86,1.9,.95,2.56,1.28,2.88,1.65,1.86,2.12,.62,5.89,.22,7.13-1.29,3.93-4.06,6.12-5.19,6.89-2.98,2-5.91,2.19-6.87,2.26-.32,.02-.63,.03-.93,.03Zm-9.73-23.17c-.77,0-1.55,.07-2.31,.21h0c-1.04,.19-1.91,.58-2.58,1.18-1.73,1.55-2.15,4.38-1.26,8.43,.3,1.37,.85,2.75,1.57,3.98,1.67,2.84,3.92,4.33,5.14,5.13,1.86,1.23,5.33,3.5,10.04,3.21,.9-.06,3.62-.23,6.38-2.09,.82-.55,3.58-2.63,4.8-6.37,.36-1.11,1.46-4.47-.02-6.16-.2-.23-1.18-.72-2.53-1.39-1.78-.89-2.65-1.32-3.9-1.86-1.71-.74-3.61-1.45-5.5-2.06-.81-.26-2.46-.69-5.74-1.55-1.52-.4-2.45-.63-3.74-.66-.12,0-.23,0-.35,0Z"/><path d="M132.32,244.79c-3.6,0-7.57-.44-10.98-1.7-1.5-.55-5.5-2.03-6.24-5.14-.15-.62-.1-1.04-.06-1.44,.03-.32,.07-.64,.02-1.12-.22-2.25-1.81-3.8-4.41-6.1-4.64-4.1-6.93-6.12-7.88-6.69-.84-.5-1.74-.97-2.78-1.52-1.94-1.02-4.34-2.29-7.64-4.38-1.41-.89-2.38-1.58-2.14-2.38h0c.29-.95,1.91-.81,4.59-.57,1.1,.1,2.23,.2,3.27,.21,.87,.01,1.73-.04,2.57-.14,3.74-3.53,13.07-6.84,13.19-6.88,1.4-.46,1.87-.53,2.1-.09,.07,.13,.11,.34-.05,.61-.6,.97-6.84,6.24-14.77,7.31-.12,.12-.24,.25-.34,.37-.49,.58-.71,1.07-.65,1.47,.15,.96,1.94,2.32,9.62,3.38,1.78,.24,3.63,.34,5.52,.36,1.41-.12,3.03-.23,4.89-.32,.25-.01,.44-.02,.55-.03,.21-.02,.32-.02,.46,.1l.41,.32-.34,.39c-.09,.1-.12,.14-.35,.17h0s-.17,.02-.17,.02c-1.79,.22-3.6,.34-5.39,.34-7.43,.63-8.19,1.47-8.27,1.65,.21,.97,7.02,3.12,14.57,4.59,.06,.01,.12,.02,.18,.04,4.57,.1,10.06,1.51,10.15,1.54l.96,.29-.81,.59s-.19,.04-.42,.04v.04c-.07-.02-.13-.03-.19-.05-1.98-.12-8.03-1.15-9.66-1.43-2.44-.07-4.48,.21-4.99,1.23-.78,1.57,2.07,5.22,5.22,7.65,6.55,5.04,14.62,4.65,18.5,4.46,1.92-.09,2.64-.13,2.7,.58,.01,.16-.03,.4-.32,.62-.86,.66-5.34,1.59-10.6,1.59Zm-41.09-30.15c.28,.35,1.25,.96,1.65,1.21,3.27,2.06,5.66,3.33,7.58,4.34,1.06,.56,1.97,1.04,2.83,1.55,1.03,.61,3.35,2.66,7.97,6.74,2.36,2.09,4.53,4,4.81,6.81,.06,.58,.02,.98-.02,1.33-.04,.38-.07,.65,.04,1.1,.62,2.59,4.25,3.93,5.62,4.44,6.65,2.45,15.23,1.67,18.9,.84-4,.19-12.32,.6-19.15-4.67-2.88-2.22-6.73-6.42-5.51-8.89,.38-.76,1.21-1.23,2.32-1.5-11.46-2.5-12.25-4.45-12.2-5.03,.06-.63,.71-1.31,3.81-1.88-.08-.01-.17-.02-.25-.03-4.68-.64-10.09-1.7-10.48-4.22-.1-.61,.11-1.23,.55-1.86-.54,.04-1.08,.05-1.62,.04-1.08-.01-2.23-.12-3.34-.22-1.25-.11-2.93-.26-3.47-.11Zm22.78-6.69c-2.59,.89-8.09,3.19-11.37,5.55,5.23-1.12,9.49-3.97,11.37-5.55Z"/><path d="M281.19,235.36c-.13,0-.24-.06-.35-.14l-.18-.14-.05-.32c-.08-1.09,2.64-6.14,6.58-10.19,.51-.52,1.06-1.06,1.59-1.57,.68-.65,1.53-1.48,1.99-2.03-.01,0-.02,0-.03,0-.15,.02-.33,.05-.53,.07-.62,.07-1.3,.07-2.56,.05-.48,0-.87,0-1.15,0-1.39-.01-2.28-.07-2.92-.12-1.35,.14-4.97,1.54-7.44,5.54-1.54,2.5-1.86,4.8-2.01,5.91-.08,.58-.11,.8-.33,.97l-.17,.12-.23-.02c-.33-.05-.46-.36-.5-.46-.39-.99-.84-5.65,2.1-9.26h0c1.48-1.81,3.57-3.08,6.05-3.66,1-.23,1.52-.21,2.49-.14,.1,0,.19,0,.27,0,.06,0,.58,0,1.58,.06,.44,.03,1.04,.05,1.87,.06,.14,0,.27,0,.39,0,.78,0,1.8-.04,2.98-.11,.08-.01,.15-.02,.22-.03,.29-.05,.54-.09,.75-.03,1.18-.09,2.49-.23,3.87-.43,1.61-.23,2.92-.52,5.54-1.09,.3-.07,.59-.13,.88-.19,.62-.33,1.4-.44,2.29-.5,1.9-.43,3.27-.77,4.77-1.24,2.12-.66,3.72-1.31,5.01-1.83,2.24-.91,3.47-1.41,4.36-.58,1.08,1.01,.62,3.19,.18,4.31-.74,1.89-2.35,2.94-2.89,3.06l-.26,.06-.29-.19c-.41-.4-.08-.77,.58-1.51,.75-.86,2.32-2.64,1.91-3.48-.23-.47-1.17-.75-1.96-.75h-.03c-.63,0-1.09,.23-1.84,.61-2.06,1.05-3.2,1.64-3.57,1.94-1.83,1.51-2.35,3.92-2.63,5.22-.17,.79-.29,1.37-.88,1.25-.33-.06-.79-.14-.52-3.24,.06-.69,.15-1.24,.22-1.68,.09-.54,.16-1.01,.06-1.1-.04,.01-.5,.04-1.21,.09l-.28,.02c-.2,.01-.4,.02-.59,.04-.62,.14-1.31,.29-2.07,.46-.86,.55-1.1,1.84-1.29,2.79-.04,.18-.07,.35-.1,.51-1.1,4.9-6.85,7.92-8.29,8.29-.16,.04-.53,.14-.78-.14-.43-.48-.11-.79,1.98-2.83,1.74-1.7,6.38-6.21,5.71-7.32-.23-.38-1.63-.43-2.88-.1-1.57,.42-2.52,1.49-3.21,2.27-1.45,1.64-2.93,3.24-4.41,4.85-1.06,1.15-2.12,2.3-3.17,3.46-3.19,3.54-4.1,4.42-4.62,4.42Zm10.83-14.48c-.24,.58-1.05,1.4-2.54,2.84-.52,.51-1.07,1.04-1.57,1.55-3.08,3.17-5.05,6.5-5.87,8.25,.89-.89,2.15-2.29,3.03-3.25,1.05-1.16,2.11-2.32,3.17-3.47,1.47-1.6,2.95-3.2,4.39-4.83,.33-.38,.74-.83,1.26-1.27-.65,.07-1.28,.13-1.87,.18Zm-12.76,.89c-1.38,.62-2.56,1.51-3.48,2.64h0c-1.37,1.68-1.92,3.61-2.1,5.19,.31-1.07,.8-2.3,1.6-3.6,1.15-1.87,2.59-3.26,3.98-4.23Zm20.53,.84c-1.04,1.63-3.05,3.67-5.32,5.88-.19,.18-.38,.37-.57,.56,1.96-1.1,5-3.36,5.89-6.44Zm7.44-4.62c.32,.45,.22,1.04,.1,1.82-.04,.28-.1,.6-.14,.97,.44-1.18,1.13-2.46,2.33-3.45h0c-.09,.03-.18,.05-.28,.08-.68,.21-1.33,.4-2.01,.58Zm-7.16,1.63c.11,.09,.2,.2,.27,.32,.02,.04,.05,.08,.07,.13,.07-.2,.16-.39,.25-.58-.21,.04-.4,.09-.59,.13Zm16.65-4.93c.41,.1,.83,.26,1.17,.51-.06-.17-.14-.32-.25-.42-.18-.17-.48-.18-.92-.09Z"/></g><path d="M271.16,216.45l-.19-.09c-.27-.13-.39-.19-.2-.71h0s0,0,0-.01c.16-.42,.51-1.13,1.16-2.42h0s.04,.02,.04,.02c0-.01,.01-.02,.02-.04l-.04-.02c.08-.16,.27-.53,.54-.99,2.28-4.56,7.16-11.19,14.08-16.19,2.85-2.12,5.7-3.74,8.32-5,4.04-1.99,7.5-3.12,9.75-3.87,5.32-1.75,9.77-2.56,13.25-3.04,1.11-.16,2.27-.3,3.46-.42,5.61-.63,10.04-1.14,15.77,.15,3.13,.7,6.41,1.95,7.56,2.58,0,0,.02,0,.03,.01l.13,.06h0c.15,.1,.24,.18,.27,.23l.27,.49-.52,.21c-.21,.08-.34,.02-.57-.08-3.09-1.44-6.55-2.48-9.76-2.95-4.21-.62-7.42-.29-11.86,.17l-1.21,.12c-1.02,.12-2.18,.25-3.47,.42-7.39,1.07-12.94,2.91-15.18,3.73-2,.73-4.61,1.69-7.51,3.09-2.49,1.23-5.19,2.79-7.98,4.78-.04,.03-.09,.06-.13,.1-.93,.69-1.86,1.44-2.78,2.25-.05,.04-4.51,3.98-8.06,8.96-1.6,2.24-2.88,4.52-2.96,4.67l-.37,.75c-.74,1.5-1.1,2.22-1.3,2.58-.02,.04-.03,.07-.04,.09h0c-.15,.25-.2,.27-.3,.3l-.2,.07Z"/></g><path d="M19.85,322.94c-.05,0-.09,0-.12-.01l-.23-.06-.19-.42,.08-.2c.1-.24,.23-.3,1-.62,1.41-.59,4.48-1.87,7.83-4.3,.29-.26,.62-.55,1.02-.9,.59-.52,1.09-.97,1.56-1.38,.89-.79,1.64-1.44,2.25-2.03,1.64-1.83,2.26-3.09,2.61-4.01,0-.01,0-.02,.01-.04,.85-2.62,.6-5.11,.43-6.72v-.11c-.08-.63-.13-1.26-.18-1.9-.24-1.97-.28-3.96-.27-5.92-.04-2-.05-3.98-.06-5.94,0-.4,0-.79,0-1.19-.24-4.08-.47-8.17-.7-12.25-.34-6.03-.69-12.26-1.08-18.39h0c-1.76-26.39-2.92-43.84,6.27-58.39,.54-.93,1.12-1.85,1.73-2.75,5.27-7.77,13.34-13,13.8-13.04l.24-.02,.32,.34-.02,.23c-.02,.24-.09,.29-.65,.7-7.66,5.52-12.14,11.23-14.56,15.05t0,0c-8.4,14.44-7.8,31.71-6.14,57.82h0c.92,13.78,1.38,19.16,1.39,19.22,.33,3.81,.38,7.68,.4,11.46,.11,1.83,.09,3.7,.08,5.5,0,.55,0,1.1-.01,1.66,.04,1.95,.12,3.9,.27,5.84l.13,.98c.35,2.71,.69,5.26-.45,8.23-.21,.64-.48,1.29-.83,1.94-.43,.8-1.08,1.54-1.99,2.42-.25,.27-.52,.56-.81,.86-1.36,1.38-2.76,2.56-4.11,3.54-.62,.54-1.07,.92-1.59,1.3h0c-3.14,2.3-6.54,3.53-7.39,3.53Z"/><path d="M14.28,324.73c-1.27,0-2.47-.45-3.21-1.21-1.07-1.1-.87-2.42-.64-3.94,.21-1.41,.48-3.17-.16-5.36h0c-.43-1.46-1.02-2.32-1.53-3.08-.62-.91-1.16-1.7-.98-3.04,.41-3.03,3.84-4.83,5.81-5.41,2.12-.63,6.29-.97,8.49,1.76,2.2,2.74,1.07,6.77,.05,8.73-.75,1.45-1.68,2.25-2.49,2.95-.93,.8-1.67,1.43-2.01,2.85-.24,.96-.15,1.73-.08,2.4,.09,.85,.18,1.65-.49,2.37-.58,.62-1.56,.98-2.69,.99h-.05Zm-3.05-10.79c.7,2.4,.42,4.28,.19,5.79-.23,1.55-.32,2.38,.37,3.09,.56,.58,1.52,.92,2.54,.91,.84,0,1.58-.26,1.97-.67,.34-.37,.32-.77,.23-1.58-.08-.72-.17-1.61,.1-2.75,.43-1.73,1.35-2.53,2.33-3.37,.78-.67,1.59-1.37,2.25-2.65,.84-1.62,1.94-5.3,.05-7.64-1.86-2.32-5.54-1.99-7.42-1.43-2.25,.67-4.8,2.39-5.1,4.59-.13,.96,.23,1.48,.82,2.34,.53,.78,1.2,1.74,1.67,3.36h0Z"/></g><path d="M384.31,189.56l-.21-.11c-.27-.16-.32-.4-.62-1.75-.79-3.58-2.88-13.07-9.9-22.23-4.2-5.13-8.72-8.88-11.95-11.19-1.27-.86-2.58-1.67-3.95-2.43-.69-.39-.78-.44-.83-.68l-.05-.22,.27-.39h.25s0-.01,0-.01c.27,0,2.26,1.03,5.08,3.05,4.63,3.16,8.64,6.93,11.95,11.24,.91,1.11,2.43,2.97,4.07,5.64,5.57,9.09,6.78,17.84,6.45,18.68l-.09,.23-.48,.17Z"/><path d="M.36,408.3v-14.17l.43-.06c1.96-.28,6.68-.68,8.03,1.69,1.54,2.7-1.76,7.85-7.68,11.99l-.79,.55Zm1-13.3v11.36c5.38-4.01,7.63-8.3,6.6-10.11-.81-1.43-3.97-1.57-6.6-1.25Z"/><path d="M5.2,393.46c-2.26,0-4.11-.91-4.59-1.17l-.26-.14v-27.7l.86,.87c2.49,2.53,4.69,5.28,6.55,8.19,3.26,5.1,6.34,9.92,4.72,14.63-.25,.73-1.28,3.23-3.9,4.54-1.15,.58-2.31,.78-3.37,.78Zm-3.85-1.92c1.01,.49,3.96,1.66,6.77,.24,2.28-1.14,3.18-3.33,3.4-3.97,1.47-4.25-1.49-8.87-4.61-13.76-1.61-2.51-3.47-4.91-5.56-7.14v24.63Z"/><path d="M-.31,516.22l.67-18.6,1,.04-.63,17.56,7.96-.08H141.32c-8.86-33.79-12.1-67.21-9.63-99.34,.73-9.55,1.47-12.85,3.92-23.78,2.66-11.88,7.1-31.77,15.56-77.22,4.9-26.36,7.34-40.88,8.96-50.48,2.08-12.38,2.86-17.01,5.86-28.92,.62-2.48,1.22-4.79,1.79-7,2.97-11.48,5.12-19.78,6.02-32.7,.65-9.35,.27-15.54-.26-24.12-.4-6.44-.89-14.46-1.01-26-.13-12.03-.24-22.42,.85-34.97,1.36-15.73,3.77-25.58,5.89-34.27,2.48-10.14,4.62-18.89,4.26-33.82-.59-24.75-7.06-32.65-11.87-36.44-3.7-2.92-8.25-4.79-13.52-5.58H90.29s0-.99,0-.99h67.93c5.52,.82,10.22,2.77,14.07,5.79,4.97,3.92,11.66,12.04,12.25,37.21,.36,15.06-1.8,23.87-4.29,34.08-2.12,8.66-4.51,18.47-5.87,34.12-1.08,12.5-.98,22.37-.84,34.87,.12,11.52,.62,19.52,1.01,25.95,.51,8.29,.91,14.84,.26,24.25-.91,13.01-3.06,21.35-6.05,32.88-.57,2.2-1.17,4.51-1.79,6.99-2.99,11.86-3.77,16.49-5.84,28.84-1.62,9.61-4.06,24.12-8.96,50.49-8.46,45.48-12.91,65.37-15.57,77.26-2.43,10.88-3.17,14.16-3.9,23.64-2.48,32.22,.81,65.74,9.76,99.64l.17,.63H8.69l-9.01,.09Z"/></g></g></svg>