<?xml version="1.0" encoding="UTF-8"?><svg id="Layer_20" xmlns="http://www.w3.org/2000/svg" viewBox="0 0 404.63 516"><path d="M275.6,516.75h-11.48l2.83-16.28c.16-5.21-.29-10.37-1.34-15.34-.87-4.1-1.92-7-3.02-10.06-.98-2.71-1.99-5.5-3.03-9.46-.86-3.26-1-4.52-1.19-6.25-.2-1.78-.44-3.99-1.51-9.27-.42-2.11-.83-3.97-1.18-5.61-1.56-7.2-2.27-10.49-.06-12.81,1.37-1.44,3.71-2.32,6.96-2.63,1-.09,1.46-.03,2.27,.1,.73,.11,1.73,.27,3.72,.41,3.97,.28,7.92,.22,7.96,.22v.5h.51l-.02,.16c-.07,.23-1.78,5.63-2.09,11.05-.08,1.32-.12,4.03,.41,7.3,.44,2.69,1,4.09,1.71,5.86,.46,1.16,.99,2.47,1.56,4.36,.98,3.23,2.13,8.31,2.08,14.14-.03,2.99-.36,4.28-.68,5.52-.3,1.15-.58,2.24-.55,4.75,.04,3.27,.56,5.44,1.03,7.36,.56,2.3,1.09,4.47,.61,7.94-.16,1.14-.79,3.23-2.05,7.4-1.07,3.52-2.18,6.97-3.32,10.32l-.12,.34Zm-10.29-1h9.57c1.1-3.23,2.17-6.55,3.17-9.86,1.27-4.2,1.89-6.26,2.04-7.33,.45-3.28-.04-5.27-.6-7.57-.48-1.97-1.02-4.19-1.05-7.58-.03-2.64,.27-3.79,.58-5.01,.31-1.19,.62-2.41,.65-5.28,.06-6-1.25-11.25-2.04-13.84-.56-1.85-1.08-3.14-1.54-4.28-.71-1.76-1.32-3.28-1.77-6.07-.54-3.36-.5-6.15-.42-7.51,.26-4.52,1.46-9.02,1.94-10.66-2.23,.07-7.31-.21-7.37-.22-2.04-.14-3.1-.31-3.81-.42-.79-.12-1.14-.18-2.02-.09-3.73,.36-5.5,1.46-6.33,2.33-1.85,1.94-1.17,5.06,.31,11.91,.36,1.65,.76,3.52,1.19,5.63,1.07,5.33,1.33,7.65,1.52,9.36,.2,1.76,.33,2.92,1.17,6.11,1.03,3.91,2.04,6.69,3.01,9.37,1.12,3.09,2.18,6.02,3.06,10.19,1.07,5.06,1.53,10.31,1.36,15.61v.07s-2.64,15.14-2.64,15.14Z"/><path d="M353.17,516.75h-16.08l.21-.65c.96-3.04,1.37-6.14,1.21-9.22-.11-2.13-.61-5.71-3.66-12.15-2.06-4.36-3.52-6.31-5.06-8.37-1.5-2-3.05-4.08-5.22-8.49-2.5-5.08-5.34-12.31-5.36-12.38-.42-1.08-.76-1.96-1.05-2.71-.79-2.07-1.22-3.21-2.22-5.05-.98-1.81-1.68-2.78-2.73-4.24-.75-1.05-1.69-2.35-3.01-4.36-1.05-1.59-1.58-2.51-2.2-3.56-.27-.46-.56-.95-.91-1.54,0,0-.47-.78-1.42-2.31-1.41-2.27-3.92-6.11-6.72-10.29l-.55-.83,1,.05c3.52,.18,6.83,.2,9.84,.04,1.24-.06,2.5-.21,3.77-.43,2.04-.36,3.66-.84,4.67-1.41,.74-.41,1.44-.91,2.07-1.47l.54-.48,6,15.55,10.31,14.88,5.76,16.01,4.54,20.03,4.12,10.53,2.15,12.86Zm-14.73-1h13.54l-1.95-11.64-4.1-10.46-4.55-20.04-5.72-15.89-10.3-14.86-5.51-14.27c-.54,.43-1.11,.81-1.71,1.14-1.11,.62-2.84,1.14-4.99,1.52-1.3,.23-2.61,.38-3.89,.44-2.76,.14-5.76,.14-8.95,0,2.58,3.86,4.86,7.37,6.18,9.49,.96,1.54,1.43,2.32,1.43,2.32,.36,.6,.65,1.09,.92,1.55,.61,1.04,1.14,1.95,2.17,3.52,1.31,1.99,2.24,3.29,2.98,4.33,1.04,1.44,1.79,2.49,2.8,4.35,1.03,1.89,1.47,3.06,2.27,5.17,.29,.75,.62,1.63,1.04,2.7,.03,.07,2.85,7.26,5.33,12.3,2.12,4.32,3.65,6.36,5.12,8.33,1.57,2.1,3.06,4.09,5.17,8.54,3.12,6.6,3.64,10.31,3.75,12.53,.15,2.98-.21,5.97-1.06,8.92Z"/><path d="M82.88,517.5h-12.13l-.15-.21c-2.67-3.75-3.87-7.43-3.57-10.94,.21-2.4,1.05-4.02,1.94-5.74,.76-1.47,1.55-2.98,2.15-5.23,1.07-4,.6-7.18,.19-9.99-.07-.47-.14-.94-.2-1.39-1.33-10.14,1.3-18.95,3.21-25.38l.2-.69c1.85-6.23,3.83-9.36,5.74-12.39,1.94-3.07,3.95-6.25,5.83-12.79,.9-3.13,1.48-7.87,2.71-18.3,1.73-14.69,1.96-20.84,2.11-24.91,.14-3.68,.2-5.36,1.3-9.86,.52-2.11,1.06-3.99,1.53-5.65,1.59-5.56,2.56-8.91,.56-12.36-.87-1.5-1.77-2.07-3.56-3.22-1.35-.86-3.19-2.04-5.84-4.13-3.25-2.57-4.62-4.06-6.06-5.64-1.3-1.42-2.64-2.88-5.52-5.25-2.92-2.4-7.8-6.42-14.85-9.46-2.87-1.23-4.39-1.57-5.99-1.92-1.71-.38-3.47-.76-6.93-2.16-5.05-2.04-10.28-4.14-15.14-8.96-3.6-3.57-5.53-7.18-7.57-11.01-2.87-5.37-4.32-9.95-4.81-11.67-1.51-5.31-1.49-8.35-1.47-10.79,.02-2.51,.04-4.49-1.53-7.96l-.28-.6c-.95-2.05-2.26-4.86-1.05-7.31,.39-.78,1.18-1.55,2.78-3.08,2.16-2.08,3.15-3.03,3.91-3.32,3.83-1.44,9.73,1.68,10.99,4.95l.06,.17c.17,.46,.42,1.16,1.05,1.49,.45,.24,.93,.2,1.35,.17,.47-.04,1.01-.08,1.32,.38,.18,.28,.21,.66,.09,1.1-.19,.67-.77,1.52-1.64,1.92-1.02,.47-2.02,.15-2.83-.11-.65-.21-1.06-.33-1.27-.15-.16,.13-.18,.39-.19,.81-.02,.49-.04,1.15-.63,1.53-.5,.32-.98,.18-1.78-.04-.29-.08-.65-.18-1.09-.28-.48-.11-.84-.2-1.11-.27-.32-.08-.59-.14-.68-.15-.16,.1-.41,.94,.1,3.28,1.03,4.74,3.28,8.11,3.37,8.26h0c5.39,7.86,8.09,11.8,13.66,15.58,3.33,2.26,6.52,3.7,8.2,4.28-1.22-1.07-3.63-2.91-6.28-4.8-.52-.37-.98-.69-1.39-.97-2.07-1.44-3.01-2.09-3.75-3.62-.69-1.42-.67-3.07-.62-6.36,.05-3.67,.07-5.7,1.52-6.89,.6-.49,1.2-.66,1.69-.79,.56-.15,.86-.25,1.07-.61,.34-.59,.14-1.39-.03-2.04-.16-.62-.32-1.26,.19-1.58,.54-.34,1.06,.12,1.62,.6,.58,.51,1.3,1.15,2.04,1.05,.33-.04,.48-.19,.87-.6,.32-.34,.71-.77,1.4-1.23,1.52-1.03,3.02-1.25,4.23-1.42,.77-.11,1.1-.08,2.09,0,.62,.05,1.52,.12,3,.19,0,0,.77,.04,5.17,.19l.61,.02-.14,.59c-.52,2.17-.13,2.64,0,2.74,.2,.14,.61,.03,1.04-.09,.65-.18,1.46-.4,2.19,.08,.59,.38,.71,.94,.82,1.49,.07,.32,.14,.66,.31,1.01,.62,1.25,2.06,1.72,3.33,2.13l.41,.14c3.12,1.05,9.5,4.18,9.33,7.18-.08,1.37-1.5,2.69-2.32,3.26-.2,.14-.3,.19-.86,.45l-.59,.28c-.65,.31-1.23,.59-1.7,.82,.16,0,.33-.03,.54-.08,.51-.13,.82-.34,1.12-.55,.37-.25,.74-.5,1.36-.49,.92,.04,1.54,.7,2.26,1.56,.04,.05,.08,.1,.12,.15-.14-.7-.21-1.39-.22-2.07-.03-3.16,1.27-6.68,3.39-9.18,.53-.63,.93-.97,1.28-1.28,.4-.35,.72-.63,1.13-1.25,1.37-2.11,1.28-4.41,1.01-7.99-.36-4.8-.71-7.77-.95-9.73-.36-3.04-.46-3.86,.16-5.46,.09-.24,.19-.48,.3-.74,.51-1.22,1.15-2.73,1.02-4.77-.06-1-.27-1.58-.53-2.32-.13-.37-.27-.77-.41-1.25-.78-2.78-1.39-8.12,1.24-10.45,2.21-1.96,5.76-1.05,8.89-.25,2.59,.67,6.14,1.57,7.28,4.38,.41,1,.29,1.7,.14,2.51-.13,.74-.29,1.66-.11,3.2,.18,1.53,.59,2.68,.88,3.51,.37,1.04,.64,1.79,.06,2.35-1.17,1.12-4.21-.71-5.11-1.3-1.12-.73-2.01-1.56-2.71-2.32,.26,.64,.52,1.37,.74,2.17,.42,1.48,.52,2.45,.67,4.05,.05,.47,.1,1,.16,1.61,.15,1.35,.53,4.94,1.22,8.12,.44,2.03,.82,3.06,1.25,4.25,.44,1.21,.95,2.57,1.6,5.27,1.25,5.15,1.04,6.8,.2,8.02-.6,.88-1.22,1.12-1.94,1.41-.58,.23-1.23,.49-2.12,1.16-2.33,1.78-4.42,5.08-3.89,7.95,.06,.28,.91,1.83,1.99,3.8,.97,1.76,1.41,2.52,1.72,3.05,.3,.51,.48,.82,.87,1.59,.56,1.1,.92,1.9,1.19,2.48,.47,1.05,.67,1.48,1.32,2.17,.55,.58,.93,.81,1.3,1.04,.43,.27,.83,.52,1.33,1.18,.82,1.11,.9,2.05,.98,3.04,.05,.62,.1,1.26,.33,2.05,.38,1.34,.92,1.88,1.72,2.69,.78,.78,1.74,1.75,2.95,3.76,1.38,2.29,2.14,4.41,2.51,5.43,.7,1.94,.92,3.12,1.09,3.99,.19,.97,.28,1.46,.89,2.24,.74,.96,1.51,1.37,2.25,1.78,.91,.49,1.85,1,2.53,2.43,.32,.68,.4,1.17,.48,1.65,.08,.5,.16,1.01,.55,1.85,.61,1.31,1.36,2.09,1.96,2.71,.16,.16,.3,.31,.43,.46,1.78,2.01,2.07,4.71,1.97,8.97-.14,6.33-.21,9.5-1.45,15.9-1.98,10.29-.25,18.95,1.44,27.34,2.02,10.05,3.35,16.68,8.89,21.71,.99,.9,1.84,1.5,2.66,2.09,1.45,1.03,2.71,1.93,4,3.97,1.9,3,1.9,5.33,1.9,11.54,0,1.47,0,3.17,.02,5.15,.04,2.87,.11,5.17,.17,7.21,.19,5.95,.28,8.94-1.01,13.68-1.6,5.84-3.48,7.62-4.95,8.51-1.12,.68-1.89,.78-3.95,1.04-1.08,.14-2.55,.32-4.65,.67-4.46,.73-6.69,1.09-8.52,1.82-1.34,.53-2.19,1.01-3.08,1.52-1.11,.63-2.26,1.27-4.33,1.98-1.94,.66-3.47,.97-5,1.25-4.58,.84-7.51,.99-9.86,1.11-2.68,.14-4.45,.23-6.87,1.32-3.8,1.71-6.01,4.46-6.59,5.26-2.79,3.81-2.86,7.95-2.95,12.74v.17c-.08,4.34,.52,8.71,1.78,12.99l.19,.64Zm-11.62-1h10.28c-1.17-4.17-1.72-8.42-1.64-12.65v-.17c.09-4.96,.17-9.25,3.14-13.31,.8-1.09,3.08-3.82,6.99-5.58,2.59-1.17,4.44-1.26,7.23-1.4,2.32-.12,5.21-.27,9.73-1.1,1.49-.27,2.99-.57,4.86-1.21,1.99-.68,3.05-1.28,4.17-1.91,.89-.5,1.81-1.02,3.21-1.57,1.93-.77,4.2-1.14,8.73-1.88,2.12-.35,3.61-.54,4.69-.67,2.01-.25,2.62-.33,3.55-.9,1.31-.8,3-2.42,4.5-7.92,1.26-4.59,1.16-7.53,.98-13.38-.06-2.04-.14-4.35-.17-7.23-.02-1.99-.02-3.69-.02-5.17,0-6.17,0-8.25-1.75-11.01-1.19-1.88-2.31-2.68-3.74-3.69-.81-.57-1.72-1.23-2.75-2.16-5.78-5.25-7.14-12.02-9.19-22.25-1.7-8.48-3.46-17.25-1.44-27.72,1.22-6.32,1.29-9.47,1.43-15.74,.09-4.01-.16-6.52-1.72-8.29-.12-.13-.25-.27-.4-.43-.62-.64-1.46-1.52-2.14-2.98-.45-.96-.55-1.58-.63-2.12-.07-.44-.13-.83-.39-1.37-.54-1.13-1.23-1.5-2.11-1.98-.79-.43-1.69-.92-2.56-2.04-.76-.97-.89-1.65-1.08-2.67-.16-.83-.38-1.97-1.05-3.84-.38-1.06-1.1-3.05-2.42-5.25-1.15-1.91-2.06-2.83-2.8-3.57-.85-.86-1.52-1.53-1.98-3.12-.25-.88-.31-1.61-.36-2.24-.08-.96-.14-1.65-.79-2.53-.38-.51-.66-.68-1.05-.93-.38-.24-.86-.54-1.5-1.21-.76-.8-1.01-1.35-1.5-2.44-.27-.59-.61-1.36-1.17-2.44-.38-.75-.55-1.04-.85-1.54-.31-.54-.76-1.3-1.73-3.08-1.54-2.8-2.02-3.71-2.1-4.1-.59-3.27,1.7-6.97,4.27-8.93,.99-.75,1.75-1.05,2.35-1.29,.66-.26,1.06-.42,1.48-1.04,.55-.8,.93-1.96-.35-7.22-.64-2.64-1.13-3.98-1.57-5.16-.43-1.17-.84-2.28-1.29-4.38-.7-3.22-1.09-6.85-1.23-8.22-.07-.62-.12-1.15-.16-1.63-.15-1.6-.24-2.48-.64-3.87-.47-1.65-1.09-2.99-1.49-3.88-.45-.99-.66-1.44-.19-1.73,.47-.28,.76,.12,1.25,.77,.67,.9,1.91,2.56,3.91,3.87,1.88,1.23,3.55,1.74,3.87,1.42,.12-.11-.11-.74-.3-1.3-.31-.88-.74-2.08-.94-3.73-.2-1.68-.02-2.68,.12-3.49,.13-.77,.22-1.23-.08-1.96-.96-2.34-4.22-3.18-6.6-3.79-3.04-.78-6.17-1.58-7.99,.03-2.27,2.01-1.61,7.04-.94,9.43,.13,.46,.26,.84,.39,1.19,.28,.78,.51,1.46,.58,2.59,.14,2.27-.55,3.91-1.1,5.22-.1,.25-.2,.48-.29,.71-.53,1.37-.46,1.99-.1,4.98,.23,1.97,.59,4.95,.95,9.78,.28,3.79,.38,6.24-1.17,8.61-.48,.74-.89,1.09-1.31,1.46-.34,.3-.69,.6-1.18,1.17-1.94,2.29-3.18,5.64-3.15,8.52,.01,1.54,.39,3.11,1.13,4.7,.28,.43,.55,.85,.83,1.29,.45,.71,.91,1.44,1.47,2.24,.31,.46,.57,.81,.78,1.09,.14,.16,.27,.31,.42,.47,.35,.39,.45,.5,.42,.75l-.03,.23-.36,.25-.21-.04c-.12-.02-.3-.05-1.05-1.06-1.36-1.58-2.41-3.16-3.14-4.73-.56-.85-1.16-1.7-1.93-2.62-.67-.8-1.07-1.18-1.53-1.2-.26-.02-.42,.09-.75,.31-.33,.23-.75,.52-1.44,.69-.77,.2-1.28,.1-1.69,.03-.33-.06-.49-.09-.71,0-1.05,.96-1.25,2.34-1.31,2.8-.03,.19-.05,.38-.25,.51l-.19,.12-.56-.16-.03-.4c-.02-.44,.21-2.95,1.81-3.72,.41-.32,1.33-.77,3.43-1.77l.59-.28c.54-.26,.59-.28,.72-.37,.89-.61,1.85-1.68,1.89-2.49,.1-1.89-4.48-4.77-8.65-6.18l-.41-.13c-1.39-.45-3.12-1.02-3.92-2.64-.23-.46-.32-.9-.39-1.25-.1-.47-.16-.71-.39-.86-.36-.23-.86-.09-1.39,.05-.61,.17-1.3,.35-1.89-.06-.68-.48-.84-1.5-.52-3.19-3.9-.14-4.58-.17-4.58-.17-1.49-.08-2.4-.15-3.02-.2-.98-.08-1.21-.09-1.86,0-1.17,.17-2.49,.36-3.82,1.26-.59,.4-.93,.76-1.22,1.08-.4,.43-.77,.83-1.49,.92-1.18,.12-2.13-.69-2.82-1.29-.07-.06-.15-.13-.23-.2,.02,.06,.03,.12,.05,.18,.2,.78,.47,1.84-.08,2.79-.43,.74-1.09,.92-1.67,1.08-.46,.12-.89,.24-1.32,.59-1.05,.86-1.11,2.51-1.16,6.14-.04,3.13-.06,4.7,.53,5.91,.62,1.29,1.44,1.86,3.42,3.24,.42,.29,.88,.61,1.4,.98,7.97,5.67,7.65,6.21,7.42,6.6l-.11,.19-.28,.09c-.94,.21-5.68-1.72-10.09-4.71-5.73-3.89-8.47-7.88-13.93-15.84-.26-.38-2.48-3.76-3.53-8.61-.54-2.52-.41-3.91,.44-4.38,.35-.19,.63-.12,1.37,.07,.27,.07,.62,.16,1.1,.27,.46,.11,.83,.21,1.13,.29,.59,.16,.86,.23,.98,.16,.14-.09,.15-.33,.17-.72,.02-.5,.04-1.11,.55-1.54,.65-.54,1.45-.29,2.22-.04,.71,.23,1.44,.47,2.1,.16,.83-.38,1.2-1.37,1.13-1.58,0,.04-.23,.06-.4,.08-.5,.04-1.19,.1-1.9-.28-.96-.51-1.32-1.5-1.52-2.03l-.06-.15c-1.07-2.77-6.46-5.59-9.71-4.38-.57,.22-1.64,1.24-3.57,3.1-1.51,1.45-2.26,2.18-2.57,2.8-1,2.02,.19,4.58,1.06,6.44l.28,.62c1.65,3.67,1.64,5.85,1.62,8.38-.02,2.5-.04,5.34,1.43,10.51,.48,1.69,1.9,6.19,4.72,11.47,2.01,3.76,3.9,7.3,7.4,10.77,4.72,4.67,9.85,6.74,14.81,8.74,3.38,1.36,5.1,1.74,6.77,2.11,1.66,.37,3.22,.71,6.17,1.98,7.18,3.09,12.13,7.16,15.09,9.6,2.93,2.42,4.3,3.91,5.62,5.35,1.42,1.55,2.75,3.01,5.94,5.53,2.61,2.06,4.43,3.22,5.76,4.07,1.87,1.19,2.9,1.85,3.89,3.56,2.21,3.81,1.15,7.52-.47,13.13-.47,1.65-1.01,3.53-1.52,5.61-1.08,4.4-1.14,6.05-1.28,9.66-.14,3.84-.38,10.26-2.12,24.99-1.23,10.48-1.82,15.25-2.74,18.46-1.92,6.67-3.96,9.91-5.94,13.05-1.96,3.11-3.82,6.04-5.63,12.14l-.21,.69c-1.89,6.35-4.48,15.04-3.18,24.97,.06,.45,.13,.91,.2,1.37,.43,2.9,.92,6.19-.21,10.39-.63,2.36-1.48,3.99-2.23,5.44-.88,1.7-1.64,3.16-1.84,5.37-.28,3.2,.81,6.58,3.24,10.06Z"/><path d="M63.75,305.05l-.42-.35c-.39-.32-.84-.6-1.34-.83-.52-.23-1.58-.61-2.85-.56-.17,0-.32,.02-.46,.04-.3,.06-.56,.14-.82,.24-.07,.03-.15,.07-.22,.1-.4,.19-.86,.41-1.69,.5-.29,.04-.63,.07-1.03,.06-.6,0-1.59-.06-2.5-.55-.3-.16-.59-.36-.85-.61-.37-.35-.67-.81-.87-1.28-.01-.03-.03-.07-.04-.1-.12-.3-.34-.85-.21-1.51,.06-.42,.25-.78,.54-1.03,.52-.46,1.2-.49,1.56-.5,.3,0,.61,.02,.91,.08,.69,.16,1.64,.65,1.75,1l.18,.54-.76,.15-.2-.14c-.06-.04-.21-.15-.4-.24h0c-.74-.36-1.94-.5-2.37-.14-.14,.13-.17,.28-.21,.42,0,.01,0,.02,0,.03,0,.04,0,.08-.01,.13,0,.24,.04,.51,.14,.77l.02,.06c.26,.65,.66,1.04,.95,1.25,.09,.07,.18,.13,.27,.18,.7,.39,1.57,.46,2.23,.48,.1,0,.19,0,.26,0,.83-.04,1.36-.25,1.92-.47,.09-.04,.18-.07,.27-.11,.28-.12,.6-.24,1.04-.31,.36-.07,.76-.1,1.25-.07,.48,.03,.98,.11,1.46,.23,.54,.15,1.08,.37,1.55,.61,.09,.05,.18,.1,.27,.15,.32,.18,.59,.37,.79,.53,.05,.04,.09,.07,.14,.11h0c.12,.12,.19,.21,.21,.29l.07,.26-.5,.57Z"/><path d="M133.25,517.5h-16.41l.26-.68c2.15-5.58,3.78-11.19,4.86-16.7,.02-.12,2.72-12.43,6.45-17.56,.39-.54,.84-1.06,1.41-1.64,.77-.79,1.54-1.45,2.28-2.08,1.53-1.31,3.11-2.67,4.93-5.31,.83-1.2,2.56-3.7,3.67-7.34,1.05-3.43,1.04-6.22,1.02-11.77,0-1.18-.03-1.79-.07-2.56-.04-.89-.09-2-.13-4.44,0-.52-.03-2.3-.05-7.36v-.55c-.02-5.11-.03-6.03-.57-7.56-.76-2.15-1.89-3.58-2.49-4.24-.55-.6-.91-.86-1.5-1.29-.34-.25-.75-.54-1.3-.98-.87-.69-3.52-2.78-5.48-5.45-1.23-1.68-1.97-3.31-2.7-5.24-1.74-4.6-2.92-9.55-4.21-17.67-1-6.3-1.55-9.77-1.51-13.33,.02-2.27,.31-4.9,.89-10.14,.26-2.36,.48-4.09,.66-5.54,.32-2.57,.53-4.26,.7-7.17,.48-8.01-.29-9.22-.7-9.88-.36-.57-.77-1.05-1.21-1.56-.82-.96-1.75-2.05-2.58-4.04-.36-.85-.53-1.47-.66-1.97-.19-.71-.32-1.17-.83-1.89-.72-1.01-1.41-1.4-2.14-1.81-.7-.39-1.43-.8-2.16-1.71-.79-.99-.89-1.7-1.02-2.69-.1-.77-.23-1.72-.72-3.24-.9-2.79-2.19-5.23-3.82-7.27-.61-.75-1.07-1.22-1.48-1.63-.63-.63-1.13-1.13-1.61-2.23-.52-1.18-.57-2-.63-2.79-.04-.67-.09-1.3-.42-2.15-.48-1.21-1.08-1.71-2-2.47-.58-.48-1.23-1.02-2-1.86-2.56-2.79-3.52-5.82-4.22-8.03-1.11-3.5-1.99-6.27-.93-9.28,1.19-3.39,4.13-5.03,7.54-6.92,2.84-1.58,7.58-4.21,13.17-3.38,2.27,.34,3.75,1.1,5.05,1.77,1.44,.74,2.57,1.33,4.33,1.03,2.56-.44,4.4-2.45,6.01-4.55,3.74-4.91,5.01-8.96,6.36-13.25,1.12-3.58,2.28-7.28,4.94-11.73,.76-1.28,7.57-12.41,12.17-11.02,3.16,.96,3.69,7.25,3.78,9.15,.29,6.27-2.13,10.63-6.51,18.57-2.13,3.85-4.77,8.63-7.76,14.86-2.27,4.74-3.27,7.32-2.6,10.48,1.15,5.36,6.5,8.79,10.78,10.71l.22,.1,2.83,11.97,.74,11.61,3.29,9.69,5.54,12.78,2.94,19.32,.56,11.64,.81,23.21c-.11,1.5,.07,2.92,.52,4.29,.69,2.07,1.88,3.51,2.75,4.36l.08,.08,1.69,4.71,1.73,7.3-3.6,4-2.62,.44-2.66,14.09-2.4,10.14-5.09,11.64-5.27,5.45-6.22,14.08-10.33,17.89-4.36,8.57Zm-14.95-1h14.34l4.09-8.05,10.31-17.87,6.33-14.26,5.27-5.45,4.93-11.32,2.36-10.03,2.59-13.7-4.44,.75-12.58,3.07-9.02,2.73c.02,3.32,.04,4.62,.04,5.05,.04,2.43,.09,3.52,.13,4.41,.04,.78,.06,1.4,.07,2.6,.02,5.65,.03,8.49-1.07,12.06-1.16,3.79-2.94,6.37-3.8,7.61-1.89,2.74-3.52,4.14-5.1,5.5-.76,.65-1.48,1.27-2.22,2.03-.54,.55-.94,1.02-1.31,1.53-3.55,4.88-6.25,17.05-6.28,17.17-1.05,5.33-2.61,10.77-4.65,16.18Zm-4.94-231.53c-4.34,0-7.97,2.02-10.49,3.41-3.37,1.87-6.03,3.35-7.09,6.38-.94,2.7-.11,5.32,.94,8.64,.71,2.24,1.59,5.03,4,7.66,.72,.79,1.35,1.3,1.9,1.76,.96,.79,1.72,1.42,2.29,2.87,.4,1,.44,1.74,.49,2.45,.05,.74,.1,1.44,.54,2.46,.41,.93,.78,1.3,1.4,1.92,.41,.41,.91,.91,1.55,1.71,1.71,2.13,3.06,4.69,3.99,7.59,.52,1.61,.66,2.65,.76,3.42,.12,.95,.19,1.42,.81,2.19,.62,.76,1.23,1.1,1.87,1.47,.8,.45,1.62,.91,2.47,2.1,.61,.86,.77,1.45,.98,2.2,.14,.5,.29,1.06,.62,1.86,.77,1.84,1.61,2.82,2.42,3.77,.46,.54,.89,1.05,1.29,1.68,.65,1.04,1.31,2.78,.85,10.47-.17,2.94-.39,4.64-.71,7.23-.18,1.45-.4,3.17-.65,5.53-.57,5.21-.86,7.82-.88,10.04-.04,3.33,.43,6.45,1.5,13.16,1.28,8.04,2.44,12.94,4.15,17.47,.72,1.9,1.4,3.4,2.57,5,1.88,2.56,4.45,4.59,5.3,5.25,.54,.42,.94,.71,1.27,.95,.62,.45,1.03,.75,1.65,1.42,.66,.72,1.88,2.26,2.7,4.59,.6,1.69,.6,2.76,.62,7.88v.55c0,.44,0,.85,0,1.25l7.23-2.27,1.52-.37,1.32-.4,5.49-1.49,9.27-1.9,2.48-.35v.06s1.9-.32,1.9-.32l3.02-3.35-1.59-6.74-1.6-4.44c-.94-.93-2.18-2.48-2.92-4.68-.5-1.49-.69-3.05-.57-4.62l-.81-23.15-.55-11.58-2.93-19.2-5.49-12.63-3.35-9.92-.74-11.59-2.71-11.41c-4.45-2.04-9.91-5.64-11.12-11.31-.77-3.58,.5-6.59,2.67-11.12,3-6.26,5.65-11.06,7.79-14.92,4.3-7.77,6.66-12.05,6.39-18.04-.16-3.42-1.05-7.62-3.07-8.24-3.26-1-9.06,7.3-11.02,10.58-2.59,4.34-3.73,7.99-4.84,11.51-1.37,4.38-2.67,8.51-6.52,13.56-1.73,2.27-3.73,4.43-6.64,4.93-2.09,.36-3.42-.33-4.96-1.12-1.23-.64-2.62-1.36-4.73-1.67-.7-.1-1.38-.15-2.04-.15Z"/><path d="M163.03,516.75h-.71l.24-.67c1.59-4.47,2.04-8.74,1.34-12.67-.51-2.88-1.49-4.86-3.11-8.14-.98-1.98-2.19-4.44-3.67-7.83-1.18-2.71-2.28-5.47-3.28-8.2l-.02-.06-.64-2.65,4.94-5.11,2.35-4.73,3.43-8.5,2.85-13.76,1.22-7.68,1.37-1.91,2.1,12.6v.08s-1.37,10.08-1.37,10.08v18.47s3.8,21.41,3.8,21.41l5.31,8.45,9.61,4,9.63,1.42v3.86l-10.24,1.54h-25.15Zm.7-.99h24.38l9.31-1.41v-2.14l-8.96-1.33-9.96-4.15-5.6-8.98-3.82-21.59v-18.62s1.35-10.08,1.35-10.08l-1.61-9.65-1.08,6.81-2.88,13.86-3.47,8.62-2.49,4.96-4.61,4.77,.5,2.09c.99,2.7,2.08,5.44,3.25,8.12,1.46,3.37,2.67,5.82,3.65,7.79,1.66,3.36,2.66,5.39,3.2,8.41,.7,3.91,.31,8.12-1.15,12.52Z"/><path d="M162.92,509.19c-.27,0-.62-.03-1.12-.07l-.51-.04c-1.68-.13-4.49-.34-5.77-1.79-1-1.14-.56-2.47-.04-4,.55-1.62,1.23-3.63,.61-6.29-.47-2.01-1.09-3.72-2.49-6.77-.54-1.18-.96-1.97-1.29-2.61-.62-1.17-.95-1.81-1.04-3.05h0c-.2-2.98,.55-5.1,1.4-6.94,.15-.33,.27-.59,.6-.67,.89-.21,1.34,1.03,2.54,4.34,.88,2.41,2.08,5.72,3.79,9.24,.75,1.56,1.44,2.8,2.04,3.89,1.39,2.53,2.39,4.35,2.99,7.63,.26,1.44,1.06,5.79-.94,6.96-.22,.13-.42,.17-.77,.17Zm-10.65-24.69c.07,1.03,.32,1.51,.92,2.65,.34,.65,.77,1.46,1.32,2.67,1.42,3.12,2.07,4.88,2.55,6.96,.68,2.94-.08,5.19-.64,6.83-.51,1.52-.75,2.34-.16,3.02,1.01,1.15,3.57,1.34,5.09,1.46l.52,.04c.79,.06,1.19,.09,1.31,.03,.52-.3,1.27-1.47,.46-5.91-.57-3.12-1.54-4.88-2.88-7.33-.61-1.11-1.29-2.36-2.06-3.94-1.73-3.57-2.94-6.9-3.83-9.33-.51-1.39-1.02-2.82-1.37-3.44-.71,1.57-1.43,3.5-1.24,6.3h0Z"/><path d="M156.83,301.51c-.22,0-.43-.05-.62-.15-1.05-.57-1.08-2.66-.44-4.17,.4-.96,.97-1.4,1.47-1.79,.44-.34,.85-.66,1.2-1.34,1-1.98,0-4.19,0-4.21-.66-1.41-1.92-2.37-2.35-2.42-.01,.19,.06,.6,.12,.94,.17,.97,.43,2.45,.08,4.24-.37,1.92-1.58,4.58-2.78,4.38-1.06-.17-1.28-2.12-1.52-5.32-.06-.84-.09-1.66-.08-2.74,.02-1.88,.12-2.82,.21-3.58,.06-.59,.11-1.01,.09-1.67-.06-1.97-.68-4.78-1.13-6.83-.5-2.27-.58-2.7-.41-3l.47-.85h.09c.05-.06,.1-.13,.13-.19,.03-.06,.04-.11,.06-.17,.03-.1,.06-.21,.12-.37h0c.06-.16,.17-.35,.27-.49,.48-.72,1.2-1.21,1.67-1.32,1.18-.29,2.28,1.23,3.16,2.44l.22,.3c1.23,1.67,2.04,2.27,2.82,2.86,.71,.54,1.39,1.04,2.27,2.23,1.28,1.72,2.02,3.57,2.45,5.27,.19,.09,.37,.17,.54,.23,1.05,.36,1.29,.25,1.32,.23,0,0,.04-.16-.18-.73-.43-1.13-1-1.82-1.66-2.62-.19-.23-.38-.46-.58-.72-.74-.95-1.74-2.43-2.3-4.05-.85-2.49-.34-2.72-.09-2.84,.54-.24,.89,.23,1.68,1.26l.17,.22s1.31,1.71,2.64,3.26c1.45,1.68,2.59,3.01,3.97,3.02h.02c.82,0,1.56-.4,1.61-.66,.04-.22-.56-.73-1.05-1.14l-.29-.25c-.08-.07-2.03-1.74-4.76-5.03-2.92-3.51-2.46-3.92-2.22-4.13,.74-.65,3.19,1.88,4.21,3,.53,.58,.95,1.12,1.33,1.6,.86,1.1,1.43,1.83,2.51,2.14,.81,.23,1.53,.16,1.65,.05-.05-.1-.5-.61-.87-1.01-.38-.42-.85-.95-1.32-1.58-1-1.32-2.13-2.72-3.02-3.8-.68-.66-1.21-1.35-1.56-1.88h0c-.24-.35-.24-.52,.02-.74l.17-.14,.44,.06,.15,.22c.07,.09,.23,.28,.46,.55,.27,.32,.62,.74,1.03,1.23,1.04,.99,2.2,1.65,3.35,1.86,1.04,.19,1.92,.08,2.04-.08-.06-.3-1.42-1.44-3.49-3.16-.57-.47-1.21-1.01-1.93-1.61l-1.46-1.23c-2.17-1.84-2.83-2.4-4.19-3.15-1.37-.76-2.83-1.37-4.34-1.81l.28-.96c1.58,.46,3.11,1.1,4.54,1.89,1.45,.8,2.18,1.42,4.36,3.26l1.46,1.23c.72,.61,1.36,1.14,1.92,1.61,3.35,2.79,4.14,3.46,3.76,4.33-.48,1.09-2.7,.74-3.14,.66-.39-.07-.77-.18-1.12-.32,.36,.46,.72,.92,1.06,1.37,.45,.6,.89,1.09,1.27,1.52,.78,.87,1.34,1.5,.99,2.17-.45,.85-1.97,.67-2.8,.43-1.4-.4-2.12-1.32-3.02-2.49-.36-.46-.77-.99-1.28-1.54-.54-.59-1.09-1.13-1.58-1.58,.32,.43,.69,.91,1.09,1.4,2.67,3.22,4.62,4.89,4.64,4.91l.29,.24c.86,.73,1.55,1.3,1.39,2.1-.18,.91-1.48,1.47-2.59,1.47h-.03c-1.84-.02-3.11-1.5-4.72-3.37-1.36-1.58-2.67-3.29-2.68-3.31l-.17-.22s-.05-.07-.08-.1c.06,.23,.14,.48,.23,.74,.51,1.49,1.45,2.87,2.14,3.76,.19,.25,.38,.47,.56,.7,.68,.83,1.33,1.62,1.82,2.89,.15,.39,.46,1.21,0,1.75-.58,.68-1.81,.27-2.37,.07,.31,1.72,.31,3.19,.27,4.04-.16,3.26-1.18,6.26-2.97,8.68-.91,1.23-3.4,4.05-5.11,4.05Zm-.81-15.08c.13,0,.28,.02,.45,.08,.99,.32,2.25,1.6,2.87,2.92,.05,.11,1.21,2.67,0,5.08-.45,.88-.99,1.31-1.48,1.68-.46,.36-.86,.67-1.16,1.38-.53,1.26-.38,2.7,0,2.91,.55,.3,2.76-1.34,4.45-3.62,1.67-2.26,2.63-5.07,2.78-8.13,.04-.91,.04-2.58-.39-4.5-2.83-1.54-6.84-5.33-9.61-7.94-.89-.84-1.81-1.71-2.3-2.12-.02,.03-.03,.06-.05,.08,.01,.32,.25,1.41,.47,2.38,.46,2.09,1.09,4.95,1.15,7.01,.02,.73-.03,1.2-.1,1.81-.08,.74-.18,1.65-.2,3.48,0,1.05,.01,1.84,.08,2.65,.09,1.18,.29,3.86,.7,4.38,.37-.24,1.26-1.64,1.63-3.55,.31-1.61,.08-2.92-.08-3.88-.16-.92-.29-1.64,.33-1.99,.11-.06,.27-.12,.48-.12Zm-3.84-13.08c.47,.38,1.2,1.07,2.42,2.22,2.32,2.19,5.89,5.56,8.54,7.28-.42-1.31-1.06-2.68-2.01-3.97-.79-1.07-1.38-1.51-2.07-2.02-.8-.6-1.7-1.28-3.02-3.06l-.23-.31c-.51-.71-1.58-2.19-2.12-2.05-.19,.05-.72,.37-1.07,.9-.1,.15-.16,.28-.18,.32v.02c-.05,.1-.07,.17-.09,.24-.03,.11-.06,.21-.12,.34-.02,.04-.04,.07-.06,.11Z"/><path d="M123.98,288c-.32,0-.65-.02-.99-.08-.44-.07-.63-.16-1.84-.68l-1-.43c-2.95-1.28-3.32-1.39-3.66-1.46-1.2-.26-2.05-.31-2.74-.35l-.25-.02c-1.8-.12-3.35-.22-4.37-1.33h0c-.32-.35-.47-.68-.62-1l-.05-.11c-.77-1.66-1.65-3.54-2.05-5.06-.9-3.41-.45-8.56,1.13-13.13,.71-2.04,2.17-6.27,6.08-10.05,1.62-1.57,4.65-4.5,9.19-5.34,1.03-.19,1.65-.19,2.52-.18,.91,0,2.04,.01,4.22-.2,5.07-.49,6.39-.9,6.4-.91,2.52-.63,3.44-.5,4.47-.25,.89,.22,1.35,.83,2.2,1.93,1.82,2.39,2.32,5.34,2.34,5.47l.03,.18-.1,.16s-2.76,4.49-2.81,4.57c-1.16,2.06-1.78,3.75-3.07,7.37-.76,2.12-1.02,3.08-1.24,3.84-.21,.74-.37,1.33-.86,2.59-1.22,3.15-2.78,6.14-4.4,8.42-2.73,3.85-4.4,4.88-5.42,5.32-.54,.24-1.68,.73-3.1,.73Zm.94-38.23c-.64,0-1.16,.02-1.94,.17-4.24,.79-7.12,3.58-8.67,5.08-3.74,3.62-5.1,7.55-5.83,9.67-1.73,4.99-1.8,9.9-1.11,12.55,.38,1.43,1.23,3.27,1.99,4.89l.05,.11c.13,.28,.23,.51,.45,.74h0c.75,.81,2.05,.9,3.7,1.01l.25,.02c.68,.04,1.62,.1,2.89,.37,.43,.09,.8,.2,3.85,1.53l1,.44c1.18,.51,1.29,.56,1.6,.61,1.57,.26,2.93-.33,3.52-.58,.52-.23,2.12-.92,5-4.98,1.57-2.21,3.09-5.12,4.28-8.2,.47-1.22,.63-1.79,.83-2.5,.22-.78,.49-1.75,1.26-3.91,1.22-3.42,1.89-5.3,3.15-7.54h.02c.19-.34,.79-1.31,2.7-4.42-.13-.65-.68-2.97-2.11-4.84-.81-1.06-1.12-1.44-1.64-1.57-.78-.19-1.52-.37-3.95,.24-.01,0-1.33,.44-6.58,.94-2.23,.21-3.44,.21-4.32,.2-.14,0-.27,0-.39,0Z"/><path d="M172.63,417.73c-.41,0-.74-.06-1.15-.23-3.69-1.49-3.72-7.2-3.76-16.66-.02-5.6-.05-12.56-.86-20.68-1.52-15.39-2.28-23.12-6.29-30.92-.15-.29-.31-.6-.49-.94-1.5-2.84-4-7.6-5.19-14.3-.42-2.34-.45-3.67-.52-6.1-.04-1.38-.09-3.09-.22-5.56-.28-5.21-.64-8.17-.98-11.02-.26-2.15-.53-4.37-.77-7.54-.46-6.08-.31-8.91-.16-11.65,.06-1.18,.12-2.3,.13-3.65,.01-2.35-.13-4.11-.17-4.69v-.11c-.33-4.2-1.09-7.39-1.6-9.5-1.79-7.5-2.61-10.99-3-12.66-.34-1.44-.35-1.49-.38-1.57l-.1-.27c-1.56-4.18-2.28-6.09-14.93-22.98l-.13-.17c-1.6-2.13-3.59-4.78-2.97-7.76,.51-2.47,3.07-6.05,12.38-9.03,2.08-.67,3.4-.85,4.47-1,1.32-.18,2.19-.3,3.7-1.21,2.14-1.29,3.51-2.94,4.61-4.27,1.16-1.4,2.09-2.51,3.3-2.18,1.24,.33,1.64,1.83,2.24,4.12,.64,2.46,2.15,8.2-.55,10.31-1,.78-1.99,.59-3.03,.39-1.04-.2-2.22-.43-3.91,.07-2.48,.74-4.67,2.65-5.71,4.99-.35,.79-.91,2.4-.71,4.26,.42,3.94,4.02,6.66,5.96,8.12l.25,.19c6.66,5.05,9.74,9.44,12.22,12.97,2.66,3.78,4.41,6.27,9.02,7.25,2.37,.51,4.63,.42,6.62,.35,2.98-.11,5.33-.2,6.5,1.77,.62,1.05,.48,2.05,.27,3.57-.07,.47-.14,1-.21,1.62,0,.06-.58,5.8,.74,11.5,.88,3.77,2.85,5.5,4.93,7.34,2.11,1.86,4.5,3.97,5.96,8.41,.36,1.1,.6,3.78,1.15,10.27,.47,5.5,.69,8.81,.85,11.23,.1,1.54,.18,2.7,.28,3.81,.56,6.25,1.69,9.13,2.99,12.46,1.23,3.15,2.62,6.72,3.78,13.84,1.07,6.54,2.07,12.71,1.13,20.83-.2,1.69-.42,2.95-.61,4.05-.33,1.91-.6,3.41-.51,6.03,.1,2.91,.53,4.52,1.33,7.45,.54,1.98,1.21,4.44,2.05,8.26,1.92,8.73,1.99,11.81,.3,14.31-1.16,1.72-2.64,2.49-4.69,3.55-1.17,.61-4.73,2.44-16.4,2.69-1.82,.04-2.76,.02-3.67,0-.99-.02-2.02-.05-4.23,0-4.35,.11-6.54,.35-7.85,.5-.6,.07-1.03,.12-1.39,.12Zm-15.5-205.68c-.53,0-1.15,.7-2.12,1.87-1.09,1.31-2.58,3.11-4.87,4.48-1.68,1.02-2.74,1.16-4.08,1.35-1.03,.14-2.31,.32-4.3,.96-8.84,2.83-11.24,6.06-11.7,8.28-.52,2.54,1.24,4.88,2.79,6.96l.13,.17c12.74,17,13.47,18.95,15.07,23.23l.1,.27q.05,.15,.42,1.69c.39,1.67,1.22,5.16,3,12.66,.51,2.14,1.28,5.38,1.61,9.66v.1c.06,.59,.2,2.39,.18,4.78,0,1.37-.07,2.5-.13,3.7-.15,2.7-.3,5.5,.16,11.52,.24,3.15,.51,5.36,.77,7.5,.35,2.87,.71,5.84,.99,11.09,.13,2.48,.18,4.2,.22,5.58,.07,2.38,.1,3.68,.51,5.95,1.16,6.55,3.53,11.04,5.09,14.01,.18,.34,.34,.65,.5,.95,4.1,7.97,4.87,15.76,6.4,31.28,.81,8.17,.84,15.16,.86,20.78,.04,9.04,.06,14.5,3.13,15.73,.52,.21,.8,.19,2.05,.04,1.32-.15,3.54-.39,7.94-.5,2.24-.06,3.28-.03,4.28,0,.94,.02,1.82,.04,3.62,0,11.44-.25,14.84-2,15.96-2.58,2-1.03,3.31-1.71,4.33-3.22,1.32-1.96,1.57-4.38-.45-13.53-.83-3.79-1.5-6.24-2.03-8.21-.81-3-1.26-4.66-1.36-7.68-.09-2.72,.18-4.28,.53-6.24,.19-1.09,.41-2.33,.6-3.99,.93-7.98-.07-14.09-1.12-20.55-1.14-7.01-2.52-10.53-3.73-13.64-1.33-3.4-2.47-6.34-3.05-12.73-.1-1.12-.18-2.29-.28-3.84-.16-2.42-.38-5.72-.85-11.21-.48-5.62-.77-9.01-1.1-10.04-1.38-4.18-3.56-6.11-5.67-7.97-2.21-1.95-4.3-3.79-5.25-7.87-1.37-5.87-.79-11.59-.76-11.83,.07-.63,.14-1.18,.21-1.66,.2-1.45,.3-2.18-.14-2.93-.86-1.45-2.85-1.38-5.6-1.28-2.05,.08-4.37,.16-6.87-.37-4.99-1.06-6.94-3.83-9.63-7.66-2.44-3.47-5.48-7.79-12.01-12.75l-.24-.18c-2.05-1.55-5.88-4.44-6.35-8.81-.22-2.09,.4-3.89,.79-4.77,1.17-2.63,3.54-4.71,6.33-5.54,1.93-.58,3.29-.31,4.39-.1,1.06,.21,1.6,.29,2.22-.19,2.18-1.7,.74-7.19,.2-9.26-.49-1.87-.85-3.23-1.53-3.41-.05-.01-.1-.02-.15-.02Z"/><path d="M206.93,494.12c-1.37,0-2.78-.44-3.87-1.28-2.69-2.06-2.77-5.92-2.86-10.01-.04-2.01,.11-3.49,.24-4.8,.2-1.93,.35-3.45-.23-5.74-.36-1.42-.91-2.8-1.65-4.1l-.13-.23,.11-.24s1.44-2.99,1.65-4.92c.27-2.52-1.43-4.64-2.56-6.04l-.3-.38c-3.26-4.14-4.43-10.81-6.76-24.1l-.12-.7c-.17-1-.24-2.04-.31-3.14-.15-2.46-.31-5-1.73-7.33h0c-.47-.77-2.65-4.11-2.73-4.23l-.52-.78h.94s.11,0,.22,0c1.03,0,5.43-.04,9.94-.6,4.1-.52,8.43-1.5,8.47-1.51l1.5-.34-.86,.99c.38,2.66,.55,4.17,.52,4.55-.21,2.35,.04,4.76,.27,7.1,.15,1.48,.3,3,.34,4.51,.18,6.3,.27,9.46,.41,11.86,.18,2.97,.36,4.96,.51,6.56,.23,2.48,.38,4.12,.31,7.2-.01,.66-.03,1.2-.05,1.69-.05,1.28-.08,2.13,.05,3.58,.15,1.65,.38,2.74,.61,3.79,.27,1.25,.53,2.44,.62,4.42,.05,1.15,0,1.77-.04,2.32-.04,.61-.08,1.09,.03,2.15,.2,1.88,.87,4.09,1.41,5.62,.8,2.28,1.42,3.47,1.87,4.33,.52,.99,.83,1.59,.82,2.8-.02,2.42-1.28,5.52-4,6.6-.67,.27-1.4,.4-2.14,.4Zm-7.37-26.19c.72,1.31,1.26,2.7,1.62,4.12,.62,2.45,.45,4.13,.25,6.08-.13,1.28-.28,2.73-.24,4.68,.08,4.01,.15,7.47,2.46,9.23,1.42,1.09,3.45,1.39,5.04,.75,2.29-.91,3.35-3.58,3.37-5.68,0-.95-.22-1.38-.71-2.32-.44-.85-1.11-2.12-1.93-4.47-.55-1.58-1.25-3.87-1.46-5.85-.12-1.15-.08-1.69-.04-2.33,.04-.52,.08-1.11,.03-2.21-.08-1.9-.33-3.04-.59-4.25-.24-1.08-.48-2.2-.63-3.92-.13-1.51-.1-2.43-.05-3.7,.02-.48,.04-1.02,.05-1.67,.06-3.02-.08-4.64-.31-7.09-.15-1.61-.33-3.6-.51-6.59-.14-2.41-.23-5.58-.41-11.88-.04-1.48-.19-2.98-.34-4.44-.24-2.38-.49-4.85-.27-7.29,.02-.21-.1-1.38-.47-4.01-1.29,.28-4.74,1-8.04,1.41-3.84,.48-7.61,.58-9.33,.61,.44,.65,1.13,1.72,2.21,3.49h0c1.55,2.54,1.73,5.33,1.88,7.79,.07,1.07,.13,2.09,.29,3.03l.12,.7c2.3,13.12,3.46,19.71,6.56,23.66l.29,.37c1.15,1.44,3.09,3.84,2.77,6.77-.19,1.79-1.27,4.24-1.63,5.01Z"/><path d="M186.3,267.69c-.4,0-.63-.42-.82-.77-.26-.48-.62-1.14-1.32-1.6-.72-.49-1.32-.43-2.76-.31-.76,.06-1.71,.14-2.97,.16-.14,0-3.44,.04-5.92-.56-.74-.18-1.33-.41-2.3-.8-.66-.27-.87-.37-1.04-.6h0c-.47-.64-.17-1.39,.16-2.19,.2-.48,.42-1.03,.54-1.65,.08-.45,.15-1.11-.07-3.19-.42-3.99-.63-5.99-1.44-7.69-.51-1.08-1.03-1.74-1.49-2.32-.65-.83-1.21-1.55-1.32-2.95-.09-1.15,.12-3.5,1.58-4.11,.63-.26,1.18-.06,1.81,.19,.58,.22,1.31,.5,2.47,.63,.96,.11,1.48,.15,1.73-.08,.19-.18,.19-.45,.18-.97-.01-.57-.02-1.27,.34-2.06,.18-.38,.42-.76,1.84-1.88l.73-.58c1.64-1.31,2.54-2.03,3.72-2.28,.49-.1,1.79-.38,3.14,.21,1.42,.62,2.24,1.89,2.53,2.4,.17,.31,.31,.62,.43,.91,.24,.55,.45,1.03,.92,1.48,.45,.43,.81,.54,1.18,.65,.43,.13,.93,.28,1.42,.89,.32,.39,1.16,1.42,.95,2.72-.07,.46-.27,.89-.57,1.29-.65,.83-.67,1-.68,1.14,0,.07-.02,.14-.03,.22-.08,.34,.03,.54,.25,.92,.23,.4,.51,.89,.45,1.64-.04,.52-.22,.8-.43,1.13-.15,.24-.34,.54-.56,1.06-.24,.58-.3,.9-.36,1.25-.05,.27-.1,.55-.22,.92-.38,1.13-.96,1.67-1.64,2.29-.58,.54-1.24,1.15-2,2.33-.64,1-.95,1.49-.98,1.9-.08,.83,.32,1.38,.93,2.21,.48,.65,1.08,1.47,1.58,2.64,.83,1.98,1.03,4.2,.68,4.96-.12,.26-.3,.37-.42,.41-.07,.02-.14,.03-.2,.03Zm-3.58-3.77c.75,0,1.35,.12,2,.56,.66,.44,1.08,1.02,1.37,1.49-.03-.8-.24-2.03-.77-3.29-.45-1.07-.99-1.8-1.46-2.44-.67-.91-1.24-1.69-1.12-2.89,.06-.65,.42-1.21,1.12-2.31,.84-1.33,1.58-2.01,2.18-2.56,.62-.57,1.07-.99,1.37-1.87,.1-.31,.14-.55,.19-.78,.07-.37,.14-.79,.42-1.47,.25-.6,.48-.96,.64-1.21,.18-.28,.26-.4,.28-.67,.03-.44-.12-.71-.32-1.06-.23-.4-.53-.91-.36-1.65,0-.04,.01-.07,.02-.1,.04-.35,.12-.66,.88-1.64,.2-.26,.33-.54,.38-.84,.14-.86-.47-1.6-.69-1.88-.34-.43-.59-.51-.97-.62-.42-.13-.95-.29-1.58-.88-.62-.59-.89-1.21-1.15-1.81-.12-.27-.23-.54-.39-.83-.24-.43-.92-1.48-2.05-1.97-1.06-.46-2.09-.24-2.54-.15-.95,.2-1.79,.87-3.3,2.08l-.73,.58c-1.34,1.06-1.47,1.34-1.55,1.52-.27,.58-.26,1.1-.25,1.61,.01,.61,.02,1.23-.5,1.72-.6,.56-1.4,.47-2.52,.34-1.29-.14-2.11-.46-2.71-.69-.58-.22-.82-.31-1.07-.2-.72,.3-1.06,1.85-.97,3.11,.08,1.1,.49,1.62,1.11,2.41,.46,.59,1.04,1.33,1.6,2.51,.88,1.85,1.1,3.91,1.53,8.01,.23,2.22,.16,2.93,.06,3.48-.13,.72-.39,1.35-.59,1.85-.22,.53-.42,1.03-.28,1.21l-.4,.3,.4-.3s.16,.08,.61,.26c.94,.37,1.5,.6,2.17,.76,2.35,.57,5.63,.53,5.67,.53,1.22-.02,2.15-.1,2.9-.16,.53-.04,.99-.08,1.41-.08Z"/><path d="M186.31,267.69c-.41,0-.63-.42-.85-.82-.26-.49-.62-1.15-1.27-1.54-.67-.4-1.38-.34-2.2-.27h-.15c-2.76,.25-5.73,.17-7.93-.2-1.12-.19-2.66-.44-4.38-1.41-1.74-.97-2.82-2.21-3.78-3.29-.51-.58-.71-.86-1.18-1.55-.35-.51-.87-1.25-1.8-2.53-1.34-1.84-2.02-2.77-2.58-3.42-.61-.69-1.05-1.13-1.4-1.48-.54-.53-.93-.91-1.46-1.73-.34-.53-1.14-1.76-1.51-3.41h0c-.3-1.35-.15-3.15,.43-5.35,.98-3.72,1.48-5.59,3.17-6.82,1.49-1.07,3.55-1.13,7.67-1.23,.92-.02,1.52,0,2,0,.75,.02,1.13,.03,1.9-.14,1-.21,1.52-.48,2.9-1.18,.55-.28,1.22-.62,2.1-1.05,2.84-1.38,4.02-1.95,4.86-2.04,1.31-.14,2.05,.15,3.27,.63,.68,.26,1.53,.59,2.75,.95l.48,.14c3.08,.92,4.62,1.38,6.26,1.12,1.79-.28,2.91-1.16,3.89-1.93,1.06-.83,2.06-1.62,3.54-1.32,2.26,.46,3.42,3.02,4.04,4.4,.68,1.51,2.04,5.32,.11,8.3-1.73,2.66-5.09,3.26-5.75,3.35-.76,.11-1.45,.09-2.11,.07-1.09-.03-2.13-.06-3.59,.42-.75,.25-1.17,.48-1.71,.78-1.75,.98-2.07,1.78-2.17,2.04l-.05,.1c-.36,.51-.57,.95-.99,1.82-.48,.99-.68,1.52-.84,1.94-.13,.35-.24,.65-.46,1.07-.32,.62-.67,1.07-.82,1.26-.17,.22-.29,.36-.35,.42-1.75,2.01-1.94,2.25-2.03,2.4-.62,1.12-.29,2.44-.25,2.59,.12,.45,.27,.61,.56,.94,.25,.28,.59,.66,1.01,1.35,.37,.6,1.25,2.23,1.42,4.35,.14,1.8-.19,2.14-.58,2.23-.06,.01-.12,.02-.17,.02Zm-3.45-3.68c.6,0,1.23,.09,1.84,.46,.66,.4,1.08,.97,1.38,1.47,0-.13-.01-.27-.02-.43-.15-1.91-.94-3.37-1.27-3.91-.37-.61-.67-.94-.9-1.21-.32-.36-.6-.67-.78-1.34-.08-.31-.46-1.9,.34-3.34,.14-.25,.24-.39,2.14-2.57,.06-.07,.17-.19,.3-.36,.16-.2,.47-.6,.75-1.13,.19-.37,.29-.63,.41-.96,.17-.44,.37-.99,.87-2.02,.42-.87,.66-1.35,1.04-1.91,.39-.91,1.23-1.73,2.59-2.49,.56-.31,1.04-.58,1.89-.86,1.63-.53,2.8-.49,3.93-.46,.65,.02,1.27,.04,1.95-.06,.36-.05,3.52-.56,5.05-2.9,1.67-2.56,.43-5.98-.18-7.34-.55-1.22-1.57-3.48-3.33-3.83-1.04-.21-1.74,.35-2.72,1.13-1.03,.81-2.31,1.82-4.36,2.14-1.87,.29-3.58-.22-6.7-1.15l-.48-.14c-1.26-.37-2.12-.71-2.82-.98-1.16-.45-1.75-.67-2.81-.56-.69,.07-2.14,.78-4.52,1.94-.87,.43-1.54,.77-2.09,1.04-1.38,.71-2.01,1.03-3.15,1.27-.88,.19-1.35,.18-2.13,.16-.46-.01-1.05-.03-1.94,0-3.91,.1-5.87,.15-7.11,1.04-1.41,1.01-1.87,2.77-2.79,6.26-.54,2.05-.68,3.69-.42,4.88,.32,1.47,1.03,2.55,1.37,3.08,.47,.73,.81,1.06,1.32,1.56,.37,.36,.82,.81,1.45,1.53,.6,.68,1.28,1.62,2.64,3.49,.94,1.29,1.45,2.03,1.81,2.55,.46,.67,.64,.92,1.11,1.45,.95,1.08,1.94,2.19,3.52,3.08,1.57,.88,2.95,1.11,4.05,1.3,2.13,.36,5,.43,7.68,.2h.14c.31-.04,.63-.07,.96-.07Z"/><path d="M199.83,349.21c-.93,0-1.91-.23-2.22-.94-.33-.75,.18-1.37,1.87-3.39l.39-.47c-.64,.55-1.37,1.17-2.17,1.84-1.26,1.06-1.94,1.65-2.57,1.25-.42-.26-.49-.88-.37-1.59-.15,.15-.34,.23-.59,.19-.16-.02-.38-.11-.58-.4-.4-.59-.52-1.76-.29-2.74,.13-.53,.32-.87,1.8-2.8,.36-.47,.63-.82,.92-1.2l-.16,.18c-.72,.81-1.04,1.18-1.55,.97-.72-.31-.5-1.75-.19-2.9h0c.44-1.64,1.32-2.83,4.7-6.39,2.24-2.36,3.26-3.43,3.86-3.85,.57-.39,1.08-.69,1.53-.96,1.03-.6,1.53-.92,1.65-1.52,.09-.47-.21-1.19-.77-2.5-.27-.64-.45-.97-.65-1.34-.15-.28-.31-.57-.53-1.03-.53-1.11-.71-1.75-.87-2.32-.16-.55-.29-1.02-.71-1.86-.33-.64-.82-1.61-1.73-2.69-.31-.37-.59-.66-.85-.92-.59-.61-1.06-1.09-1.35-1.99-.21-.64-.2-1.11-.19-1.75v-.34c.02-1.75-.15-3-.47-5.27-.43-3.13-.55-3.86-.77-4.46-.25-.68-.5-1.18-.67-1.5-.19-.37-.41-.8,0-1.07l.19-.13,.25,.06c.61,.18,2.99,3.06,4.52,6.39,1.04,2.26,1.58,4.46,1.94,5.92,.37,1.5,.51,2.3,.62,2.88,.13,.71,.18,1,.47,1.65,.48,1.06,.94,1.58,1.7,2.44,.44,.5,.98,1.11,1.67,1.99,.81,1.03,2.17,2.76,3.35,5.03,.95,1.82,2.25,4.31,2.39,7.63,.1,2.38-.42,4.17-.98,6.07-.52,1.78-1.11,3.79-2.69,5.93-.53,.71-.79,.94-1.28,1.35-.45,.38-1.12,.95-2.47,2.31-.53,.54-.98,1.01-1.37,1.42-1.5,1.59-2.26,2.39-3.71,2.67-.32,.06-.7,.1-1.08,.1Zm3.23-8.55c.12,0,.2,.08,.31,.18,.42,.41,.37,.47-2.3,3.7l-.82,.98c-.97,1.16-1.8,2.16-1.72,2.35,.11,.25,1.1,.48,2.19,.26,1.14-.22,1.73-.85,3.18-2.38,.4-.42,.85-.89,1.38-1.44,1.38-1.4,2.07-1.98,2.54-2.37,.46-.38,.67-.56,1.12-1.18,1.48-2,2.04-3.92,2.53-5.62,.56-1.9,1.04-3.54,.94-5.75-.13-3.1-1.32-5.38-2.28-7.21-1.14-2.18-2.46-3.86-3.25-4.87-.67-.86-1.21-1.46-1.64-1.95-.8-.9-1.32-1.5-1.86-2.69-.34-.76-.42-1.16-.54-1.88-.1-.57-.24-1.36-.58-2.74-.37-1.5-.9-3.65-1.89-5.82-.7-1.53-1.53-2.86-2.25-3.87,.15,.65,.3,1.67,.63,4.01,.31,2.24,.5,3.59,.48,5.42v.34c-.01,.61-.02,.94,.14,1.42,.22,.68,.58,1.04,1.12,1.6,.27,.27,.56,.58,.89,.97,.99,1.18,1.53,2.25,1.86,2.88,.47,.93,.62,1.47,.79,2.04,.16,.55,.32,1.12,.81,2.16,.21,.43,.36,.72,.51,.98,.21,.38,.41,.74,.7,1.43,.65,1.54,.98,2.31,.83,3.08-.21,1.07-1.06,1.56-2.13,2.19-.44,.26-.93,.54-1.46,.92-.52,.36-1.65,1.55-3.71,3.72-3.43,3.61-4.09,4.61-4.46,5.96h0c-.14,.5-.21,.96-.25,1.31,.09-.1,.18-.2,.27-.3l.46-.52c.38-.42,.77-.82,1.17-1.22,.25-.26,.51-.52,.75-.78,2.67-2.82,2.89-3.04,3.36-2.65,.34,.28,.56,.47-1.73,3.4-.29,.37-.46,.57-.68,.84-.21,.25-.47,.57-.95,1.15-.64,.79-1,1.26-1.62,2.06-1.45,1.89-1.55,2.12-1.62,2.43-.14,.59-.09,1.19,0,1.57,0-.02,.02-.04,.03-.06,.2-.44,.48-1.05,.97-1.74,.81-1.13,1.65-1.71,2.38-2.21,.78-.53,1.39-.95,1.77-1.92,.04-.1,.08-.21,.12-.32,.24-.66,.45-1.24,.99-1.16,.63,.09,.64,1.04,.63,1.32-.05,1.05-.81,1.71-1.78,2.55l-.37,.33c-1.35,1.19-2.03,1.79-2.47,2.5-.62,1-.85,2.05-.84,2.49,.31-.18,.88-.66,1.36-1.06,.95-.8,1.79-1.52,2.51-2.14,2.49-2.12,3.16-2.69,3.49-2.69Z"/><path d="M191.98,288.26h-.02c-3.1-.02-5.09-3.84-5.46-4.6-.5-1.04-.75-2.05-.94-5.3-.33-5.6-.5-8.42,.31-11.31l.48,.13-.48-.13c.44-1.56,.9-2.47,1.28-3.2,.46-.91,.77-1.51,.78-2.84,0-.88-.12-1.46-.28-2.21-.18-.82-.39-1.84-.48-3.57-.08-1.55-.15-2.88,.22-4.57,.34-1.58,.81-3.75,2.72-5.46,.7-.62,3.21-2.61,6.28-1.88,2.38,.56,3.65,2.41,4.06,3.01,.96,1.39,1.13,2.54,1.6,7.81,.36,4.04,.54,6.06,.51,6.88-.09,2.17-.38,3.24-.67,4.29-.26,.94-.51,1.83-.59,3.54-.11,2.31,.19,3.62,.45,4.78,.29,1.26,.54,2.36,.04,4.17-.81,2.91-2.73,4.83-4.42,6.53-.4,.4-.75,.76-1.08,1.1-1.71,1.77-2.75,2.83-4.31,2.83Zm3.06-44.09c-2.08,0-3.75,1.32-4.26,1.78-1.67,1.49-2.08,3.39-2.41,4.92-.34,1.56-.28,2.77-.2,4.31,.08,1.65,.28,2.59,.46,3.41,.17,.77,.31,1.44,.3,2.42-.02,1.58-.4,2.33-.89,3.29-.37,.73-.79,1.55-1.2,3.02-.77,2.74-.6,5.49-.28,10.99,.18,3.08,.41,4.01,.85,4.92,.2,.41,2.01,4.02,4.56,4.03h.01c1.14,0,2.01-.9,3.59-2.53,.33-.34,.69-.71,1.08-1.11,1.61-1.61,3.42-3.44,4.16-6.09,.44-1.57,.23-2.45-.05-3.67-.27-1.16-.6-2.6-.48-5.05,.09-1.82,.36-2.8,.62-3.76,.27-.99,.55-2.01,.64-4.06,.03-.75-.16-2.88-.5-6.75-.47-5.3-.65-6.19-1.43-7.33-.36-.53-1.47-2.13-3.47-2.61-.38-.09-.76-.13-1.12-.13Z"/><path d="M231.74,366.36c-2.38,0-7.01-8.74-9.08-13.69-1.41-3.38-1.93-5.53-2.43-7.6-.58-2.4-1.13-4.67-3-8.71-.89-1.93-1.43-2.85-2.06-3.91-.74-1.26-1.58-2.69-3.24-6.09-.76-1.56-1.33-2.81-1.81-3.84-1.31-2.84-1.79-3.9-3.18-5.14l-.14-.12c-.66-.58-2.03-1.79-3.03-3.82-.71-1.42-.93-2.62-1.03-3.14-.73-3.91-3.18-9.51-5.04-12.48-2.13-3.42-4.87-5.69-6.68-7.2-1.62-1.35-2.51-2.09-2.04-2.9,.28-.48,.8-.43,1.25-.39,.39,.03,.92,.08,1.62-.06,2.32-.44,3.84-2.3,5.77-4.65,1.04-1.26,2.43-3.22,2.44-3.24l.38-.54,.42,.51s2.68,3.29,5.28,6.05h0c1.12,1.19,1.76,1.79,2.44,2.42,.46,.43,.94,.88,1.58,1.53,4.12,4.16,6.77,8.26,10.12,13.46,.67,1.03,.87,1.38,1.22,1.96,.37,.62,.89,1.5,2.29,3.75,2.04,3.27,3.47,5.49,4.52,7.11,1.97,3.05,2.57,3.97,3.16,5.71,.4,1.16,.63,2.38,.45,12.46-.11,6.09-.26,9.36-.37,11.75-.13,2.71-.19,4.07-.05,6.87,.19,4,.6,7,.89,9.19,.41,3.07,.59,4.34-.37,4.7-.1,.04-.2,.05-.3,.05Zm-41.83-78.06c.22,.27,1.04,.94,1.76,1.54,1.86,1.55,4.67,3.88,6.89,7.44,1.94,3.12,4.4,8.75,5.16,12.77,.1,.53,.31,1.64,.95,2.93,.92,1.85,2.14,2.93,2.8,3.51l.14,.13c1.54,1.38,2.09,2.58,3.42,5.47,.47,1.02,1.04,2.27,1.8,3.82,1.64,3.37,2.47,4.78,3.2,6.02,.64,1.09,1.19,2.02,2.11,4,1.91,4.13,2.47,6.44,3.07,8.9,.5,2.04,1.01,4.15,2.39,7.45,2.99,7.18,7.06,13.09,8.09,13.09,0,0,.02,0,.03,0,.17-.25-.05-1.89-.28-3.63-.3-2.21-.71-5.24-.9-9.28-.14-2.85-.07-4.23,.05-6.97,.11-2.38,.26-5.65,.37-11.72,.19-10.42-.08-11.21-.4-12.12-.56-1.62-1.09-2.44-3.06-5.49-1.05-1.62-2.48-3.84-4.53-7.12-1.41-2.26-1.94-3.15-2.3-3.76-.34-.57-.54-.91-1.2-1.93-3.32-5.15-5.95-9.21-9.99-13.3-.64-.64-1.1-1.08-1.56-1.5-.69-.64-1.33-1.25-2.48-2.47h0c-2.01-2.14-4.06-4.57-4.91-5.6-.49,.68-1.38,1.88-2.11,2.77-1.98,2.41-3.69,4.49-6.36,5-.84,.16-1.47,.11-1.89,.07-.08,0-.18-.01-.25-.02Z"/><path d="M247.07,490.98c-1.11,0-2.09-.3-2.71-.86-.62-.56-.72-1.25-.81-1.81-.09-.57-.16-.91-.52-1.17-.94-.68-2.97-.19-3.94,.14v2.63l-.97-2.81c-.14-.4-1.35-3.89-2.14-6.93-.49-1.89-.64-2.88-.77-3.76-.1-.68-.18-1.26-.42-2.15-.68-2.61-1.58-3.85-2.95-5.73-.95-1.31-2.14-2.94-3.55-5.5-1.51-2.75-2.85-5.75-4.08-9.16-.62-1.7-1.01-2.96-1.38-4.17-.57-1.84-1.12-3.59-2.37-6.56-1.02-2.41-1.8-3.97-2.43-5.22-.79-1.57-1.36-2.71-1.89-4.52-1.23-4.2-.85-7.25-.34-11.47,.1-.85,.21-1.75,.32-2.71,.27-2.51,.24-3.15,.16-5.28-.1-2.41-.27-6.88-.16-18.34,.15-14.95,.54-18.16,1.08-21.06,1-5.37,2.64-10.65,4.87-15.7,.94-2.44,1.77-3.49,2.66-3.41,.71,.06,.98,.7,1.46,1.86,.26,.63,.62,1.49,1.16,2.58,.69,1.38,1.72,3.2,2.72,4.08,.49,.43,.8,.6,1.11,.77,.33,.18,.65,.35,1.05,.78,1.66,1.77,1.51,4.38,1.45,5.49-.14,2.64,.13,5.26,.39,7.79,.18,1.77,.38,3.6,.43,5.42,.09,3.33,.26,4.78,.42,6.19,.15,1.38,.31,2.8,.4,5.94,.05,1.8,.05,2.77-.27,12.84-.1,3.17-.13,6.39-.17,9.51-.03,2.4-.05,4.8-.11,7.21v.13c-.09,3.67-.15,6.58,1.07,10.11,.58,1.67,1.13,2.46,1.83,3.47,.66,.96,1.49,2.15,2.54,4.43,1.59,3.45,3.39,7.35,4.15,12.47,.36,2.38,.28,3.59,.18,4.98-.09,1.36-.19,2.91,.09,6.02,.4,4.31,.68,7.42,2.16,11.1,1.08,2.7,2.36,4.58,3.3,5.95,1.17,1.73,2.02,2.98,1.35,4.33-.49,.97-1.67,1.71-3.17,1.99-.41,.08-.81,.11-1.2,.11Zm-5.43-5.19c.72,0,1.43,.14,1.98,.53,.72,.52,.83,1.25,.92,1.83,.08,.5,.14,.9,.49,1.22,.6,.54,1.8,.74,3.06,.51,1.18-.22,2.12-.78,2.46-1.46,.4-.79-.11-1.59-1.28-3.31-.96-1.41-2.28-3.35-3.4-6.15-1.53-3.82-1.82-6.99-2.23-11.38-.29-3.19-.19-4.78-.1-6.18,.09-1.33,.17-2.49-.17-4.76-.74-4.98-2.43-8.65-4.07-12.2-1.02-2.21-1.78-3.31-2.46-4.29-.71-1.03-1.33-1.92-1.95-3.71-1.28-3.7-1.21-6.68-1.13-10.46v-.13c.06-2.4,.08-4.79,.11-7.19,.03-3.12,.07-6.35,.17-9.53,.32-10.04,.32-11,.27-12.78-.08-3.1-.24-4.44-.4-5.86-.16-1.43-.33-2.9-.42-6.27-.05-1.78-.24-3.59-.42-5.34-.27-2.57-.54-5.22-.4-7.86,.06-1.16,.19-3.38-1.18-4.84-.29-.31-.51-.43-.8-.59-.32-.17-.71-.39-1.28-.89-.91-.79-1.9-2.27-2.96-4.38-.56-1.12-.93-2-1.19-2.64-.24-.58-.49-1.18-.62-1.25,0,0-.58-.01-1.65,2.79v.02c-2.21,4.98-3.83,10.19-4.82,15.49-.51,2.76-.92,6.05-1.07,20.89-.11,11.43,.06,15.89,.16,18.29,.08,2.13,.11,2.85-.16,5.43-.1,.97-.21,1.87-.32,2.72-.5,4.1-.87,7.06,.3,11.07,.5,1.72,1.06,2.82,1.83,4.35,.63,1.26,1.42,2.83,2.46,5.28,1.27,3.02,1.82,4.78,2.41,6.65,.37,1.2,.76,2.45,1.37,4.13,1.21,3.37,2.53,6.31,4.02,9.02,1.38,2.51,2.55,4.11,3.48,5.39,1.38,1.9,2.38,3.28,3.11,6.07,.25,.94,.34,1.58,.44,2.26,.12,.85,.27,1.81,.74,3.65,.65,2.48,1.57,5.26,1.95,6.38,.62-.2,1.69-.5,2.74-.5Z"/><path d="M247.32,452.41c-2.51,0-6.05-5.06-9.54-10.58,0,0-.42-.67-1-1.68-.01-.02-1.05-1.86-1.87-3.66-1.96-4.3-1.15-11.51-1.11-11.82,.4-3.4,.33-6.91,.27-10.3-.04-2.4-.09-4.88,.03-7.32,.59-12.3-.08-22.5-1.42-35.97-.3-2.98-.57-5.21-.79-7-.43-3.52-.71-5.84-.73-10.06-.01-2.49,.08-4.26,.29-8.53,.15-2.96,.36-7.15,.64-13.65,.35-7.93,.38-9.91-.73-12.74-.7-1.79-1.5-3.01-2.28-4.19-1.08-1.65-2.11-3.2-2.58-5.96h0c-.34-1.96-.63-5.83,1.21-9.63,1.2-2.47,2.38-3.42,4.34-4.98,1.11-.89,2.49-1.99,4.32-3.71,2.19-2.07,3.53-3.99,4.5-5.38,1.06-1.52,1.69-2.44,2.61-2.11,.83,.3,.87,1.27,.93,2.88,.05,1.28,.12,3.03,.56,5.27,.68,3.46,1.27,6.44,3.23,7.42,.6,.3,.97,.27,2.64,.05,1.02-.13,2.56-.32,4.87-.49,2.93-.21,3.98-.27,4.56,.07,1.79,1.05,2.52,4.16,.63,16.44-.57,3.67-1.06,6.16-1.46,8.16-.62,3.13-.97,4.86-.86,7.68,.09,2.51,.91,5.18,2.39,10.03l.69,2.28c.95,3.13,1.67,5.16,2.19,6.64,.84,2.37,1.22,3.46,1.33,5.53,.21,4.18-1.01,7.06-3.03,11.84l-.51,1.2c-1.26,3-2.38,6.12-3.47,9.14-1.32,3.67-2.68,7.46-4.31,11.07-6.27,13.95-5.22,33.05-4.46,47,.56,10.24,.9,16.43-1.72,17.01-.12,.03-.25,.04-.38,.04Zm-19.83-143.61c.44,2.55,1.37,3.95,2.44,5.58,.77,1.17,1.64,2.49,2.38,4.37,1.18,3.02,1.15,5.05,.79,13.15-.28,6.51-.49,10.69-.64,13.66-.22,4.38-.3,6.01-.29,8.48,.02,4.16,.28,6.34,.72,9.94,.22,1.79,.49,4.03,.79,7.02,1.35,13.51,2.01,23.76,1.42,36.11-.11,2.41-.07,4.87-.02,7.25,.06,3.42,.13,6.96-.28,10.43,0,.07-.82,7.24,1.03,11.29,.8,1.76,1.82,3.56,1.83,3.58,.56,.97,.97,1.63,.97,1.63,4.43,7.02,7.39,10.44,8.85,10.1,1.79-.4,1.38-7.97,.94-15.98-.77-14.05-1.83-33.29,4.54-47.46,1.61-3.58,2.97-7.35,4.28-11,1.09-3.03,2.22-6.17,3.49-9.19l.51-1.2c2.03-4.8,3.15-7.45,2.95-11.4-.1-1.92-.44-2.9-1.27-5.24-.53-1.49-1.25-3.53-2.2-6.68l-.69-2.28c-1.51-4.93-2.34-7.65-2.44-10.29-.11-2.94,.24-4.7,.88-7.91,.4-1.99,.89-4.47,1.45-8.11,1.92-12.47,.93-14.79-.15-15.42-.34-.2-1.95-.08-3.99,.07-2.29,.17-3.75,.35-4.82,.49-1.69,.21-2.32,.29-3.21-.15-2.4-1.2-3.03-4.41-3.76-8.12-.46-2.32-.53-4.11-.58-5.42-.03-.85-.07-1.91-.27-1.98-.25,0-.92,.96-1.45,1.74-.94,1.35-2.37,3.4-4.64,5.54-1.86,1.75-3.26,2.87-4.38,3.77-1.97,1.58-2.96,2.37-4.06,4.63-1.72,3.55-1.44,7.18-1.12,9.02h0Z"/><path d="M236.43,514.3c-.56,0-1.19,0-1.89-.01-.36,0-1.46-.02-3.72-.16-5.25-.32-6.38-.41-6.72-1.03-.62-1.1,.67-2.18,2.62-3.81,2.48-2.07,6.22-5.21,8.04-10.03,.03-.08,.59-1.45,3.35-12.47l.08-.32,.33-.05s.92-.15,1.47-.23c1.65-.23,2.57-.36,3.26,.11,.46,.31,.69,.73,.85,1.01,.24,.42,.3,.78,.35,1.07,.05,.26,.08,.44,.23,.63,.29,.38,.66,.56,.8,.63,1.31,.65,3.36,.21,4.48-.98,.34-.36,.52-.7,.67-.97,.19-.36,.4-.76,.91-.76,.37,0,1.23,0,1.97,4.49l.02,.11c.11,.7,.3,1.74,.52,2.99,.54,3.04,1.28,7.21,1.82,11.18,.64,4.63,.58,5.74-.32,6.58-.71,.67-1.85,1.01-3.05,.89-1.02-.09-1.86-.5-2.31-1.12-.46-.63-.36-1.26-.24-1.99,.09-.54,.19-1.2,.15-2.13-.08-1.74-.57-3.7-1.17-3.85-.69-.18-2.47,2.32-4.55,5.2-.64,.89-1.11,1.58-1.48,2.12-.97,1.42-1.3,1.9-2.25,2.35-.92,.44-2.12,.53-4.18,.53Zm-11.48-1.73c.5,.23,2.91,.38,5.93,.57,2.24,.14,3.32,.15,3.67,.15,3.11,.03,4.67,.05,5.63-.41,.71-.34,.93-.66,1.86-2.02,.37-.54,.85-1.24,1.5-2.14,2.94-4.07,4.27-5.92,5.61-5.58,1.62,.42,1.88,4.05,1.91,4.77,.05,1.03-.07,1.79-.16,2.34-.11,.67-.14,.96,.06,1.24,.28,.38,.87,.64,1.6,.71,.91,.08,1.77-.16,2.28-.63,.53-.5,.61-1.39,.01-5.72-.54-3.95-1.28-8.11-1.82-11.14-.22-1.26-.41-2.3-.52-3.01-.34-2.08-.73-3.21-.97-3.62-.02,.03-.03,.06-.05,.09-.15,.29-.39,.73-.83,1.19-1.42,1.5-3.96,2.03-5.65,1.18-.3-.15-.76-.41-1.15-.92-.29-.38-.36-.74-.42-1.06-.05-.25-.09-.48-.25-.77-.13-.23-.27-.49-.53-.67-.36-.25-1.13-.15-2.56,.05-.34,.05-.81,.12-1.12,.17-2.77,11.04-3.29,12.24-3.31,12.29-1.9,5.03-5.76,8.27-8.32,10.41-1.17,.98-2.48,2.08-2.4,2.5Zm-.05-.03h0Z"/><path d="M248.99,299.94c-.25,0-.42-.03-.63-.1-2.08-.65-2.97-2.95-3.13-3.41h0c-.43-1.24-.33-2.32-.18-3.5,.38-2.87,.57-4.32,1.34-6.37,1.03-2.74,1.08-6.44,1.15-11.12,.07-4.56,.15-10.23,1.17-16.97,.58-3.79,1.23-6.46,1.75-8.61,.91-3.73,1.41-5.79,.48-9.38-.13-.51-.18-.61-.74-1.81-.57-1.23-1.64-3.53-3.82-8.46l-.23-.52c-1.47-3.33-3.13-7.1-5.66-11.71-2.77-5.04-4.16-6.71-6.24-7.46-2.18-.79-4.47-.4-5.22-.27-1.23,.21-2.17,.68-3.07,1.13-1.22,.61-2.47,1.26-4.3,1.09-.74-.06-2.46-.31-2.54-1.23-.05-.58,.46-.83,1.39-1.3,.41-.21,.94-.47,1.58-.84,.84-.47,1.89-1.12,2.14-1.52,.36-.6,.62-1.64,.13-2.62-.46-.93-1.45-1.56-2.32-1.5-.94,.08-1.62,1.02-2.03,1.58-.28,.39-.61,.84-1.07,.57-.31-.18-.31-.57-.31-.7,.02-.87,.79-3.65,3.13-4.91,.56-.3,1.37-.55,5.14-.35,3.31,.17,4.96,.26,6.49,.76,1.07,.35,2.79,1.07,5.34,3.2,3.46,2.89,5.46,5.91,6.78,7.91l.12,.19c2.22,3.35,3.7,5.37,5.13,7.32,2,2.72,3.89,5.3,7.59,11.17,1.94,3.08,3.06,4.95,3.47,7.73,.3,1.99,.07,3.29-.27,5.25-.19,1.07-.42,2.41-.62,4.2-.19,1.7-.19,2.44-.22,4.64-.01,1.17-.03,2.74-.08,5.07-.02,.96-.03,1.16-.12,3.59l-.33,9.28c-.11,3.08-.55,6.24-.99,9.29-.84,5.94-1.71,12.08-.07,17.76,.2,.69,.16,1.24-.13,1.66-.46,.65-1.25,.63-2.27,.61-.2,0-.42,0-.66-.01-.12,0-1.99,.2-5.08,.51l-.6,.06c-.73,.07-1.13,.12-1.42,.12Zm-2.82-3.83c.13,.38,.86,2.28,2.48,2.78,.26,.08,.35,.08,1.66-.06l.6-.06c4.56-.46,5.1-.51,5.18-.51,.24,0,.47,0,.68,.01,.71,.02,1.27,.03,1.42-.18,.11-.15,.1-.41,0-.78-1.71-5.91-.82-12.16,.03-18.2,.43-3.03,.87-6.16,.98-9.18l.33-9.28c.09-2.43,.09-2.62,.11-3.58,.05-2.33,.06-3.9,.08-5.06,.02-2.18,.03-2.99,.22-4.74,.2-1.82,.44-3.17,.63-4.26,.34-1.93,.54-3.1,.26-4.93-.39-2.59-1.41-4.3-3.33-7.35-3.69-5.85-5.56-8.41-7.55-11.12-1.44-1.96-2.92-3.98-5.16-7.36l-.12-.19c-1.29-1.95-3.23-4.89-6.58-7.69-2.42-2.02-4.02-2.69-5.01-3.01-1.4-.46-3.01-.55-6.22-.71-3.81-.2-4.34,.08-4.63,.24-1.13,.61-1.82,1.66-2.2,2.55,.48-.48,1.12-.91,1.92-.98,1.25-.12,2.65,.76,3.3,2.05,.67,1.35,.33,2.77-.17,3.59-.13,.21-.43,.71-2.5,1.87-.66,.37-1.2,.65-1.62,.86-.24,.12-.48,.24-.65,.34,.29,.12,.81,.25,1.44,.31,1.54,.14,2.57-.38,3.76-.99,.93-.47,1.97-.99,3.36-1.23,2.19-.37,4.11-.26,5.72,.32,2.35,.85,3.87,2.62,6.78,7.92,2.55,4.65,4.22,8.44,5.7,11.79l.23,.52c2.18,4.92,3.24,7.21,3.81,8.44,.57,1.22,.64,1.38,.8,1.98,.99,3.84,.44,6.11-.48,9.87-.52,2.13-1.16,4.78-1.73,8.52-1.01,6.67-1.1,12.3-1.16,16.83-.07,4.78-.12,8.56-1.21,11.46-.73,1.95-.92,3.35-1.28,6.15-.14,1.09-.23,2,.13,3.04h0Z"/><path d="M236.82,266.41c-.59,0-1.04-.13-1.29-.52h0c-.36-.54-.08-1.14,.31-1.96,.28-.59,.66-1.4,1-2.52,.2-.65,.31-1.11,.41-1.65,.13-.72,.18-1.38,.23-2.13,.05-.72,.11-1.54,.25-2.64,.24-1.86,.48-2.65,.81-3.74,.29-.97,.65-2.17,1.17-4.62,.11-.51,.55-3.59,1.36-9.19,.43-2.97,.6-4.33,.18-5.51-1.02-2.87-3.8-4.24-3.83-4.25-1.45-.7-2.82-.73-3.92-.76-1.19-.03-2.21-.05-2.67-.99-.47-.96,.03-2.45,.98-2.93,.55-.28,1.03-.12,1.7,.09,.44,.14,.99,.32,1.79,.47,.62,.12,1.46,.28,1.64,.17,.02-.13-.27-.82-.92-1.64-.9-1.13-1.97-1.72-2.76-2.14-.79-.43-1.46-.79-1.43-1.52,.04-.83,.97-1.22,1.96-1.64,1.78-.76,3.48-.86,5.05-.32,1.74,.6,2.67,1.78,3.42,2.72,.92,1.16,1.31,2.13,1.9,3.6l.36,.89c.45,1.11,.91,2.09,1.55,3.45,.27,.57,.57,1.21,.92,1.97,.58,1.26,.98,2.09,1.26,2.68,.54,1.13,.66,1.39,.83,2.03,.49,1.87,.37,3.18,.19,5.16-.03,.36-.07,.75-.1,1.16-.13,1.63-.32,5.46-.15,9.47,.04,1.06,.15,4.7-.2,8.11-.03,.28-.07,.62-.16,1.05-.2,.97-.9,3.43-2.99,5.23-1.43,1.24-3.34,1.57-7.13,2.22-.65,.11-1.23,.2-1.7,.2Zm-.46-1.07c.04,.06,.33,.17,1.99-.11,3.61-.62,5.42-.93,6.65-1.99,1.86-1.61,2.48-3.81,2.67-4.68,.08-.4,.12-.7,.14-.95,.34-3.35,.23-6.93,.19-7.95-.21-5.01,.11-9.15,.15-9.61,.03-.42,.07-.81,.1-1.17,.18-1.94,.29-3.12-.16-4.81-.14-.54-.24-.75-.77-1.85-.28-.59-.68-1.43-1.26-2.69-.35-.75-.65-1.39-.91-1.96-.64-1.37-1.11-2.36-1.57-3.5l-.36-.89c-.57-1.44-.92-2.31-1.75-3.35-.71-.89-1.51-1.89-2.97-2.4-2-.7-3.75,.05-4.33,.29-.41,.17-1.35,.57-1.36,.77,.05,.13,.54,.4,.91,.59,.86,.47,2.05,1.11,3.07,2.4,.72,.91,1.46,2.14,.92,2.88-.44,.6-1.35,.43-2.61,.2-.86-.16-1.47-.36-1.91-.5-.61-.19-.78-.23-.94-.15-.42,.22-.78,1.1-.53,1.6,.18,.37,.77,.4,1.79,.42,1.13,.03,2.68,.06,4.33,.86,.13,.06,3.18,1.57,4.34,4.82,.52,1.47,.29,3.07-.13,5.99-.86,5.99-1.25,8.72-1.37,9.26-.52,2.49-.89,3.71-1.19,4.7-.33,1.08-.54,1.8-.77,3.58-.14,1.07-.2,1.87-.25,2.58-.06,.79-.1,1.47-.24,2.24-.1,.58-.23,1.07-.44,1.76-.36,1.19-.76,2.03-1.05,2.65-.18,.38-.4,.86-.38,.98Z"/><path d="M245.77,297.67l-.83-2.94c-.18-.64-1.09-3.87-1.15-4.42-.04-.42-.08-.84-.12-1.36-.05-.72-.12-1.62-.25-2.9-.05-.53-.16-1.56-.28-1.91-.39,.23-1.2,1.36-1.75,2.13-.39,.55-.7,1.02-.94,1.41-.59,.92-.91,1.43-1.48,1.26-.47-.14-.51-.45-.71-2.2h0c-.11-.9-.16-1.35-.17-1.52-.11-1.41-.58-3.98-1.28-6.16-.79-2.46-1.3-4.07-2.16-4.22-.72-.12-1.68,.71-2.08,1.18-.29,.33-.39,.57-.61,1.06-.17,.38-.39,.9-.81,1.67-.85,1.57-1.17,2.15-1.78,1.99-.12-.03-.29-.12-.41-.34-.36-.65-.18-2.39,.2-3.64,.35-1.18,.87-2,1.25-2.57-.52,.25-1.25,.72-1.87,1.43-.72,.83-1,1.65-1.18,2.19-.16,.48-.33,.97-.85,.93-.42-.03-.65-.47-.72-.62-.48-.94-1.06-3.77,.33-6.04,.52-.85,1.08-1.22,2.02-1.84,.54-.36,1.22-.81,2.13-1.51,.65-.5,1.06-.98,1.43-1.41,.52-.61,1.01-1.18,1.94-1.49,.37-.12,.56-.13,.95-.15,.3-.02,.75-.04,1.56-.14,1.4-.16,2.44-.35,3.44-.53,2.18-.4,3.49-.64,4.05-.9,3-1.42,4.71-5.26,4.72-5.3l.96-2.19v2.39c-.03,.32-.58,6.88-.73,13.75-.05,2.43-.03,3.89,0,4.96,.01,.94,.02,1.56-.03,2.24,0,.05-.02,.19-.05,.4-.04,.28-.09,.68-.15,1.17-.13,1.09-.21,1.9-.25,2.27l-.02,.15c-.12,1.15-.37,1.88-.67,2.72-.25,.7-.52,1.49-.79,2.71-.55,2.53-.69,5.22-.69,5.25l-.15,3.05Zm-2.57-14.56c.09,0,.17,.01,.26,.04,.65,.19,.75,.87,.95,2.81,.14,1.29,.2,2.2,.26,2.93,.04,.5,.07,.92,.11,1.33,.02,.17,.18,.83,.39,1.63,.11-.82,.25-1.75,.46-2.68,.28-1.29,.57-2.11,.83-2.83,.29-.81,.51-1.46,.62-2.49v-.15c.05-.37,.13-1.19,.27-2.3,.06-.49,.12-.9,.16-1.18,.02-.18,.04-.3,.05-.34,.05-.63,.04-1.23,.02-2.15-.02-1.07-.04-2.55,0-5,.09-4.55,.37-8.96,.55-11.52-.87,1.31-2.24,2.92-4.08,3.79-.65,.31-1.78,.52-4.28,.98-1.03,.19-2.08,.38-3.52,.54-.84,.09-1.31,.12-1.62,.14-.36,.02-.45,.03-.7,.11-.67,.22-1,.6-1.49,1.18-.38,.44-.84,.99-1.58,1.55-.93,.72-1.63,1.18-2.19,1.55-.87,.58-1.31,.87-1.72,1.53-.97,1.59-.78,3.62-.48,4.63,.21-.59,.55-1.43,1.28-2.27,1.06-1.22,2.51-1.98,3.24-1.98,.3-.01,.5,.12,.59,.23,.37,.41,.07,.86-.29,1.39-.35,.52-.88,1.31-1.22,2.44-.25,.83-.34,1.6-.35,2.14,.16-.27,.33-.6,.5-.9,.4-.74,.61-1.22,.78-1.6,.22-.5,.38-.87,.77-1.32,.25-.29,1.61-1.75,3.01-1.5,1.45,.25,2.01,1.99,2.93,4.87,.76,2.38,1.23,4.99,1.34,6.42,.01,.17,.07,.61,.17,1.48h0c.03,.26,.07,.6,.11,.9,.08-.12,.17-.26,.25-.39,.25-.4,.57-.89,.97-1.45,1.09-1.53,1.85-2.58,2.63-2.58Z"/><path d="M265.6,293.74c-.61,0-1.23-.21-1.64-.62-.57-.56-.53-1.28-.51-1.85,.03-.53,.03-.87-.21-1.12-.18-.19-.39-.21-.79-.24-.47-.03-1.05-.07-1.65-.54-.51-.4-.65-.83-.84-1.42-.09-.27-.2-.61-.37-1.03-.42-1.03-.79-1.53-1.1-1.97-.31-.43-.6-.83-.79-1.54-.35-1.29-.04-2.3,.32-3.47,.06-.2,.13-.41,.19-.63,.66-2.26,.74-3.98,.89-7.4,.04-.88,.04-1.7,.05-2.55,0-1.75,.01-3.55,.31-6.25,.15-1.34,.37-2.66,1.3-2.91h0c.85-.22,1.62,.66,2.54,1.83,1.95,2.5,3.02,3.88,3.87,6.3,.87,2.51,.98,4.67,.97,5.73-.03,3.19-.7,5.49-.73,5.58-.11,.36-.22,.69-.32,.99-.34,1.02-.55,1.63-.28,2.37,.02,.05,.45,1.2,1.33,1.47,.35,.1,.69,.05,1.02,0,.42-.07,.95-.16,1.34,.26,.31,.34,.27,.75,.25,1.02-.02,.16-.02,.27,0,.3,.12,.14,.92,.03,1.56-.06,.89-.13,1.77-.36,2.61-.68,.72-.28,1.04-.4,1.45-.66,.53-.34,.78-.65,1.04-.97,.25-.31,.54-.67,1.08-1.04,.85-.59,1.99-.97,2.53-.85,.24,.05,.37,.19,.43,.3,.26,.44-.08,.78-.57,1.25-.38,.38-.96,.95-1.59,1.79-.51,.69-.75,1-.87,1.39-.21,.69-.08,1.23,.04,1.71,.12,.49,.26,1.04-.12,1.53-.76,1-2.67,.53-4.07,.18-.9-.22-1.65-.51-2.19-.72-.16-.06-.34-.13-.49-.18,0,0,0,.02,.01,.02,.24,.44,.57,1.05,.26,1.59-.38,.66-1.25,.56-2.18,.46-.79-.09-1.68-.19-2.02,.21-.13,.15-.14,.33-.15,.63-.01,.38-.02,.9-.49,1.32-.36,.32-.88,.48-1.41,.48Zm-4.58-32.58s-.02,0-.02,0h0c-.13,.03-.37,.35-.56,2.05-.29,2.64-.3,4.42-.3,6.15,0,.86,0,1.7-.05,2.59-.15,3.5-.23,5.26-.92,7.64-.07,.23-.13,.44-.2,.65-.34,1.1-.59,1.9-.31,2.92,.14,.53,.34,.8,.64,1.21,.33,.46,.75,1.04,1.22,2.18,.19,.45,.3,.81,.4,1.1,.19,.57,.25,.74,.51,.95,.36,.28,.7,.3,1.09,.33,.44,.03,.99,.06,1.45,.54,.55,.57,.52,1.28,.49,1.85-.03,.52-.03,.86,.21,1.1,.42,.42,1.33,.41,1.68,.1,.13-.12,.15-.25,.16-.6,0-.35,.02-.82,.38-1.25,.68-.8,1.9-.66,2.89-.55,.4,.04,1.07,.12,1.22,.02,0-.08-.19-.42-.29-.59-.23-.42-.51-.93-.16-1.36,.39-.47,.98-.24,1.87,.1,.55,.21,1.23,.47,2.07,.68,.8,.2,2.67,.66,3.04,.18,.08-.1,.04-.28-.06-.68-.14-.54-.32-1.29-.02-2.25,.17-.55,.47-.96,1.02-1.69,.46-.61,.88-1.08,1.24-1.45-.22,.1-.45,.23-.67,.38-.42,.29-.63,.55-.87,.85-.29,.35-.61,.75-1.27,1.18-.49,.32-.9,.47-1.63,.76-.91,.35-1.86,.6-2.83,.74-1.2,.17-1.99,.28-2.47-.3-.3-.36-.26-.77-.23-1.04,0-.08,.02-.21,0-.25-.05-.01-.28,.03-.44,.05-.38,.06-.89,.15-1.47-.03-1.31-.39-1.88-1.81-1.98-2.08-.39-1.07-.1-1.93,.28-3.03,.1-.29,.2-.6,.31-.95,0-.02,.66-2.26,.69-5.31,0-1-.1-3.03-.92-5.4-.79-2.27-1.83-3.6-3.71-6.01-.99-1.27-1.35-1.49-1.47-1.49Z"/><path d="M253.96,434c-.12,0-.24-.02-.36-.06-1.64-.5-1.5-3.87-1.25-9.46,.04-.82,.07-1.68,.1-2.56,.16-4.4,.11-8.53,.05-12.89-.03-2.65-.07-5.39-.05-8.23,.01-2.27-.03-3.98-.06-5.35-.07-3.08-.1-4.62,.54-7.42,.68-2.96,1.54-4.82,2.85-7.63,.3-.66,.63-1.37,.99-2.16,1.1-2.43,2.77-6.87,6.11-15.72,3.7-9.81,4.97-14.56,5.91-18.03,.92-3.44,1.54-5.71,3.89-10.44,1.15-2.32,2.14-4.06,3.01-5.6,1.89-3.34,3.03-5.35,3.43-9.12,.21-1.98,.12-3.61,.05-5.04-.13-2.47-.25-4.61,1.21-7.39,.46-.88,.77-1.24,1.54-2.12,.8-.92,2.14-2.47,4.76-5.88,2.65-3.45,3.63-4.76,3.81-4.99l.86-1.16c1.9-2.56,2.94-3.98,4.79-5.46,.3-.24,.57-.47,.82-.67,.99-.83,1.7-1.43,2.79-1.59,1.75-.26,3.94,.39,4.39,1.78,.35,1.08-.38,1.87-2.34,3.98-.52,.56-1.14,1.23-1.85,2.03-2.65,2.96-3.85,4.34-4.47,5.86-1.1,2.67-1.21,6.04-.23,6.57,.51,.27,1.5-.48,2.88-1.53,.77-.58,1.73-1.31,2.86-2.05,2.01-1.31,3.02-1.66,5.03-2.34,1.54-.52,3.66-1.24,7.3-2.75,2.79-1.16,4.73-2.04,6.28-2.76,2.89-1.33,4.34-2,7.06-2.32,3.91-.45,7.77-.1,8.49,.51,.18,.15,.23,.33,.23,.45,.03,.6-.56,.67-1.44,.79-1.29,.17-3.69,.48-5.72,2.04-2.54,1.94-3.33,4.97-3.9,7.17-.81,3.1-.85,5.5-.23,13.52,.25,3.15,.46,5.46,.62,7.2,.42,4.51,.49,5.32-.17,6.95-.66,1.63-3.21,4.27-8.27,9.52-.51,.53-.99,1.02-1.42,1.46-2.91,2.99-4,4.11-4.46,6.22-.23,1.08-.12,1.58,.17,2.93,.21,.95,.49,2.24,.79,4.34,.46,3.18,1.02,7.15,.48,11.66-.22,1.83-.49,2.65-.78,3.52-.27,.81-.58,1.73-.9,3.71-.45,2.7-.85,6.91-.24,11.62,.33,2.51,.79,3.86,2.3,8.36l.79,2.36c2.62,8.38,3.99,12.51,4.8,14.89,.31,.91,.62,1.79,.92,2.66,2.18,6.27,3.91,11.22,2.18,14.07-.19,.31-.4,.59-.4,.59l-.4-.31,.4,.31c-.77,1-2.3,2.26-7.3,3.18-2,.37-3.22,.46-3.27,.47-1.84,.13-3.52,0-5.66-.15-1.44-.11-3.07-.23-5.16-.31-2.14-.08-4.1-.2-6.19-.32-3.41-.2-7.27-.43-12.82-.55-7.43-.17-9.75,.02-11,.13-1,.09-1.42,.12-3.06-.1l-.66-.09c-2.06-.29-4.2-.6-6.51,.41-1.44,.63-2.35,1.49-3.08,2.18-.64,.61-1.17,1.1-1.79,1.1Zm37.32-139.53c-.26,.4-1.1,1.5-3.83,5.06-2.64,3.44-3.99,4.99-4.79,5.92-.75,.86-1,1.16-1.4,1.93-1.33,2.54-1.23,4.45-1.1,6.87,.08,1.47,.17,3.13-.05,5.2-.42,3.97-1.6,6.06-3.55,9.51-.86,1.53-1.84,3.26-2.98,5.55-2.31,4.64-2.88,6.76-3.82,10.26-.94,3.49-2.22,8.26-5.94,18.12-3.34,8.87-5.02,13.32-6.13,15.78-.36,.79-.69,1.51-1,2.17-1.28,2.75-2.12,4.57-2.78,7.43-.62,2.67-.59,4.08-.52,7.17,.03,1.38,.07,3.09,.06,5.38-.02,2.83,.02,5.56,.05,8.21,.06,4.38,.11,8.51-.05,12.94-.03,.89-.07,1.75-.11,2.57-.17,4.02-.35,8.18,.55,8.46,.23,.06,.67-.34,1.17-.82,.75-.71,1.76-1.67,3.37-2.37,2.58-1.12,4.96-.78,7.05-.48l.66,.09c1.54,.21,1.89,.18,2.84,.1,1.27-.11,3.62-.31,11.11-.13,5.57,.13,9.44,.36,12.86,.56,2.08,.12,4.03,.24,6.17,.32,2.11,.08,3.75,.2,5.2,.31,2.18,.16,3.75,.28,5.51,.15,0,0,1.23-.09,3.17-.45,4.66-.86,6.02-1.96,6.69-2.81h0s.18-.23,.34-.49c1.49-2.45-.17-7.2-2.27-13.22-.3-.86-.61-1.75-.92-2.66-.81-2.38-2.19-6.52-4.81-14.9l-.79-2.35c-1.54-4.56-2.01-5.94-2.35-8.55-.63-4.83-.21-9.15,.24-11.91,.34-2.06,.66-3.02,.94-3.86,.28-.85,.53-1.59,.74-3.32,.52-4.38-.03-8.27-.48-11.4-.29-2.07-.57-3.34-.78-4.27-.31-1.42-.45-2.06-.18-3.35,.51-2.39,1.74-3.65,4.72-6.71,.43-.44,.9-.93,1.42-1.46,4.82-5,7.47-7.75,8.06-9.21,.57-1.41,.51-2.08,.1-6.49-.16-1.75-.37-4.06-.62-7.22-.6-7.69-.64-10.44,.25-13.85,.61-2.35,1.45-5.56,4.26-7.72,1.73-1.33,3.67-1.83,5.1-2.07-1.42-.15-3.54-.2-5.94,.08-2.57,.3-3.88,.9-6.76,2.23-1.56,.72-3.5,1.61-6.31,2.78-3.67,1.52-5.81,2.24-7.36,2.77-1.99,.68-2.9,.99-4.8,2.23-1.1,.72-2,1.41-2.8,2.01-1.73,1.32-2.88,2.19-3.96,1.61-1.82-.97-1.29-5.25-.23-7.83,.72-1.75,2.12-3.31,4.65-6.15,.72-.8,1.34-1.47,1.86-2.04,1.7-1.84,2.28-2.5,2.12-3-.25-.77-1.88-1.31-3.29-1.1-.8,.12-1.36,.59-2.29,1.37-.25,.21-.53,.44-.83,.69-1.75,1.4-2.7,2.7-4.61,5.28l-.83,1.12h-.02Z"/><path d="M288,298.6c-.09,0-.18-.02-.28-.06-.74-.32-.52-1.33,.44-5.15,.98-3.9,1.52-6.05,2.84-7.15,1.83-1.52,4.5-1.92,6.02-1.43h0c.2,.06,1.06,.37,1.53,.53l.27,.09,1.09,.23-.92,.65c-.2,.16-3.63,3.05-6.39,6.37-1.41,1.69-2.34,3.13-3.02,4.19-.73,1.12-1.12,1.73-1.59,1.73Zm7.6-12.99c-1.24,0-2.8,.45-3.96,1.4-1.02,.85-1.51,2.64-2.51,6.62-.31,1.23-.62,2.48-.77,3.3,.12-.19,.26-.39,.39-.6,.66-1.01,1.65-2.55,3.09-4.28,1.15-1.38,4.2-4.55,5.88-5.94-.42-.15-.87-.3-1-.34-.31-.1-.7-.15-1.12-.15Z"/><path d="M295.4,306.31c-.22,0-.43-.05-.64-.15-1.04-.5-1.14-1.95-1.21-2.91-.09-1.23,.08-3.8,2.24-7.11,.13-.2,1.06-1.27,4.27-4.95l3.82-4.38v.88c.69,.07,2.02,.19,2.96,.25,1.5,.1,3.05,.19,4.2,0,1.22-.2,1.77-.67,3.58-2.22,.58-.5,1.28-1.09,2.16-1.82,1.76-1.45,2.92-2.31,3.76-2.94,1.3-.96,1.78-1.32,2.62-2.45,1.24-1.66,2.21-2.97,2.39-4.89,.04-.38,.03-.71,.03-1.05,0-.71,0-1.45,.32-2.53,.29-.99,.74-2.48,2.09-3.13,1.04-.5,2.08-.25,2.99-.04,.71,.17,1.06,.37,1.47,.59,.3,.17,.65,.36,1.25,.59,1.29,.5,2.51,.96,3.21,.54,.31-.19,.43-.49,.57-.84,.17-.44,.38-.98,1.03-1.2,.94-.31,2.07,.35,2.71,1.16,.41,.52,.49,.95,.56,1.41,.06,.34,.12,.69,.33,1.19,.2,.47,.62,1.44,1.45,1.92,.5,.29,.9,.25,1.52,.2,.55-.05,1.23-.11,2.15,.07,1.04,.21,1.73,.63,2.98,1.39,2.33,1.42,4.43,2.91,4.04,4.22-.15,.49-.58,.78-2.85,1.34-2.58,.63-4.47,.83-4.54,.84-1.5,.16-2.41,.17-3.01,.18-.77,.01-.84,.02-1.03,.19-.45,.4-.46,.91-.44,1.79,.02,.94,.04,2.1-.82,3.28-.37,.51-.67,.68-1.05,.9-.4,.23-.95,.55-2.01,1.5-.6,.54-1.03,.9-1.35,1.17-.5,.42-.71,.59-.87,.87-.56,.96-.95,2.42-.95,2.44l-.12,.44-.45-.08s-3.35-.57-5.25-.67c-2.42-.12-4.2,.47-7.14,1.47l-1.15,.39c-1.6,.53-2.25,.87-3.16,1.34-.89,.46-2.01,1.04-4.4,2.01-1.99,.81-3.07,1.16-3.94,1.44-.97,.31-1.74,.56-3.33,1.3-3.11,1.43-4.66,2.14-6.52,3.4-.59,.4-1.12,.79-1.59,1.13-1.19,.88-2.07,1.52-2.87,1.52Zm8.16-17.63l-2.76,3.17c-2.52,2.9-4.04,4.65-4.19,4.85-2,3.06-2.16,5.38-2.08,6.48,.05,.64,.13,1.83,.65,2.08,.45,.22,1.31-.41,2.49-1.27,.48-.35,1.01-.74,1.62-1.15,1.93-1.3,3.5-2.03,6.64-3.47,1.67-.77,2.46-1.02,3.46-1.35,.9-.29,1.92-.62,3.87-1.42,2.35-.95,3.44-1.52,4.31-1.97,.91-.47,1.64-.85,3.31-1.4l1.15-.39c2.95-1,4.91-1.66,7.51-1.52,1.56,.08,3.94,.45,4.92,.61,.17-.55,.5-1.52,.93-2.25,.25-.43,.53-.66,1.09-1.13,.32-.27,.74-.62,1.33-1.14,1.14-1.02,1.76-1.39,2.18-1.62,.34-.19,.49-.28,.74-.62,.66-.9,.64-1.8,.62-2.66-.02-.9-.04-1.83,.77-2.56,.48-.42,.88-.43,1.67-.44,.58,0,1.46-.02,2.92-.18,.02,0,1.9-.21,4.41-.82,1.78-.43,2.1-.65,2.16-.71,0-.07,.01-.82-3.62-3.02-1.24-.75-1.8-1.09-2.67-1.27-.77-.16-1.32-.11-1.86-.06-.69,.06-1.33,.12-2.11-.33-1.11-.65-1.62-1.82-1.87-2.39-.26-.6-.34-1.05-.4-1.42-.07-.4-.11-.64-.36-.96-.41-.52-1.16-.97-1.61-.83-.18,.06-.26,.21-.41,.61-.17,.43-.38,.97-.98,1.34-1.12,.68-2.56,.13-4.09-.46-.66-.25-1.06-.47-1.37-.65-.37-.21-.64-.36-1.22-.49-.79-.19-1.6-.38-2.32-.04-.95,.46-1.3,1.64-1.56,2.51-.28,.94-.28,1.58-.28,2.25,0,.36,0,.73-.04,1.14-.21,2.2-1.31,3.68-2.59,5.39-.93,1.25-1.52,1.69-2.83,2.66-.83,.62-1.98,1.47-3.72,2.9-.87,.72-1.57,1.31-2.14,1.81-1.87,1.61-2.57,2.21-4.07,2.45-1.26,.21-2.87,.1-4.43,0-1.71-.11-2.67-.17-3.21-.26Z"/><path d="M363.54,326.79c-.09,0-.18,0-.25,0-3.37-.03-6.66-1.24-9.51-3.51-1.13-.9-1.53-1.46-2.02-2.18-.47-.68-1.06-1.53-2.62-3.06-1.43-1.41-2.46-2.18-3.29-2.81-1.11-.84-1.9-1.44-2.79-2.89-.78-1.28-1.21-2.9-2.06-6.13-.42-1.59-1.03-4.2-1.61-6.82l-.14-.63c-.52-2.4-.66-3.05-1.33-3.73-.64-.65-1.33-.9-1.94-1.11-.68-.24-1.38-.48-1.63-1.27-.5-1.57,1.37-3.42,2.81-4.67,.88-.76,1.58-1.15,2.14-1.47,.69-.39,1.08-.6,1.38-1.27,.17-.38,.35-1.31,.68-3l.11-.58c.17-.93,.24-1.31,.63-1.7,.6-.6,1.31-.58,2.32-.55,.35,0,.75,.02,1.22,0,2.03-.04,3.61-.46,4.45-.68,.92-.24,2.04-.54,3.43-1.2,.32-.15,.54-.27,.71-.36,.31-.17,.52-.28,.92-.38h0c.96-.23,1.59-.07,2.15,.08,.42,.11,.79,.21,1.29,.12,.65-.12,.99-.46,1.34-.81,.37-.37,.79-.8,1.51-.8,.02,0,.04,0,.06,0,1.51,.05,3.07,1.91,3.08,3.7,.01,1.36-.85,2.22-1.61,2.99-.66,.66-1.22,1.22-1.19,2,.01,.28,.04,1.01,2.79,3.02,1.78,1.3,2.89,1.81,4.07,2.36,.89,.41,1.82,.84,3.1,1.62,1.85,1.13,2.94,2.08,3.82,2.85,1.14,1,1.77,1.54,3.17,1.68,.16,0,2.06-.26,4.69-.6h.11c2.58-.35,4.01-.54,5.71,.02,.87,.28,2.88,1.06,2.74,2.14-.12,1.01-1.79,1.24-4.51,1.51-.49,.05-1.07,.11-1.53,.17,1.04,.42,3.24,.96,5.66,.56,.49-.08,.92-.19,1.32-.29,1.04-.26,2.03-.5,3.31-.1,1.56,.49,2.32,1.38,2.69,2.03,.17,.31,.71,1.26,.05,4.35-.52,2.48-.81,3.84-1.9,5.21-1.7,2.14-4.09,2.76-5.67,3.17-1.58,.41-2.53,.37-3.44,.33-.88-.04-1.71-.08-3.17,.28-2.69,.65-4.62,1.97-5.44,2.53-.86,.59-1.21,.93-2.04,1.76-.61,.61-1.45,1.44-2.9,2.79-2.27,2.1-3.53,3.26-4.71,3.88-2.63,1.37-5.12,1.46-6.19,1.46Zm-19.67-46.4c-.54,0-.82,.05-1.04,.27-.16,.16-.2,.31-.36,1.18l-.11,.59c-.37,1.88-.53,2.74-.75,3.23-.44,.96-1.04,1.3-1.8,1.72-.52,.29-1.17,.66-1.98,1.35-2.38,2.06-2.68,3.1-2.52,3.61,.09,.29,.35,.4,1.01,.63,.68,.24,1.52,.53,2.33,1.35,.87,.88,1.05,1.72,1.6,4.22l.14,.63c.57,2.61,1.18,5.2,1.6,6.78,.82,3.14,1.24,4.71,1.94,5.87,.79,1.29,1.45,1.78,2.54,2.61,.85,.64,1.91,1.44,3.38,2.89,1.62,1.59,2.24,2.48,2.74,3.2,.47,.67,.8,1.15,1.82,1.96,2.68,2.13,5.75,3.27,8.89,3.29,.82,.01,3.33,.03,5.97-1.34,1.02-.53,2.11-1.53,4.49-3.72,1.44-1.33,2.27-2.16,2.88-2.77,.85-.85,1.24-1.24,2.18-1.88,.87-.59,2.9-1.98,5.77-2.67,1.59-.39,2.53-.34,3.45-.3,.88,.04,1.71,.08,3.14-.3,1.45-.38,3.64-.95,5.13-2.83,.94-1.18,1.19-2.39,1.7-4.79,.26-1.24,.48-2.88,.05-3.65-.28-.5-.87-1.17-2.11-1.57-1.01-.32-1.75-.14-2.77,.12-.43,.11-.88,.22-1.4,.3-3.23,.53-6.33-.45-7.09-1.12-.2-.18-.3-.38-.29-.59,.03-.71,.9-.8,2.99-1,1.04-.1,3.14-.31,3.58-.65-.2-.26-1.04-.73-2.03-1.05-1.48-.49-2.75-.32-5.27,0h-.11c-4.29,.57-4.75,.63-4.91,.62-1.72-.17-2.57-.91-3.73-1.93-.85-.74-1.9-1.66-3.68-2.75-1.23-.75-2.13-1.17-3-1.57-1.22-.57-2.38-1.1-4.24-2.46-2.76-2.01-3.17-3.01-3.21-3.78-.05-1.21,.76-2.03,1.48-2.75,.68-.68,1.33-1.33,1.32-2.27-.01-1.34-1.22-2.68-2.12-2.71-.31-.01-.48,.15-.82,.5-.38,.39-.91,.92-1.87,1.09-.71,.13-1.24-.01-1.71-.13-.51-.13-.95-.25-1.65-.07-.28,.07-.4,.13-.69,.29-.18,.1-.41,.22-.75,.38-1.47,.71-2.7,1.03-3.6,1.26-.9,.23-2.54,.67-4.69,.71-.49,0-.91,0-1.27-.01-.21,0-.39,0-.55,0Z"/><path d="M320.71,407.01c-1.01,0-2.54-.37-3.79-1.27-1.32-.96-1.76-2.14-2.63-4.49l-.34-.91c-.98-2.62-1.46-3.63-1.84-4.45-.39-.82-.67-1.42-1.23-3.13-.8-2.42-1.61-4.9-2.07-8.12-.31-2.21-1.04-7.37,.66-13.06,.29-.97,.48-1.41,4.19-8.26l2.27-4.18c2.5-4.6,3.35-6.16,4.54-8.72,1.77-3.82,2.66-5.73,3.28-8.28,.45-1.87,1.15-5.75,.81-10.71-.06-.82-.1-1.12-.2-1.72-.09-.56-.21-1.38-.42-3.11-.55-4.54-.75-7.92-.95-11.19-.32-5.22-.49-8.1-.25-10.16,.36-3.06,.72-6.23,3.08-8.98,1.91-2.23,4.02-3.15,5.45-3.53,.75-.2,2.3-.61,4.16-.13,2.2,.57,3.3,1.71,3.84,2.57,.41,.66,.51,1.15,.76,2.36l.08,.4c.35,1.7,.53,2.39,.67,2.95,.13,.5,.23,.89,.39,1.79l-.49,.09,.49-.08c1.05,5.86,1.96,10.93,.64,16.59-.24,1.01-.38,1.32-.64,1.89-.28,.62-.76,1.67-1.76,4.59-1.49,4.35-2.56,7.5-3.32,11.6-.4,2.16-.5,3.5-.59,4.58-.11,1.41-.2,2.52-.86,4.54-.83,2.57-1.85,4.33-3.38,7-1.24,2.17-1.97,3.19-3.07,4.74-.76,1.08-1.71,2.41-3.15,4.58-2.25,3.4-3.33,5.25-4.04,6.48-.86,1.48-1.21,2.09-2.45,3.36-.39,.4-.75,.75-1.09,1.08-1.17,1.13-2.02,1.95-2.61,3.52-.79,2.09-.61,4.16-.45,5.97,.22,2.46,.86,4.42,1.17,5.37,.35,1.08,.63,1.7,.87,2.24,.29,.66,.55,1.23,.81,2.33,.29,1.23,.29,1.83,.28,2.47,0,.57,0,1.16,.2,2.32,.34,1.88,.77,4.23,2.5,6.19,.4,.45,.77,.77,1.07,1.03,.49,.42,.91,.79,.68,1.3-.1,.23-.31,.38-.63,.47-.18,.05-.41,.07-.67,.07Zm12.95-113.63c-.91,0-1.66,.2-2.13,.32-1.3,.35-3.21,1.18-4.95,3.22-2.15,2.52-2.49,5.4-2.84,8.45-.23,1.96-.06,4.81,.26,9.98,.2,3.26,.4,6.63,.95,11.13,.21,1.71,.33,2.51,.42,3.07,.09,.6,.15,.94,.21,1.8,.35,5.1-.38,9.09-.84,11.01-.64,2.65-1.54,4.59-3.34,8.47-1.21,2.6-2.06,4.16-4.57,8.78l-2.27,4.18c-3.66,6.76-3.85,7.18-4.11,8.07-1.64,5.47-.93,10.49-.63,12.63,.44,3.13,1.21,5.47,2.02,7.94,.55,1.67,.82,2.24,1.19,3.03,.39,.83,.88,1.87,1.87,4.52l.34,.92c.85,2.29,1.2,3.24,2.28,4.02,1.15,.83,2.54,1.12,3.28,1.09-.04-.03-.08-.07-.11-.1-.3-.27-.72-.63-1.16-1.13-1.92-2.17-2.39-4.77-2.74-6.67-.23-1.25-.22-1.92-.22-2.5,0-.61,0-1.13-.25-2.24-.24-1.01-.46-1.51-.75-2.15-.25-.57-.54-1.21-.91-2.34-.32-.98-.99-3.02-1.21-5.59-.16-1.83-.36-4.11,.51-6.42,.67-1.78,1.63-2.71,2.85-3.88,.33-.32,.69-.67,1.07-1.05,1.15-1.19,1.47-1.73,2.3-3.17,.72-1.24,1.8-3.1,4.07-6.53,1.44-2.18,2.4-3.52,3.16-4.61,1.08-1.53,1.8-2.53,3.02-4.66,1.5-2.62,2.49-4.35,3.29-6.82,.62-1.91,.7-2.91,.81-4.31,.09-1.1,.2-2.47,.6-4.68,.77-4.18,1.85-7.35,3.35-11.75,1.02-2.97,1.5-4.04,1.8-4.68,.25-.54,.36-.79,.57-1.7,1.27-5.46,.38-10.43-.65-16.19l.49-.1-.49,.09c-.15-.86-.25-1.22-.38-1.71-.15-.57-.33-1.27-.68-3l-.08-.4c-.23-1.14-.31-1.52-.62-2.02-.65-1.03-1.74-1.75-3.24-2.14-.54-.14-1.06-.19-1.52-.19Z"/><path d="M284.36,516.75h-9.81l2.79-8.55,3.11-8.64,2.05,.46,.11,.21c.55,1.07,.98,2.19,1.28,3.35,.5,1.9,.49,3.33,.48,7.17v.55c0,.92,0,2.66,0,4.94v.5Zm-8.43-1h7.43c0-2.03,0-3.58,0-4.44v-.55c0-3.85,.01-5.14-.45-6.92-.26-1.01-.63-2-1.1-2.94l-.73-.17-2.8,7.79-2.36,7.22Z"/><path d="M352.25,514.43h-14.46l.49-2.5h13.97v2.5Zm-13.25-1h12.25v-.5h-12.15l-.1,.5Z"/><path d="M276.81,513.06l-4.24-1.32h-7.01v-2.67l6.48,.02,5.55,1.57-.78,2.39Zm-10.25-2.32l6.23,.02,3.37,1.05,.15-.47-4.48-1.27h-5.27v.67Z"/><path d="M278.19,508.86l-12.22-.17v-3h13.2l-.97,3.17Zm-11.22-1.16l10.49,.15,.36-1.16h-10.84v1.01Z"/></svg>