<?xml version="1.0" encoding="UTF-8"?><svg id="Layer_12" xmlns="http://www.w3.org/2000/svg" viewBox="0 0 395 516"><defs><style>.cls-1{fill:none;}.cls-2{fill:#240000;}</style></defs><path d="M362.24,283.74c-.34,0-.81-.06-1.52-.15-.42-.05-.95-.12-1.59-.2-2.63-.31-3.95-.46-5.06-.43-.44,.01-.84,.07-1.19,.13-.74,.12-1.32,.2-1.73-.24-.32-.35-.42-.89-.27-1.62l.02-.11,.1-.06c1.06-.64,2.18-1.2,3.33-1.66,.96-.39,3.6-1.33,7.2-1.62,3.89-.32,4.52,.2,4.65,.62,.09,.29-.06,.5-.44,1-.18,.24-.43,.57-.75,1.03-.61,.88-.87,1.47-1.06,1.9-.21,.48-.37,.83-.82,1.16-.25,.18-.48,.25-.85,.25Zm-7.87-1.29c1.09,0,2.41,.16,4.82,.44,.65,.08,1.17,.14,1.6,.2,1.45,.19,1.7,.21,2.01,0,.34-.25,.46-.5,.66-.96,.2-.45,.47-1.06,1.11-1.98,.33-.47,.58-.81,.77-1.05,.2-.26,.37-.49,.36-.54,0-.02-.23-.59-4.13-.28-3.54,.29-6.11,1.21-7.06,1.59-1.09,.44-2.15,.97-3.16,1.57-.08,.5-.03,.87,.17,1.07,.22,.24,.59,.19,1.29,.08,.37-.06,.78-.12,1.25-.13,.1,0,.21,0,.31,0Z"/><path d="M358.11,283.27c-.08,0-.14-.01-.19-.02-.04,0-.96-.2-4.07-.38-.06,0-.21-.01-.39-.09-.12-.05-.24-.12-.34-.21l-.08-.11c-.29-.46-.07-1.36,.33-1.98,.05-.08,.09-.13,.13-.18,.07-.08,.11-.12,.16-.16,.02-.02,.04-.03,.06-.06,.03-.04,.04-.05,.06-.11,.02-.06,.05-.13,.11-.23,.13-.19,.29-.28,.41-.34,.78-.43,2.49-.84,2.57-.84,.23-.06,.46-.12,.67-.17,.78-.19,1.13-.28,1.52-.02,.12,.08,.35,.28,.53,.76,.43,1.15,.1,2.59-.45,3.41-.3,.45-.64,.69-.98,.71h-.03Zm-4.64-1.08c.06,.05,.12,.09,.19,.12,.1,.04,.18,.05,.22,.05,3.09,.19,4.04,.37,4.14,.39,.05,.01,.07,.02,.1,.01,.17,0,.39-.19,.59-.48,.47-.71,.76-1.98,.4-2.96h0c-.14-.37-.29-.49-.34-.52-.19-.13-.39-.09-1.12,.09-.21,.05-.45,.11-.73,.18-.02,0-1.66,.38-2.39,.78-.11,.06-.18,.1-.23,.18-.03,.04-.03,.06-.05,.11-.02,.07-.06,.17-.16,.28-.03,.04-.06,.06-.1,.09-.03,.03-.06,.06-.11,.11-.03,.03-.05,.07-.08,.12-.42,.65-.44,1.33-.34,1.44h.01Z"/><path d="M356.5,281.61c-.08,0-.17,0-.26-.02-.39-.07-.72-.29-.91-.59-.32-.52-.21-1.21,.26-1.56,.35-.27,.85-.32,1.24-.14h0c.38,.18,.65,.6,.71,1.09,.05,.42-.09,.8-.36,1.01-.18,.14-.42,.21-.68,.21Zm-.16-1.92c-.16,0-.32,.05-.44,.14-.26,.2-.32,.61-.14,.9,.11,.18,.32,.32,.57,.36,.21,.04,.42,0,.54-.09,.13-.1,.2-.32,.17-.57-.03-.31-.2-.59-.42-.69h0c-.09-.04-.18-.06-.28-.06Z"/><g><g><path d="M396.51,516.14H117.12l-.05-.31c-9.11-53.05-3.54-88.59,16.56-105.65,13.36-11.33,42.62-23,63.99-31.53l.12-.05c15.36-6.13,27.64-13.82,35.23-19.19,9.65-6.82,14.01-11.47,16.45-14.37,.77-.92,18.89-22.69,12.6-35.52-.22-.46-.45-.8-.75-1.23-.5-.75-1.19-1.77-2.37-4.13-.03-.06-3.86-7.09-6.17-13.22-3.34-8.84-1.89-20.16-.72-29.25l.14-1.1c1.74-13.67,3.12-24.46,10.21-36.34,2.66-4.46,8.2-13.74,19.5-20.71,3.92-2.42,14.6-8.05,29.18-8.17h.01c.63,0,25.37,.2,45.14,20.18,3.74,3.78,6.78,7.1,8.93,12.48,.03,.07,2.83,7.16,3.86,18.75,.01,.17,.06,.75,.16,1.52,.17,1.41,.41,2.8,.7,4.14,.43,1.97,1.44,8.21,3.01,18.61l.08,.52-.33-.06c-.67,.64-3.73,3.61-6.36,7.15-.62,.84-1.12,1.82-1.51,3-.92,2.74-.58,4.73,.02,8.35,.37,2.23,.84,5.01,1.15,8.89,.11,1.36,.17,2.04,.15,2.5-.22,5.79-4.2,9.81-6.58,12.22-.44,.44-.35,.35-.63,.64-4.87,5.23-3.52,11.12-5.71,17.49-.81,2.37-2.4,5.61-5.8,9.05-.4,.97-.8,1.94-1.2,2.91-3.49,8.53-4.66,11.4-8.24,13.5-4.1,2.41-8.61,2.16-11.29,2.01-.98-.06-2.32-.13-2.44,.09-.23,.84,3.71,3.43,23.79,11.02l.32,.12c13.7,5.18,27.74,10.64,41.74,16.23l.15,.06,6.36,15.36v114.03Zm-278.76-.75H395.76v-113.21l-6.18-14.86c-13.94-5.57-27.93-11.01-41.58-16.17l-.32-.12c-17.94-6.78-24.74-10.12-24.25-11.92,.22-.81,1.35-.74,3.21-.64,2.77,.16,6.97,.39,10.87-1.9,3.35-1.97,4.41-4.56,7.92-13.13l1.2-2.92c2.17-2.43,4.42-5.66,5.84-9.8,.55-1.58,.91-3.15,1.64-6.28,1.11-4.76,1.53-7.79,4.18-10.7,.26-.29,.16-.17,.64-.65,2.3-2.33,6.16-6.23,6.36-11.72,.02-.42-.04-1.12-.15-2.41-.31-3.84-.77-6.6-1.15-8.82-.61-3.62-.97-5.8,0-8.71,.42-1.26,.95-2.3,1.62-3.21,1.58-2.12,5.12-6.14,6.45-7.21-1.56-10.29-2.55-16.47-2.96-18.35-.31-1.42-.55-2.83-.73-4.26-.1-.79-.15-1.37-.16-1.54-1.03-11.49-3.78-18.48-3.81-18.55-2.1-5.24-5.09-8.51-8.77-12.23-19.7-19.9-44.34-19.99-44.61-19.95-14.39,.12-24.93,5.67-28.79,8.06-11.15,6.88-16.62,16.05-19.25,20.46-7.01,11.74-8.38,22.47-10.11,36.05l-.14,1.11c-1.16,9.01-2.6,20.22,.68,28.89,2.29,6.08,6.1,13.07,6.14,13.14,1.16,2.33,1.84,3.33,2.33,4.06,.31,.46,.55,.82,.8,1.32,6.5,13.27-11.91,35.4-12.7,36.33-2.47,2.93-6.87,7.63-16.59,14.5-7.63,5.39-19.96,13.12-35.39,19.27l-.12,.05c-21.32,8.5-50.52,20.15-63.78,31.4l-.24-.29,.24,.29c-19.84,16.84-25.35,52.04-16.36,104.64Z"/><path d="M329.8,273.87c-.91,0-1.6-.24-1.84-.33-1.11-.44-5.45-.48-13.35-.55-3.92-.04-8.18-.05-8.75-.05-.43,.24-.54,.3-.69,.19l-.13-.09,.03-.16c.1-.5,5.94-3.78,7.75-4.2,1.42-.33,4.63,.31,11.03,1.58,2.35,.47,4.88,1.02,4.9,1.03,1.75,.38,3.2,.72,4.21,.95l.49,.11-.39,.32c-.67,.55-1.4,.91-2.17,1.08h0c-.38,.08-.75,.12-1.08,.12Zm-23.34-1.43c1.43,0,4.91,.01,8.16,.05,8.21,.08,12.33,.12,13.52,.59,.29,.12,1.36,.47,2.63,.19h0c.54-.12,1.05-.34,1.53-.66-.96-.22-2.21-.51-3.68-.83-.02,0-2.55-.56-4.89-1.02-6.33-1.26-9.5-1.89-10.82-1.59-1.59,.37-4.85,2.25-6.47,3.28Z"/><path d="M337.75,337.12c-.22,0-.45,0-.67-.01-1.75-.07-3.08-.38-4.15-.63-2.27-.53-3.64-1.15-5.1-1.81-.11-.05-2.46-1.17-3.22-2.66l-.06-.13c-.21-.49-.42-.92-.54-1.16-.32-.02-.93-.08-1.5-.21-.85-.2-1.27-.3-1.45-.69-.6-1.29,2.94-3.57,2.97-3.59,1.44-.92,3.11-1.54,4.95-1.83,1.62-.26,3.44-.26,5.1,0,.5,.08,.8,.15,1.06,.21,.3,.07,.54,.13,1,.17,1.53,.13,2.64-.16,3.72-.44l.42-.11c1.88-.47,5.79-1.46,9.26-.12h0c1.11,.43,1.74,.92,2.07,1.59,.59,1.23,.24,3.23-.73,4.1-.18,.16-.41,.36-.56,.71-.14,.33-.14,.62-.14,.73-.01,1.37-3.23,4.17-8.05,5.35-1.44,.35-2.91,.53-4.38,.53Zm-6.24-12.17c-.82,0-1.64,.06-2.42,.19-1.77,.28-3.29,.85-4.67,1.72-1.67,1.07-2.79,2.34-2.7,2.65,.07,.07,.51,.17,.94,.27,.73,.17,1.57,.2,1.58,.2h.22s.1,.2,.1,.2c0,0,.33,.62,.66,1.39l.04,.1c.64,1.25,2.84,2.3,2.86,2.31,1.42,.64,2.77,1.25,4.96,1.76,1.09,.26,2.33,.55,4.01,.61,1.62,.06,3.25-.11,4.84-.5,4.56-1.12,7.47-3.78,7.48-4.6,0-.16,0-.58,.2-1.05,.22-.5,.55-.79,.71-.93,.75-.68,1.04-2.33,.59-3.25-.16-.33-.49-.76-1.66-1.21h0c-3.25-1.26-7-.31-8.8,.14l-.42,.11c-1.09,.28-2.32,.61-3.98,.46-.51-.04-.79-.11-1.1-.19-.25-.06-.53-.13-1-.2-.8-.12-1.63-.19-2.45-.19Z"/><path d="M311.21,351.35c-8.51-9.27-17.67-17.72-27.23-25.13-3-2.33-5.59-4.2-7.87-5.86-6.25-4.53-10.37-7.52-14.95-13.92-7.84-10.96-9.82-21.75-10.31-25.87-.7-5.89,.09-11.23,1.66-21.87,1.83-12.43,2.75-18.67,5.76-25.97,1.79-4.36,6.56-15.95,18.01-25.04,15.28-12.14,32.71-12.29,37.69-12.05,14.81,.72,24.81,7.16,32.11,11.86,10.05,6.47,14.65,12.86,16.5,16.09,2.34,4.08,3.46,7.63,3.47,7.66,.59,1.9,.82,3.22,1.06,4.62,.24,1.42,.5,2.9,1.15,5.17,.01,.04,.25,.88,.4,2.1,.13,1.08,.35,2.86-.16,4.1,.39,1.44,.74,2.92,1.05,4.39,.31,1.48,.43,2.28,.67,3.86,.1,.67,.23,1.49,.4,2.57,.34,2.13,.57,3.52,.81,4.89,.29,1.69,.59,3.43,1.07,6.56,.1,.67,.19,1.23,.24,1.58l.02,.12-.08,.09s-1.77,1.89-4.67,4.97c-1.25,1.16-2.2,2.49-2.83,3.97-.66,1.54-.83,2.93-.94,3.84-.12,.94-.16,1.89-.12,2.83v.07c.51,1.99,.66,3.61,.68,4.01,.04,1.26,.25,2.8,.47,4.43,.62,4.58,1.32,9.77-1.22,11.45-.29,.19-.57,.3-.87,.42-.46,.18-.93,.37-1.57,.92-1.11,.96-1.72,2.2-2.02,2.79-.18,.37-.26,.57-.41,.98-.1,.28-.24,.64-.46,1.21-.35,.89-.71,1.76-1.09,2.61l-.04,.06c-.6,.73-1.66,1.71-3.28,2.21-1.31,.4-2.48,.32-3.23,.18-1.14-.17-2.28-.44-3.39-.79-1.35-.43-2.04-.79-2.85-1.2-.72-.37-1.53-.79-2.98-1.33-.95-.35-2.86-1-4.93-1.4-1.08-.21-1.63-.31-2-.34l-.26-.02c-.61-.04-1.52-.1-2.34-.33-.15-.04-.55-.15-.92-.49-.1-.09-.25-.25-.45-.59-.31-.53-.5-1.13-.59-1.78-.06-.42-.04-.65-.02-.8,.01-.12,.01-.17-.02-.26-.17-.49-.96-.85-2.15-.99-2.38-.29-4.5-1.49-6.54-2.65-1.34-.76-2.73-1.55-4.16-2.06-4.45-1.6-9.39-4.01-12.01-5.86-7.97-5.63-13.26-19.92-8.44-32.24,3.59-9.17,11.56-13.52,15.84-15.85,7.44-4.06,15.96-6,25.29-5.8,8.65,.2,16.82,.38,21.35,3.03,.04,.03,4.52,2.61,7.57,1.51,.19-.07,.27-.11,.37-.18,1.19-.82,.89-3.3,.72-4.63-.15-1.18-.38-2.02-.38-2.03-.66-2.3-.91-3.78-1.16-5.22-.24-1.38-.46-2.69-1.04-4.56-.01-.03-1.12-3.53-3.42-7.56-1.83-3.19-6.38-9.5-16.33-15.92-7.26-4.67-17.19-11.07-31.87-11.78-4.94-.24-22.21-.08-37.35,11.94-11.35,9.01-16.07,20.51-17.85,24.84-2.98,7.25-3.9,13.46-5.72,25.85-1.56,10.6-2.35,15.91-1.66,21.74,.48,4.09,2.45,14.77,10.22,25.64,4.53,6.34,8.63,9.31,14.84,13.81,2.28,1.66,4.87,3.54,7.88,5.87,9.58,7.43,18.76,15.9,27.29,25.19l-.37,.34Zm25.57-107.39c-8.73,0-16.69,1.93-23.69,5.75-4.22,2.3-12.09,6.59-15.61,15.6-4.74,12.1,.45,26.13,8.26,31.65,2.59,1.83,7.48,4.21,11.89,5.79,1.48,.53,2.88,1.33,4.24,2.1,2,1.14,4.07,2.31,6.33,2.58,1.46,.17,2.35,.63,2.59,1.33,.07,.19,.06,.33,.04,.47-.01,.15-.03,.33,.02,.7,.08,.58,.25,1.12,.53,1.59,.16,.28,.28,.4,.35,.47,.28,.25,.59,.34,.72,.38,.77,.21,1.65,.27,2.24,.31l.27,.02c.4,.03,.95,.13,2.05,.35,2.11,.41,4.05,1.07,5.02,1.43,1.48,.55,2.31,.98,3.04,1.35,.79,.41,1.47,.76,2.77,1.17,1.09,.34,2.2,.61,3.32,.78,.7,.13,1.79,.2,3-.17,1.48-.45,2.46-1.35,3.02-2.02,.37-.83,.72-1.68,1.07-2.55,.22-.56,.35-.93,.46-1.2,.16-.43,.24-.64,.43-1.03,.31-.62,.95-1.92,2.14-2.94,.7-.61,1.24-.82,1.71-1.01,.28-.11,.52-.21,.77-.37,2.28-1.51,1.6-6.53,1-10.97-.22-1.64-.43-3.2-.48-4.48-.01-.39-.17-1.97-.67-3.97-.05-1.04,0-2.03,.12-3.01,.12-.95,.3-2.38,.98-3.98,.66-1.54,1.64-2.93,2.93-4.13,3.13-3.34,4.19-4.46,4.58-4.85-.05-.35-.13-.87-.23-1.49-.48-3.12-.78-4.86-1.07-6.55-.24-1.38-.48-2.77-.81-4.9-.17-1.08-.29-1.9-.4-2.58-.24-1.57-.36-2.36-.67-3.83-.27-1.3-.58-2.6-.92-3.88-.12,.15-.26,.29-.42,.4-.15,.11-.27,.17-.49,.24-3.28,1.17-7.8-1.44-7.99-1.55-4.42-2.58-12.53-2.77-21.11-2.96-.45,0-.9-.02-1.35-.02Z"/><path d="M351.83,318.37c-1.14,0-2.24-.33-4.14-.91-2.08-.64-4.54-1.7-5.01-1.91-.32-.14-1.19-.52-2.34-.91-.47-.16-.85-.27-1.02-.32,0,0-1.04-.28-2.08-.52-1.96-.45-3.17-.65-3.97-.79-1.1-.19-1.48-.25-1.9-.67-.47-.46-.74-1.1-.86-1.82-.05-.28-.07-.56-.07-.83,0-.66,.09-1.35,.27-2.03,.19-.88,.42-1.77,1.14-2.5,1.38-1.81,4.72-1.12,5.27-.92l.17,.06,.03,.21v.11s-.1,.07-.1,.07c-.1,.07-.17,.06-.39,.02-2.14-.39-3.69-.13-4.61,.77-.03,.04-.05,.08-.08,.13l-.04,.06c-.4,.63-.72,1.39-.92,2.16,0,.04-.02,.08-.03,.13-.08,.37-.22,1.04-.22,1.74,0,.22,.02,.44,.05,.65,.08,.49,.26,.96,.62,1.31,.22,.21,.49,.32,1.02,.52l.07,.03c.99,.38,1.84,.44,2.2,.47,.07,0,3.26,.26,6.5,1.39,.76,.27,1.59,.6,1.59,.6,.37,.15,.68,.29,1,.44,.28,.13,.57,.26,.93,.41,0,0,.71,.3,1.62,.65,2.56,.97,5.74,2.17,8.36,.99,.34-.15,.65-.33,.93-.51,.6-.41,1.14-.96,1.48-1.7,.42-.97,.36-2.1,.31-2.88-.08-.61-.22-1.16-.33-1.6-.18-.73-.39-1.23-.55-1.6l-.04-.11c-.74-1.78-.94-3.13-1.25-5.17-.22-1.47-.49-3.29-1.06-5.91-.43-1.98-.65-2.98-.68-3.12,0,0,0,0,0,0-.33-1.42-.51-2.05-.75-2.93-.09-.32-.18-.66-.3-1.09-.24-.9-.31-1.14-1.18-4.55-.32-1.26-1.29-5.07-1-6.75,0-.02,0-.04,.01-.06,.09-.58,.28-1.09,.61-1.56,.06-.11,.13-.21,.2-.29,.14-.18,.22-.26,.28-.29,.12-.09,.27-.19,.44-.31,.13-.1,.28-.2,.46-.31,8.04-5.37,17.41-6.47,19.47-5.73,.28,.1,.44,.24,.49,.42,.14,.45-.43,.98-1.52,1.78,0,.04-.02,.07-.07,.1-.11,.14-.33,.22-.33,.22l-.17,.06-.12-.13c-.31,.05-.76,.12-1.4,.21-2.63,.38-4.15,.61-5.02,.71-.39,.05-.72,.09-.95,.11-.66,.05-.95,.06-.95,.06h-.27c-.24,.02-.4,.03-.84,.07-2.56,.26-5.31,.75-8.06,2.52-.17,.11-.32,.22-.46,.32-.38,.28-.57,.48-.73,.69-.02,.02-.03,.04-.05,.06-.26,.43-.47,1.02-.54,1.42,0,.05-.02,.11-.02,.17-.1,1.09,.16,2.49,.62,4.52,.52,2.27,.97,3.99,1.41,5.64,.39,1.45,.78,2.96,1.21,4.79h0c.11,.48,.21,.89,.29,1.28,.41,1.85,.76,3.62,.85,4.11v.07c.48,2.41,.73,3.85,.89,4.81,.23,1.31,.29,1.66,.55,2.4,.12,.35,.25,.65,.37,.95,.28,.69,.55,1.34,.76,2.41,.15,.76,.19,1.28,.2,1.45,0,.03,0,.05,0,.08,.13,.98,.12,2.11-.35,3.15-.36,.83-1,1.52-1.91,2.07-1.4,.86-3,1.07-3.43,1.12-.21,.02-.41,.03-.62,.03Zm-9.01-3.24h0s0,0,0,0Zm27.62-44.16c-2.58,0-8,.84-13.55,3.51,1.36-.37,2.68-.55,3.89-.68,.45-.05,.62-.05,.87-.06h.26s.29-.02,.93-.07c0,0,0,0,0,0,.12-.03,.31-.06,.58-.11l.1-.02c.77-.13,2.11-.33,4.35-.62,.06,0,.12-.02,.18-.03,1.44-.22,2.12-.29,2.45-.31,.04-.03,.08-.06,.13-.09,.89-.66,1.34-1.08,1.35-1.26-.11-.16-.66-.26-1.54-.26Z"/><path d="M319.19,283.11c-.23,0-.47,0-.71,0-.57,0-1.08-.01-1.72-.05-2.67-.16-5-1.1-5.26-1.21l-.3-.12,.19-.26c.19-.25,1.94-2.5,4.34-3.54,.04-.02,.62-.22,.62-.22l1.74-.26s2.23-.47,4.63-.62h0c1.32,0,2.63,.45,2.68,.47,1.05,.37,2.34,1.03,3.24,1.53,2.41,1.33,2.78,1.85,3.01,2.4,.19,.44,.24,.93,.17,1.47l-.03,.22h-.23c-2.29-.08-4.56-.06-6.73,.05h-.21c-.98,.06-2.94,.16-5.45,.16Zm-7.18-1.61c.75,.28,2.68,.93,4.79,1.05,.62,.04,1.13,.05,1.69,.05,2.84,.02,5.06-.09,6.13-.14h.21c2.12-.11,4.31-.13,6.54-.07,.02-.36-.03-.69-.16-.99-.19-.44-.52-.91-2.79-2.16-.88-.48-2.14-1.14-3.16-1.49-.01,0-1.29-.44-2.5-.44-2.35,.16-4.54,.61-4.56,.62l-1.71,.25s-.49,.18-.55,.2c-1.89,.82-3.39,2.48-3.93,3.12Z"/><path d="M321.25,283.16c-.4,0-.82-.02-1.2-.04h-.2c-.68-.05-1.11-.03-1.42-.02-.26,0-.46,.02-.67,0-.99-.11-1.69-.8-1.81-.94-.04-.04-1.06-1.14-.8-2.83,.01-.08,.03-.17,.04-.21,0-.11,.06-.37,.44-1.09l.06-.11,7.16-1.13,.09,.08c.24,.21,.44,.45,.61,.71,.52,.82,.53,1.65,.53,2,.01,1.64-1.05,3.1-1.1,3.16l-.18,.17c-.2,.18-.82,.24-1.53,.24Zm-2.18-.57c.22,0,.49,0,.8,.02h.2c.98,.07,2.15,.07,2.35-.04l.16-.15h0s.98-1.37,.97-2.78c0-.36,0-1.08-.45-1.78-.12-.19-.26-.37-.43-.52l-6.67,1.05c-.16,.32-.32,.67-.33,.77,0,.06-.03,.16-.04,.27-.22,1.44,.66,2.4,.67,2.41,.11,.12,.69,.7,1.5,.78,.18,.02,.36,.01,.6,0,.18,0,.39-.02,.66-.02Z"/><path d="M319.17,281.43c-.31,0-.63-.07-.9-.21-.52-.28-.77-.73-.86-.9-.08-.15-.25-.47-.26-.92,0-.1,0-.18,.02-.26,.04-.19,.09-.31,.13-.42,.03-.07,.05-.13,.07-.21h0c.03-.14,.01-.22,0-.32-.03-.12-.06-.29,.06-.46,.19-.28,.54-.29,.71-.3,.72-.03,1.11-.12,1.37-.18,.31-.07,.52-.12,.85,.05,.91,.49,1.11,1.85,.86,2.61-.12,.34-.38,.72-.5,.85-.15,.17-.26,.25-.34,.3h0s-.08,.05-.08,.05c-.34,.21-.73,.31-1.12,.31Zm.75-3.75c-.07,0-.16,.02-.3,.05-.28,.06-.7,.16-1.46,.19-.08,0-.28,.01-.32,.08,0,0,0,.05,.02,.08,.02,.12,.06,.29,0,.54h0c-.03,.11-.06,.19-.09,.28-.03,.09-.07,.19-.11,.35,0,.04-.01,.09-.01,.14,0,.33,.14,.56,.2,.69,.08,.15,.26,.49,.65,.69,.45,.24,1.05,.2,1.53-.09l.06-.04s.12-.09,.24-.22c.09-.1,.31-.42,.4-.67,.19-.57,.02-1.67-.62-2.01-.07-.04-.13-.06-.19-.06Z"/><path d="M338.19,336.56c-.59,0-1.14-.03-1.63-.07-.42-.04-.79-.09-.97-.11-2.92-.39-5.96-1.65-5.96-1.65-2.24-.91-3.38-1.39-4.2-2.46-.63-.82-.91-1.66-1.05-2.23h0s2.28-.14,2.57-.16c2.31-.14,4.6-.07,7.53-.04l6.18,.05c6.44-.05,9.9-.08,9.9-.08,0,0,0,.02,0,.03-.01,.25-.33,.39-.48,.54-.26,.26-.18,.69-.18,.93,0,1.26-2.24,2.91-4.83,3.81,0,0,.15,1.44-6.87,1.44Zm-13.18-6.4c.27,.5,.77,1.38,1.08,1.83,.66,.95,1.69,1.39,3.73,2.28,1.83,.79,3.79,1.33,5.84,1.61,.18,.02,.54,.07,.95,.11,.75,.07,4.03,.29,8.24-1.33,0,0,2.48-.95,4.14-2.49,0,0,.63-.58,1.08-1.79,.04-.12,.08-.24,.03-.35-.1-.21-.87-.15-2.14-.06-.58,.04-1.28,.1-2.14,.14-.17,0-2.2,.02-6.64,.05h-2.09c-3.15,.04-4.89,.05-6.29,0-2.24-.07-4.82-.03-5.8,0Z"/></g><g><path class="cls-2" d="M.37,361.57c15.89-11.94,37-24.54,63.59-32.38,21.08-6.22,27.38-4.07,53.82-11.78,32.08-9.34,53.14-15.48,64-33.85,2.53-4.28,2.49-5.82,5.82-48.57,3.95-50.85,4.8-58.91-1.45-69.18-7.35-12.07-15.98-13.21-18.91-26.49-1.64-7.46,.65-9.06,1.45-29.44,.21-5.39,.07-5.59,0-26.49-.01-3.94-.07-22.36,0-27.97,.15-12.33,1.77-30.77,8.73-55.65h118.16c3.61,9,7.52,21.46,9.24,36.69,.6,5.33,.31,14.08,0,31.55-.12,6.73-.28,15.21-.77,26.48-.57,12.91-.91,20.75-1.92,31.16-1.46,14.98-3.46,26.5-5.77,39.72-3.13,17.88-3.64,18.42-4,20.1-.37,1.75-.47,3.09-.5,3.57-.32,4.33-1.57,9.87-1.57,9.87h0c-12.3,7.73-13.85,8.96-13.85,8.96-7.98,6.33-12.3,13.15-13.76,15.59-2.11,3.55-3.29,6.41-4.18,8.66-2.97,7.51-4.34,15.17-5.74,25.73-2.11,15.95-1.59,22.78-.99,25.9,.51,2.65,1.46,7.63,4.24,13.54,2.87,6.09,4.9,7.26,6.34,11.37,0,0,2.53,7.22-1.39,18.04-12.45,34.39-69.7,54.37-69.7,54.37-2.7,1.12-6.79,2.86-11.72,5.08-28.88,13.02-43.31,19.53-52.51,31.2-9.01,11.43-10.94,23.71-12.87,35.94-3.06,19.4-.21,38.93,.97,47.01,.25,1.73,2.29,15.47,2.3,15.47H.37c0-51.4,0-102.8,0-154.2Z"/><path class="cls-1" d="M119.22,516.02H.12v-154.57l.1-.08c19.83-14.9,41.25-25.81,63.67-32.42,10.04-2.96,16.74-4.03,23.83-5.16,7.94-1.27,16.14-2.58,30-6.61,31.95-9.31,53.04-15.45,63.86-33.74,2.33-3.95,2.44-5.32,5.17-40.53l.96-12.41c3.61-46.31,4.26-54.66-1.77-64.55-2.98-4.9-6.24-8.05-9.12-10.83-4.33-4.19-8.07-7.8-9.82-15.74-.91-4.15-.62-6.5-.04-11.18,.48-3.87,1.13-9.17,1.49-18.32,.13-3.4,.12-4.77,.08-10.55-.02-3.38-.06-8.26-.08-15.94v-.07c-.05-14.6-.05-24.25,0-27.9,.21-17,3.15-35.75,8.74-55.71l.05-.18h118.52l.06,.16c4.72,11.79,7.84,24.16,9.25,36.75,.51,4.55,.38,11.57,.14,24.3-.04,2.24-.09,4.66-.13,7.28-.11,6.32-.27,14.97-.77,26.49-.57,12.96-.91,20.76-1.93,31.17-1.49,15.29-3.57,27.17-5.78,39.74-2.55,14.56-3.38,17.68-3.77,19.18-.09,.35-.16,.62-.23,.93-.36,1.67-.45,2.94-.49,3.48-.33,4.35-1.57,9.91-1.58,9.97l-.02,.1-.09,.06c-12.1,7.6-13.81,8.93-13.83,8.94-5.44,4.31-10.3,9.83-13.7,15.53-2.06,3.46-3.23,6.26-4.16,8.62-2.92,7.39-4.31,15-5.72,25.67-1.61,12.16-1.94,20.84-.99,25.82,.51,2.66,1.45,7.6,4.22,13.48,1.4,2.97,2.58,4.74,3.62,6.3,1.06,1.59,1.98,2.97,2.73,5.09,.1,.3,2.49,7.5-1.39,18.21-12.35,34.1-69.28,54.32-69.85,54.52-3.89,1.62-7.83,3.33-11.7,5.07-28.8,12.99-43.26,19.51-52.42,31.13-8.97,11.38-10.92,23.81-12.82,35.82-3.05,19.36-.23,38.68,.97,46.93,.27,1.83,2.05,13.8,2.27,15.31l1.56,.45Zm-118.6-.5H117.17c-.22-1.04-.7-4.36-2.28-15.18-1.21-8.27-4.03-27.64-.97-47.08,1.9-12.08,3.87-24.57,12.92-36.05,9.23-11.72,23.73-18.25,52.6-31.28,3.87-1.75,7.81-3.46,11.73-5.08,.58-.21,57.29-20.34,69.56-54.22,3.82-10.54,1.49-17.58,1.39-17.87-.72-2.06-1.58-3.35-2.67-4.98-1.05-1.58-2.25-3.36-3.66-6.36-2.79-5.94-3.75-10.92-4.26-13.6-.96-5.03-.63-13.77,.99-25.98,1.42-10.7,2.81-18.35,5.75-25.79,.94-2.38,2.12-5.21,4.19-8.7,3.42-5.75,8.33-11.31,13.82-15.66,.06-.05,1.7-1.32,13.78-8.92,.17-.77,1.25-5.79,1.54-9.74,.05-.61,.14-1.91,.51-3.61,.07-.32,.14-.59,.24-.95,.39-1.49,1.21-4.6,3.76-19.14,2.2-12.56,4.28-24.43,5.77-39.71,1.01-10.4,1.36-18.2,1.92-31.12,.51-11.54,.66-20.19,.77-26.5,.05-2.61,.09-5.03,.13-7.28,.24-12.72,.38-19.72-.13-24.24-1.41-12.5-4.49-24.76-9.16-36.47h-117.8c-5.54,19.85-8.46,38.49-8.67,55.4-.05,3.65-.05,13.29,0,27.89v.07c.02,7.67,.06,12.56,.08,15.93,.04,5.78,.05,7.16-.08,10.57-.36,9.18-1.02,14.49-1.5,18.36-.57,4.63-.86,6.95,.04,11.01,1.72,7.79,5.41,11.36,9.68,15.49,2.9,2.8,6.19,5.98,9.2,10.93,6.11,10.03,5.46,18.4,1.84,64.85l-.96,12.41c-2.74,35.32-2.84,36.7-5.24,40.75-10.92,18.46-32.09,24.63-64.14,33.96-13.9,4.05-22.12,5.36-30.07,6.63-7.08,1.13-13.76,2.2-23.76,5.15-22.32,6.58-43.65,17.44-63.41,32.27v153.82Z"/></g><path d="M341.43,516.01l-15.71-7.87-3.87-14.92-4.08,1.06-3.24-12.49-6.99-6.96-2.27-11.31-7.74-5.79-3.41-13.15-5.42-3.28-.02-.11-2.93-15.53-3.98-2.86-3.12-13.26-6.31-6.18-1.31-11.31-5.93-2.35-.03-.12-3.92-15.12-6.21,1.61-7.05-27.18,6.99,9.98,1.32-3.96,4.29-1.11,4.3,16.57,8.47,5.11,.03,.1,3.89,15.01,7.06,9.92,2.92,15.19,7.28,3.96,1.86,14.16,5.29,4.46,4.61,17.8,8.61,7.99,3.56,13.72,9.31,13.71,3.03,15.19,10.73,9.36Zm-15.28-8.22l11.98,6.01-7.89-6.88-3.05-15.31-9.3-13.7-3.53-13.62-8.61-7.99-4.61-17.79-5.32-4.48-1.85-14.1-7.26-3.95-2.96-15.37-7.05-9.9-3.88-14.96-8.47-5.11-.03-.1-4.2-16.18-3.55,.92-1.55,4.64-5.97-8.52,6.23,24.02,6.21-1.61,4.01,15.48,5.97,2.37,1.32,11.43,6.29,6.16,3.11,13.22,4,2.87,2.95,15.61,5.41,3.27,.03,.1,3.39,13.08,7.76,5.8,2.28,11.35,6.98,6.95,.02,.07,3.13,12.08,4.08-1.06,3.94,15.19Z"/><path d="M354.72,515.96l-17.92-14.26-3.86-14.9-4.08,1.06-3.24-12.49-6.99-6.96-2.27-11.31-7.74-5.79-3.41-13.15-5.42-3.28-.02-.11-2.93-15.53-3.98-2.86-3.12-13.26-6.31-6.18-1.31-11.31-5.93-2.35-.03-.12-3.92-15.12-6.22,1.61-8.92-34.69,8.89,17.39,1.29-3.87,4.29-1.11,4.3,16.57,8.47,5.11,.03,.1,3.89,15.01,7.06,9.92,2.92,15.19,7.28,3.96,1.86,14.16,5.29,4.46,4.61,17.8,8.61,7.99,3.56,13.72,9.31,13.71,3.03,15.21,13.28,15.33-.34,.36Zm-17.48-14.54l15.68,12.48-11.6-13.39v-.06s-3.05-15.23-3.05-15.23l-9.3-13.69-3.53-13.62-8.61-7.99-4.61-17.79-5.32-4.48-1.85-14.1-7.26-3.95-2.96-15.37-7.05-9.9-3.88-14.96-8.47-5.11-.03-.1-4.2-16.18-3.55,.92-1.58,4.74-7.38-14.43,7.67,29.84,6.21-1.61,4.01,15.48,5.97,2.37,1.32,11.43,6.29,6.16,3.11,13.22,4,2.87,2.95,15.61,5.41,3.27,.03,.1,3.39,13.08,7.76,5.8,2.28,11.35,6.98,6.95,.02,.07,3.13,12.08,4.08-1.06,3.95,15.22Z"/><path d="M322.43,516.11l-10.93-3.9-3.68-14.18-3.85,1-3.08-11.87-6.61-6.62v-.07s-2.16-10.67-2.16-10.67l-7.32-5.51-3.24-12.49-5.12-3.13-2.81-14.85-3.76-2.73-2.97-12.59-5.96-5.88-1.25-10.73-5.6-2.24-3.75-14.46-5.86,1.52-.06-.24-7.99-29.71,7.99,13.53,1.22-3.69,4.07-1.05,4.08,15.74,8,4.86,.03,.1,3.69,14.25,6.68,9.43,2.78,14.42,6.88,3.77,1.78,13.44,5,4.24,4.38,16.9,8.14,7.6,.02,.07,3.36,12.96,8.81,13.03,2.88,14.42,6.22,5.33Zm-10.51-4.28l8.14,2.9-4.3-3.69-2.91-14.54-8.8-13.01-3.35-12.93-8.14-7.6-.02-.07-4.36-16.82-5.02-4.26-1.77-13.38-6.86-3.76-2.82-14.59-6.67-9.41-3.68-14.2-8-4.86-.03-.1-3.98-15.35-3.32,.86-1.48,4.47-6.69-11.32,6.98,25.93,5.86-1.52,3.81,14.7,5.64,2.26,1.27,10.85,5.94,5.86,.02,.07,2.94,12.48,3.77,2.73,2.81,14.83,5.11,3.12,3.24,12.51,7.33,5.52,.02,.09,2.15,10.69,6.6,6.6,2.99,11.52,3.85-1,3.74,14.41Z"/><path d="M297.89,515.81l-3.69-14.25-4.08,1.06-3.08-11.87-6.89-6.54-2.12-10.75-7.65-5.42-3.24-12.49-5.37-3.06-2.75-14.86-3.94-2.68-.02-.09-2.93-12.5-6.22-5.82-1.16-10.75-5.88-2.17-.03-.13-3.72-14.34-6.22,1.61-5.78-24.58,5.93,8.17,1.37-3.8,4.29-1.11,4.08,15.74,8.38,4.76,.03,.1,3.69,14.25,6.92,9.37,2.73,14.43,7.21,3.69,1.68,13.47,5.22,4.18,4.38,16.9,8.49,7.51,.02,.07,3.36,12.95,9.11,12.96,2.83,14.42,1.9,1.31-6.85,.27Zm-3.34-14.86l3.72,14.34,4.95-.19-.83-.58-2.86-14.57-9.11-12.94-3.35-12.92-8.49-7.51-.02-.07-4.36-16.82-5.25-4.2-1.67-13.41-7.19-3.68-2.76-14.61-6.91-9.35-3.68-14.19-8.38-4.76-.03-.1-3.98-15.35-3.55,.92-1.6,4.43-5.03-6.92,5.09,21.66,6.21-1.61,3.81,14.7,5.92,2.19,1.18,10.88,6.19,5.79,.02,.07,2.92,12.48,3.95,2.69,.02,.1,2.73,14.74,5.35,3.05,.03,.1,3.22,12.41,7.66,5.43,2.13,10.79,6.88,6.53,2.99,11.53,4.08-1.06Z"/></g><path d="M319.9,284.89c-.36,0-.72,0-1.09-.03-.54-.03-1.11-.08-1.66-.15-.11-.01-.17-.02-.19-.02-.07,0-.13-.02-.2-.03-.09-.01-.19-.03-.28-.04-.09-.02-.18-.03-.28-.05-.22-.04-.4-.07-.44-.09-.03,0-.07-.02-.1-.03-.68-.16-1.49-.38-2.67-.71-1.23-.34-1.75-.49-1.99-.57,0,0-.02,0-.02,0h0c-.15-.06-.17-.1-.19-.15l-.05-.11,.06-.11c.04-.07,.06-.11,.3-.07v-.04s.2,.06,.43,.12c.63,.15,1.85,.49,4.25,1.16,.18,.04,.34,.07,.5,.1,.16,.03,.35,.06,.55,.09,.11,.02,.22,.03,.33,.05,.49,.05,2.31,.21,5.68-.03,4.61-.54,5.71-.6,6.56-.61,.98-.03,1.48,0,1.74,.02h.1c.15,.04,.18,.07,.2,.09l.07,.08v.11c-.03,.23-.23,.23-.43,.22-.29,0-.95-.03-1.68-.02-1.15,.03-2.36,.19-2.37,.2-1.6,.2-3,.33-4.2,.42-.14,.02-.29,.03-.44,.05-.28,.03-.93,.11-1.81,.14-.23,0-.47,.01-.71,.01Z"/><path d="M362.71,284.9h-.09c-.23-.03-.8-.07-1.58-.15-.76-.07-1.83-.17-3.35-.31-.01,0-.02,0-.03,0-.33,.04-.71,.05-1.08,.04-.41,.02-.87-.06-1.41-.14-.17-.03-.35-.05-.54-.08-.58-.07-.79-.09-.95-.1-.02,0-.04,0-.06,0h0c-.16,0-.31-.02-.44-.02-.31,0-.54,0-.63,0h-.11s-.13-.07-.13-.07l-.18-.17,.17-.18s.05-.05,.19-.07h0s.03,0,.04,0c.16-.02,.46-.02,1.01,.01,.04,0,.07,0,.11,0,.02,0,.04,0,.07,0,.35,.03,.67,.06,.98,.11,0,0,0,0,.01,0,.44,.05,.75,.09,.98,.12,.46,.06,.61,.08,.89,.09l.68-.03c.13,0,.24-.01,.43-.02,.7-.01,1.13,.04,1.91,.14,.26,.03,.57,.07,.94,.11,.28,.03,.54,.06,.78,.08,.76,.07,1.14,.1,1.31,.12,.01,0,.02,0,.03,0,.03,0,.06,0,.09,0h.01c.09,.01,.13,.03,.18,.1l.14,.18-.17,.16s-.05,.03-.2,.04v.02Z"/></svg>