<?xml version="1.0" encoding="UTF-8"?><svg id="Layer_10" xmlns="http://www.w3.org/2000/svg" viewBox="0 0 404.63 516.11"><defs><style>.cls-1{fill:#240000;}</style></defs><path d="M45.39,179.81L29.29,44.12l97.91-8.51,11.98,133.79-93.78,10.41ZM30.33,44.95l15.88,133.84,91.96-10.21-11.81-131.99L30.33,44.95Z"/><path d="M278,342.28l-17.99-141.48,.48-.05,103.23-9.77,13.6,139.54-.45,.05-98.87,11.7Zm-16.94-140.66l17.75,139.64,97.5-11.54-13.43-137.74-101.82,9.64Z"/><path d="M128.36,327l-.45-.03-95.9-6.98,6.95-115.54,.48,.04,99.72,9.23-10.79,113.27Zm-95.38-7.86l94.54,6.88,10.62-111.46-98.31-9.1-6.84,113.69Z"/><path d="M354.34,174.84l-.45-.03-93.75-5.52,.03-.46,7.65-135.95,97.94,8.11-11.41,133.84Zm-93.23-6.41l92.38,5.44,11.26-132.03-96.06-7.96-7.57,134.55Z"/><path d="M153.22,147.58l-4.05-108.96h100.77v107.18h-.46s-96.27,1.79-96.27,1.79Zm-3.08-108.05l3.98,107.11,94.9-1.75V39.53h-98.88Z"/><path d="M40.58,460.45l-3.91-110.37h97.53v108.56l-93.62,1.81Zm-2.95-109.46l3.85,108.52,91.79-1.78v-106.74H37.63Z"/><path d="M156.94,467.79v-.45s-3.94-117.26-3.94-117.26h98.29v115.78h-.46s-93.89,1.93-93.89,1.93Zm-2.98-116.79l3.88,115.85,92.52-1.9v-113.96h-96.4Z"/><path d="M279.76,460.13l-3.29-98.45h81.99v96.83h-.46s-78.24,1.62-78.24,1.62Zm-2.33-97.53l3.23,96.59,76.87-1.58v-95.01h-80.1Z"/><g><path class="cls-1" d="M155.11,152.25c-5.98-5.68-1.93-18.5,1.67-25.06,.93-1.7,8.47-14.98,21.13-16.53,5.61-.69,10.35,1.16,11.68-1.07,.84-1.4-.56-3.96-3.34-9.06-2.53-4.64-3.62-5.52-4.45-8.53-.66-2.42-.28-3.04-.56-6.93-.53-7.58-2.15-7.82-2.22-13.33-.03-1.97-.04-6.33,2.22-11.2,1.07-2.3,2.47-5.32,5.56-7.53,5.6-4.02,14.25-3.6,20.02,0,6.11,3.82,8,10.59,8.34,11.8,1.05,3.77,.29,5.62,2.22,10.66,.96,2.5,1.65,3.35,1.67,5.33,.02,2.8-1.33,3.72-2.22,7.46-.89,3.75,.24,3.79-.56,6.4-1.59,5.23-6.55,6.44-6.12,9.06,.3,1.8,2.9,2.8,5.56,3.73,10.96,3.85,14.66,3.79,18.35,5.33,9.51,3.99,12.55,16.01,13.9,21.32,1.75,6.89,3.51,21.53-3.31,25.28-3.51,1.92-6.45-.58-16.15-2.89-9.79-2.33-17.23-2.26-31.14-2.13-9.17,.08-13.96,.78-27.24,.53-10.34-.19-12.96-.72-15.01-2.67Z"/><path d="M242.03,160.55c-1.59,0-3.38-.57-5.85-1.36-2.01-.64-4.51-1.45-7.78-2.22-9.73-2.32-17.29-2.25-31.01-2.12-3.48,.03-6.28,.15-9.24,.28-4.8,.2-9.77,.41-18.03,.26-10.27-.19-13.13-.71-15.33-2.79h0c-6.02-5.71-2.35-18.44,1.58-25.61,1.39-2.53,8.95-15.23,21.48-16.76,2.29-.28,4.4-.15,6.26-.03,2.57,.16,4.43,.28,5.08-.81,.7-1.18-.73-3.82-3.34-8.61-.89-1.64-1.61-2.82-2.19-3.77-1.09-1.78-1.75-2.86-2.3-4.86-.43-1.56-.44-2.44-.45-3.77,0-.8-.02-1.8-.12-3.25-.27-3.82-.81-5.75-1.3-7.45-.48-1.69-.89-3.14-.93-5.9-.02-1.73-.08-6.33,2.27-11.39,1.06-2.29,2.52-5.43,5.71-7.71,5.45-3.91,14.28-3.92,20.54-.02,5.45,3.4,7.69,9.02,8.54,12.07,.44,1.56,.57,2.83,.7,4.05,.19,1.78,.38,3.63,1.51,6.57,.26,.68,.51,1.24,.72,1.73,.58,1.34,.97,2.23,.98,3.76,.01,1.68-.45,2.74-.98,3.97-.41,.94-.87,2.01-1.25,3.6-.45,1.88-.37,2.79-.29,3.59,.07,.78,.14,1.51-.27,2.84-.88,2.87-2.7,4.56-4.17,5.92-1.34,1.24-2.09,1.99-1.93,2.94,.25,1.5,2.63,2.45,5.26,3.37,6.31,2.21,10.22,3.13,13.08,3.8,2.15,.5,3.7,.87,5.29,1.54,9.72,4.07,12.84,16.38,14.17,21.64,.43,1.7,1.81,7.71,1.57,13.95-.24,6.13-1.96,10.11-5.11,11.85-.95,.52-1.87,.74-2.85,.74Zm-36.73-6.68c9.15,0,15.53,.34,23.32,2.2,3.3,.79,5.83,1.59,7.85,2.24,3.88,1.24,5.82,1.87,7.96,.69,6.5-3.57,4.86-17.76,3.09-24.77-1.3-5.12-4.34-17.12-13.63-21.01-1.52-.64-3.04-.99-5.15-1.49-2.88-.68-6.82-1.6-13.18-3.83-2.45-.86-5.51-1.93-5.86-4.09-.24-1.48,.9-2.53,2.22-3.76,1.39-1.28,3.11-2.88,3.91-5.51,.35-1.16,.3-1.75,.23-2.49-.08-.87-.17-1.85,.31-3.88,.4-1.67,.88-2.78,1.3-3.75,.54-1.23,.92-2.12,.91-3.6-.01-1.34-.35-2.12-.9-3.4-.22-.5-.47-1.07-.73-1.77-1.17-3.05-1.38-4.96-1.57-6.8-.13-1.24-.25-2.41-.67-3.9-.65-2.35-2.76-8.17-8.14-11.53-5.95-3.72-14.33-3.72-19.49-.02-2.99,2.15-4.33,5.03-5.41,7.35-2.26,4.87-2.2,9.32-2.18,11,.03,2.64,.43,4.04,.89,5.67,.49,1.75,1.06,3.72,1.33,7.64,.1,1.48,.11,2.49,.12,3.31,.01,1.34,.02,2.09,.42,3.53,.52,1.88,1.15,2.91,2.2,4.63,.58,.96,1.31,2.15,2.21,3.8,2.95,5.42,4.3,7.89,3.33,9.51-.94,1.58-3.14,1.44-5.94,1.26-1.82-.11-3.87-.24-6.08,.03-12.08,1.48-19.43,13.83-20.78,16.29-3.8,6.92-7.4,19.15-1.75,24.51h0c1.86,1.76,4.13,2.34,14.7,2.54,8.23,.15,13.18-.06,17.97-.26,2.97-.13,5.78-.24,9.26-.28,2.89-.03,5.51-.05,7.93-.05Z"/></g><path d="M294.11,409.02h-.01c-3.44,0-7.25-1.26-12.52-3l-.07-.02c-4.27-1.41-9.59-3.17-16.52-4.87-20.67-5.07-36.74-4.92-65.9-4.65h-.11c-7.43,.07-13.37,.33-19.66,.61h-.1c-10.21,.45-20.77,.91-38.32,.57-22-.42-28.16-1.59-32.92-6.25-13-12.72-5.15-40.92,3.29-56.78,2.98-5.59,19.19-33.65,46.07-37.04,4.93-.62,9.43-.33,13.4-.07,5.13,.33,9.19,.6,10.45-1.58,1.37-2.38-1.65-8.1-7.13-18.48-1.92-3.62-3.44-6.19-4.66-8.26-2.34-3.95-3.75-6.33-4.94-10.79-.93-3.49-.95-5.44-.98-8.39-.02-1.78-.04-3.96-.25-7.12-.57-8.34-1.73-12.56-2.75-16.28-1.03-3.74-1.92-6.96-1.99-13.08-.05-3.83-.18-14,4.87-25.22,2.28-5.07,5.41-12.02,12.3-17.12,11.74-8.69,30.74-8.71,44.2-.05,11.73,7.55,16.55,20,18.37,26.75,.94,3.47,1.22,6.27,1.5,8.97,.4,3.9,.81,7.92,3.2,14.32,.55,1.48,1.06,2.7,1.52,3.77,1.22,2.91,2.1,5,2.13,8.44,.03,3.78-.97,6.15-2.13,8.9-.87,2.05-1.85,4.38-2.65,7.84-.94,4.07-.77,6.02-.62,7.73,.15,1.75,.3,3.4-.59,6.41-1.9,6.43-5.83,10.18-8.99,13.19-2.75,2.62-4.29,4.2-4,6.07,.49,3.05,5.45,5.09,10.93,7.07,13.44,4.87,21.76,6.88,27.83,8.35,4.61,1.12,7.92,1.92,11.34,3.4,20.9,9.04,27.58,36.21,30.43,47.82,3.94,16.02,7.39,48.59-7.73,57.15-2.04,1.15-4.03,1.68-6.27,1.68Zm-12.38-3.48c5.23,1.73,9.01,2.98,12.37,2.98h.01c2.15,0,4.07-.51,6.02-1.62,14.86-8.41,11.4-40.7,7.49-56.6-2.83-11.53-9.47-38.54-30.14-47.48-3.38-1.46-6.68-2.26-11.24-3.36-6.1-1.48-14.43-3.49-27.9-8.37-5.63-2.04-10.73-4.14-11.26-7.46-.33-2.11,1.27-3.77,4.14-6.51,3.12-2.97,7-6.67,8.86-12.98,.86-2.92,.72-4.52,.57-6.22-.15-1.75-.33-3.74,.63-7.89,.81-3.5,1.8-5.85,2.67-7.91,1.14-2.71,2.12-5.04,2.09-8.71-.03-3.35-.89-5.4-2.08-8.23-.46-1.1-.97-2.32-1.53-3.81-2.41-6.47-2.83-10.52-3.23-14.44-.27-2.69-.56-5.46-1.48-8.9-1.81-6.68-6.57-19.01-18.16-26.47-13.29-8.55-32.04-8.54-43.63,.03-6.79,5.02-9.88,11.9-12.14,16.92-5.01,11.12-4.87,21.21-4.82,25.01,.08,6.05,.96,9.25,1.98,12.95,1.03,3.74,2.19,7.98,2.77,16.38,.22,3.17,.24,5.35,.26,7.11,.03,2.95,.05,4.87,.96,8.31,1.17,4.39,2.57,6.75,4.89,10.66,1.23,2.07,2.75,4.64,4.67,8.27,5.57,10.55,8.64,16.35,7.13,18.97-1.41,2.45-5.61,2.17-10.92,1.83-3.95-.26-8.42-.55-13.31,.07-26.64,3.36-42.73,31.23-45.69,36.78-8.37,15.73-16.19,43.67-3.38,56.19,4.65,4.54,10.74,5.69,32.58,6.11,17.54,.34,28.09-.12,38.29-.56h.1c6.3-.28,12.24-.54,19.68-.61h.11c29.2-.28,45.29-.43,66.02,4.66,6.95,1.71,12.28,3.47,16.56,4.88v.26s.07-.24,.07-.24Zm12.34,1.1c-3.08,0-6.66-1.18-11.85-2.9-4.31-1.42-9.67-3.2-16.72-4.92-16.51-4.05-30.18-4.82-49.63-4.82-5.12,0-10.76,.05-16.74,.11h-.18c-7.38,.07-13.32,.33-19.62,.6h-.12c-10.15,.45-20.64,.91-38.29,.57-22.57-.44-27.42-1.72-31.39-5.6-12.05-11.79-4.38-38.7,3.72-53.9,2.89-5.41,18.58-32.59,44.34-35.83,4.73-.59,9.11-.31,12.99-.06,5.91,.38,10.58,.68,12.55-2.73,2.05-3.55-.82-8.97-7.09-20.85-1.93-3.66-3.48-6.26-4.72-8.36-2.23-3.77-3.58-6.05-4.68-10.18-.85-3.18-.87-4.81-.89-7.77-.02-1.8-.04-4.02-.26-7.27-.58-8.59-1.78-12.93-2.83-16.76-.98-3.57-1.83-6.66-1.91-12.46-.05-3.68-.18-13.46,4.66-24.18,2.29-5.1,5.15-11.46,11.55-16.19,11.04-8.16,28.95-8.15,41.67,.03,11.49,7.4,15.98,20.21,17.38,25.38,.89,3.28,1.15,5.85,1.43,8.58,.41,4.04,.84,8.23,3.34,14.93,.58,1.54,1.12,2.84,1.56,3.88,1.19,2.83,1.91,4.54,1.93,7.5,.03,3.27-.8,5.22-1.94,7.93-.91,2.15-1.93,4.57-2.78,8.24-1.02,4.45-.83,6.69-.67,8.5,.14,1.65,.26,2.94-.5,5.5-1.72,5.8-5.39,9.32-8.35,12.14-2.81,2.67-5.22,4.98-4.71,8.2,.75,4.7,7.23,7.04,12.43,8.93,13.57,4.91,21.95,6.94,28.06,8.42,4.5,1.09,7.74,1.87,10.98,3.28,19.84,8.58,26.32,34.95,29.09,46.21,3.79,15.41,7.28,46.62-6.61,54.48-1.72,.97-3.38,1.39-5.21,1.39Zm-78.2-13.15c19.49,0,33.18,.77,49.75,4.83,7.07,1.73,12.44,3.51,16.75,4.94,8.16,2.7,12.25,4.05,16.66,1.55,13.63-7.71,10.13-38.64,6.37-53.92-2.75-11.19-9.19-37.4-28.81-45.88-3.2-1.39-6.43-2.17-10.89-3.25-6.14-1.48-14.53-3.51-28.13-8.44-5.33-1.93-11.97-4.33-12.76-9.32-.55-3.49,1.95-5.87,4.85-8.64,2.92-2.79,6.54-6.25,8.22-11.92,.73-2.46,.62-3.72,.48-5.3-.16-1.85-.36-4.14,.68-8.67,.85-3.71,1.89-6.16,2.8-8.31,1.12-2.66,1.93-4.58,1.9-7.74-.02-2.86-.73-4.53-1.89-7.3-.44-1.05-.99-2.35-1.57-3.91-2.52-6.77-2.95-10.98-3.37-15.06-.28-2.71-.54-5.26-1.41-8.5-1.38-5.11-5.82-17.79-17.17-25.09-12.55-8.08-30.22-8.1-41.1-.05-6.29,4.66-9.12,10.94-11.39,15.99-4.78,10.62-4.66,20.32-4.61,23.97,.08,5.73,.92,8.79,1.89,12.33,1.06,3.85,2.26,8.22,2.85,16.86,.22,3.26,.24,5.49,.26,7.28,.03,2.93,.04,4.54,.88,7.67,1.08,4.07,2.42,6.32,4.63,10.05,1.25,2.1,2.79,4.71,4.73,8.38,6.36,12.05,9.27,17.55,7.08,21.33-2.12,3.68-6.92,3.37-13,2.98-3.86-.25-8.22-.53-12.91,.05-25.52,3.22-41.1,30.2-43.97,35.57-8.03,15.08-15.67,41.71-3.82,53.31,3.87,3.78,8.65,5.03,31.05,5.46,17.63,.34,28.11-.12,38.25-.56h.12c6.3-.28,12.24-.54,19.63-.61h.18c5.98-.06,11.62-.11,16.75-.11Z"/><g><path class="cls-1" d="M47.05,187.57c-6.71-5.39-3.73-19.15-.62-26.32,.81-1.86,7.35-16.41,20.28-19.16,5.73-1.22,10.8,.28,11.96-2.16,.73-1.54-.94-4.08-4.29-9.17-3.04-4.62-4.26-5.44-5.39-8.51-.91-2.46-.58-3.14-1.22-7.19-1.26-7.87-2.95-7.98-3.54-13.72-.21-2.05-.63-6.61,1.25-11.89,.89-2.49,2.05-5.78,5.04-8.37,5.41-4.7,14.39-5.04,20.68-1.8,6.67,3.44,9.26,10.34,9.72,11.58,1.44,3.84,.82,5.85,3.29,10.94,1.23,2.52,2.02,3.35,2.22,5.42,.29,2.92-1.03,4-1.6,8-.57,3.99,.6,3.94,.02,6.73-1.16,5.6-6.16,7.32-5.47,10.02,.47,1.86,3.26,2.66,6.09,3.4,11.68,3.03,15.51,2.64,19.46,3.92,10.19,3.31,14.47,15.6,16.36,21.03,2.45,7.04,5.64,22.18-1.06,26.7-3.44,2.32-6.72-.03-16.96-1.57-10.33-1.55-18.01-.81-32.37,.57-9.47,.91-14.35,2.07-28.1,3-10.7,.73-13.46,.41-15.76-1.44Z"/><path d="M54.7,189.82c-4.36,0-6.28-.56-7.94-1.9-6.74-5.42-4.15-19.03-.75-26.86,1.2-2.77,7.82-16.71,20.61-19.43,2.34-.5,4.53-.55,6.46-.59,2.68-.06,4.61-.11,5.18-1.31,.62-1.31-1.11-3.94-4.26-8.72-1.08-1.64-1.93-2.8-2.62-3.74-1.29-1.76-2.07-2.83-2.82-4.86-.59-1.59-.67-2.46-.82-3.89-.08-.84-.19-1.88-.43-3.39-.63-3.97-1.38-5.94-2.04-7.67-.65-1.72-1.21-3.2-1.51-6.07-.19-1.81-.68-6.6,1.28-12.09,.88-2.49,2.09-5.89,5.17-8.56,5.26-4.57,14.38-5.37,21.2-1.86,5.95,3.06,8.78,8.72,9.94,11.82,.6,1.59,.85,2.9,1.1,4.16,.36,1.85,.73,3.76,2.18,6.73,.34,.69,.64,1.25,.9,1.75,.73,1.35,1.21,2.24,1.36,3.83,.17,1.75-.21,2.9-.64,4.23-.33,1.02-.71,2.18-.96,3.87-.29,2.01-.12,2.95,.03,3.78,.14,.8,.28,1.56-.01,2.98-.63,3.07-2.36,5-3.75,6.55-1.16,1.29-2,2.23-1.73,3.27,.4,1.55,2.95,2.34,5.76,3.07,6.73,1.75,10.86,2.36,13.87,2.8,2.27,.33,3.91,.57,5.61,1.13,10.41,3.38,14.78,15.95,16.65,21.31,2.57,7.39,5.62,22.6-1.23,27.23-2.44,1.65-4.79,1.11-9.04,.13-2.14-.49-4.8-1.11-8.25-1.62-10.28-1.55-18.08-.79-32.25,.57-3.58,.35-6.46,.72-9.51,1.12-4.94,.64-10.05,1.31-18.6,1.89-3.43,.23-6.06,.36-8.14,.36Zm27.39-112.24c-4.23,0-8.36,1.31-11.26,3.83-2.89,2.51-4.01,5.65-4.91,8.18-1.88,5.3-1.41,9.95-1.23,11.69,.28,2.75,.83,4.19,1.45,5.84,.67,1.78,1.44,3.79,2.09,7.85,.25,1.54,.35,2.59,.44,3.44,.14,1.36,.22,2.18,.76,3.66,.71,1.92,1.46,2.94,2.7,4.64,.69,.95,1.56,2.12,2.64,3.78,3.55,5.39,5.17,7.84,4.33,9.61-.82,1.72-3.11,1.77-6,1.84-1.89,.04-4.03,.09-6.28,.57-12.34,2.63-18.79,16.2-19.96,18.89-3.28,7.57-5.86,20.69,.49,25.79h0c2.09,1.67,4.49,2.08,15.43,1.33,8.52-.58,13.62-1.24,18.55-1.88,3.06-.4,5.94-.77,9.54-1.12,14.25-1.37,22.09-2.13,32.48-.57,3.49,.52,6.17,1.14,8.32,1.64,4.13,.95,6.2,1.43,8.3,0,6.4-4.32,3.37-19.01,.88-26.18-1.82-5.24-6.09-17.5-16.06-20.74-1.63-.53-3.24-.77-5.46-1.09-3.04-.45-7.19-1.06-13.97-2.82-3.21-.83-5.91-1.69-6.43-3.73-.39-1.51,.69-2.71,1.94-4.1,1.31-1.47,2.95-3.29,3.53-6.12,.26-1.25,.15-1.86,0-2.64-.16-.9-.34-1.91-.04-4.07,.25-1.78,.65-2.98,.99-4.03,.42-1.29,.76-2.3,.6-3.86-.14-1.41-.56-2.19-1.26-3.48-.27-.5-.58-1.08-.92-1.78-1.5-3.08-1.88-5.05-2.25-6.96-.25-1.29-.49-2.5-1.06-4.02-.9-2.4-3.62-8.3-9.5-11.33-2.73-1.4-5.84-2.09-8.9-2.09Z"/></g><g><path class="cls-1" d="M36.66,321.93c-5.25-5.39-.28-16.08,3.73-21.41,1.04-1.38,9.38-12.16,21.63-12.41,5.43-.11,9.81,1.88,11.27,.08,.92-1.14-.2-3.45-2.42-8.08-2.02-4.21-3-5.06-3.53-7.72-.43-2.14-.01-2.64,.06-6.01,.14-6.56-1.39-6.91-1-11.66,.14-1.69,.5-5.45,3.08-9.44,1.22-1.88,2.82-4.36,5.96-6.01,5.71-2.98,13.95-1.88,19.16,1.71,5.53,3.81,6.76,9.79,6.98,10.86,.68,3.33-.2,4.86,1.22,9.36,.71,2.23,1.3,3.02,1.14,4.73-.22,2.41-1.59,3.08-2.76,6.23-1.17,3.15-.09,3.28-1.08,5.46-1.97,4.36-6.81,4.98-6.63,7.27,.13,1.58,2.54,2.65,5.01,3.69,10.17,4.25,13.72,4.51,17.11,6.15,8.76,4.24,10.66,14.84,11.49,19.53,1.09,6.08,1.53,18.83-5.32,21.46-3.52,1.36-6.13-1.05-15.22-3.86-9.18-2.84-16.3-3.42-29.63-4.49-8.79-.71-13.43-.52-26.13-1.87-9.88-1.05-12.35-1.72-14.15-3.57Z"/><path d="M119.74,336.58c-1.69,0-3.48-.69-6.07-1.7-1.87-.73-4.2-1.63-7.26-2.58-9.12-2.82-16.37-3.41-29.52-4.47-3.33-.27-6.01-.41-8.86-.55-4.61-.24-9.39-.48-17.29-1.32-9.82-1.04-12.52-1.74-14.45-3.72-5.31-5.46-.7-16.14,3.69-21.99,1.55-2.06,9.89-12.36,22.02-12.6,2.22-.04,4.23,.25,5.99,.51,2.35,.34,4.21,.62,4.9-.25,.74-.92-.47-3.44-2.48-7.61-.71-1.48-1.3-2.56-1.78-3.42-.89-1.63-1.43-2.62-1.79-4.4-.28-1.39-.21-2.15-.11-3.3,.06-.69,.14-1.55,.16-2.8,.07-3.3-.29-5-.61-6.5-.32-1.5-.59-2.79-.39-5.18,.13-1.5,.46-5.47,3.15-9.64,1.22-1.89,2.88-4.47,6.14-6.17,5.56-2.9,14.02-2.15,19.68,1.74,4.94,3.4,6.62,8.44,7.17,11.15,.29,1.39,.31,2.49,.32,3.56,.03,1.54,.06,3.14,.89,5.76,.19,.61,.38,1.11,.54,1.55,.43,1.17,.74,2.02,.62,3.35-.13,1.46-.67,2.35-1.29,3.37-.47,.77-1,1.64-1.5,2.97-.58,1.57-.58,2.34-.58,3.03,0,.68,0,1.33-.51,2.45-1.09,2.42-2.99,3.72-4.52,4.76-1.37,.94-2.14,1.51-2.07,2.29,.11,1.38,2.77,2.49,4.72,3.3,5.85,2.44,9.52,3.57,12.2,4.39,2.02,.62,3.47,1.06,4.94,1.78,8.98,4.34,10.92,15.22,11.75,19.86,1.15,6.41,1.45,19.25-5.61,21.97-.76,.29-1.48,.42-2.21,.42Zm-57.27-48.02c-.15,0-.29,0-.44,0-11.67,.24-19.75,10.22-21.25,12.22-4.21,5.6-8.68,15.78-3.77,20.83h0c1.62,1.67,3.74,2.36,13.85,3.43,7.87,.84,12.63,1.08,17.23,1.31,2.85,.15,5.55,.28,8.89,.55,13.22,1.07,20.51,1.66,29.74,4.51,3.1,.96,5.44,1.87,7.33,2.6,3.6,1.4,5.41,2.1,7.56,1.28,6.49-2.5,6.13-14.8,5.03-20.96-.81-4.51-2.69-15.06-11.24-19.2-1.4-.68-2.83-1.11-4.8-1.72-2.7-.83-6.39-1.96-12.29-4.42-2.81-1.17-5.15-2.29-5.29-4.07-.11-1.34,1.09-2.16,2.47-3.11,1.43-.98,3.21-2.2,4.19-4.38,.43-.95,.43-1.45,.43-2.09,0-.72,0-1.62,.64-3.34,.53-1.41,1.08-2.32,1.57-3.13,.61-1,1.05-1.73,1.17-2.99,.1-1.14-.15-1.83-.57-2.97-.17-.45-.35-.96-.55-1.59-.87-2.74-.9-4.4-.93-6.01-.02-1.07-.04-2.09-.31-3.4-.53-2.57-2.12-7.36-6.79-10.58-5.38-3.7-13.39-4.42-18.65-1.68-3.03,1.58-4.56,3.95-5.78,5.84-2.57,3.98-2.89,7.8-3.01,9.24-.19,2.26,.07,3.49,.37,4.93,.33,1.55,.7,3.3,.62,6.7-.03,1.29-.1,2.16-.16,2.86-.1,1.15-.16,1.78,.1,3.05,.33,1.65,.85,2.59,1.7,4.15,.48,.87,1.07,1.96,1.8,3.47,2.38,4.94,3.46,7.2,2.37,8.55-1.05,1.29-3.15,.98-5.81,.59-1.61-.24-3.42-.5-5.39-.5Z"/></g><g><g><path class="cls-1" d="M260.47,171.37c-6.16-5.71-1.9-18.51,1.86-25.05,.97-1.7,8.83-14.93,21.93-16.41,5.8-.66,10.7,1.21,12.08-1,.87-1.4-.55-3.96-3.4-9.08-2.59-4.65-3.72-5.54-4.55-8.55-.67-2.42-.28-3.04-.54-6.93-.51-7.58-2.18-7.83-2.23-13.34-.02-1.97,0-6.33,2.36-11.18,1.11-2.29,2.58-5.3,5.79-7.51,5.82-3.99,14.75-3.52,20.7,.11,6.3,3.85,8.22,10.63,8.56,11.84,1.07,3.77,.27,5.62,2.24,10.67,.98,2.5,1.69,3.36,1.7,5.34,0,2.8-1.4,3.71-2.34,7.45-.94,3.74,.23,3.79-.61,6.39-1.67,5.22-6.8,6.41-6.37,9.03,.3,1.81,2.98,2.81,5.73,3.76,11.31,3.91,15.14,3.86,18.94,5.43,9.81,4.04,12.89,16.08,14.26,21.4,1.77,6.9,3.52,21.55-3.56,25.26-3.63,1.91-6.67-.61-16.68-2.97-10.11-2.38-17.8-2.35-32.18-2.3-9.48,.04-14.44,.71-28.17,.39-10.69-.25-13.39-.79-15.51-2.74Z"/><path d="M350.33,180.16c-1.66,0-3.51-.58-6.08-1.39-2.08-.66-4.66-1.47-8.03-2.27-10.05-2.37-17.87-2.34-32.05-2.28-3.61,.01-6.5,.12-9.56,.23-4.97,.18-10.1,.36-18.64,.16-10.62-.25-13.58-.79-15.84-2.88h0c-6.22-5.76-2.35-18.5,1.76-25.66,1.45-2.53,9.35-15.2,22.31-16.66,2.38-.27,4.55-.12,6.47,0,2.55,.17,4.57,.3,5.24-.77,.72-1.15-.75-3.79-3.41-8.57-.91-1.64-1.65-2.83-2.25-3.78-1.12-1.79-1.79-2.87-2.35-4.89-.44-1.57-.44-2.45-.45-3.78,0-.8,0-1.8-.11-3.25-.26-3.81-.81-5.74-1.3-7.45-.49-1.69-.91-3.16-.93-5.92-.01-1.74-.05-6.34,2.41-11.41,1.12-2.29,2.64-5.42,5.96-7.7,5.66-3.88,14.79-3.85,21.24,.09,5.63,3.44,7.92,9.08,8.78,12.13,.44,1.57,.58,2.84,.7,4.07,.18,1.78,.38,3.62,1.53,6.56,.27,.68,.51,1.24,.73,1.74,.58,1.3,.99,2.25,1,3.79,0,1.69-.48,2.76-1.04,3.99-.43,.94-.91,2-1.31,3.58-.47,1.87-.39,2.77-.32,3.56,.07,.78,.13,1.52-.3,2.86-.93,2.88-2.83,4.56-4.35,5.92-1.38,1.22-2.15,1.96-2,2.88,.26,1.6,3.23,2.62,5.4,3.37,6.51,2.25,10.56,3.19,13.51,3.87,2.22,.52,3.82,.89,5.46,1.56,10.04,4.13,13.2,16.47,14.55,21.73,1.86,7.27,3.47,22.02-3.81,25.83-.98,.51-1.91,.73-2.92,.73Zm-40.51-6.96c10.87,0,17.9,.27,26.63,2.33,3.41,.8,6.02,1.62,8.11,2.29,4,1.26,6.01,1.89,8.23,.73,6.72-3.52,5.1-17.69,3.3-24.7-1.31-5.12-4.39-17.12-13.97-21.06-1.57-.64-3.14-1.01-5.31-1.51-2.97-.69-7.04-1.64-13.61-3.9-3.12-1.08-5.73-2.13-6.06-4.15-.25-1.51,.95-2.57,2.33-3.79,1.44-1.27,3.22-2.85,4.06-5.47,.37-1.15,.32-1.73,.25-2.47-.08-.87-.16-1.86,.35-3.9,.42-1.67,.92-2.78,1.37-3.75,.56-1.22,.96-2.1,.95-3.57,0-1.33-.35-2.1-.91-3.38-.22-.5-.48-1.08-.75-1.77-1.2-3.07-1.4-4.98-1.59-6.83-.13-1.24-.25-2.41-.67-3.9-.83-2.92-3.01-8.29-8.34-11.55-6.13-3.74-14.79-3.8-20.15-.12-3.1,2.12-4.5,5-5.62,7.31-2.36,4.85-2.32,9.29-2.31,10.96,.02,2.63,.42,4.03,.89,5.65,.5,1.75,1.07,3.73,1.34,7.66,.1,1.49,.11,2.5,.11,3.31,0,1.34,.01,2.08,.41,3.52,.52,1.87,1.17,2.91,2.24,4.63,.6,.96,1.34,2.15,2.27,3.82,3.03,5.45,4.42,7.94,3.39,9.59-.99,1.58-3.27,1.43-6.16,1.24-1.88-.12-4.01-.26-6.29,0-12.49,1.41-20.15,13.71-21.56,16.17-3.96,6.88-7.74,19.07-1.95,24.43h0c1.91,1.77,4.25,2.36,15.18,2.61,8.51,.2,13.63,.01,18.59-.16,3.07-.11,5.97-.21,9.57-.23,2.01,0,3.89-.01,5.67-.01Z"/></g><g><path d="M350.33,180.12c-1.65,0-3.5-.58-6.07-1.39-2.08-.65-4.66-1.47-8.04-2.27-10.06-2.37-17.88-2.34-32.07-2.28-3.59,.01-6.49,.12-9.55,.23-4.96,.18-10.09,.36-18.63,.16-10.61-.25-13.56-.78-15.81-2.87h0c-6.2-5.75-2.34-18.46,1.77-25.61,1.45-2.52,9.34-15.18,22.28-16.64,2.37-.27,4.54-.13,6.46,0,2.66,.17,4.59,.3,5.27-.79,.73-1.17-.74-3.81-3.41-8.62-.92-1.65-1.65-2.83-2.25-3.78-1.12-1.79-1.79-2.87-2.35-4.88-.44-1.57-.44-2.44-.45-3.77,0-.8,0-1.8-.11-3.25-.26-3.82-.81-5.75-1.3-7.46-.49-1.69-.91-3.15-.93-5.91-.01-1.73-.05-6.34,2.4-11.39,1.11-2.28,2.63-5.41,5.94-7.68,5.65-3.88,14.77-3.84,21.2,.09,5.62,3.43,7.9,9.06,8.76,12.11,.44,1.57,.57,2.83,.7,4.06,.18,1.78,.38,3.63,1.53,6.57,.27,.68,.52,1.24,.73,1.74,.6,1.35,.99,2.24,.99,3.77,0,1.68-.48,2.74-1.04,3.97-.43,.94-.91,2-1.31,3.59-.47,1.88-.39,2.78-.32,3.58,.07,.78,.13,1.51-.29,2.84-.92,2.87-2.82,4.55-4.34,5.9-1.39,1.23-2.17,1.98-2.02,2.92,.25,1.5,2.71,2.46,5.42,3.4,6.51,2.25,10.56,3.19,13.51,3.87,2.22,.52,3.82,.89,5.46,1.56,10.02,4.12,13.18,16.45,14.53,21.71,1.86,7.25,3.46,21.98-3.79,25.78-.97,.51-1.9,.73-2.91,.73Zm-40.48-6.88c10.84,0,17.86,.27,26.59,2.32,3.41,.8,6.01,1.62,8.1,2.28,4.01,1.26,6.02,1.9,8.25,.73,6.74-3.53,5.12-17.73,3.32-24.74-1.32-5.13-4.4-17.14-13.99-21.09-1.57-.65-3.14-1.01-5.32-1.52-2.97-.69-7.04-1.64-13.6-3.9-3.11-1.07-5.71-2.12-6.03-4.12-.24-1.49,.94-2.54,2.31-3.75,1.44-1.27,3.23-2.86,4.07-5.49,.37-1.16,.32-1.74,.25-2.49-.08-.87-.16-1.85,.35-3.88,.42-1.67,.92-2.77,1.37-3.75,.56-1.23,.96-2.11,.96-3.59,0-1.34-.35-2.12-.92-3.4-.22-.5-.48-1.07-.75-1.77-1.2-3.06-1.4-4.97-1.59-6.81-.13-1.24-.25-2.41-.67-3.9-.66-2.35-2.81-8.19-8.36-11.58-6.14-3.75-14.82-3.8-20.19-.12-3.11,2.13-4.51,5.01-5.63,7.33-2.36,4.86-2.33,9.31-2.31,10.98,.02,2.63,.43,4.04,.89,5.67,.5,1.75,1.07,3.73,1.34,7.65,.1,1.48,.1,2.49,.11,3.31,0,1.34,.01,2.08,.41,3.53,.52,1.88,1.17,2.92,2.24,4.64,.6,.96,1.34,2.15,2.27,3.82,3.02,5.44,4.4,7.92,3.39,9.54-.97,1.56-3.25,1.41-6.12,1.23-1.88-.12-4.01-.26-6.3,0-12.5,1.41-20.17,13.73-21.58,16.18-3.96,6.89-7.75,19.1-1.94,24.49h0c1.91,1.77,4.26,2.37,15.2,2.62,8.51,.2,13.63,.02,18.58-.16,3.07-.11,5.98-.21,9.58-.23,2.02,0,3.91-.02,5.7-.02Z"/><path d="M350.33,180.62c-1.73,0-3.61-.59-6.21-1.42-2.09-.66-4.66-1.47-8.01-2.26-10.01-2.36-17.81-2.32-31.96-2.27-3.64,.01-6.64,.12-9.54,.23-4.99,.18-10.12,.36-18.66,.16-10.76-.25-13.78-.81-16.14-3-6.41-5.94-2.51-18.94,1.68-26.22,1.47-2.56,9.47-15.4,22.66-16.89,2.43-.27,4.62-.13,6.55,0,2.4,.16,4.29,.28,4.81-.55,.57-.92-1.01-3.78-3.42-8.1-.91-1.63-1.64-2.8-2.22-3.74-1.16-1.85-1.84-2.95-2.42-5.03-.45-1.63-.46-2.58-.47-3.9,0-.79,0-1.78-.11-3.22-.25-3.76-.8-5.67-1.28-7.35-.5-1.73-.93-3.22-.95-6.05-.01-1.76-.05-6.45,2.46-11.61,1.14-2.34,2.69-5.53,6.11-7.88,5.8-3.98,15.16-3.95,21.75,.08,5.76,3.52,8.1,9.28,8.99,12.4,.45,1.61,.59,2.89,.72,4.14,.18,1.75,.37,3.56,1.5,6.45,.25,.65,.49,1.19,.7,1.66,.62,1.41,1.06,2.39,1.06,4.02,0,1.79-.52,2.95-1.08,4.18-.42,.92-.89,1.96-1.28,3.5-.45,1.8-.38,2.65-.31,3.41,.07,.79,.14,1.61-.32,3.04-.96,3-2.92,4.73-4.49,6.12-1.37,1.21-1.96,1.82-1.85,2.47,.2,1.22,2.63,2.16,5.09,3.01,6.48,2.24,10.5,3.17,13.44,3.86,2.26,.52,3.88,.9,5.56,1.59,10.25,4.22,13.46,16.71,14.83,22.05,1.9,7.39,3.49,22.4-4.04,26.35-1.02,.53-2.02,.78-3.14,.78h0Zm-40.47-7.88c11.37,0,18.27,.35,26.71,2.34,3.43,.81,6.04,1.63,8.13,2.29,4.01,1.26,5.83,1.84,7.88,.77,6.47-3.39,4.84-17.3,3.07-24.18-1.3-5.06-4.34-16.9-13.69-20.75-1.54-.63-3.09-.99-5.24-1.49-2.99-.7-7.07-1.65-13.65-3.92-3.26-1.12-5.99-2.24-6.37-4.51-.29-1.76,1.05-2.95,2.48-4.21,1.39-1.23,3.13-2.77,3.93-5.27,.34-1.06,.3-1.58,.23-2.29-.08-.91-.17-1.94,.36-4.05,.43-1.72,.94-2.84,1.4-3.83,.55-1.21,.92-2.01,.91-3.38,0-1.23-.31-1.93-.87-3.2-.23-.51-.48-1.09-.76-1.79-1.22-3.12-1.42-5.06-1.62-6.94-.13-1.22-.24-2.37-.66-3.82-.65-2.29-2.73-7.99-8.14-11.29-5.99-3.65-14.43-3.71-19.64-.13-3,2.06-4.37,4.87-5.47,7.13-2.31,4.75-2.28,9.11-2.26,10.76,.02,2.57,.42,3.94,.87,5.53,.51,1.78,1.09,3.79,1.35,7.75,.1,1.51,.11,2.57,.11,3.34,0,1.34,0,2.02,.4,3.4,.5,1.81,1.14,2.82,2.19,4.5,.6,.97,1.35,2.17,2.28,3.84,3.12,5.61,4.55,8.17,3.38,10.05-1.13,1.82-3.54,1.66-6.58,1.46-1.86-.12-3.96-.26-6.21,0-12.26,1.38-19.81,13.52-21.2,15.94-3.88,6.76-7.63,18.69-2.04,23.87,1.81,1.68,4.09,2.24,14.87,2.49,8.46,.2,13.56,.02,18.49-.16h.15c3.05-.11,5.93-.22,9.5-.23,2.02,0,3.92-.01,5.7-.01Zm-15.34,.74l.02,.42s.08,0,.12,0l-.14-.41Z"/></g></g><g><path class="cls-1" d="M41.37,452.19c4.5-4.96,7.39-8.14,12.37-9.55,3.39-.96,3.61,.09,10.24-1.07,4.4-.76,6.65-1.18,9.1-2.67,2.77-1.68,6.86-5.38,6.26-9.06-.41-2.52-2.71-3.06-5.12-5.86-2.48-2.89-3.02-6.41-3.98-13.33-1.11-7.96,.07-6.99-.57-21.86-.13-3.12-.32-6.28,1.14-10.13,.63-1.66,1.74-4.6,4.55-6.93,1.41-1.17,3.65-2.52,12.52-3.73,7.29-1,10.93-1.88,14.22-1.07,2.05,.51,6.12,1.52,8.53,4.8,1.63,2.21,.94,3.33,2.28,12.79,.65,4.62,.9,4.97,1.14,8,.17,2.14,.39,5.17,0,9.06-.29,2.95-.55,5.56-1.71,8.53-2.77,7.14-7.87,9.08-6.83,12.26,.73,2.21,3.37,1.86,4.55,4.8,.96,2.38-.34,3.71,0,6.4,.38,3.01,2.47,5.01,5.12,7.46,5.81,5.39,8.76,4.41,14.79,9.6,1.89,1.63,4.41,3.83,6.26,7.46,.21,.42,4.66,9.35,.96,12.92-1.85,1.79-4.82,1.34-10.73,.63-18.29-2.19-13.36-.65-22.11-2.22-14.58-2.61-14.81-4.46-23.51-4.7-5.97-.17-5.71,.71-14.76,.63-10.95-.1-11.38-1.38-16.77-.31-3.97,.78-6.69,2.05-9.39,.63-1.85-.98-3.07-2.89-3.35-4.72-.12-.77-.31-3.11,4.82-8.77Z"/><path d="M133.13,472.72c-1.58,0-3.52-.23-5.95-.53l-.79-.1c-9.55-1.14-12.76-1.27-14.88-1.35-1.96-.08-3.05-.12-7.25-.87-6.58-1.18-10.19-2.18-13.08-2.99-3.39-.94-5.63-1.57-10.36-1.7-2.76-.08-4.18,.07-5.81,.24-1.92,.2-4.09,.43-8.94,.39-4.82-.04-7.63-.32-9.68-.51-2.6-.25-4.03-.39-6.99,.19-.9,.18-1.73,.38-2.51,.57-2.76,.67-4.94,1.2-7.19,.02-1.86-.98-3.27-2.96-3.6-5.05-.32-2.11,1.34-5.18,4.93-9.15,4.5-4.96,7.47-8.24,12.59-9.68,1.68-.47,2.64-.48,3.85-.48,1.34,0,3,0,6.43-.6,4.52-.78,6.61-1.19,8.94-2.6,2.34-1.42,6.62-5.05,6.04-8.6-.23-1.39-1.12-2.12-2.35-3.13-.81-.66-1.72-1.41-2.67-2.51-2.62-3.05-3.14-6.78-4.09-13.56-.59-4.24-.54-5.98-.45-8.86,.08-2.55,.18-6.04-.12-13.04v-.28c-.14-3.05-.28-6.21,1.17-10.03,.62-1.65,1.78-4.71,4.69-7.12,1.46-1.21,3.77-2.61,12.75-3.84,1.52-.21,2.88-.41,4.11-.59,4.73-.71,7.59-1.13,10.28-.46,2.04,.51,6.28,1.56,8.8,4.97,1.12,1.52,1.22,2.55,1.51,5.62,.16,1.69,.38,3.99,.85,7.38,.26,1.87,.46,3.04,.62,3.97,.23,1.35,.38,2.24,.52,4.05,.16,2.04,.4,5.13,0,9.14-.3,3.02-.56,5.62-1.73,8.65-1.36,3.52-3.25,5.76-4.76,7.56-1.52,1.8-2.52,2.99-2.05,4.4,.29,.88,.94,1.28,1.75,1.78,.99,.61,2.1,1.3,2.79,2.99,.59,1.47,.4,2.56,.19,3.71-.15,.83-.3,1.7-.16,2.8,.37,2.91,2.5,4.89,4.98,7.19,2.94,2.73,5.11,3.78,7.41,4.9,2.17,1.05,4.4,2.14,7.37,4.69,1.77,1.52,4.44,3.82,6.37,7.6,.2,.39,4.85,9.61,.87,13.45-1.06,1.03-2.44,1.38-4.38,1.38Zm-53.74-8.47c.44,0,.92,0,1.45,.02,4.85,.14,7.13,.77,10.59,1.74,2.88,.8,6.46,1.8,13,2.97,4.14,.74,5.2,.78,7.12,.86,2.14,.08,5.37,.21,14.96,1.36l.79,.1c5.3,.64,7.96,.96,9.56-.6,3.49-3.37-1.01-12.29-1.05-12.38-1.85-3.63-4.44-5.85-6.15-7.32-2.87-2.47-5.06-3.53-7.17-4.56-2.26-1.1-4.59-2.23-7.64-5.05-2.6-2.42-4.85-4.5-5.26-7.74-.16-1.24,.02-2.21,.17-3.07,.19-1.07,.35-1.99-.14-3.22-.57-1.41-1.51-1.99-2.41-2.55-.86-.53-1.75-1.08-2.15-2.28-.62-1.89,.63-3.38,2.22-5.27,1.47-1.75,3.3-3.92,4.61-7.3,1.13-2.91,1.38-5.46,1.68-8.41,.39-3.93,.16-6.97,0-8.98-.14-1.78-.28-2.6-.51-3.97-.16-.94-.36-2.11-.62-4-.48-3.41-.7-5.73-.86-7.42-.28-2.96-.36-3.85-1.33-5.17-2.32-3.15-6.19-4.11-8.27-4.62-2.51-.62-5.3-.21-9.92,.48-1.24,.18-2.6,.39-4.13,.6-8.73,1.19-10.92,2.5-12.28,3.63-2.72,2.26-3.78,5.06-4.41,6.74-1.38,3.65-1.25,6.71-1.12,9.67v.27c.31,7.04,.21,10.55,.13,13.11-.08,2.83-.14,4.54,.45,8.71,.99,7.11,1.53,10.37,3.88,13.09,.89,1.04,1.77,1.76,2.55,2.4,1.28,1.05,2.39,1.96,2.67,3.69,.66,4.02-3.76,7.88-6.47,9.53-2.57,1.56-4.95,1.98-9.26,2.73-3.51,.61-5.22,.61-6.59,.61-1.19,0-2.04,0-3.6,.44-4.85,1.37-7.75,4.57-12.15,9.41h0c-2.34,2.58-5.05,6.13-4.7,8.4,.28,1.81,1.5,3.53,3.11,4.38,1.93,1.02,3.86,.55,6.53-.1,.8-.19,1.64-.4,2.55-.58,3.1-.61,4.58-.46,7.27-.2,2.03,.2,4.82,.47,9.6,.51,4.79,.04,6.94-.18,8.83-.38,1.36-.14,2.57-.27,4.49-.27Z"/></g><g><path class="cls-1" d="M159.77,455.93c4.28-4.96,7.02-8.14,11.76-9.55,3.23-.96,3.43,.09,9.74-1.07,4.19-.76,6.33-1.18,8.65-2.67,2.63-1.68,6.52-5.38,5.95-9.06-.39-2.52-2.57-3.06-4.87-5.86-2.36-2.89-2.87-6.41-3.79-13.33-1.06-7.96,.06-6.99-.54-21.86-.13-3.12-.3-6.28,1.08-10.13,.6-1.66,1.65-4.6,4.33-6.93,1.34-1.17,3.47-2.52,11.9-3.73,6.93-1,10.39-1.88,13.52-1.07,1.95,.51,5.82,1.52,8.11,4.8,1.55,2.21,.89,3.33,2.16,12.79,.62,4.62,.86,4.97,1.08,8,.16,2.14,.37,5.17,0,9.06-.28,2.95-.53,5.56-1.62,8.53-2.63,7.14-7.49,9.08-6.49,12.26,.69,2.21,3.2,1.86,4.33,4.8,.91,2.38-.32,3.71,0,6.4,.36,3.01,2.35,5.01,4.87,7.46,5.52,5.39,8.33,4.41,14.06,9.6,1.8,1.63,4.19,3.83,5.95,7.46,.2,.42,4.43,9.35,.92,12.92-1.76,1.79-4.59,1.34-10.21,.63-17.39-2.19-12.7-.65-21.02-2.22-13.87-2.61-14.08-4.46-22.36-4.7-5.68-.17-5.43,.71-14.03,.63-10.41-.1-10.82-1.38-15.95-.31-3.78,.78-6.36,2.05-8.93,.63-1.76-.98-2.92-2.89-3.19-4.72-.11-.77-.3-3.11,4.58-8.77Z"/><path d="M247.03,476.46c-1.5,0-3.35-.23-5.67-.53l-.75-.1c-9.08-1.14-12.13-1.27-14.15-1.35-1.87-.08-2.9-.12-6.9-.87-6.26-1.18-9.69-2.18-12.44-2.99-3.33-.98-5.35-1.57-9.84-1.7-2.62-.08-3.97,.07-5.52,.24-1.82,.2-3.89,.42-8.5,.39-4.59-.04-7.26-.32-9.21-.51-2.47-.25-3.83-.39-6.64,.19-.85,.18-1.64,.38-2.39,.57-2.64,.67-4.72,1.2-6.87,.01-1.77-.98-3.12-2.97-3.42-5.05-.31-2.1,1.27-5.17,4.69-9.13,4.28-4.97,7.11-8.25,11.98-9.69,1.6-.48,2.52-.48,3.68-.48,1.27,0,2.85,0,6.11-.6,4.29-.78,6.28-1.19,8.49-2.6,2.23-1.42,6.3-5.06,5.74-8.61-.22-1.4-1.06-2.12-2.23-3.13-.77-.66-1.64-1.41-2.54-2.51-2.49-3.05-2.99-6.78-3.89-13.56-.56-4.24-.51-5.98-.43-8.85,.07-2.55,.17-6.04-.11-13.04v-.28c-.14-3.05-.27-6.2,1.11-10.02,.59-1.65,1.69-4.71,4.46-7.12,1.39-1.22,3.59-2.61,12.14-3.84,1.44-.21,2.74-.41,3.91-.59,4.51-.71,7.23-1.13,9.8-.46,1.94,.51,5.98,1.56,8.38,4.98,1.06,1.52,1.15,2.55,1.43,5.62,.15,1.69,.36,4,.81,7.38,.25,1.87,.44,3.04,.59,3.97,.22,1.34,.36,2.23,.49,4.05,.15,2.04,.38,5.13,0,9.14-.29,3.02-.53,5.62-1.65,8.64-1.3,3.52-3.09,5.76-4.53,7.56-1.44,1.8-2.4,3-1.96,4.41,.28,.88,.89,1.28,1.67,1.78,.94,.61,2,1.3,2.65,2.99,.56,1.46,.38,2.55,.18,3.7-.14,.84-.29,1.7-.15,2.8,.35,2.91,2.38,4.9,4.73,7.19,2.8,2.73,4.86,3.78,7.04,4.89,2.06,1.05,4.19,2.14,7.01,4.69,1.68,1.52,4.22,3.82,6.05,7.6,.19,.39,4.6,9.61,.83,13.44-1.02,1.03-2.34,1.39-4.18,1.39Zm-51.1-8.47c.42,0,.88,0,1.38,.02,4.61,.14,6.79,.77,10.08,1.74,2.74,.8,6.14,1.8,12.35,2.97,3.93,.74,4.94,.78,6.77,.86,2.03,.08,5.11,.21,14.23,1.36l.75,.1c5.02,.64,7.54,.96,9.06-.59,3.32-3.37-.96-12.31-1-12.4-1.76-3.62-4.22-5.85-5.84-7.32-2.73-2.47-4.8-3.53-6.81-4.55-2.15-1.1-4.37-2.23-7.27-5.06-2.48-2.42-4.62-4.5-5-7.74-.15-1.23,.02-2.2,.16-3.06,.18-1.07,.34-1.99-.13-3.23-.54-1.41-1.43-1.99-2.29-2.55-.82-.53-1.67-1.08-2.04-2.28-.59-1.88,.6-3.37,2.11-5.25,1.4-1.75,3.14-3.92,4.38-7.3,1.07-2.92,1.32-5.46,1.6-8.41,.37-3.93,.15-6.98,0-8.99-.13-1.78-.27-2.6-.49-3.97-.15-.94-.34-2.11-.59-4-.46-3.41-.67-5.73-.82-7.42-.27-2.96-.35-3.86-1.27-5.17-2.2-3.14-5.87-4.1-7.85-4.61-2.38-.62-5.03-.21-9.42,.48-1.17,.18-2.47,.39-3.92,.6-8.29,1.19-10.37,2.49-11.66,3.62-2.58,2.25-3.59,5.06-4.2,6.74-1.31,3.66-1.19,6.72-1.07,9.68v.28c.3,7.04,.2,10.55,.13,13.11-.08,2.83-.13,4.54,.42,8.71,.94,7.11,1.45,10.37,3.69,13.1,.85,1.04,1.69,1.76,2.43,2.4,1.22,1.05,2.27,1.96,2.54,3.69,.62,4.01-3.58,7.87-6.16,9.52-2.45,1.57-4.72,1.98-8.82,2.73-3.34,.61-4.97,.61-6.27,.61-1.13,0-1.94,0-3.41,.44-4.61,1.36-7.36,4.56-11.54,9.41h0c-2.22,2.58-4.81,6.13-4.47,8.41,.27,1.81,1.43,3.53,2.96,4.38,1.82,1.01,3.65,.55,6.18-.1,.76-.19,1.56-.4,2.43-.58,2.95-.61,4.36-.47,6.92-.21,1.93,.2,4.58,.47,9.12,.51,4.56,.05,6.59-.18,8.39-.38,1.29-.14,2.44-.27,4.27-.27Z"/></g><g><path class="cls-1" d="M280.86,329.56c3.78-5.34,6.2-8.77,10.78-10.61,3.12-1.26,3.42-.24,9.59-1.98,4.09-1.16,6.18-1.77,8.36-3.47,2.46-1.92,5.97-5.97,5.04-9.58-.64-2.47-2.86-2.8-5.41-5.38-2.63-2.65-3.48-6.11-5.06-12.91-1.82-7.83-.61-6.96-2.66-21.71-.43-3.1-.91-6.22,.09-10.18,.43-1.71,1.2-4.73,3.64-7.31,1.22-1.29,3.21-2.84,11.48-4.84,6.8-1.64,10.16-2.85,13.36-2.34,1.99,.32,5.94,.96,8.54,4.01,1.75,2.05,1.21,3.23,3.39,12.53,1.06,4.54,1.34,4.86,1.85,7.86,.36,2.11,.87,5.11,.88,9.02,0,2.96,.01,5.58-.79,8.64-1.93,7.36-6.57,9.74-5.27,12.82,.9,2.13,3.37,1.55,4.77,4.37,1.14,2.29,.04,3.72,.62,6.37,.65,2.96,2.82,4.76,5.57,6.97,6.02,4.84,8.72,3.6,14.93,8.23,1.95,1.45,4.54,3.42,6.65,6.87,.24,.4,5.31,8.89,2.16,12.77-1.58,1.95-4.44,1.76-10.1,1.59-17.52-.54-12.7,.55-21.14-.23-14.05-1.29-14.45-3.11-22.71-2.57-5.67,.37-5.34,1.22-13.91,1.95-10.37,.89-10.9-.35-15.9,1.19-3.68,1.13-6.13,2.64-8.83,1.47-1.85-.81-3.19-2.6-3.63-4.39-.19-.76-.6-3.07,3.71-9.16Z"/><path d="M282.84,344.01c-.74,0-1.48-.14-2.24-.47-1.86-.81-3.39-2.66-3.9-4.71-.51-2.06,.76-5.27,3.78-9.53h0c3.78-5.35,6.28-8.88,10.98-10.77,1.55-.62,2.46-.71,3.62-.82,1.26-.12,2.84-.27,6.02-1.17,4.2-1.19,6.14-1.78,8.2-3.39,2.08-1.63,5.78-5.63,4.88-9.11-.35-1.37-1.26-2.02-2.53-2.91-.83-.59-1.77-1.25-2.77-2.26-2.78-2.8-3.63-6.47-5.18-13.13-.97-4.17-1.09-5.9-1.29-8.77-.18-2.54-.41-6.03-1.38-12.97l-.04-.27c-.42-3.03-.86-6.15,.14-10.09,.43-1.69,1.23-4.85,3.75-7.51,1.27-1.34,3.32-2.94,11.71-4.97,1.42-.34,2.69-.67,3.83-.96,4.42-1.13,7.09-1.81,9.71-1.38,1.98,.32,6.11,.99,8.82,4.17,1.2,1.41,1.4,2.43,1.97,5.46,.31,1.66,.74,3.94,1.52,7.27,.43,1.84,.73,2.99,.97,3.9,.35,1.32,.57,2.19,.88,3.99,.35,2.02,.87,5.07,.89,9.1,0,3.03,.01,5.64-.8,8.76-.95,3.62-2.52,6.02-3.77,7.95-1.26,1.93-2.1,3.21-1.52,4.58,.36,.85,1.01,1.19,1.83,1.62,.99,.52,2.12,1.1,2.93,2.73,.7,1.4,.62,2.51,.54,3.67-.06,.84-.12,1.72,.12,2.8,.63,2.87,2.84,4.65,5.41,6.71,3.05,2.45,5.2,3.31,7.48,4.21,2.15,.85,4.38,1.73,7.43,4.01,1.82,1.36,4.57,3.4,6.76,7,.23,.37,5.51,9.13,2.13,13.3-1.65,2.04-4.52,1.95-9.71,1.78l-.76-.02c-9.15-.28-12.2-.12-14.21-.01-1.87,.1-2.9,.15-6.95-.22-6.35-.58-9.86-1.26-12.68-1.81-3.41-.66-5.47-1.05-9.96-.76-2.62,.17-3.94,.44-5.47,.76-1.8,.37-3.83,.79-8.43,1.19-4.57,.39-7.26,.37-9.22,.36-2.48-.02-3.85-.03-6.59,.82-.83,.26-1.6,.53-2.32,.79-1.69,.61-3.15,1.13-4.59,1.13Zm45.67-104.41c-2.05,0-4.4,.6-7.85,1.48-1.15,.29-2.42,.62-3.85,.96-8.14,1.97-10.08,3.46-11.25,4.7-2.35,2.49-3.09,5.38-3.52,7.1-.95,3.76-.53,6.8-.12,9.74l.04,.27c.97,6.98,1.21,10.48,1.38,13.03,.19,2.83,.31,4.54,1.27,8.63,1.63,6.99,2.45,10.19,4.94,12.69,.95,.95,1.85,1.59,2.65,2.16,1.32,.93,2.45,1.74,2.89,3.43,1.01,3.93-2.8,8.17-5.21,10.05-2.29,1.79-4.5,2.42-8.52,3.55-3.26,.92-4.88,1.08-6.19,1.2-1.12,.11-1.93,.18-3.35,.76-4.45,1.79-6.76,5.05-10.57,10.45h0c-1.96,2.78-4.19,6.56-3.64,8.79,.44,1.78,1.76,3.38,3.37,4.08,1.91,.83,3.69,.2,6.14-.68,.73-.26,1.52-.54,2.36-.8,2.88-.89,4.3-.87,6.87-.86,1.94,.01,4.6,.03,9.13-.35,4.54-.39,6.55-.8,8.32-1.17,1.57-.32,2.92-.6,5.6-.78,4.6-.3,6.83,.13,10.2,.78,2.8,.54,6.29,1.21,12.59,1.79,3.99,.37,4.99,.31,6.82,.22,2.03-.11,5.11-.27,14.29,0l.76,.02c5.06,.16,7.6,.24,8.96-1.44,2.98-3.67-2.15-12.16-2.2-12.25-2.1-3.44-4.77-5.43-6.53-6.74-2.96-2.2-5.12-3.06-7.22-3.89-2.24-.89-4.56-1.81-7.72-4.35-2.7-2.17-5.03-4.05-5.73-7.23-.27-1.21-.2-2.2-.14-3.06,.08-1.08,.14-2.02-.45-3.2-.68-1.35-1.62-1.84-2.53-2.32-.87-.45-1.77-.92-2.26-2.08-.77-1.81,.28-3.41,1.59-5.43,1.22-1.87,2.74-4.2,3.66-7.68,.79-3,.78-5.56,.77-8.53-.01-3.95-.53-6.96-.87-8.95-.3-1.76-.52-2.57-.87-3.91-.24-.92-.54-2.07-.98-3.92-.79-3.35-1.22-5.64-1.53-7.31-.55-2.92-.72-3.81-1.76-5.03-2.49-2.92-6.25-3.53-8.26-3.85-.48-.08-.97-.11-1.47-.11Z"/></g><g><path class="cls-1" d="M271.03,451.04c4.05-4.22,6.65-6.93,11.14-8.12,3.06-.81,3.25,.07,9.22-.91,3.97-.65,5.99-1,8.2-2.27,2.5-1.43,6.18-4.58,5.64-7.71-.37-2.15-2.44-2.6-4.61-4.99-2.24-2.45-2.72-5.45-3.59-11.34-1-6.77,.06-5.94-.51-18.59-.12-2.66-.29-5.34,1.02-8.62,.57-1.41,1.57-3.91,4.1-5.9,1.27-1,3.29-2.14,11.27-3.17,6.57-.85,9.85-1.6,12.81-.91,1.85,.43,5.51,1.29,7.69,4.08,1.47,1.88,.85,2.83,2.05,10.88,.59,3.93,.81,4.22,1.02,6.8,.15,1.82,.35,4.4,0,7.71-.26,2.51-.5,4.73-1.54,7.26-2.5,6.08-7.09,7.72-6.15,10.43,.65,1.88,3.03,1.58,4.1,4.08,.87,2.03-.31,3.15,0,5.44,.34,2.56,2.23,4.26,4.61,6.35,5.23,4.58,7.89,3.75,13.32,8.16,1.7,1.38,3.97,3.26,5.64,6.35,.19,.36,4.19,7.95,.87,10.99-1.67,1.52-4.35,1.14-9.67,.53-16.47-1.86-12.03-.56-19.92-1.89-13.14-2.22-13.34-3.79-21.18-4-5.38-.14-5.14,.6-13.3,.53-9.86-.08-10.25-1.17-15.11-.27-3.58,.66-6.02,1.75-8.46,.53-1.67-.83-2.77-2.46-3.02-4.01-.11-.66-.28-2.65,4.34-7.46Z"/><path d="M353.74,468.58c-1.4,0-3.15-.2-5.4-.45l-.72-.08c-8.6-.97-11.49-1.08-13.41-1.15-1.77-.07-2.75-.1-6.54-.74-5.93-1-9.18-1.86-11.79-2.54-3.05-.8-5.07-1.33-9.33-1.45-2.49-.07-3.76,.06-5.24,.21-1.73,.17-3.68,.36-8.05,.33-4.34-.04-6.88-.27-8.72-.44-2.34-.22-3.63-.33-6.3,.16-.81,.15-1.56,.32-2.26,.48-2.49,.57-4.46,1.02-6.49,0-1.7-.84-2.98-2.55-3.27-4.35-.11-.68-.45-2.74,4.46-7.85h0c4.06-4.23,6.74-7.02,11.36-8.25,1.52-.4,2.38-.41,3.48-.41,1.2,0,2.7,0,5.79-.51,4.07-.67,5.95-1.01,8.04-2.21,2.1-1.2,5.93-4.26,5.41-7.23-.2-1.15-.95-1.73-2.09-2.62-.73-.56-1.55-1.2-2.41-2.14-2.38-2.61-2.85-5.79-3.7-11.58-.53-3.61-.49-5.1-.41-7.55,.07-2.17,.16-5.13-.11-11.09v-.23c-.13-2.61-.25-5.3,1.06-8.57,.56-1.41,1.61-4.02,4.24-6.09,1.32-1.04,3.41-2.23,11.5-3.27,1.37-.18,2.59-.35,3.7-.5,4.27-.6,6.84-.96,9.27-.39,1.84,.43,5.67,1.33,7.95,4.25,1.02,1.31,1.12,2.27,1.37,4.82,.14,1.43,.34,3.4,.77,6.27,.24,1.59,.42,2.59,.56,3.38,.21,1.15,.34,1.91,.47,3.46,.14,1.74,.36,4.37,0,7.79-.27,2.57-.51,4.79-1.57,7.38-1.23,3-2.94,4.91-4.3,6.45-1.47,1.65-2.22,2.56-1.84,3.66,.25,.72,.83,1.06,1.55,1.48,.85,.5,1.91,1.11,2.53,2.57,.54,1.27,.36,2.26,.18,3.21-.13,.7-.27,1.43-.15,2.35,.33,2.45,2.24,4.12,4.46,6.07,2.65,2.32,4.6,3.21,6.66,4.16,1.95,.89,3.97,1.82,6.65,3.99,1.6,1.3,4.01,3.26,5.75,6.49,.18,.33,4.39,8.24,.77,11.54-.97,.88-2.18,1.19-3.92,1.19Zm-48.46-7.35c.4,0,.83,0,1.31,.02,4.37,.11,6.43,.66,9.54,1.48,2.59,.68,5.82,1.53,11.71,2.53,3.73,.63,4.68,.67,6.41,.73,1.93,.07,4.84,.18,13.48,1.15l.72,.08c4.76,.54,7.15,.81,8.58-.5,3.1-2.82-.92-10.36-.96-10.43-1.66-3.07-3.98-4.96-5.52-6.21-2.58-2.1-4.55-3-6.45-3.87-2.04-.93-4.14-1.9-6.89-4.3-2.36-2.06-4.39-3.85-4.76-6.63-.14-1.07,.01-1.9,.15-2.64,.18-.93,.31-1.67-.12-2.69-.5-1.18-1.34-1.67-2.15-2.14-.79-.46-1.6-.93-1.96-1.97-.58-1.65,.57-2.94,2.02-4.56,1.32-1.48,2.97-3.33,4.14-6.19,1.01-2.47,1.24-4.63,1.51-7.13,.35-3.33,.14-5.92,0-7.62-.12-1.51-.25-2.21-.46-3.37-.14-.8-.32-1.8-.56-3.4-.43-2.9-.63-4.87-.77-6.32-.25-2.5-.32-3.25-1.18-4.35-2.07-2.66-5.56-3.48-7.43-3.92-2.26-.53-4.77-.18-8.93,.41-1.11,.16-2.34,.33-3.72,.51-7.86,1.01-9.82,2.12-11.05,3.08-2.44,1.91-3.39,4.28-3.96,5.7-1.24,3.09-1.12,5.68-1,8.19v.23c.28,5.99,.19,8.98,.12,11.16-.08,2.4-.12,3.86,.4,7.39,.89,6.03,1.37,8.79,3.47,11.1,.8,.88,1.59,1.49,2.29,2.03,1.17,.9,2.17,1.68,2.43,3.18,.6,3.46-3.4,6.77-5.86,8.18-2.33,1.33-4.47,1.69-8.36,2.32-3.16,.52-4.7,.52-5.94,.52-1.07,0-1.84,0-3.24,.37-4.36,1.16-6.83,3.73-10.92,7.99l-.34-.32,.34,.32c-2.09,2.18-4.53,5.18-4.22,7.07,.25,1.52,1.34,2.96,2.77,3.67,1.73,.86,3.47,.46,5.87-.09,.72-.16,1.48-.34,2.3-.49,2.79-.52,4.13-.4,6.55-.17,1.83,.17,4.34,.4,8.65,.43,4.31,.02,6.25-.16,7.95-.32,1.23-.12,2.31-.23,4.05-.23Z"/></g></svg>