<?xml version="1.0" encoding="UTF-8"?><svg id="Layer_14" xmlns="http://www.w3.org/2000/svg" viewBox="0 0 404.63 513.78"><g><g><g><g><g><path d="M119.6,242.96c-2.14,0-4.29-.34-6.39-1.13-3.26-1.23-5.53-3.42-10.05-7.76-6.47-6.22-11.01-13.23-13.14-16.85-.04-.07-3.91-6.62-7.27-10.89-1.09-1.38-2.26-2.72-2.27-2.73-.42-.39-1.08-1.01-1.88-1.76-1.65-1.53-2.44-2.22-2.88-2.61-.44-.39-.56-.49-.84-.82-2.03-2.43-2.99-5.56-3.09-5.91-.02-.08-.14-.96-.14-.96-.47-3.18-.18-6.94-.17-7.1,.13-1.02,.26-1.92,.39-2.76,.44-2.93,.73-4.86-.06-6.5-.17-.36-.36-.65-.36-.66-.54-.86-1.1-1.31-1.75-1.82-.42-.34-.86-.68-1.34-1.17-.52-.53-1-1.15-1.47-1.9-.93-1.47-1.53-2.96-2.21-5.48-.98-3.6-1.29-6.28-1.53-8.43-.08-.69-.15-1.33-.24-1.95-.55-3.81-1.56-5.66-2.53-7.45-.81-1.49-1.57-2.89-2.04-5.26-1.68-8.57,3.22-16.5,6.29-20.47,6.51-8.4,15.5-10.69,19.82-11.79,14.2-3.61,30.08-.34,40.45,8.34,2.46,2.06,3.54,3.54,5.18,5.77,1.9,2.59,4.76,6.51,11.79,13.99l1.11,1.17c2.7,2.85,4.83,5.1,7.1,8.7,2.17,3.44,4.88,8.49,6.65,17.12,1.83,8.94,4.6,22.45,.42,39.73-2.48,10.23-5.04,20.8-14.53,29.21-.55,.49-11.57,10.11-23.01,10.11Zm-38.42-40.05c.3,.26,.9,.95,2.36,2.8,3.41,4.33,7.31,10.94,7.35,11,2.11,3.58,6.59,10.5,12.98,16.64,4.42,4.25,6.64,6.39,9.71,7.55,12.78,4.84,27.75-8.24,28.38-8.8,9.26-8.21,11.79-18.62,14.23-28.7,4.13-17.06,1.39-30.44-.42-39.3-1.96-9.56-5.15-14.63-6.52-16.79-2.22-3.52-4.22-5.63-6.98-8.55l-1.11-1.17c-7.07-7.52-9.96-11.47-11.87-14.08-1.65-2.25-2.64-3.61-5.01-5.59-10.13-8.48-25.66-11.67-39.56-8.14-4.21,1.07-12.98,3.3-19.27,11.43-2.97,3.83-7.71,11.48-6.1,19.67,.43,2.21,1.16,3.55,1.93,4.97,1.01,1.86,2.06,3.79,2.64,7.78,.09,.62,.17,1.28,.25,1.98,.24,2.12,.54,4.75,1.5,8.28,.66,2.42,1.23,3.83,2.09,5.21,.43,.68,.87,1.25,1.34,1.73,.43,.44,.85,.77,1.25,1.09,.69,.55,1.35,1.07,1.98,2.08,0,0,.21,.34,.41,.76,.93,1.91,.6,4.08,.15,7.08-.13,.83-.26,1.73-.38,2.71,0,.01-.28,3.79,.17,6.92l.12,.81c.24,.74,1.14,3.4,2.89,5.49,.23,.27,.3,.34,.73,.71,.44,.39,1.24,1.08,2.9,2.62,.81,.75,1.47,1.37,1.92,1.79v.02Z"/><path d="M55.6,377.04c-3.81,0-7.46-.83-10.34-3.15-2-1.61-2.46-2.97-4.4-8.72-.45-1.35-.99-2.94-1.65-4.85-3.72-10.72-6.18-16.41-7.8-20.18-2-4.63-2.67-6.19-2.71-10.22-.04-3.67,.51-6.44,.99-8.88,.72-3.67,1.34-6.83,.03-12.05-.64-2.53-1.27-3.73-2-5.11-.63-1.2-1.35-2.56-2.16-5-1.21-3.67-2.06-7.85-.96-25.01,.57-8.92,1.16-13.44,1.56-16.43,.45-3.43,.64-4.85,.26-8.66-.14-1.38-.3-2.65-.47-3.87-.5-3.79-.94-7.05-.24-11.97,.43-3.04,1.01-4.69,1.52-6.16,.52-1.5,.94-2.68,.98-4.9,.09-4.68-1.62-7.7-3.12-10.36-1.25-2.21-2.43-4.29-2.38-6.93,.12-6,6.75-11.98,19.7-17.79,8.12-6.06,23.15-10.13,24.84-10.58,1.34-.59,3.83-1.22,5.02-.46h0c1.02,.65,.87,1.99,.58,4.67-.08,.75-.17,1.61-.26,2.6-.26,2.97-.45,6.98,.16,9.17,.62,2.25,1.67,3.81,2.12,4.48,1.2,1.79,2.31,2.7,3.6,3.76,1.11,.91,2.38,1.94,3.87,3.71,1.07,1.27,1.67,2.21,2.65,3.76l.25,.39c6.24,9.85,9.72,15.24,14.46,20.65,3.19,3.64,6.77,6.87,6.92,7.01,1.77,1.59,3.47,3,4.97,4.23,3.66,3.01,5.88,4.83,5.23,6.31-.08,.17-.14,.25-.16,.27l-.14,.28h-.05c-.19,.27-.38,.57-.55,.88,1.52-1.61,3.5-2.14,6.1-2.83,1.48-.39,3.15-.84,5.08-1.57,1.25-.48,2.22-.94,3.07-1.34,1.8-.85,3.1-1.45,5.33-1.39,1.96,.07,3.27,.5,3.91,1.29,1.39,1.73,.16,4.56-.3,5.63-.37,.85-1.24,2.48-3.08,4.15-1.2,1.09-2.34,1.76-3.25,2.29-1.26,.73-2.09,1.22-2.43,2.31-.12,.38-.16,.78-.14,1.21,5.45,2.18,15.81,5.27,18.39,2.22,1.41-1.67,.64-5.65-.93-7.84-.23-.32-.55-.52-.92-.76-.55-.35-1.16-.75-1.67-1.61-.67-1.14-.76-2.23-.84-3.39-.19-2.49-.39-5.06,1.18-6.2,.9-.66,2.03-.55,2.86-.47,.27,.02,.65,.06,.83,.03-.04-.09-.13-.21-.19-.31-.22-.34-.53-.81-.73-1.5-.41-1.39-.27-3.34,.78-4.21,.64-.53,1.41-.43,5.16,.64,1.76,.5,2.62,.75,3.18,.95,2.19,.78,5.5,1.96,8.64,4.62,1.59,1.34,4.89,4.14,6.19,9.08,.41,1.57,.96,4.71,0,8.18-.47,1.68-1.07,2.61-1.9,3.9-.67,1.04-1.51,2.34-2.62,4.53-.58,1.13-1.15,2.49-1.31,2.87l-.14,.31c-.52,1.16-.88,2.02-1.04,2.39l-.08,.18c-1.04,2.38-5.5,6.09-10.89,7.92-3.9,1.33-6.75,.98-9.27,.67-1.67-.21-3.24-.4-4.91-.06-.86,.18-1.57,.51-2.5,1.03-1.43,.8-2.89,2.45-6.46,8.8,.47,.35,1.15,.96,1.83,1.81,1.13,1.11,1.91,2.13,1.73,2.92,.17,.43,.23,.69,.29,.99,.07,.35,.17,.78,.51,1.72,.33,.89,.67,1.63,1.06,2.48,.68,1.46,1.44,3.12,2.49,6.23,1,2.98,1.49,4.46,1.81,6.26,.04,.23,.99,5.81-.46,11.75-1.38,5.68-5.44,9.45-25.54,23.72-8,5.68-12.41,8.81-18.02,12.42-10.86,7-16.3,10.51-22.58,12.8-4.34,1.59-11.7,4.28-18.55,4.28Zm15.2-200.61c-.93,0-2.22,.31-3.2,.75-.76,.21-16.54,4.4-24.64,10.47l-.1,.06c-12.6,5.64-19.05,11.33-19.16,16.92-.05,2.36,1.02,4.24,2.25,6.42,1.57,2.77,3.35,5.92,3.25,10.87-.05,2.38-.5,3.69-1.03,5.21-.5,1.42-1.06,3.03-1.47,5.97-.68,4.78-.26,7.99,.24,11.7,.16,1.23,.33,2.5,.47,3.9,.39,3.92,.18,5.48-.26,8.88-.39,2.98-.98,7.48-1.55,16.36-1.09,16.98-.27,21.06,.91,24.63,.78,2.37,1.45,3.63,2.09,4.85,.73,1.38,1.42,2.68,2.08,5.33,1.36,5.44,.69,8.86-.02,12.49-.49,2.51-1,5.11-.97,8.68,.04,3.83,.69,5.35,2.63,9.83,1.63,3.78,4.1,9.49,7.83,20.25,.66,1.91,1.2,3.5,1.66,4.85,1.91,5.66,2.31,6.84,4.08,8.26,7.63,6.13,21.33,1.12,27.92-1.29,6.17-2.26,11.59-5.75,22.38-12.7,5.59-3.6,9.99-6.73,17.98-12.4,19.84-14.09,23.84-17.77,25.14-23.14,1.4-5.73,.45-11.29,.44-11.35-.3-1.73-.79-3.18-1.76-6.09-1.03-3.09-1.79-4.72-2.45-6.16-.39-.83-.75-1.62-1.1-2.55-.37-1.01-.47-1.48-.56-1.86-.03-.15-.06-.27-.1-.42-1.22,.39-4.1-.13-10.61-2.48-.48-.17-.99-.35-1.54-.56-4.07-1.52-6.34-2.44-7.44-2.9-.31-.1-.7-.21-1.12-.33-2.19-.62-5.5-1.57-8.05-4.02-.93-.87-1.44-1.37-1.7-1.68-.15-.04-.26-.11-.36-.18-.12-.08-.27-.17-.6-.29,0,0-1.07-.35-2.27-.18-.46,.11-.86,.31-1.22,.57-.65,.5-1.22,1.24-1.64,1.88-.22,.36-.42,.71-.6,1.04l-.12,.22c-1.43,2.91-5.91,10.74-10.03,15.69-2,2.57-4.11,4.81-5.98,4.27-.07-.02-.14-.04-.21-.07-.84-.35-1.53-1.51-2.99-8.88-.77-3.91-1.57-9.61-1.56-11.32,0-.02,0-.04,0-.06h.01c0-.23,.02-.38,.06-.43l.13-.18,.22-.03c.5-.06,.54,.2,.67,1.3,.18,1.46,.56,4.5,1.31,8.65,.83,4.61,1.57,8.68,2.29,9.77,.12,.17,.23,.25,.33,.28,1.05,.22,3.02-1.58,5.26-4.33,.39-.5,.76-1.01,1.11-1.48,3.31-4.45,7.65-12.13,8.5-13.65,.11-.23,.38-.75,.78-1.35,.52-.83,1.19-1.71,2.11-2.29,.43-.29,.9-.51,1.39-.59,1.1-.25,2.29-.08,3.54,.52,.92-1.31,1.67-2.57,2.26-3.75,.53-1.18,1.19-2.5,2.11-3.83,.74-1.3,1.77-3.09,3.03-5.23,.01-.42,.03-.83,.05-1.25,.25-5.64,.5-7.65,.78-8.36,0,0,0-.02,0-.02,.09-.95,.94-8.94,4.13-13.39l.07-.1c.34-.84-2.22-2.95-4.93-5.17-1.51-1.24-3.23-2.65-5.01-4.26-.38-.34-3.82-3.47-7-7.09-4.78-5.46-8.28-10.88-14.55-20.77l-.25-.39c-.99-1.57-1.54-2.44-2.57-3.65-1.43-1.69-2.6-2.65-3.74-3.58-1.3-1.06-2.52-2.06-3.8-3.97-.47-.71-1.58-2.37-2.25-4.77-.52-1.87-.58-5.08-.19-9.52,.09-1,.18-1.87,.26-2.62,.24-2.2,.37-3.41-.12-3.72h0c-.21-.13-.54-.19-.93-.19Zm57.19,116.82c3.7,1.14,5.01,1.19,5.45,1.02-.39-.82-.86-1.52-1.32-2.1-.38-.38-.86-.82-1.45-1.34-.07-.07-.14-.12-.2-.18-.77,1.37-1.1,1.92-1.91,2.36-.18,.1-.37,.18-.56,.25Zm-4.04-1.35c1.82,.6,3.07,.8,4.12,.23,.58-.32,.81-.69,1.65-2.2l.12-.22v-.08s.1-.11,.1-.11c3.85-6.88,5.39-8.61,7.04-9.53,.99-.55,1.8-.94,2.79-1.14,1.83-.37,3.48-.17,5.23,.05,2.53,.31,5.14,.63,8.83-.62,5.42-1.84,9.46-5.47,10.29-7.38l.08-.18c.17-.4,.59-1.38,1.17-2.69,.17-.4,.75-1.78,1.34-2.95,1.13-2.24,1.98-3.56,2.67-4.62,.81-1.26,1.35-2.09,1.78-3.63,.9-3.24,.39-6.19,0-7.66-1.22-4.64-4.36-7.3-5.87-8.57-3-2.54-6.21-3.68-8.33-4.44-.53-.19-1.38-.43-3.07-.91-3.04-.87-4.03-1.06-4.3-.84-.6,.5-.81,1.94-.46,3.15,.16,.54,.41,.92,.61,1.23,.26,.4,.54,.82,.3,1.31-.32,.66-1.1,.58-1.86,.51-.74-.07-1.58-.15-2.18,.28-1.12,.81-.94,3.1-.77,5.32,.1,1.25,.18,2.07,.71,2.96,.38,.65,.85,.95,1.35,1.28,.42,.27,.85,.55,1.19,1.02,1.64,2.28,2.77,6.83,.88,9.07-3.68,4.36-18.16-1.38-19.8-2.05l-.27-.11-.05-.29c-.09-.67-.04-1.32,.14-1.92,.46-1.46,1.52-2.09,2.88-2.88,.92-.54,1.96-1.15,3.09-2.17,1.7-1.54,2.5-3.03,2.82-3.79,.41-.94,1.46-3.36,.44-4.63-.25-.31-.99-.85-3.16-.92-1.99-.08-3.14,.48-4.87,1.3-.87,.41-1.85,.88-3.14,1.37-1.98,.75-3.68,1.21-5.18,1.61-2.9,.77-4.82,1.28-6.22,3.28-.03,.05-.07,.11-.11,.17-1.04,1.73-1.84,3.38-2.41,5.01l-.03,.11c-.32,1.65-.61,3.38-.85,5.11,0,.03,0,.05,0,.06l-.06,.46c-.34,2.54-.57,5.12-.7,7.69-.02,.46-.04,.96-.06,1.48l-.05,.21c-.11,.25-.67,1.54-.83,1.86-.61,1.18-1.24,2.06-1.85,2.92l-.44,.62c-1.28,2.24-1.69,3-1.91,3.45l-.11,.23s-.01,.03-.02,.04c-.22,.49-.41,.95-.59,1.38-.54,1.3-.96,2.3-1.53,2.78,.41,.42,.96,.96,1.23,1.23,1.91,1.79,4.58,3.05,7.95,3.77l.11,.04s.24,.11,.79,.34c.13,.04,.25,.09,.36,.13,3.69,1.49,6.66,2.62,9.04,3.47Z"/><path d="M133.43,401.01c-5.14,0-10.33-1.25-14.39-4.39-1.41-1.09-1.81-1.73-2.85-3.42-.92-1.49-2.46-3.98-5.85-8.56-9.55-12.92-12.17-13.18-13.58-13.32-2.34-.23-4.92,.69-7.47,2.64-1.26,1.08-1.98,1.75-2.37,2.12-.07,.07-.14,.15-.21,.22-.23,.25-.34,.34-.58,.35l-.54-.03,.07-.54c0-.05,.07-.15,.19-.3l-.02-.02s.08-.08,.15-.15c.9-.95,1.81-1.78,2.73-2.48,3.88-3.33,11.82-9.63,25.83-19.92,1.41-1.03,2.73-2,3.98-2.92,12.68-9.27,17.42-12.74,20.14-19.99,3.27-8.71,1.91-17.49,1.9-17.58-5.68-16.38-7.83-20.54-8.63-21.12-.06-.04-1.89-1.38-1.89-1.38l-.21-.15v-.46l.08-.08c2.86-6.66,6.12-9.06,7.06-9.52v-.02c.45-.27,1.43-.78,2.76-1.14,2.39-.64,4.17-.31,5.9,0,.55,.1,1.1,.2,1.66,.27,5.14,.62,9.4-1.79,10.81-2.58,2.97-1.68,5.16-3.74,6.02-5.65l.18-.4c.2-.46,.53-1.23,1.02-2.33,.19-.44,.81-1.82,1.38-3.05,1.02-2.2,1.9-3.67,2.69-4.96,.7-1.15,1.3-2.15,1.79-3.35,1.62-4,.12-9.25-2.12-12.15-1.18-1.53-3.75-3.81-4.71-4.67-.22-.19-.56-.49-1.04-.83-.79-.56-1.47-.91-2.03-1.17-1.39-.65-2.54-1.04-4.83-1.83l-.43-.14c-.99-.34-1.41-.49-1.66-.57l-.53-.18c-2.33-.74-3.62-1.15-4.31-.77-.34,.18-.49,.49-.66,.82-.19,.38-.46,.91-1.1,.95-.62,.02-1.02-.42-1.69-1.18-1.6-1.81-2.19-2.48-2.26-3.02-.14-1.19,.57-2.11,1.74-3.63,.27-.35,.47-.57,.67-.79,.23-.25,.46-.5,.83-.99,.17-.22,.33-.48,.52-.79,.21-.34,.45-.72,.76-1.17,1.55-2.22,2.32-4,3.86-7.57,1.5-3.48,2.13-6.08,3.26-10.79l.24-.99c2.02-8.4,2.67-15.3,2.59-17.68-.02-.58,0-1.16,.01-1.75,.02-.62,.03-1.23,0-1.85-.01-.37-.04-.68-.05-.96-.07-1.04-.11-1.73,.42-2.24,.56-.53,1.27-.4,2.02-.27,.34,.06,.69,.12,1.07,.14,2.21,.09,3.98-1.34,4.94-2.12,1.5-1.21,2.06-2.47,2.56-3.58,.5-1.1,.93-2.05,2.1-2.43h0c1.99-.66,4.07,1.04,5.44,2.17l.16,.13c3.82,3.12,6.09,4.06,8.5,5.06,2.58,1.07,5.25,2.17,9.87,6.08,6.51,5.52,9.35,8.2,10.11,10.51,1.45,4.37-.05,7.67-1.96,11.84-1.6,3.52-3.42,7.51-4.17,13.37-.43,3.39-.22,4.94,.34,9.08,.33,2.44,.79,5.77,1.3,10.88,1.56,15.5,1.75,24.63,1.64,29.56-.23,10.29-2.76,19.08-7.8,36.59-5.32,18.49-10.32,30.69-17.23,47.58-4.25,10.38-8.42,19.81-16.46,30.03-6.91,8.78-11.4,11.48-14.53,12.85-3.74,1.63-8.42,2.69-13.15,2.69Zm-37.43-30.73c.29,0,.57,.01,.85,.04,2.16,.22,5.23,1.47,14.28,13.72,3.41,4.61,4.96,7.12,5.89,8.63,1.03,1.67,1.35,2.17,2.62,3.16,7.48,5.78,19,4.87,26.54,1.58,3.03-1.32,7.38-3.94,14.15-12.55,7.96-10.12,12.1-19.48,16.32-29.79,6.9-16.86,11.88-29.04,17.19-47.48,5.02-17.43,7.54-26.18,7.77-36.34,.11-4.9-.09-13.99-1.64-29.44-.51-5.09-.96-8.42-1.29-10.85-.58-4.24-.79-5.83-.34-9.34,.77-6.01,2.7-10.25,4.25-13.66,1.88-4.13,3.24-7.11,1.92-11.11-.69-2.07-3.58-4.78-9.81-10.06-4.49-3.81-7.09-4.88-9.6-5.92-2.37-.98-4.82-1.99-8.75-5.21l-.16-.13c-1.2-.99-3.02-2.47-4.49-2-.72,.24-1.01,.81-1.5,1.89-.52,1.15-1.17,2.58-2.85,3.94-1.07,.86-3.05,2.49-5.62,2.34-.45-.02-.84-.09-1.2-.15-.61-.11-.97-.16-1.16,.02-.18,.17-.17,.57-.11,1.44,.02,.29,.04,.62,.06,.99,.03,.64,0,1.28,0,1.92-.01,.56-.03,1.13-.01,1.69,.09,3.04-.8,10.37-2.62,17.94l-.24,.99c-1.11,4.61-1.77,7.39-3.31,10.95-1.57,3.63-2.35,5.45-3.96,7.75-.3,.43-.53,.8-.73,1.13-.21,.33-.39,.62-.57,.86-.39,.52-.64,.8-.88,1.06-.19,.21-.37,.41-.62,.73-1.05,1.37-1.63,2.12-1.54,2.9,.06,.27,.92,1.24,2.01,2.48,.31,.36,.74,.84,.87,.84h0c.07,0,.17-.22,.27-.4,.19-.39,.46-.92,1.08-1.25,1.07-.58,2.41-.15,5.09,.7l.56,.19c.24,.09,.67,.23,1.65,.57l.43,.15c2.33,.79,3.49,1.19,4.94,1.87,.56,.27,1.32,.65,2.18,1.26,.52,.37,.88,.69,1.12,.9,1.08,.96,3.61,3.21,4.84,4.81,1.99,2.59,4.24,8.22,2.25,13.13-.52,1.28-1.14,2.31-1.86,3.5-.77,1.27-1.64,2.71-2.63,4.87-.57,1.23-1.18,2.61-1.34,2.96l-.05,.11c-.48,1.08-.81,1.84-1.01,2.29l-.18,.42c-1.29,2.88-4.59,5.07-6.44,6.11-1.47,.83-5.95,3.36-11.42,2.71-.59-.07-1.15-.17-1.72-.28-1.69-.31-3.29-.61-5.46-.03-1.26,.34-2.18,.83-2.52,1.03l-.12,.07c-.57,.34-3.62,2.4-6.4,8.73,.53,.39,1.53,1.11,1.57,1.15,.86,.63,2.72,3.56,9,21.68,.08,.45,1.44,9.21-1.93,18.18-2.83,7.53-7.64,11.05-20.49,20.45-1.25,.91-2.57,1.88-3.98,2.92-10.85,7.98-17.68,13.27-21.93,16.7,.94-.29,1.88-.44,2.8-.44Z"/><path d="M113.2,171.9c-.85,0-1.27-.14-1.42-.65-.18-.61,.3-.96,1.26-1.67,.63-.46,1.49-1.09,2.64-2.09h0c1.04-.9,1.57-1.45,1.96-1.85,.45-.47,.75-.78,1.41-1.18,2.28-1.4,4.63-1.35,6.36-1.32h.33c2.04,.04,7.4,.62,7.74,2.92,.19,1.26-1.16,2.62-4,4.04-.48,.24-.91,.42-1.35,.56-2.95,.96-5.91,.94-7.5,.94-2.6,0-4.45,.11-5.79,.21-.68,.05-1.22,.08-1.65,.08Zm-.23-1c.4,.01,1.09-.03,1.82-.08,1.35-.09,3.22-.2,5.78-.21,1.72,0,4.47,.02,7.27-.89,.39-.13,.78-.29,1.21-.51,2.68-1.34,3.55-2.43,3.46-3-.17-1.13-3.71-2.02-6.77-2.06h-.33c-1.6-.03-3.79-.07-5.82,1.17-.55,.34-.79,.58-1.21,1.03-.4,.42-.95,.99-2.02,1.91h0c-1.18,1.02-2.1,1.69-2.7,2.14-.24,.18-.49,.36-.67,.51Z"/><path d="M80.39,175.76h-.05c-2.34,0-4.03,0-5.67-1.12-.97-.66-2.54-1.97-2.28-3.4,.33-1.84,4.25-3.09,7.55-2.96,1.71,.07,3.59,.8,7.34,2.28h0c4.58,1.8,4.86,2.35,4.75,2.93-.1,.55-.71,.9-3.75,1.24-2.4,.27-3.65,.51-4.57,.69-1.06,.21-1.77,.35-3.31,.35Zm-.95-6.49c-3.18,0-5.91,1.25-6.07,2.14-.11,.62,.6,1.54,1.85,2.39,1.34,.91,2.6,.95,5.12,.96h.05c1.44,0,2.07-.12,3.12-.33,.93-.18,2.21-.43,4.65-.7,1.56-.17,2.3-.34,2.65-.45-.4-.27-1.4-.81-3.91-1.79h0c-3.64-1.43-5.47-2.15-7.01-2.21-.15,0-.31,0-.46,0Z"/><path d="M124.06,169.92c-.54,0-1.15-.06-1.79-.24-.86-.24-2.46-.68-3.25-2.15-.15-.28-.87-1.75-.13-2.9h0c.5-.77,1.41-.96,2.46-1.12,3.59-.53,6.97-.13,7.12-.12l.4,.05,.04,.4s.08,.93,.11,1.43c.08,1.39,.13,2.09-.13,2.63-.45,.96-1.42,1.27-2.44,1.61-.37,.12-1.24,.41-2.39,.41Zm-4.33-4.75c-.36,.56-.05,1.48,.17,1.89,.59,1.1,1.82,1.44,2.63,1.66,1.71,.47,3.09,.02,3.6-.15,.88-.29,1.58-.52,1.85-1.09,.14-.3,.1-1,.03-2.14-.02-.28-.05-.69-.07-1-.99-.09-3.65-.26-6.44,.15-1.12,.17-1.55,.33-1.77,.67h0Z"/><path d="M124.05,166.98c-.17,0-.33-.03-.49-.09-.4-.16-.72-.52-.86-.96-.11-.35-.09-.7,.07-.95h0c.39-.62,1.35-.51,1.64-.46,.33,.06,1.12,.25,1.26,.85,.1,.45-.22,.91-.55,1.2-.33,.28-.71,.43-1.07,.43Zm-.42-1.47c0,.12,.12,.38,.31,.46,.12,.05,.26,0,.35-.05,.16-.08,.28-.21,.35-.31-.25-.13-.81-.19-1.01-.1Z"/><path d="M82.51,175.04c-.48,0-1.01-.08-1.57-.31-.32-.14-1.92-.9-2.35-2.61-.23-.89-.04-1.63,.05-1.99l.03-.13c.15-.59,.35-1.4,1.05-1.68,.51-.2,.98-.01,1.24,.09,.61,.25,1.24,.42,1.89,.6,.62,.17,1.26,.35,1.87,.59,.52,.2,1.3,.5,2.28,.86l.32,.12v.34c.02,.97,0,1.02,0,1.02-.26,1.08-.98,1.67-1.29,1.92-.88,.72-1.78,.92-2.17,1-.35,.08-.82,.18-1.38,.18Zm-2.31-5.82s-.07,0-.1,.02c-.23,.09-.36,.63-.45,.99l-.03,.14c-.08,.3-.22,.85-.05,1.5,.32,1.26,1.53,1.83,1.77,1.94,.92,.39,1.77,.2,2.34,.08,.34-.08,1.05-.23,1.75-.8,.24-.2,.74-.61,.93-1.27,0-.07,0-.22,0-.54-.83-.31-1.51-.57-1.97-.75-.57-.22-1.16-.39-1.78-.56-.65-.18-1.33-.37-1.99-.63-.12-.05-.28-.11-.4-.11Z"/><path d="M83.8,172.3c-.09,0-.18-.01-.27-.03-.37-.09-.71-.37-.89-.73-.15-.3-.17-.61-.05-.87h0c.27-.6,1.06-.59,1.3-.58,.43,.03,1.17,.26,1.27,.88,.05,.32-.09,.66-.39,.93-.28,.26-.63,.4-.97,.4Zm-.26-1.2c.04,.08,.13,.17,.22,.2,.11,.02,.26-.06,.34-.14-.08-.03-.18-.06-.29-.07-.1,0-.21,0-.28,.02Z"/><path d="M99.45,205.28c-.79,0-1.56-.09-2.28-.29-2.49-.68-5.17-2.62-6.14-5.18-.19-.43-.3-.88-.33-1.33-.16-1.23,.28-1.94,.94-3,.58-.93,1.37-2.21,2.11-4.47,.6-1.83,.98-3.7,1.16-5.57,.17-1.89,.1-3.63-.3-6.68-.85-6.53-1.27-9.81-2.67-11.99-2.08-3.26-4.98-4.84-6.38-5.59-2.05-1.11-4-1.68-5.72-1.99-.22-.03-.44-.06-.67-.09-3.17-.41-8.14-.53-13.87,1.28-.36,.11-.39,.12-.5,.06l-.1-.06-.05-.23,.08-.1c.22-.26,5.08-2.11,11.34-1.76,1.07,.06,2.39,.14,3.89,.41,3.44,.53,6.3,1.61,8.5,3.21,.84,.61,3.07,2.23,4.62,5.14,1,1.86,1.31,3.79,1.89,7.3,.56,3.42,.84,5.13,.87,7.15,.04,3.14,.09,7.43-2.11,11.76-.53,1.05-1.05,1.81-1.47,2.42-.72,1.05-1.15,1.68-1.07,2.75,.05,.4,.15,.79,.29,1.17,.56,1.32,1.89,2.58,3.97,3.78,2.44,1.56,6.23,1.43,8.83-.31,.02-.01,.06-.05,.13-.11,.14-.12,.37-.32,.66-.55,.5-.48,1.08-.92,1.71-1.27,.19-.1,.68-.38,1.24-.57,.88-.3,1.47-.22,2.04-.15,.44,.05,.89,.11,1.51,0,1.37-.24,2.16-.89,2.58-1.39,.72-.87,.82-1.85,.85-2.17,.16-1.56-.51-2.85-.85-3.38-.05-.07-.1-.14-.15-.21-.07-.1-.13-.17-.1-.29l.03-.11,.24-.12,.12,.08s.12,.12,.23,.3c1.12,1.58,1.54,3.18,1.16,4.52-.55,2-2.48,3.35-4.1,3.65-.65,.12-1.09,.05-1.52-.02-.44-.07-.85-.14-1.51,.02-1.1,.25-1.77,.85-2.41,1.44-.18,.16-.35,.32-.53,.46-1.6,1.32-3.96,2.07-6.19,2.07Zm-4.68-29.13c.11,.79,.22,1.63,.33,2.54,.08,.64,.15,1.23,.21,1.77-.07-1.24-.25-2.5-.54-4.31Z"/><path d="M112.82,165.31s-.08-.01-.13-.03l-.13-.06-.02-.17c-.03-.31,.66-2.18,2.36-3.42,.61-.5,1.47-.93,2.67-1.18,4.42-1.09,9.37,.92,9.41,.94,.08,.03,.16,.06,.24,.08,1.91,.55,4.09,1.32,6.56,2.34,1.09,.41,1.11,.46,1.14,.53l.04,.1-.08,.2-.1,.04c-.12,.04-.11,.05-.85-.26-.12-.05-.23-.1-.35-.14-1.38-.51-4-1.44-6.58-2.35-4.22-1.22-7.1-1.39-9.05-1.05-.15,.03-.3,.07-.45,.11-.9,.24-1.69,.6-2.3,1.04-1.03,.84-1.66,2.13-1.96,2.76-.16,.32-.26,.53-.42,.53Z"/><path d="M71.19,169.66s-.02,0-.04,0l-.28-.03,.06-.28c.04-.19,1.74-1.82,3.95-2.89,2.21-1.07,4.41-1.49,6.54-1.25,2.17,.19,3.89,1.14,4.85,1.79,.18,.12,.33,.23,.44,.32,.04,.03,.07,.06,.11,.08,0,0,0,0,0,0,.07,.06,.11,.1,.12,.12l.15,.29-.32,.07c-.12,.03-.19-.03-.26-.09-.16-.13-.39-.3-.68-.49-.85-.55-2.43-1.37-4.46-1.6-2.49-.22-5.2,.59-8.06,2.43-.89,.57-1.59,1.15-1.85,1.37-.14,.12-.19,.16-.28,.16Z"/></g><path d="M113.32,233.24c-1.51,0-2.72-.31-3.35-.5-.89-.28-3.15-1.16-5-3.28-1.68-1.92-2.71-4.5-3.07-5.53l-.05-.14c-.36-1.01-.58-1.62-.91-2.18-.16-.26-.31-.45-.5-.69l-.1-.13c-.6-.76-.99-1.13-1.25-1.38-.31-.29-.53-.5-.65-.95-.22-.87,.22-1.67,1.11-3.28,.17-.31,.45-.78,.84-1.29,.14-.18,.3-.37,.48-.57,.66-.72,2.18-2.45,3.89-2.29,.09,0,.17,0,1.02,.14,.31,.05,.74,.11,1.35,.17h0c1.46,.16,2.51,.27,2.68,.27,.7-.05,1.23-.19,1.8-.34,.72-.19,1.46-.38,2.52-.38h0c.99,0,1.5,.41,2.15,.92,.58,.46,1.38,1.1,2.97,1.81,.53,.24,1.13,.49,1.95,.83,.75,.32,1.7,.71,2.96,1.25,2.01,.86,3.79,2.29,3.99,2.46l.28,.23-.13,.34c-.1,.25-2.39,6.15-6.82,10.6-1.27,1.27-2.46,2.47-4.5,3.25-1.31,.5-2.58,.66-3.69,.66Zm-8.72-21.21c-1.2,0-2.44,1.37-2.98,1.96-.16,.17-.3,.34-.42,.51-.36,.46-.61,.89-.76,1.16-.74,1.34-1.15,2.07-1.02,2.55,.04,.16,.08,.21,.37,.47,.28,.27,.71,.67,1.36,1.49l.1,.12c.22,.28,.39,.5,.57,.8,.38,.63,.61,1.28,1,2.35l.05,.14c.35,.97,1.32,3.42,2.89,5.21,1.68,1.93,3.74,2.73,4.54,2.98,.99,.31,3.58,.92,6.38-.14,1.83-.69,2.91-1.77,4.14-3.01,3.74-3.76,5.91-8.6,6.46-9.92-.59-.45-1.96-1.44-3.47-2.09-1.26-.54-2.21-.94-2.96-1.25-.83-.35-1.43-.6-1.97-.84-1.7-.76-2.56-1.44-3.18-1.94-.61-.48-.88-.7-1.52-.7h0c-.94,0-1.59,.17-2.27,.35-.58,.15-1.19,.31-1.98,.37-.22,.01-.82-.05-2.86-.27-.62-.07-1.06-.13-1.39-.18-.78-.12-.85-.12-.92-.13-.04,0-.08,0-.13,0Z"/><path d="M112.33,226.71c-.54,0-1.1-.06-1.69-.19-1.42-.33-2.52-1.03-2.99-1.33-1.33-.85-2.14-1.37-2.56-2.36l-.06-.15c-.13-.33-.33-.82-.76-1.37-.11-.13-.19-.22-.27-.3-.06-.07-.13-.13-.19-.21-.68-.79-1.72-1.99-1.41-3.16h0c.3-1.13,1.69-1.56,1.84-1.6,.75-.21,1.31-.05,1.9,.13,.3,.09,.6,.18,.97,.24,.79,.12,1.21,0,1.84-.2,.45-.14,1-.31,1.81-.42,1.17-.16,1.73-.05,2.43,.09,.66,.14,1.49,.31,3.19,.33,.53,.01,.98,0,1.39,0,1.27-.02,2.11-.04,3.12,.52,.7,.39,1.31,.96,1.8,1.7l.1,.15-.06,.17c-.55,1.4-.8,2.5-.9,2.91l-.03,.13c-.46,1.88-3.36,3.11-4.92,3.76-1.2,.51-2.74,1.16-4.56,1.16Zm-9.2-8.88h0c-.21,.79,.71,1.85,1.25,2.48,.06,.06,.11,.12,.16,.17,.09,.1,.19,.2,.32,.36,.51,.64,.74,1.21,.87,1.56l.06,.14c.33,.78,1.02,1.22,2.27,2.02,.47,.3,1.46,.93,2.75,1.23,2.32,.54,4.32-.31,5.79-.92,1.33-.56,4.11-1.74,4.48-3.25l.03-.12c.09-.41,.33-1.47,.85-2.81-.4-.56-.88-.99-1.43-1.3-.83-.46-1.51-.46-2.74-.43-.41,0-.87,.02-1.41,0-1.77-.03-2.63-.21-3.33-.35-.69-.14-1.14-.23-2.18-.09-.75,.11-1.26,.26-1.7,.4-.68,.21-1.22,.38-2.18,.22-.42-.07-.76-.17-1.07-.26-.54-.16-.94-.28-1.48-.13-.01,0-1.13,.33-1.32,1.08Z"/><path d="M112.05,218.5c-1.42,0-2.86-.05-4.27-.16-1.17-.09-2.34-.21-3.48-.37l-.15-.02-.05-.14c-.15-.43-.35-1.2,.06-1.59h0c.22-.21,.49-.23,1.67,0,.45,.09,.76,.16,1.01,.22,.42,.1,.63,.15,.97,.14,.11,0,.13,0,.55-.11l.7-.17c1.8-.42,2.18-.47,2.6-.47,.26,0,.56,.04,1.24,.12,.55,.07,.88,.13,1.17,.19,.33,.06,.59,.11,1.07,.15,.77,.06,1.24,.09,1.45,.06,.39-.07,.58-.1,.77,.05,.31,.25,.28,.78-.09,1.73l-.06,.14h-.15c-1.45,.14-2.92,.22-4.38,.24-.22,0-.44,0-.66,0Zm-7.52-1.01c1.08,.15,2.19,.27,3.29,.35,1.62,.12,3.26,.18,4.88,.16,1.39-.02,2.8-.09,4.18-.21,.32-.86,.19-1.01,.19-1.01-.04-.01-.25,.03-.38,.05-.27,.05-.71,.01-1.58-.05-.51-.04-.8-.09-1.13-.15-.28-.05-.6-.11-1.14-.18-.64-.08-.95-.12-1.17-.12-.38,0-.75,.05-2.49,.46l-.7,.17c-.43,.1-.49,.12-.66,.12-.4,.02-.65-.05-1.09-.15-.24-.06-.56-.13-.99-.22-.28-.06-1.13-.23-1.23-.12-.13,.12-.12,.48,.02,.91Z"/></g><path d="M163.16,181.77c-.13,0-.25-.01-.41-.04-.29-.04-.84-.11-2.19-.17-.81-.04-1.39-.07-1.87-.53-.56-.54-.58-1.28-.59-1.77-.02-.71-.13-1.36-.25-2.05-.1-.55-.2-1.12-.24-1.7-.05-.61-.07-.79-.13-1.17-.07-.47-.18-1.24-.42-3.42l-.03-.27c-.07-.7-.25-2.34-.44-3.56-.11-.72-.25-1.52-.43-2.39-.02-.08-.04-.15-.05-.25,0,0-.7-3.35-1.9-8.73l-.16-.7,.71,.1c1.09,.15,1.16,.17,1.2,.18,1.17,.35,2.43-.35,3.1-.72,2.59-1.43,2.91-5.06,2.93-5.21,.08-.97-.09-1.68-.24-2.31-.2-.82-.38-1.59,.16-2.46,.75-1.21,2.25-1.64,3.3-1.64h.01c1.19,0,2.28,.8,4.25,2.26,1.6,1.18,2.47,1.83,3.15,2.8,.85,1.22,1.16,2.38,1.38,3.37,1.09,4.83,.73,9.01,.72,9.18-.28,3.06-1.08,5.36-2.39,9.16l-.58,1.68c-.89,2.6-1.96,5.35-4.35,7.91-1.41,1.51-2.66,2.28-3.95,2.43-.11,.01-.2,.02-.29,.02Zm-7.83-25.56c1.11,4.97,1.74,8.03,1.75,8.06,.01,.09,.02,.13,.03,.16,.2,.96,.34,1.77,.46,2.5,.2,1.24,.37,2.9,.45,3.61l.03,.26c.24,2.16,.35,2.93,.42,3.39,.06,.41,.08,.59,.14,1.23,.04,.53,.13,1.06,.23,1.61,.12,.69,.25,1.41,.26,2.14,.01,.44,.02,.88,.28,1.13,.2,.19,.5,.21,1.15,.25,1.47,.07,2.04,.14,2.35,.18,.23,.03,.28,.03,.45,.01,.65-.08,1.7-.38,3.33-2.12,2.26-2.42,3.28-5.06,4.14-7.55l.58-1.68c1.33-3.86,2.07-5.98,2.34-8.92,.02-.17,.36-4.19-.7-8.87-.2-.9-.48-1.95-1.23-3.02-.56-.8-1.3-1.37-2.93-2.57-1.94-1.43-2.83-2.07-3.66-2.07h0c-.86,0-1.95,.37-2.45,1.17-.31,.49-.23,.9-.04,1.7,.16,.67,.36,1.5,.26,2.63-.01,.17-.39,4.32-3.44,6.01-.74,.41-2.28,1.26-3.85,.81-.06-.01-.2-.03-.36-.05Z"/><path d="M156.28,156.28c-.76,0-1.34-.16-1.75-.32-1.29-.53-1.7-1.47-2.68-3.72-.43-.99-.97-2.22-1.75-3.8-1.17-2.38-1.91-3.6-2.94-4.84-.46-.55-.73-.82-1.4-1.46l-.74-.73s-3.58-3.52-6.87-7.26c-1-1.13-2.01-2.34-2.87-3.4-1.25-1.55-2.08-2.77-2.59-3.5l-.23-.34c-2.6-3.71-5.75-6.61-6.79-7.56-4.06-3.73-7.99-5.91-9.49-6.68-6.14-3.14-11.57-3.9-13.89-4.22-4.66-.65-9.4-.59-14.07,.18-3.15,.52-8.41,1.38-14.05,4.74-3.94,2.35-6.52,4.96-7.71,6.31-1.62,1.84-3.18,4.14-4.38,6.48-1.56,3.04-3.51,6.83-3.21,11.47,.06,.97,.2,1.71,.31,2.24,.14,.74,.24,1.23-.2,1.43-.18,.09-.4,.07-.64-.04-1.81-.83-6.66-7.62-8.8-15.13-2.03-7.12-1.63-14.76,1.17-22.69,1.18-3.36,3.96-11.22,11.36-16.83,1.71-1.29,3.18-2.41,25.31-7.81,11.1-2.71,13.66-3.14,16.31-3.49,9.61-1.28,14.44-1.92,19.55,.02,2.68,1.02,4.32,2.26,5.91,3.46,1.94,1.47,3.95,2.99,8.01,4.28,1.54,.49,2.71,.6,3.95,.72,1.53,.15,3.12,.3,5.37,1.23,1.91,.79,5.47,2.26,7.96,5.7,.67,.93,.91,1.51,1.28,2.39,.32,.76,.71,1.71,1.56,3.31,1.41,2.66,2.66,4.48,3.49,5.68l.37,.54c4.94,7.28,7.61,17.1,8.62,20.8,.05,.19,1.34,4.93,1.45,14.44,.01,1.19,.04,3.67-1.54,4.95-.43,.35-.97,.6-1.4,.81-.07,.04-.15,.07-.23,.11,.09,.05,.15,.09,.18,.11l.17,.15-.13,.5h-.31s-.65-.03-.91-.37c-.75-.26-1.96-.53-3.04-.15-.24,.08-.96,.34-1.32,1.02-.12,.22-.19,.47-.21,.74,.12,.49,.21,1,.27,1.5,.11,.97,.19,2.27-.18,3.77-.12,.46-.42,1.7-1.43,2.9-.96,1.14-2.12,1.87-3.44,2.17-.51,.11-.97,.16-1.38,.16Zm-60.43-49.02c2.19,0,4.38,.15,6.55,.45,2.36,.33,7.88,1.1,14.13,4.29,1.53,.78,5.53,3.01,9.66,6.8,1.05,.96,4.25,3.9,6.9,7.68l.24,.34c.5,.72,1.32,1.92,2.55,3.45,.85,1.06,1.86,2.25,2.85,3.38,3.27,3.72,6.8,7.19,6.83,7.22l.74,.72c.66,.65,.97,.94,1.45,1.52,1.06,1.27,1.85,2.58,3.03,4.99,.79,1.6,1.33,2.84,1.76,3.83,.92,2.12,1.27,2.91,2.28,3.33,.52,.21,1.41,.41,2.67,.13,1.16-.26,2.18-.91,3.03-1.92,.9-1.07,1.18-2.18,1.28-2.6,.35-1.38,.28-2.54,.17-3.51-.06-.49-.15-.98-.27-1.46v-.06s-.01-.06-.01-.06c.02-.4,.12-.77,.3-1.11,.5-.94,1.43-1.27,1.74-1.38,1.18-.42,2.52-.18,3.42,.1,.19-.16,.47-.29,.78-.44,.4-.19,.89-.42,1.25-.72,1.14-.93,1.28-2.64,1.26-4.36-.1-9.41-1.41-14.21-1.42-14.25-1-3.67-3.64-13.4-8.51-20.57l-.37-.53c-.84-1.22-2.11-3.06-3.54-5.76-.86-1.63-1.28-2.64-1.59-3.37-.36-.86-.58-1.38-1.2-2.24-2.36-3.27-5.79-4.68-7.63-5.44-2.15-.89-3.61-1.03-5.16-1.17-1.22-.12-2.49-.24-4.11-.75-4.18-1.33-6.24-2.89-8.24-4.39-1.61-1.22-3.14-2.37-5.73-3.36-4.93-1.88-9.69-1.24-19.18,.02-2.62,.35-5.17,.78-16.23,3.48-21.98,5.36-23.46,6.49-25.04,7.68-7.22,5.48-9.94,13.19-11.1,16.48-2.75,7.78-3.14,15.26-1.15,22.24,2.2,7.74,6.98,13.88,8.28,14.61-.02-.15-.06-.34-.09-.52-.11-.56-.25-1.32-.32-2.34-.31-4.85,1.69-8.74,3.29-11.86,1.23-2.4,2.83-4.75,4.49-6.64,1.22-1.38,3.86-4.06,7.89-6.46,5.77-3.43,11.12-4.31,14.32-4.83,2.57-.42,5.16-.63,7.75-.63Z"/><path d="M101.54,159.97c-.38,0-.6-.1-.75-.37h0c-.12-.21-.13-.47-.04-.78,.43-1.38,3.27-4.03,6.41-5.52,2.7-1.28,5.62-1.67,10.39-1.37,8.84,.55,18.37,3.09,19.68,4.71,.16,.2,.23,.4,.2,.6-.17,1.14-3.44,1.08-3.81,1.08-1.55-.04-2.5-.47-3.51-.92-.62-.28-1.26-.56-2.1-.8-2.32-.66-4.21-.39-7.08,.01-1.62,.23-2.31,.47-3.1,.76-.78,.28-1.66,.59-3.54,.95-1.83,.35-2.8,.4-3.93,.46-1.09,.06-2.33,.12-4.65,.49-1.03,.17-1.84,.32-2.47,.44-.78,.15-1.32,.25-1.7,.25Zm-.11-.76c.19,.05,.88-.08,1.66-.23,.64-.12,1.45-.28,2.49-.44,2.36-.38,3.62-.44,4.73-.5,1.1-.06,2.05-.11,3.83-.45,1.82-.35,2.68-.65,3.43-.92,.84-.3,1.56-.56,3.25-.79,2.85-.4,4.92-.69,7.39,.01,.9,.25,1.59,.57,2.2,.84,.98,.44,1.83,.82,3.22,.86,1.44,.04,2.89-.23,3.06-.47-.32-.88-9.14-3.79-19.19-4.42-4.7-.29-7.41,.06-10.03,1.3-3.63,1.72-6.17,4.61-6.05,5.22Z"/><path d="M140.85,84.55c-2.94,0-6.95-1.59-9.71-3.26-1.16-.7-1.75-1.2-2.32-1.68-.63-.54-1.23-1.04-2.61-1.81-.81-.45-3.73-1.99-7.27-2.74-4.95-1.04-9.31-.15-14.82,.98-.78,.16-1.52,.32-2.22,.48-3.6,.8-6.45,1.44-9.09-.06-1.06-.6-1.88-1.43-2.37-2.4h0c-1.1-2.17-.74-5.08,.8-6.48,1.15-1.04,2.54-.92,3.77-.82,1.07,.09,2,.17,2.65-.48,.54-.54,.53-1.18,.46-2.37-.05-.91-.12-2.04,.23-3.35,.95-3.56,4.2-5.56,5.75-6.52,7.32-4.52,15.98-1.17,18.45-.03,2.94,1.35,6.27,2.88,7.52,6.16,.16,.41,.27,.82,.38,1.22,.24,.91,.46,1.69,1.22,2.39,.73,.67,1.44,.77,2.19,.88,.71,.1,1.51,.21,2.28,.83,1.26,1.01,1.23,2.33,1.2,3.73-.03,1.19-.06,2.55,.67,4.04,.85,1.74,2.21,2.64,3.52,3.51,1.49,.99,2.9,1.92,3.1,3.92,.04,.44,.18,1.76-.66,2.74-.68,.79-1.79,1.11-3.11,1.11Zm-26.43-10.96c1.54,0,3.1,.14,4.73,.49,3.58,.75,6.48,2.24,7.56,2.84,1.46,.82,2.12,1.38,2.76,1.92,.57,.48,1.1,.93,2.19,1.59,4.23,2.55,10.01,4.14,11.55,2.35,.56-.65,.46-1.66,.43-1.99-.15-1.53-1.26-2.27-2.66-3.19-1.36-.9-2.89-1.91-3.86-3.9-.84-1.72-.8-3.26-.77-4.51,.03-1.29,.05-2.23-.82-2.93-.56-.45-1.13-.53-1.8-.62-.83-.12-1.76-.25-2.72-1.13-.98-.9-1.25-1.9-1.52-2.87-.1-.37-.2-.74-.34-1.12-1.1-2.9-4.1-4.27-7-5.6-2.36-1.08-10.61-4.29-17.51-.03-1.56,.96-4.46,2.76-5.31,5.93-.31,1.15-.25,2.15-.2,3.04,.07,1.15,.13,2.24-.75,3.13-.97,.99-2.23,.88-3.44,.77-1.12-.1-2.19-.19-3.02,.57-1.21,1.1-1.48,3.51-.58,5.28h0c.4,.79,1.08,1.48,1.97,1.98,2.31,1.31,4.86,.74,8.38-.04,.71-.16,1.45-.32,2.24-.49,3.85-.79,7.15-1.46,10.5-1.46Z"/><path d="M190.47,182.75c-.68,0-1.81-.45-4.08-1.34-1.64-.64-2.54-1-3.78-1.63-1.81-.92-3.08-1.81-5.41-3.43-.74-.52-1.25-.97-1.65-1.34-.59-.53-.99-.89-1.72-1.14-.87-.3-1.83-.4-2.84-.29l-.79,.09,.27-.75c.21-.6,.51-1.45,.84-2.49,.45-1.4,1.39-4.31,1.89-6.73,.41-1.97,1.16-5.64,.26-10.06-.56-2.72-.92-4.51-2.47-6-.55-.53-1.19-.96-1.76-1.35-1.03-.7-1.92-1.3-1.78-2.22,.09-.55,.52-.83,.89-1.07,.13-.08,.28-.18,.42-.29,1.1-.86,1.39-2.37,1.55-4.85,.34-5.42-.25-9.59-.26-9.63-.41-2.79-1.04-5.51-1.89-8.09-.72-2.2-1.46-3.87-2.68-6.65-.41-.94-1.29-2.9-2.51-5.37-.36-.72-.58-1.17-2.6-5.03-2.49-4.76-3.14-5.97-4.08-7.64-1.72-3.04-2.32-3.86-2.58-4.21-1.01-1.38-2.05-2.8-3.89-4.15-.85-.62-1.9-1.4-3.51-1.93-.78-.26-1.54-.41-2.14-.53-1.07-.21-1.72-.34-1.76-.96-.03-.49,.41-.69,.73-.83,.31-.14,.65-.29,.81-.61,.27-.56-.14-1.39-.42-1.94-.12-.23-.42-.84-1.94-2.27-.58-.54-.92-.82-1.26-1.08-.34-.27-.7-.56-1.27-1.1-1.18-1.11-1.77-1.67-2.11-2.47-.36-.85-.35-1.68-.35-3.35,0-.67,.03-1.14,.06-1.5,.04-.58,.05-.78-.09-1.15-.35-.92-1.12-1.47-1.44-1.66-.61-.37-1.16-.52-2.35-.79-.6-.14-.88-.16-1.07-.18-.18-.02-.34-.03-.57-.12-1.16-.46-1.46-1.64-1.78-2.88-.21-.82-.45-1.75-.95-2.61-.82-1.41-2.02-2.04-4.41-3.32-2.46-1.31-4.51-1.8-5.73-2.09-1.02-.25-1.59-.38-1.56-.97,0-.13,.06-.33,.29-.51,1.06-.84,7.37-1.67,14.08-.44,8.06,1.47,13.65,5.42,16.03,7.1,2.83,2,10.03,7.76,15.59,18.01,1.08,1.99,1.3,2.69,2.05,4.99,.79,2.44,2.26,6.99,6.2,17.32,2.62,6.89,3.88,9.89,5.59,13.39,1.59,3.24,2.61,4.93,3.35,6.17,.84,1.4,1.4,2.33,2.08,4.31,1.74,5.07,1.56,9.74,1.23,18.22-.19,4.83-.53,7.67-.79,9.75-.33,2.73-.49,3.97,.17,6.54,.49,1.91,.99,2.85,1.82,4.42,.88,1.65,2.07,3.91,3.97,8.55,3.89,9.51,3.56,11.4,2.62,12.03-.15,.1-.32,.15-.54,.15Zm-18.69-10.22c.83,0,1.63,.13,2.38,.39,.93,.32,1.45,.8,2.06,1.34,.41,.37,.87,.78,1.56,1.26,2.46,1.71,3.61,2.51,5.29,3.36,1.19,.61,2.08,.96,3.69,1.59,1.83,.72,3.42,1.34,3.75,1.27,.14-.1,.88-1.22-3.04-10.8-1.88-4.59-3.07-6.83-3.93-8.46-.86-1.63-1.39-2.61-1.9-4.64-.7-2.75-.53-4.14-.2-6.91,.25-2.06,.6-4.88,.78-9.67,.35-8.99,.43-13.16-1.18-17.86-.65-1.88-1.15-2.73-1.99-4.12-.75-1.25-1.79-2.97-3.39-6.24-1.73-3.53-3-6.55-5.63-13.47-3.94-10.36-5.42-14.92-6.21-17.37-.72-2.24-.94-2.91-1.98-4.82-5.46-10.07-12.51-15.71-15.28-17.67-2.33-1.65-7.8-5.5-15.64-6.93-5.57-1.02-10.55-.56-12.48-.07l.09,.02c1.27,.3,3.39,.81,5.97,2.18,2.47,1.32,3.83,2.04,4.8,3.69,.57,.98,.83,1.98,1.06,2.87,.32,1.23,.53,1.94,1.18,2.2,.1,.04,.14,.04,.3,.06,.21,.02,.53,.05,1.2,.2,1.14,.26,1.87,.44,2.65,.92,.4,.25,1.39,.95,1.85,2.16,.22,.58,.2,.95,.15,1.57-.02,.34-.05,.79-.06,1.43,0,1.53,0,2.3,.27,2.96,.26,.61,.8,1.12,1.88,2.13,.55,.51,.87,.77,1.21,1.05,.35,.28,.71,.57,1.32,1.13,1.46,1.37,1.92,2.08,2.16,2.55,.34,.68,.91,1.82,.42,2.82-.22,.45-.58,.72-.91,.9,.14,.03,.28,.06,.42,.08,.64,.12,1.43,.28,2.27,.56,1.76,.58,2.93,1.44,3.79,2.07,1.96,1.44,3.1,3,4.11,4.37,.29,.39,.89,1.21,2.64,4.31,.95,1.68,1.6,2.9,4.09,7.67,2.03,3.87,2.25,4.32,2.61,5.05,1.23,2.49,2.11,4.46,2.53,5.41,1.23,2.8,1.97,4.5,2.71,6.74,.87,2.63,1.52,5.41,1.93,8.26,0,.04,.62,4.31,.27,9.84-.14,2.25-.4,4.38-1.93,5.58-.17,.13-.34,.24-.5,.34-.27,.17-.43,.28-.45,.38-.05,.29,.7,.79,1.35,1.23,.6,.41,1.28,.87,1.89,1.46,1.77,1.71,2.18,3.72,2.75,6.52,.95,4.62,.16,8.42-.26,10.46-.51,2.47-1.46,5.42-1.92,6.83-.22,.69-.43,1.29-.6,1.8h.12Z"/></g><path d="M21.96,505.79c-.41,0-.78-.09-1.1-.29-1.65-1.07-.87-4.05,.83-10.57,.72-2.75,1.61-6.18,2.55-10.32,.99-4.38,1.42-6.82,1.79-8.98,.45-2.58,.8-4.62,1.96-8.87l.07-.25c1.4-5.14,2.61-9.58,5.05-14.95,1.12-2.46,2.38-4.86,3.77-7.19-1.04,1.21-2.16,2.54-3.38,3.97l-.21,.25c-4.01,4.73-7.17,8.46-12.82,10.27-.66,.21-6.45,1.99-7.52,.02-.59-1.09,.48-2.24,2.61-4.52,1.86-1.99,4.4-4.71,7.23-8.79h0c.43-.62,.78-1.14,1.1-1.63,.69-1.04,1.28-1.94,2.4-3.34,1.08-1.35,2.07-2.43,3.23-3.69,1.71-1.86,3.84-4.17,7.06-8.31,1.03-1.32,2.21-2.87,3.48-4.55,5.13-6.75,11.51-15.15,15.97-18.94,3.68-3.13,5.83-4.08,7.72-4.91,.86-.38,1.66-.73,2.53-1.26,.26-.16,1.63-1.04,3.34-2.77,2.09-2.12,4.33-5.16,6.93-8.69,2.69-3.66,5.75-7.81,9.23-11.67,2.28-2.53,4.81-5.03,8.43-5.34,2.18-.19,4,.5,4.68,.76,2.41,.92,3.76,2.32,6.99,6.11l.18,.21c1.11,1.3,4.5,5.25,9.08,12.17,1.37,2.07,2.13,3.22,1.82,4.68-.25,1.18-1.08,1.96-2.34,3.13-1.16,1.08-2.44,2.04-3.81,2.84-1.83,.89-4.16,2.78-6.86,4.98l-.27,.22c-5.18,4.22-6.15,10.44-6.8,14.55-.07,.47-.14,.91-.21,1.32-1.78,10.27-2.55,16.02-3.17,20.64-.48,3.56-.85,6.37-1.53,9.81-3.56,18.23-9.49,31.26-17.64,38.74-4.96,4.55-5.95,3.77-6.27,3.52-.87-.68-.73-1.3,5.76-15.06l.37-.77c1.91-4.06,2.49-5.28,3.25-7.53,1.32-3.89,1.88-7.01,2.33-9.52,.75-4.17,1.07-6.57,1.2-7.95-.15,.51-.31,1.1-.47,1.7-1.57,5.72-4.84,17.61-12.43,29.12-7.47,11.32-17.76,20.04-20.5,20.46-.34,.05-.63,0-.83-.18-.69-.56-.73-1.64,4.67-11.12,2.16-3.79,3.84-7.22,7.17-14.05,3.31-6.77,3.98-9.01,4.69-11.38,.67-2.24,1.37-4.57,4.14-10.63,1.2-2.62,1.51-4.12,1.49-4.66-.95,.48-3.78,3.67-5.99,7.73-2.2,4.04-2.98,7.62-3.32,9.14l-.04,.2c-2.88,13.05-10.56,25.64-19.57,32.05-3.91,2.78-6.24,3.64-7.34,2.7-1.11-.95-.39-3.24,.46-5.36,2.67-6.66,5.18-12.15,7.19-16.56,1.51-3.3,2.81-6.15,3.8-8.65,1.51-3.79,2.24-6.6,2.88-9.07,1-3.84,1.79-6.87,4.97-11.25,1.28-1.76,2.43-3.07,3.27-4.04,.1-.11,.2-.22,.29-.33-2.46,1.38-8.06,5.7-11.28,12.17-1.16,2.32-1.56,4.03-2.3,7.14l-.23,.95c-6,25.19-10.19,30.34-13.65,33.19-1.28,1.05-4.1,3.17-6.08,3.17Zm20.86-68.31c-.38,.49-.77,.99-1.15,1.51-2.99,4.04-5.56,8.41-7.64,12.98-2.41,5.3-3.61,9.71-5,14.8l-.07,.25c-1.14,4.2-1.49,6.22-1.94,8.77-.38,2.17-.8,4.62-1.8,9.03-.94,4.16-1.84,7.6-2.56,10.36-1.43,5.49-2.3,8.8-1.25,9.48,1,.64,3.81-1,6-2.81,3.34-2.75,7.39-7.76,13.32-32.65l.23-.95c.75-3.18,1.17-4.93,2.38-7.36,3.92-7.85,11.37-12.93,13.13-13.18,.34-.05,.54,.07,.64,.18,.44,.47,.04,.92-1.13,2.27-.83,.95-1.96,2.24-3.21,3.96-3.07,4.23-3.8,7.03-4.81,10.91-.65,2.5-1.39,5.33-2.92,9.19-1,2.52-2.31,5.38-3.82,8.69-2.01,4.4-4.51,9.88-7.17,16.51-1.2,2.99-1.06,3.95-.74,4.23,.17,.15,1.27,.7,6.11-2.75,8.82-6.28,16.34-18.63,19.17-31.46l.04-.2c.34-1.57,1.15-5.24,3.42-9.41,2.15-3.94,5.37-7.88,6.76-8.27,.32-.09,.54-.01,.67,.06,1.05,.62-.04,3.62-1.15,6.03-2.74,6-3.43,8.29-4.09,10.5-.72,2.41-1.41,4.69-4.75,11.53-3.35,6.85-5.02,10.28-7.2,14.11-4.11,7.21-4.85,9.27-4.86,9.82,1.76-.1,11.98-8.14,19.82-20.03,7.5-11.37,10.74-23.16,12.3-28.83,.95-3.45,1.18-4.27,1.94-4.08,.57,.15,1.16,.3-.72,10.77-.43,2.41-1.02,5.71-2.36,9.67-.78,2.3-1.41,3.64-3.3,7.63l-.37,.77c-3.87,8.21-6.21,13.24-6.01,13.9,.31,.06,2.11-.93,4.94-3.52,7.99-7.33,13.82-20.18,17.33-38.19,.67-3.41,1.02-6.07,1.52-9.75,.62-4.63,1.39-10.39,3.18-20.68,.07-.4,.14-.84,.21-1.3,.67-4.27,1.68-10.72,7.15-15.17l.27-.22c2.74-2.24,5.11-4.17,7.02-5.08,1.27-.75,2.5-1.66,3.6-2.69,1.26-1.17,1.87-1.77,2.05-2.61,.22-1.06-.41-2.02-1.67-3.93-4.54-6.87-7.9-10.78-9-12.07l-.18-.21c-3.17-3.71-4.38-4.98-6.58-5.82-.63-.24-2.29-.87-4.24-.7-3.26,.29-5.63,2.63-7.78,5.02-3.44,3.82-6.48,7.95-9.17,11.59-2.62,3.56-4.88,6.63-7.03,8.8-1.79,1.81-3.25,2.75-3.52,2.92-.92,.57-1.76,.94-2.65,1.33-1.83,.8-3.91,1.72-7.48,4.75-4.38,3.72-10.72,12.07-15.82,18.78-1.28,1.68-2.46,3.24-3.49,4.56-3.25,4.17-5.39,6.5-7.12,8.37-1.14,1.24-2.13,2.31-3.18,3.63-1.09,1.37-1.67,2.25-2.35,3.27-.33,.5-.68,1.02-1.11,1.65-2.87,4.14-5.44,6.89-7.32,8.9-1.46,1.56-2.71,2.9-2.47,3.36,.38,.69,3.34,.46,6.33-.5,5.38-1.72,8.46-5.36,12.37-9.97l.21-.25c4.13-4.88,7.2-8.43,9.38-10.94,1.92-2.44,4.5-5.47,4.96-5.52l.21-.03,.33,.27,.02,.21q.02,.26-1.65,2.16c-.73,.83-1.78,2.02-3.18,3.63Z"/></g><path d="M145.56,256.38c-.23,0-.45-.02-.66-.07-.86-.19-1.2-.79-1.77-1.77-.22-.39-.5-.86-.87-1.44-.8-1.24-1.52-2.13-2.1-2.84-1.01-1.25-1.68-2.07-1.52-3.34,.04-.32,.22-1.36,.32-1.89l.1-.56c.16-.85,.18-.99,.12-1.17-.11-.3-.33-.45-.79-.72-.23-.13-.48-.28-.74-.47-.95-.7-1.38-1.47-1.92-2.44l-.23-.42c-1-1.75-2.03-3.2-3.03-4.61-1.98-2.78-3.85-5.4-4.6-9.48-.38-2.09-.34-4.17,.12-6.17,.33-1.44,1-4.32,2.65-4.57,1.3-.2,2.23,1.22,3.63,3.36l.33,.51c.04,.05,3.67,5.54,8.48,11.38,2.7,3.29,4.33,5.27,4.92,5.62,.45,.27,.77,.61,.95,1.01,.13,.3,.13,.52,.13,.7,0,.09,0,.19,.03,.34,.06,.32,.19,.48,.35,.69,.19,.26,.44,.58,.5,1.13,.03,.27,.1,.91-.34,1.31-.39,.36-.88,.26-1.31,.17-.2-.04-.42-.08-.68-.1-.66-.04-1.24,.09-1.6,.33-.39,.27-.63,.95-.77,1.47-.26,1.01-.26,2.32,0,3.79,.36,2.01,.54,3.02,1.38,3.79,.28,.26,.53,.4,.77,.54,.38,.21,.77,.44,1.12,1,.55,.88,.59,2.07,.12,3.04h0c-.6,1.23-1.91,1.84-3.06,1.84Zm-14.71-40.97s-.05,0-.07,0c-.65,.1-1.26,1.36-1.81,3.75-.44,1.91-.48,3.85-.12,5.81,.71,3.87,2.43,6.28,4.43,9.08,1.01,1.42,2.06,2.89,3.08,4.69l.24,.42c.52,.93,.86,1.55,1.64,2.12,.23,.17,.46,.3,.66,.42,.51,.3,1,.59,1.23,1.25,.16,.45,.1,.76-.08,1.68l-.1,.55c-.09,.52-.27,1.53-.31,1.83-.1,.82,.3,1.35,1.31,2.59,.59,.73,1.33,1.64,2.16,2.93,.38,.6,.67,1.08,.9,1.48,.55,.95,.71,1.2,1.12,1.29,.87,.2,2.11-.22,2.6-1.23h0c.32-.66,.29-1.49-.07-2.08-.22-.35-.43-.47-.76-.66-.26-.15-.59-.34-.96-.67-1.09-1-1.31-2.26-1.68-4.35-.29-1.61-.28-3.07,.02-4.22,.26-1.02,.65-1.69,1.17-2.05,.74-.5,1.71-.54,2.22-.51,.31,.02,.58,.07,.82,.12,.17,.03,.4,.08,.46,.06,0,0,.05-.09,0-.45-.03-.28-.14-.42-.3-.64-.19-.25-.43-.56-.53-1.11-.04-.23-.04-.39-.04-.53,0-.13,0-.18-.05-.29-.14-.32-.43-.49-.53-.55-.75-.45-2.14-2.14-5.19-5.86-4.84-5.88-8.5-11.41-8.54-11.47l-.33-.51c-1.03-1.57-1.93-2.93-2.58-2.93Z"/></g><g><g><g><g><g><g><g><path d="M296.38,154.61c-.16,0-.3-.05-.43-.19h0c-.08-.09-.18-.25-.16-.49,.05-.8,1.5-2.69,3.11-4.05,.91-.77,3.45-2.67,7.4-3.62,5.51-1.33,9.81,.15,10.77,.53h.08s.13,.09,.13,.09c2.1,1.39,5.55,3.95,5.09,5.39-.33,1.02-1.64,.96-6.51,.76l-1.22-.05c-.1,0-10.31-.4-14.4,.45-.89,.19-1.44,.35-1.45,.35-.75,.22-1.27,.45-1.62,.6-.29,.13-.55,.24-.78,.24Zm14.46-7.9c-1.3,0-2.75,.14-4.31,.51-3.74,.9-6.13,2.69-6.98,3.41-1.13,.96-1.96,1.98-2.4,2.66,.34-.14,.79-.31,1.35-.48,0,0,.59-.18,1.53-.37,4.21-.88,14.22-.49,14.64-.47l1.22,.05c3.04,.12,5.24,.22,5.53-.09,.08-.46-1.77-2.28-4.67-4.21-.28-.12-2.58-1.02-5.91-1.02Z"/><path d="M330.92,141.59c-.38,0-.9-.32-1.64-.77-1.49-.91-3.98-2.44-7.25-2.94-1.73-.27-3.75,.01-7.77,.58-.06,0-4.73,.67-9.52,1.95-1.3,.35-2.74,.54-4.15,.57-4.02,.08-4.16-.64-4.22-.99h0c-.12-.69,.15-1.05,6.27-3.36,3.27-1.23,4.91-1.85,6.09-2.2,5.38-1.58,8.08-2.38,11.63-1.7,4.43,.85,7.29,3.47,8.51,4.59l.1,.09c.13,.12,3.16,2.94,2.44,3.91-.13,.18-.29,.26-.49,.26Zm-10.33-4.81c.57,0,1.08,.04,1.59,.11,3.47,.53,6.07,2.13,7.62,3.08,.08,.05,.17,.1,.25,.15-.41-.56-1.05-1.3-1.77-1.97l.24-.46-.34,.37c-1.16-1.06-3.87-3.55-8.02-4.34-3.32-.64-5.94,.14-11.16,1.67-1.15,.34-2.77,.95-6.02,2.17-2.87,1.08-4.67,1.83-5.37,2.23,.48,.11,1.44,.21,2.94,.18,1.32-.03,2.71-.22,3.91-.54,4.86-1.3,9.59-1.97,9.64-1.98,3.02-.42,4.94-.69,6.49-.69Z"/><path d="M269.57,213.72c-.08,0-.17,0-.25-.01-1.41-.16-2.72-1.59-2.59-2.83,.11-1.04,1.15-1.58,2.25-2.14l.24-.13c2.37-1.24,3.28-1.96,4-2.54,.63-.5,1.13-.9,2.25-1.38,2.43-1.03,5.36-1.06,8.71-.08,2.56-1.32,5.36-2,8.12-1.98h.1c2.19,.02,4.67,.04,6.99,1.61,.9,.61,1.58,1.32,2.23,2.01,.75,.79,1.52,1.6,2.65,2.27,.34,.2,.96,.57,.8,1.11-.19,.65-.96,.56-3.51,.29l-.35-.04c-.4-.04-.66-.07-1-.12-.57-.09-1.05-.21-1.59-.34-.63-.15-1.34-.33-2.39-.51-1.84-.32-3.58-.62-5.68-.5-1.54,.09-2.24,.35-2.98,.62-.75,.27-1.52,.55-3.07,.64-1.45,.08-2.39-.08-3.22-.22-.96-.16-1.8-.3-3.27-.04-.49,.09-1.97,.34-3.63,1.21-1.21,.63-1.98,1.33-2.6,1.88-.71,.64-1.33,1.21-2.22,1.21Zm10.03-8.83c-1.36,0-2.61,.24-3.73,.71-1,.43-1.43,.77-2.02,1.24-.72,.57-1.7,1.36-4.16,2.64l-.25,.13c-.89,.46-1.66,.86-1.71,1.36-.07,.64,.78,1.63,1.7,1.73,.56,.07,.92-.24,1.69-.94,.66-.6,1.48-1.34,2.81-2.03,1.8-.94,3.4-1.22,3.92-1.31,1.64-.29,2.6-.13,3.61,.04,.82,.14,1.66,.28,3,.21,1.4-.08,2.07-.32,2.78-.58,.78-.28,1.58-.58,3.26-.68,2.22-.14,4.01,.18,5.91,.51,1.08,.19,1.81,.37,2.45,.52,.52,.13,.98,.24,1.52,.33,.31,.05,.56,.08,.93,.12l.35,.04c.54,.06,1.14,.12,1.64,.16-1-.67-1.72-1.43-2.41-2.16-.65-.68-1.26-1.33-2.07-1.87-2.07-1.39-4.39-1.41-6.44-1.43h-.1c-2.67-.03-5.36,.65-7.82,1.96l-.18,.1-.2-.06c-1.61-.49-3.11-.73-4.5-.73Z"/><path d="M280.08,224.41c-.78,0-1.56-.11-2.44-.39-2.17-.69-3.9-2.09-4.54-2.62-.92-.74-2.25-1.82-3.38-3.65h0c-.98-1.57-1.71-2.9-1.91-3.36-.38-.88-.94-2.56-1.04-3.32l.47-.13-.47,.13c-.02-.16-.02-.27,0-.33l.13-.31h.72l.11,.4c.18,.64,.27,.9,.36,1.05,.09,.16,.21,.25,.4,.37,.51,.35,2.46,1.42,5.65,3.03,.1,.03,3.83,1.33,7.53,.96,1.33-.14,1.92-.36,2.73-.66,.66-.25,1.42-.53,2.75-.84,1.36-.31,2.91-.19,4.55-.06,2.31,.18,4.69,.37,6.67-.65,.62-.32,.92-.61,1.38-1.06,.51-.5,1.15-1.12,2.49-2.04q2.26-1.57,2.62-1.24c.39,.36,.27,.56-1.12,3.04-.17,.31-.29,.52-.42,.84-.09,.23-.15,.43-.21,.66-.11,.4-.26,.89-.61,1.69-.77,1.77-2.55,5.01-5.79,6.81-1.65,.91-2.7,.82-4.3,.69-1.48-.12-3.5-.29-7.12,.26-.73,.11-1.37,.23-1.96,.33-1.24,.22-2.24,.4-3.24,.4Zm-9.52-7.19c1.05,1.69,2.3,2.7,3.13,3.37,.64,.52,2.26,1.84,4.25,2.47,1.79,.57,3.08,.34,5.21-.04,.6-.11,1.25-.22,1.99-.34,3.73-.57,5.82-.4,7.35-.27,1.52,.12,2.35,.19,3.74-.57,2.98-1.65,4.64-4.67,5.36-6.33,.32-.74,.45-1.18,.56-1.57,.07-.26,.14-.49,.24-.75,.15-.37,.29-.62,.45-.91,.18-.33,.36-.64,.52-.93-.16,.11-.35,.24-.55,.38-1.27,.88-1.87,1.46-2.36,1.94-.49,.47-.87,.84-1.62,1.23-2.23,1.16-4.87,.95-7.21,.76-1.56-.12-3.04-.24-4.25,.04-1.27,.29-1.99,.56-2.62,.8-.81,.31-1.52,.57-2.98,.72-3.92,.41-7.86-.97-8.02-1.03-2.33-1.17-4.25-2.18-5.25-2.76,.07,.18,.15,.37,.23,.57,.15,.36,.83,1.6,1.84,3.23h0Z"/><path d="M286.4,212.34c-.59,0-1.01-.08-1.45-.16-.63-.12-1.28-.23-2.59-.15-.19,.01-.37,.03-.55,.04-.86,.07-1.67,.14-2.72-.18-.37-.11-.56-.21-.75-.3-.17-.08-.35-.18-.71-.3-.95-.32-1.77-.39-2.31-.44-.6-.05-1.03-.09-1.11-.51h0c-.1-.52,.58-.83,1.17-1.11,1.05-.49,2.2-.76,3.44-.8,.58-.01,.84,.01,1.31,.07,.37,.04,.87,.11,1.78,.17,1.58,.11,2.36,.17,3.02,.09,.63-.07,.93-.18,1.35-.33,.41-.14,.92-.32,1.89-.53,.41-.09,.79-.15,1.13-.21,.62-.09,1.18-.16,1.67-.19,1.75-.11,3.25-.21,3.98,.76,.37,.49,.35,.86,.28,1.09-.17,.53-.73,.65-1.38,.8-.21,.05-.45,.1-.69,.17-.61,.18-.89,.32-1.24,.5-.3,.15-.64,.33-1.24,.56-.52,.21-1.77,.69-3.23,.87-.41,.05-.75,.07-1.05,.07Zm-3.22-1.09c.86,0,1.41,.1,1.9,.19,.63,.12,1.17,.22,2.27,.08,1.36-.16,2.54-.63,2.99-.8,.62-.24,.94-.41,1.23-.55,.37-.19,.69-.36,1.37-.56,.26-.08,.51-.13,.74-.18,.35-.08,.79-.18,.83-.3,.02-.06,0-.21-.16-.41-.49-.64-1.87-.55-3.33-.46-.47,.03-1.01,.09-1.6,.18-.33,.05-.69,.12-1.09,.2-.92,.19-1.4,.36-1.79,.5-.45,.16-.8,.28-1.51,.36-.73,.09-1.54,.03-3.15-.09-.95-.07-1.46-.13-1.84-.18-.45-.05-.67-.08-1.2-.07-1.13,.03-2.19,.28-3.14,.73-.08,.04-.23,.11-.39,.19h.07c.58,.06,1.45,.13,2.49,.49,.42,.14,.63,.25,.81,.34,.18,.09,.32,.16,.62,.25,.91,.28,1.62,.22,2.44,.15,.18-.01,.37-.03,.56-.04,.32-.02,.61-.03,.87-.03Z"/><path d="M311.74,152.75c-1.52,0-2.63-.13-2.97-.17-1.46-.19-2.26-.3-2.81-.7-.23-.17-1.36-1.06-1.47-2.55-.03-.42,.01-1.09,.4-1.87h0c.07-.15,.25-.5,.53-.79,.58-.61,1.33-.66,3.86-.77,1.18-.05,1.25-.04,1.37-.04,.07,0,.16,.01,.93-.02h.3c1.18-.05,1.62-.07,2.1,.28,.49,.36,.65,.86,.89,1.62,.24,.77,.33,1.57,.25,2.37-.09,.89-.16,1.65-.77,2.18-.4,.34-.86,.41-1.94,.44-.23,0-.45,0-.66,0Zm-1.25-6.14c-.12,0-.4,0-1.18,.04-2.54,.11-3.01,.18-3.35,.54-.2,.21-.33,.48-.4,.61h0c-.31,.62-.35,1.15-.32,1.48,.09,1.18,1.05,1.92,1.16,2,.38,.28,1.07,.38,2.47,.56,.37,.05,1.7,.21,3.51,.16,1.08-.03,1.28-.1,1.47-.26,.38-.33,.44-.9,.51-1.68,.07-.71,0-1.41-.22-2.08-.23-.73-.34-1.03-.62-1.24-.26-.19-.53-.19-1.63-.15h-.3c-.84,.04-.93,.03-1.01,.02-.02,0-.04,0-.1,0Z"/><g><path d="M286.62,246.41c-.27,0-.48-.01-.65-.02-5.39-.29-9.76-2.32-11.41-3.09-3.52-1.63-6.13-3.01-10.25-7.13-.02-.01-5.96-4.9-11.92-12.74-.98-1.29-1.48-2.14-1.82-3.14-.29-.85-.37-1.48-.42-1.99-.06-.57-.11-.98-.41-1.53-.39-.72-.85-.99-1.48-1.36-.41-.25-.88-.52-1.39-.97-1.61-1.42-2.09-3.13-2.89-5.97-.5-1.77-.63-2.85-.79-4.1-.14-1.1-.3-2.34-.74-4.33-.21-.91-.49-1.84-.88-2.85-1.16-3.06-2.31-4.46-3.54-5.93-1.06-1.28-2.16-2.61-3.33-5.05-2.71-5.66-2.68-10.72-2.63-17.74,.02-3.46,.31-5.52,.58-7.51,.31-2.23,.63-4.53,.57-8.85-.03-2.43-.08-6.09-.85-10.84-.52-3.17-1.11-5.37-1.69-7.5-.71-2.63-1.39-5.11-1.8-9.05-.22-2.17-.5-4.86-.27-7.79,1.25-15.61,16.33-25.6,18.04-26.68,2.39-1.52,7.98-5.06,14.77-5.31,2.55-.09,5.52,.11,5.55,.11,1.64,.12,2.97,.3,4.27,.47,2.92,.39,5.43,.73,10.36,.23,5.32-.54,8.31-1.69,10.95-2.7,2.52-.97,4.89-1.88,8.72-2.02,11.61-.43,20.97,6.69,23.56,8.88,7.37,6.26,9.9,17.67,14.92,40.39l.6,2.73c5.56,25.09,4.46,33.42,4.05,36.55-.34,2.6-.57,3.38-6.44,23.38l-.04,.14c-6.59,22.46-7.96,27.12-9.57,30.05-.34,.61-.58,.98-.89,1.44l-.11,.17c-2.71,4.09-7.65,9.24-23.77,16.35-10.87,4.8-15.18,5.28-16.94,5.28Zm-23.75-160.49c-.47,0-.96,0-1.42,.02-6.52,.23-11.95,3.68-14.27,5.15-1.67,1.06-16.37,10.8-17.58,25.92-.23,2.83,.05,5.47,.26,7.59,.4,3.87,1.07,6.32,1.77,8.9,.59,2.15,1.19,4.38,1.72,7.6,.78,4.82,.83,8.53,.87,10.99,.06,4.4-.26,6.74-.58,9-.27,1.96-.55,3.99-.57,7.38-.04,6.88-.07,11.85,2.54,17.3,1.12,2.33,2.17,3.61,3.2,4.84,1.28,1.54,2.49,3,3.7,6.22,.4,1.06,.7,2.03,.92,2.99,.46,2.03,.62,3.3,.76,4.42,.15,1.21,.29,2.26,.76,3.95,.78,2.75,1.2,4.27,2.59,5.49,.44,.38,.84,.63,1.24,.86,.68,.4,1.32,.78,1.85,1.74,.4,.72,.46,1.29,.53,1.9,.06,.51,.12,1.03,.37,1.78,.31,.89,.76,1.67,1.67,2.86,5.89,7.74,11.74,12.56,11.8,12.61,4.04,4.04,6.58,5.38,10,6.96,1.6,.74,5.85,2.72,11.04,3,1.19,.06,4.81,.26,17.14-5.18,15.88-7.01,20.71-12.02,23.33-15.99l.11-.17c.31-.46,.53-.8,.85-1.37,1.56-2.83,2.92-7.48,9.47-29.79l.06-.2c5.85-19.93,6.08-20.71,6.41-23.23,.41-3.09,1.49-11.29-4.04-36.21l-.6-2.73c-4.98-22.5-7.47-33.8-14.59-39.84-2.52-2.14-11.6-9.06-22.87-8.65-3.66,.14-5.86,.98-8.4,1.96-2.7,1.04-5.75,2.21-11.21,2.76-5.04,.51-7.74,.15-10.59-.23-1.28-.17-2.6-.35-4.2-.46-.02,0-1.96-.13-4.02-.13Z"/><path d="M244.45,159.48c-.31,0-.53-.1-.69-.35-.14-.23-.16-.52-.04-.86,.51-1.54,3.7-4.62,7.72-6.16,1.24-.47,4.53-1.72,8.61-.74,4.59,1.11,7.66,4.61,8.11,5.81,.1,.28,.09,.51-.04,.7h0c-.29,.41-.74,.22-1.25,0-.2-.09-.45-.19-.74-.3-1.97-.71-3.46-.46-5.7-.08-1.44,.24-3.22,.54-5.62,.66-1.19,.06-1.86,.05-2.4,.04-.66-.01-1.14-.02-2.23,.1-1.98,.23-3.4,.62-4.33,.88-.58,.16-1.03,.29-1.38,.29Zm12.5-7.47c-2.43,0-4.31,.72-5.16,1.04-4.04,1.54-6.62,4.42-7.08,5.4,.22-.05,.54-.13,.85-.22,.97-.27,2.43-.67,4.48-.92,1.15-.13,1.69-.13,2.36-.11,.55,.01,1.17,.02,2.33-.04,2.34-.12,4.1-.42,5.51-.65,2.32-.39,3.99-.67,6.21,.13,.09,.03,.17,.06,.25,.09-1-1.27-3.39-3.55-6.9-4.39-1.01-.25-1.97-.34-2.86-.34Z"/><path d="M238.68,147.94c-.07,0-.15-.02-.24-.05-.21-.09-.35-.28-.41-.57-.23-1.03,.27-4.75,2.77-7.44,3.66-3.93,9.41-3.69,12.18-3.57,7.04,.29,13.19,3.69,14.38,5.35,.24,.34,.33,.66,.24,.95-.38,1.29-4.7,.83-8.25,.22-2.29-.4-3.65-.88-4.75-1.27-1.22-.43-2.18-.77-3.93-.83-1.23-.04-4.92-.15-7.86,2.07-1.8,1.36-2.71,3.14-3.2,4.09-.29,.57-.53,1.04-.93,1.04Zm12.4-10.68c-2.84,0-6.86,.43-9.54,3.3-1.56,1.68-2.24,3.81-2.46,5.2,.58-1.06,1.53-2.54,3.13-3.76,3.22-2.44,7.18-2.32,8.48-2.27,1.93,.06,3.01,.44,4.25,.88,1.11,.39,2.37,.84,4.58,1.22,3.24,.56,6.36,.75,7.08,.45-.58-1.1-6.6-4.69-13.65-4.98-.52-.02-1.16-.05-1.86-.05Z"/><path d="M282.41,195.03c-1.45,0-2.55-.44-3.24-.83-.36-.2-.51-.34-.7-.52-.18-.17-.41-.38-.93-.75-1.47-1.05-2.2-1.58-2.91-1.72-.89-.18-1.49,.03-2.07,.22-.61,.21-1.24,.42-2.05,.12-1.76-.66-2.41-2.91-2.61-3.85-.5-2.35,.41-4.28,.85-5.21,.84-1.78,1.78-2.58,2.68-3.36,.91-.78,1.78-1.52,2.58-3.26,.36-.78,.87-2.15,1.31-4.27,.2-.99,.35-1.98,.43-3.03,.43-5.36-.21-9.41-.41-10.53-.55-2.98-1.39-5.94-2.5-8.79l.7-.27c1.12,2.89,1.98,5.89,2.54,8.92,.21,1.14,.86,5.27,.42,10.72-.09,1.08-.23,2.11-.44,3.12-.36,1.76-.82,3.25-1.37,4.43-.87,1.89-1.83,2.72-2.77,3.52-.89,.76-1.73,1.47-2.49,3.11-.4,.86-1.24,2.64-.79,4.74,.17,.82,.73,2.77,2.14,3.3,.56,.21,.97,.07,1.54-.13,.61-.21,1.38-.47,2.46-.25,.86,.18,1.64,.73,3.18,1.84,.56,.41,.82,.64,1.01,.81,.18,.16,.29,.26,.57,.42,.7,.4,1.86,.85,3.45,.71,.92-.08,1.79-.35,2.61-.82,.84-1.76,1.95-2.91,3.23-3.31,.96-.3,1.9-.18,3.78,.06,.61,.08,1.08,.16,1.45,.23,.72,.13,1.05,.19,1.53,.04,1.15-.36,1.81-1.46,1.99-1.79,.25-.47,.46-2.13-.89-8.01l.73-.17c1.62,7.04,1.02,8.16,.82,8.53-.27,.5-1.04,1.72-2.43,2.16-.66,.21-1.12,.12-1.89-.02-.36-.07-.81-.15-1.41-.22-1.77-.22-2.66-.34-3.46-.09-1.09,.35-2.07,1.39-2.82,3.02l-.05,.11-.1,.06c-.94,.56-1.96,.89-3.03,.98-.22,.02-.43,.03-.64,.03Z"/><path d="M284.1,144.56c-1.49-1.68-2.65-3.57-3.43-5.61-2.14-5.59-.92-10.79,0-13.39l.71,.25c-.88,2.5-2.06,7.51,0,12.87,.75,1.96,1.86,3.77,3.29,5.38l-.56,.5Z"/><path d="M296.67,140.32c-.92-.52-1.66-1.26-2.16-2.13-.3-.53-.65-1.36-.73-3.11-.09-1.9,.19-3.85,.81-5.79l.71,.23c-.6,1.86-.86,3.71-.78,5.53,.07,1.6,.38,2.32,.63,2.78,.42,.75,1.07,1.39,1.87,1.84l-.37,.65Z"/><path d="M255.88,158.16c-.37,0-.76-.03-1.18-.12-.9-.18-2.26-.44-3.14-1.66-.76-1.06-1.1-2.78-.25-4.01,.47-.7,1.14-.96,1.67-1.18,.71-.29,1.22-.32,3.65-.24,2.38,.08,2.95,.14,3.54,.62,.63,.51,.88,1.15,1.03,1.54,.25,.65,.75,2.3-.13,3.52-.62,.85-1.58,1.02-3.32,1.32-.62,.11-1.22,.21-1.87,.21Zm-.98-6.49c-.9,0-1.24,.06-1.64,.22-.49,.2-.99,.4-1.34,.91h0c-.64,.94-.35,2.32,.24,3.15,.7,.98,1.84,1.2,2.68,1.36,1.03,.2,1.84,.06,2.78-.1,1.65-.28,2.4-.41,2.84-1.01,.68-.95,.2-2.39,.04-2.81-.14-.36-.33-.85-.81-1.23-.4-.32-.8-.38-3.1-.46-.73-.02-1.28-.04-1.7-.04Z"/><path d="M256.82,155.7c-.36,0-.74-.12-1.09-.36-.48-.32-.77-.76-.75-1.16,.02-.44,.4-.87,1.01-1.15,.53-.25,1.33-.4,1.82-.01h0c.33,.26,.5,.75,.44,1.29-.06,.58-.37,1.05-.82,1.26-.18,.09-.39,.13-.6,.13Zm.21-2.17c-.2,0-.46,.05-.73,.18-.39,.18-.58,.41-.58,.5,0,.09,.13,.31,.42,.51,.33,.22,.71,.29,.96,.17,.25-.12,.37-.42,.4-.67,.03-.3-.05-.54-.15-.62-.06-.05-.17-.08-.31-.08Z"/></g><path d="M310.26,150.71c-.47,0-1.05-.22-1.48-.51-.51-.35-.75-.78-.69-1.21,.04-.31,.26-.61,.59-.85,.42-.29,.94-.42,1.36-.33h0c.72,.16,1.08,.88,1.16,1.46,.09,.61-.09,1.12-.46,1.33-.14,.07-.31,.11-.49,.11Zm-.5-2.17c-.2,0-.45,.08-.65,.22-.19,.13-.27,.26-.28,.34-.02,.12,.13,.31,.37,.48,.47,.33,1.06,.43,1.19,.37,.04-.03,.13-.25,.07-.6-.06-.35-.26-.73-.57-.8-.04,0-.08-.01-.12-.01Z"/><path d="M243.96,159.07c-.09,0-.19,0-.29-.03-.15-.03-1.56-.36-3.19-3.5l-.18-.34,.63-.32,.19,.26c1.58,2.21,2.02,2.49,2.04,2.5,.39,.07,.81-.37,1.67-1.31,.6-.66,1.35-1.48,2.42-2.35,.58-.48,2.36-1.93,4.67-2.74,3.47-1.21,6.58-.48,7.91-.16,1.52,.36,6.57,1.79,7.79,4.99,.38,.66,.54,1.46,.47,1.66l-.07,.18-.19,.05c-.34,.08-.42-.13-.6-.71-.09-.29-.21-.66-.29-.86-.4-.66-1.07-1.14-2.4-2.07l-.16-.11c-.14-.09-.25-.17-.39-.25-1.32-.82-3.43-1.83-6.06-2.04l-.24-.02c-2.23-.14-5.61,.37-8.41,2.22-1.71,1.13-2.63,2.4-3.3,3.33-.64,.89-1.17,1.6-2,1.61Zm-.23-.79c.05,.02,.08,.03,.08,.03,.52,.1,.85-.33,1.54-1.28,.19-.27,.41-.56,.66-.88-.23,.25-.44,.48-.64,.69-.61,.67-1.11,1.21-1.64,1.44Z"/><path d="M296.32,154.46c-.08,0-.15-.03-.2-.06l-.14-.08-.04-.17c-.09-.44,.9-2,1.25-2.49,.84-1.17,1.9-2.16,3.16-2.94l.03-.02,.09-.05c.11-.07,.31-.19,.5-.3,.13-.07,.25-.14,.38-.21,1.19-.76,2.75-1.54,4.64-2.06,4.66-1.27,8.46-.17,9.71,.2,1.43,.42,2.23,.79,2.44,.9,1.15,.57,2.88,1.44,4.09,3.26,.11,.16,.19,.3,.26,.42,.19,.31,.24,.38,.36,.42,.3,.09,1.03-.03,2.54-1.96,.17-.22,.24-.3,.41-.32h.16s.35,.29,.35,.29l-.18,.33s-2.11,3.53-3.85,2.99c-.48-.15-.69-.52-.92-.95-.1-.19-.22-.41-.39-.65-.78-1.14-1.78-1.64-3.29-2.4-3.51-1.76-7.77-1.66-10-1.44-.04,0-3.41,.34-5.96,1.64-1.08,.69-1.83,1.35-2.24,1.74h0c-1.23,1.18-2.06,2.53-2.5,3.26-.1,.17-.18,.3-.24,.39-.15,.22-.3,.29-.42,.29Zm13.75-8.17c1.37,0,2.97,.11,4.58,.47-1.27-.32-3.41-.72-6.01-.43,.44-.02,.92-.04,1.43-.04Z"/></g><path d="M229.58,386.79c-.25,0-.51,0-.77-.02-6.33-.28-12.54-4.15-17.95-11.18-4-5.2-7.56-12.18-9.51-18.66-1.71-5.71-2.68-12.93-2.87-21.47v-.36c-.06-2.2-.13-5.52,.32-9.75,.29-2.67,.73-4.97,1.2-7.4,.87-4.5,1.86-9.61,2.45-19.31,.31-5.09,1.27-20.49-.33-36.73-.08-.79-.19-1.86-.34-3.35-.28-2.71-.71-6.81-1.33-13.09-.28-2.79-.42-4.25-.5-5.06-.09-.96-.1-.99-.13-1.26-.07-.49-1.65-12.09-1.59-14.59,0-.45,.04-.9,.04-.95,.05-.75,.12-1.37,.19-1.99,.42-3.5,1.3-6.61,3.27-11.45,2.48-6.11,3.72-9.18,5.35-10.75,1.6-1.54,4.36-2.46,9.86-4.31,2.13-.71,4.01-1.27,5.82-1.81,4.77-1.42,8.54-2.54,13.38-5.45l.32-.25,.2,.35c2.4,3.51,5.15,7.56,5.23,7.73,.07,.14,.13,.28,.13,.28,.11,.26,.19,.5,.27,.75,.49,1.55,.8,2.56,1.06,3.7,.17,.75,.25,1.32,.32,1.72l.02,.1c1.21,7.68,1.73,9.23,2.89,10.57,.4,.46,.87,.89,1.4,1.26,1.1,.48,1.94,1.19,2.43,2.07,.39,.7,.51,1.41,.64,2.16,.15,.87,.3,1.76,.87,2.85,.14,.26,.29,.52,.34,.6,.56,.93,1.13,1.58,1.5,2,.14,.15,.24,.28,.32,.38,2.75,3.59,5.89,6.89,10.85,11.39,3,2.72,4.38,3.82,5.3,4.54,.79,.63,1.27,1,2.13,1.89,3.73,3.85,6.67,9.84,8.74,17.81,1.72,6.61,1.78,10.65,2.05,27.64,.04,2.31,.08,4.87,.13,7.71,.18,10.77,.29,16.7,.55,18.82,2.26,18.08,4.87,27.27,4.9,27.36l.33,1.13c1.23,4.2,2.38,8.16,.53,9.55-.82,.62-1.73,.35-3.25-.11-1.15-.34-2.71-.81-4.99-1.15-1.93-.29-3.03-.29-4.1-.3-1.15,0-2.23,0-4.2-.37-2.51-.47-3.8-1.05-4.75-1.47-.81-.36-1.3-.59-2.11-.51-2.76,.24-4.29,3.5-6.84,8.89-.92,1.95-1.96,4.15-3.24,6.61-4.51,8.65-8.07,15.48-14.95,19.58-1.69,1.01-6.07,3.62-11.56,3.62Zm6.66-198.1c-4.79,2.83-8.54,3.95-13.27,5.35-1.81,.54-3.68,1.09-5.8,1.8-5.4,1.81-8.1,2.71-9.58,4.14-1.51,1.46-2.73,4.47-5.17,10.49-1.94,4.78-2.81,7.83-3.22,11.26-.07,.6-.14,1.21-.19,1.94,0,.05-.03,.48-.04,.92-.05,2.44,1.57,14.35,1.59,14.47,.04,.28,.04,.31,.14,1.29,.08,.81,.22,2.26,.5,5.05,.63,6.28,1.05,10.37,1.33,13.09,.15,1.49,.27,2.56,.34,3.35,1.6,16.3,.65,31.75,.33,36.82-.6,9.78-1.59,14.91-2.47,19.44-.49,2.52-.91,4.7-1.19,7.34-.45,4.17-.38,7.34-.33,9.65v.36c.2,8.47,1.15,15.63,2.85,21.27,3.44,11.46,13.42,28.71,26.77,29.31,5.63,.27,10.19-2.47,11.91-3.5,6.7-4,10.22-10.75,14.67-19.29,1.27-2.44,2.31-4.64,3.23-6.58,2.66-5.63,4.26-9.03,7.45-9.32,1-.08,1.62,.19,2.48,.58,.91,.41,2.16,.97,4.58,1.42,1.9,.35,2.95,.36,4.07,.36,1.09,0,2.22,0,4.21,.3,2.33,.35,3.92,.83,5.09,1.17,1.47,.43,2.09,.6,2.58,.22,1.44-1.08,.25-5.15-.8-8.74l-.33-1.13c-.03-.09-2.65-9.33-4.92-27.48-.26-2.07-.36-7.29-.56-18.9-.05-2.84-.09-5.39-.13-7.71-.27-16.92-.33-20.93-2.02-27.46-2.03-7.83-4.91-13.71-8.55-17.47-.83-.85-1.29-1.22-2.06-1.83-.93-.73-2.33-1.84-5.34-4.58-4.99-4.53-8.16-7.86-10.94-11.48-.07-.09-.16-.2-.29-.34-.39-.45-.99-1.12-1.57-2.1-.05-.09-.22-.37-.36-.65-.63-1.19-.8-2.19-.95-3.08-.12-.72-.23-1.33-.55-1.92-.41-.74-1.13-1.34-2.15-1.79-.64-.45-1.16-.91-1.59-1.42-1.34-1.56-1.89-3.5-3.06-10.95l-.02-.1c-.06-.4-.15-.95-.31-1.68-.25-1.11-.56-2.11-1.03-3.62-.08-.25-.14-.46-.25-.69,0-.02-.06-.13-.12-.25-.1-.16-2.06-3.08-4.98-7.34Z"/><path d="M338.42,188.24l.2-.65c1.92-6.38,3.16-10.86,3.17-10.9,1.37-4.96,1.6-6.2,1.73-7.21,.36-2.71,.35-4.99,.35-6.36-.01-2.41-.18-4.24-.36-6.19-.24-2.65-.69-5.81-.7-5.84l-.03-.19,.13-.13c1.76-1.76,2.36-2.63,2.41-2.69h0c.35-.54,.44-.74,.53-.94,.07-.16,.13-.31,.3-.58,.95-1.55,3.2-2.17,4.93-1.98,2.37,.27,3.75,2.08,4.34,2.85,1.24,1.62,1.85,3.6,1.95,6.22,.11,3.01-.54,4.75-1.73,7.92-.53,1.43-1.2,3.22-1.95,5.55-.65,2.03-1.02,3.36-1.34,4.54-.48,1.75-.83,3.02-1.82,5.35-1.89,4.45-3.35,6.23-4.53,7.39-2.42,2.39-6.75,3.6-6.93,3.65l-.65,.18Zm5.16-37.06c.17,.67,.37,2.19,.69,5.67,.18,1.97,.35,3.82,.36,6.26,0,1.39,.01,3.71-.36,6.46-.14,1.04-.37,2.31-1.75,7.31-.01,.04-1.17,4.22-2.98,10.24,1.3-.43,4.2-1.54,5.94-3.25,1.13-1.11,2.53-2.83,4.37-7.15,.97-2.28,1.31-3.53,1.78-5.26,.31-1.13,.69-2.53,1.35-4.58,.76-2.35,1.43-4.14,1.97-5.58,1.19-3.18,1.78-4.77,1.68-7.63-.09-2.46-.66-4.3-1.79-5.79-.58-.76-1.77-2.33-3.83-2.56-1.46-.17-3.42,.35-4.2,1.62-.14,.22-.19,.35-.25,.48-.09,.22-.2,.46-.59,1.05h-.01c-.31,.54-1.51,1.83-2.37,2.69Z"/></g><path d="M290.64,350.32c-.05,0-.11,0-.16-.02-.57-.14-.68-.66-1.08-2.58-.27-1.29-.67-3.23-1.42-6.2-.61-2.42-1.07-4.02-1.44-5.31-.16-.55-.3-1.05-.44-1.55-1.29-4.68-1.83-9.54-2.46-15.16-.11-.98-.22-1.97-.34-2.99-.63-5.49-.7-12.1-.83-24.09v-1.3c-.1-8.83-.22-20.93-2.13-31.16-.59-3.15-1.28-5.83-2.74-8.72-1.96-3.87-5.23-8-5.75-8.66l-2.44-.7h1.87l-.26-.32,1.16,.33c11.61,3.34,13.77,3.63,13.86,3.64,1.43-.09,2.94-.28,4.42-.58,3.33-.66,5.57-1.65,8.67-3.03l.69-.3c3.29-1.45,6.71-2.9,10.19-4.3,.1-.05,12.04-5.96,16.58-13.01,.8-1.24,1.47-2.55,1.47-2.56,.28-.56,.53-1.1,.78-1.67,1.19-2.76,2.61-7.83,3.01-9.32l.25-.91q1.91-7.05,2.38-6.95c.36,.08,.32,.47,.29,.73-2.46,22.04-7.21,42.35-7.25,42.55-.65,2.76-1.31,5.32-2.77,10.22-1.48,4.96-3.09,9.6-5.53,16.64-2.39,6.88-5.66,16.31-10.5,30.91l-1.91,5.76c-9.07,27.44-13.7,40.61-16.17,40.62Zm-17.53-107.39c1.45,1.83,3.98,5.61,5.18,7.96,1.5,2.97,2.21,5.71,2.81,8.92,1.92,10.29,2.04,22.43,2.13,31.29v1.3c.14,11.97,.2,18.56,.83,24.02,.12,1.02,.23,2.01,.34,2.99,.62,5.59,1.16,10.42,2.43,15.05,.13,.49,.28,.99,.44,1.54,.37,1.29,.84,2.9,1.45,5.33,.75,2.99,1.16,4.94,1.43,6.23,.23,1.11,.4,1.9,.53,2.01,.02,0,.04,0,.06,0,2.12,0,10.08-24.11,15.38-40.11l1.91-5.76c4.84-14.6,8.12-24.03,10.51-30.92,2.44-7.03,4.05-11.67,5.52-16.61,1.45-4.88,2.11-7.43,2.76-10.17,.05-.19,4.27-18.26,6.81-38.78-.23,.83-.48,1.77-.77,2.81l-.25,.91c-.41,1.5-1.83,6.61-3.05,9.42-.25,.58-.51,1.13-.8,1.71-.03,.06-.69,1.36-1.51,2.63-4.66,7.23-16.41,13.05-16.91,13.29-3.49,1.42-6.92,2.86-10.19,4.3l-.69,.3c-3.15,1.39-5.42,2.39-8.83,3.08-1.51,.3-3.05,.5-4.59,.59-.15-.01-2.16-.27-12.91-3.34Z"/></g><path d="M246.98,368.94l-.34-1.03c-2.4-7.16-3.09-8.94-3.23-9.29-3.49-3.22-6.44-6.91-8.75-10.95-1.23-2.16-1.78-3.54-2.36-5-.59-1.49-1.2-3.03-2.61-5.59-1.71-3.11-2.87-4.61-4-6.06-1.24-1.59-2.41-3.09-4.14-6.51-1.33-2.61-3.14-6.71-3.53-12.15-.11-1.46-.04-2.01,1.03-11.37l.28-2.46c.03-.3,.04-.71,.04-1.17,.02-1.69,.05-4.24,1.55-6.42,.64-.94,1.35-1.55,2.15-1.87,1.39-.56,2.88-.18,4.99,.67,.16,.06,.31,.12,.45,.18-.34-.2-.74-.4-1.3-.61-1.47-.54-2.4-.53-3.3-.52-.92,.02-1.87,.02-3.27-.58-2.6-1.11-4.19-3.22-4.75-4.07-.74-1.12-.98-1.95-1.19-2.69-.23-.8-.42-1.44-1.18-2.29-.66-.74-1.16-.97-1.85-1.29-.57-.26-1.27-.58-2.24-1.27-.87-.62-3.5-2.52-4.72-5.63-.77-1.99-.6-3.86-.24-7.6,.15-1.57,.3-2.38,.52-3.51,.15-.79,.34-1.76,.58-3.29,.47-2.97,.61-4.68,.7-5.8,.11-1.36,.17-2.04,.63-3.23,.44-1.12,.87-1.9,5.98-7.12,6.58-6.72,8.54-8.2,10.11-9.22,4.21-2.74,6.54-3.12,8.27-3.12h.02c1.52,0,4.34,0,5.56,1.92,1.29,2.03-.16,4.89-.86,6.27-.98,1.94-2.12,3.01-3.85,4.62-.5,.47-1.06,.99-1.68,1.59-.03,.03-2.93,2.85-5.2,5.59-5.26,6.34-5.11,16.41-4.3,17.87,.58-.75,2.11-4.1,4.18-8.6,1.35-2.93,2.02-4.41,2.72-6.02l.57-1.34c1.26-2.96,2.02-4.74,3.73-6.9,.85-1.07,1.36-1.72,2.27-2.42,.2-.15,4.96-3.73,10.07-1.67,1.04,.42,4.49,2.03,5.08,5.12,.4,2.07-.66,3.93-1.43,5.29-.44,.77-.89,1.57-.68,1.8,.16,.18,.74,0,1.35-.2,1.06-.34,2.5-.8,4.13-.31,1.29,.38,1.93,1.13,2.9,2.27,.36,.42,.78,.91,1.3,1.47,1.88,2,3.14,2.75,4.15,3.35,.85,.51,1.59,.95,2.34,1.94,1.5,1.99,1.25,3.78,.8,7.03-.27,1.95-.61,4.38-.72,7.75-.12,3.45,.06,5.7,.21,7.51,.21,2.59,.35,4.29-.64,7.14-.75,2.18-1.53,3.18-2.42,4.35-.7,.92-1.5,1.95-2.45,3.78-1.34,2.57-2.46,5.47-3.6,17.24-.29,3.03-.59,6.55-1.21,18.97-.54,10.74-.96,15.62-1.62,18.65-1.53,7.03-4.6,15.67-4.63,15.75l-.36,1.02Zm-22.51-79.4c-.41,0-.77,.07-1.12,.21-.66,.26-1.25,.79-1.81,1.6-1.37,2-1.4,4.41-1.42,6,0,.49,0,.91-.05,1.25l-.28,2.46c-1.06,9.29-1.13,9.84-1.03,11.23,.39,5.31,2.16,9.32,3.45,11.87,1.71,3.35,2.85,4.83,4.07,6.39,1.14,1.47,2.33,2.99,4.06,6.16,1.43,2.61,2.05,4.17,2.65,5.68,.57,1.43,1.11,2.79,2.32,4.9,2.28,4,5.2,7.64,8.66,10.83l.09,.12s.51,1.17,2.94,8.38c.86-2.5,3.04-9.07,4.25-14.63,.65-2.98,1.07-7.83,1.61-18.52,.62-12.44,.92-15.97,1.21-19.01,1.15-11.9,2.3-14.87,3.68-17.51,.98-1.89,1.8-2.95,2.52-3.89,.89-1.16,1.59-2.08,2.31-4.14,.94-2.7,.81-4.26,.6-6.84-.15-1.83-.34-4.11-.21-7.6,.12-3.42,.46-5.87,.73-7.83,.44-3.15,.66-4.73-.66-6.47-.66-.87-1.27-1.24-2.12-1.74-1.05-.63-2.36-1.4-4.32-3.48-.53-.57-.96-1.06-1.33-1.5-.95-1.11-1.47-1.72-2.55-2.04-1.41-.42-2.67-.01-3.69,.31-.89,.28-1.66,.53-2.14-.02-.56-.64-.06-1.53,.59-2.67,.75-1.33,1.69-2.99,1.35-4.78-.52-2.72-3.67-4.19-4.62-4.57-4.72-1.9-9.14,1.42-9.33,1.57-.83,.64-1.3,1.23-2.14,2.29-1.65,2.08-2.4,3.83-3.63,6.73l-.57,1.34c-.7,1.62-1.38,3.1-2.72,6.03-3.95,8.61-4.32,9.27-4.98,9.13-.38-.09-.56-.52-.67-.84-.85-2.53-.75-12.02,4.5-18.35,2.3-2.77,5.23-5.62,5.26-5.65,.63-.61,1.19-1.13,1.69-1.6,1.73-1.61,2.77-2.59,3.69-4.41,.63-1.25,1.95-3.86,.89-5.53-.99-1.57-3.55-1.57-4.92-1.57h-.02c-1.61,0-3.81,.36-7.86,3-1.54,1-3.45,2.45-9.98,9.12-4.99,5.1-5.43,5.86-5.81,6.86-.42,1.08-.47,1.69-.58,3.02-.09,1.14-.24,2.86-.71,5.86-.24,1.54-.43,2.51-.58,3.31-.22,1.15-.36,1.9-.51,3.44-.34,3.62-.52,5.43,.19,7.25,1.13,2.91,3.63,4.7,4.45,5.29,.91,.65,1.55,.94,2.11,1.2,.72,.33,1.33,.61,2.1,1.47,.87,.98,1.1,1.76,1.34,2.58,.21,.72,.42,1.46,1.1,2.48,.52,.8,2,2.76,4.42,3.79,1.25,.54,2.04,.53,2.97,.52,.92,0,1.97-.02,3.57,.57,1.17,.43,1.73,.85,2.32,1.29,.55,.41,1.11,.83,2.29,1.34,.66,.29,3.05,1.22,5.97,1.28,.02,0,.03,0,.04,0,1.19-.18,2.59-.46,4.32-.81,1.1-.4,2.25-.8,4.2-.93,.49-.08,.98-.1,1.62-.07,3.28,.16,5.85,1.63,6.06,1.96l.1,.16-.12,.35-.16,.07c-.18,.07-.3,.01-.66-.17-.93-.48-3.4-1.74-6.66-1.55-.04,0-.08,0-.12,0-.42,.07-.86,.17-1.45,.32-.65,.16-1.47,.36-2.62,.59,0,0-.01,0-.02,0-1.22,.44-2.36,.84-4.45,.83-2.06,.32-3.52,.34-4.89-.08-.92-.29-1.39-.59-1.99-.98-.68-.44-1.53-.99-3.48-1.77-1.5-.61-2.5-.89-3.31-.89Z"/><path d="M250.39,110.06l-.33-.38c4.94-4.24,10.26-6.81,15.81-7.65,4.93-.74,8.68,.05,11.98,.75,.53,.11,1.05,.22,1.55,.32,9.08,1.78,19.18,1.02,30.03-2.28l.15,.48c-10.93,3.32-21.11,4.09-30.27,2.29-.51-.1-1.02-.21-1.56-.32-3.26-.69-6.96-1.48-11.8-.74-5.46,.83-10.69,3.36-15.56,7.54Z"/></g><path d="M232.53,169.13l-.37-3.77c-.83-8.56-2.12-17.23-3.83-25.76-.58-2.88-1.09-4.81-1.54-6.5-.46-1.74-.9-3.38-1.31-5.7-.92-5.2-2.21-15.57-.45-26.54,4.15-25.97,24.74-41.34,27.08-43.01,5.8-4.15,17.88-12.77,29.02-10.13,.77,.18,1.56,.42,2.4,.68,1.97,.6,4.42,1.36,8.18,1.84,3.78,.49,6.07,.34,7.9,.22,2.25-.14,3.74-.24,6.14,.98,.87,.44,1.69,.96,2.56,1.52,1.84,1.17,3.93,2.49,7.19,3.54,.69,.22,1.4,.42,2.09,.58,.98,.23,2.01,.43,2.9,.54,1.39,.19,11.44,3.21,16.25,6.82,6.72,5.04,8.62,15.26,11.77,32.19,2.19,11.78,3.04,22.21,2.51,30.98,0,.07-.46,7.09-3.93,18.61-.25,.83-.58,1.59-1,2.3-.74,1.24-1.62,2.11-2.23,2.62-.15,.12-.27,.22-.36,.28l-.65,.5-.15-.8c-1.5-8.03-3.08-16.08-4.68-23.94-1.44-7.05-2.27-10.91-3.71-15.76-2.43-8.2-3.65-12.31-5.73-15.4-7.63-11.32-21.24-13.96-25.4-14-1.33,.01-2.69,.11-2.7,.11-3.67,.33-6.18,1.29-8.39,2.14-.48,.18-.94,.36-1.4,.53-5.94,2.14-11.3,2.18-13.88,2.19-2.36,.04-3.49-.19-4.77-.44-.48-.09-1-.19-1.63-.29-.02,0-1.52-.24-3.65-.37-1.15-.07-5.3-.19-10.23,1.12-2.1,.56-6.3,1.94-10.81,4.99-1.58,1.07-9.67,6.9-13.71,16.73-.03,.06-2.55,6.19-2.5,11.83,.01,1.32,.07,2.27,.35,4.1,.27,1.76,.67,3.26,1.14,4.99,.65,2.42,1.45,5.42,2.18,10.3,.37,2.49,.99,6.66,1.04,12.12,.04,4.44-.32,8.92-1.05,13.29l-.62,3.73Zm44.25-120.9c-9.49,0-19.14,6.89-24.1,10.44-2.3,1.64-22.59,16.78-26.67,42.35-1.73,10.83-.46,21.07,.45,26.21,.4,2.27,.82,3.82,1.29,5.62,.46,1.71,.97,3.65,1.56,6.56,1.45,7.22,2.59,14.53,3.42,21.79,.34-3.02,.5-6.06,.47-9.09-.04-5.39-.66-9.52-1.02-11.98-.72-4.82-1.48-7.67-2.16-10.18-.47-1.76-.88-3.28-1.16-5.09-.29-1.9-.35-2.88-.36-4.25-.05-5.85,2.47-11.97,2.58-12.23,4.05-9.85,11.79-15.64,14.07-17.18,4.63-3.13,8.95-4.56,11.11-5.13,5.08-1.35,9.35-1.22,10.54-1.15,2.19,.13,3.69,.37,3.75,.38,.64,.1,1.17,.2,1.66,.29,1.28,.24,2.3,.46,4.58,.42,2.71-.02,7.77-.05,13.55-2.13,.45-.16,.91-.34,1.38-.52,2.27-.88,4.85-1.87,8.66-2.21,.06,0,1.4-.12,2.8-.11,4.61,.04,18.32,2.71,26.22,14.44,2.17,3.22,3.4,7.38,5.86,15.68,1.45,4.89,2.29,8.76,3.73,15.84,1.54,7.58,3.07,15.36,4.52,23.11,.65-.6,1.25-1.33,1.7-2.08,.38-.64,.68-1.32,.9-2.07,3.43-11.4,3.88-18.32,3.89-18.38,.52-8.7-.32-19.04-2.5-30.74-3.1-16.69-4.98-26.76-11.38-31.57-4.77-3.58-14.85-6.5-15.75-6.62-.94-.12-2.01-.32-3.02-.56-.72-.17-1.45-.38-2.17-.61-3.38-1.09-5.53-2.45-7.42-3.65-.85-.54-1.65-1.05-2.48-1.47-2.15-1.1-3.45-1.01-5.62-.88-1.78,.11-4.22,.27-8.1-.23-3.85-.5-6.35-1.26-8.35-1.88-.86-.26-1.6-.49-2.33-.67-1.36-.32-2.73-.47-4.11-.47Z"/></g><path d="M228.99,247.54c-1.22,0-2.56-1.45-2.61-1.55l-.12-.23,.18-.19s1.75-1.89,3.3-3.44c1.21-1.21,1.83-1.74,2.27-2.13,.46-.39,.73-.63,1.32-1.32,.44-.51,1.57-1.93,2.52-3.9,.53-1.1,.72-1.78,.72-2.53,0-.37,0-1.23-.54-2.04-.55-.85-1.4-1.24-1.76-1.41-.22-.1-.37-.16-.48-.19-.32-.08-.53-.05-.7-.02-.17,.02-.39,.05-.56-.11h0c-.44-.42-.01-1.09,2.19-4.01,.53-.7,1.08-1.44,1.59-2.14,.71-1,1.3-1.89,1.82-2.68,1.4-2.13,2.18-3.31,3.21-3.19,.57,.06,.86,.41,1.25,.89,.37,.46,.88,1.08,1.92,1.91l.21,.17c.73,.58,1.26,1,2.06,1.33,.9,.38,1.53,.4,2.03,.42,.5,.02,.94,.04,1.3,.43,.96,1.03,.19,3.47-2.36,7.45-1.69,2.65-2.15,3.12-3.51,4.51-.53,.54-1.2,1.22-2.13,2.23-.4,.43-.74,.88-1.07,1.33-.81,1.08-1.58,2.1-2.96,2.52-.21,.06-.4,.1-.6,.15-.39,.08-.76,.17-1.28,.41-1.11,.53-1.78,1.28-2.47,2.14-1.1,1.36-1.81,2.4-2.32,3.15-.85,1.25-1.27,1.88-2.21,2.02-.07,.01-.14,.02-.21,.02Zm-1.75-1.73c.46,.42,1.28,1.07,1.85,.97,.58-.09,.87-.48,1.7-1.69,.52-.77,1.24-1.82,2.36-3.21,.73-.9,1.48-1.75,2.73-2.35,.6-.28,1.04-.38,1.44-.47,.18-.04,.36-.08,.54-.13,1.15-.34,1.81-1.23,2.58-2.25,.34-.46,.7-.93,1.12-1.39,.94-1.02,1.61-1.71,2.15-2.25,1.36-1.39,1.77-1.81,3.42-4.39,3.22-5.04,2.68-6.27,2.44-6.53-.14-.15-.34-.17-.78-.19-.54-.02-1.27-.05-2.29-.48-.89-.37-1.49-.84-2.24-1.43l-.21-.17c-1.11-.87-1.67-1.57-2.04-2.02-.36-.45-.49-.59-.74-.62-.6-.1-1.39,1.16-2.5,2.85-.52,.79-1.12,1.7-1.84,2.7-.51,.71-1.06,1.45-1.6,2.15-.78,1.04-1.73,2.29-2.06,2.9,.19,0,.43,0,.72,.07,.16,.04,.35,.11,.62,.24,.38,.18,1.4,.65,2.07,1.68,.65,1,.66,2.02,.66,2.45,0,.87-.21,1.65-.79,2.86-.99,2.06-2.17,3.53-2.63,4.07-.62,.73-.93,.99-1.4,1.4-.44,.38-1.04,.9-2.23,2.09-1.19,1.19-2.5,2.58-3.03,3.15Z"/><path d="M249.7,222.5l-.17-.16s-.08-.09-.09-.13c-.93-.11-2.28-.45-2.3-.45-1.05-.31-1.73-.84-2.85-1.71l-.23-.18c-.98-.76-1.91-1.6-2.79-2.52-.06,.01-.12,.01-.19,0l-.23-.07-.03-.24c0-.07,.04-.19,.13-.33h0s0,0,0-.01c.44-.68,1.78-1.98,2.06-2.16,1.11-.68,2.3-.59,3.26-.53,.98,.07,1.99,.14,2.94,.83,1.39,1,1.93,2.79,1.86,4.12-.01,.25-.38,1.81-.74,2.75,.02,.03,.03,.05,.04,.09l.07,.22-.16,.16s-.1,.06-.2,.07c-.06,.1-.11,.16-.16,.18l-.22,.09Zm-7.92-5.7c.85,.89,1.77,1.72,2.72,2.46l.23,.18c1.09,.85,1.68,1.31,2.6,1.59,.48,.14,1.6,.33,2.24,.43v-.02s.04,0,.04,0c.25-.68,.67-1.97,.7-2.54,.06-1.12-.4-2.63-1.55-3.47-.78-.57-1.6-.62-2.56-.69-.89-.06-1.91-.13-2.81,.42-.42,.26-1.19,1.13-1.61,1.63Z"/></g><path d="M304.46,157.64c-2.54,0-5.08-.14-7.6-.42l.06-.5c3.31,.37,6.68,.49,10.01,.37,4.99-.18,9.99-.92,14.84-2.2l.13,.48c-4.89,1.29-9.92,2.03-14.95,2.22-.83,.03-1.65,.04-2.48,.04Z"/><path d="M248.15,162.52c-1.73,0-3.47-.06-5.19-.19l.04-.5c2.87,.22,5.78,.25,8.64,.1,3.18-.16,6.38-.55,9.51-1.15l.09,.49c-3.15,.61-6.37,1-9.57,1.16-1.17,.06-2.34,.09-3.52,.09Z"/></g><path d="M317.29,464.86s-.04,0-.05,0c-1.55-.07-4.15-3.13-8.45-8.22-5.93-7.01-14.9-17.61-26.63-26.35h0c-.5-.38-12.45-9.19-28.5-17.1,0,0-.01,0-.02,0l-.62-.3,.6-.35c.19-.11,19.98-11.95,37.69-23.99,16.36-11.11,26.9-22.66,35.36-31.94,1.32-1.45,2.59-2.83,3.79-4.17-4.98,4.36-10.47,7.78-16.43,10.22-15.96,6.53-32.49,5.15-37.26,2.53-.8-.44-1.25-.91-1.34-1.42-.17-.96,1.02-1.64,3-2.78,2.81-1.61,7.52-4.31,11.51-9.78,1.01-1.38,1.92-2.87,2.7-4.41,5.5-13.68,10.73-27.64,15.53-41.46,1.23-3.54,3.32-10.06,6.79-20.87,1.8-5.61,3.97-12.39,6.6-20.56,3.93-12.19,5.73-17.86,7.18-24.49,1.9-8.66,5.31-26.06,4.58-29.92-.03-.14-.62-3.39,.5-5.63l.75-1.5c.12-.26,.81-2.65,3.41-12.63l.07-.26,.26-.02c14.67-1.21,41.34-.63,55.12,16.84,8.77,11.12,8.6,24.34,8.46,34.96v.09c-.42,32.72-.59,66.8-.79,106.26l-.02,.11c-4.21,13.33-9.44,26.45-15.53,39-21.69,44.67-65.66,76.5-67.52,77.84-.19,.19-.46,.3-.76,.3Zm-62.72-52.05c15.81,7.87,27.53,16.51,28.03,16.88,11.81,8.79,20.81,19.43,26.76,26.47,3.73,4.41,6.68,7.9,7.91,7.95,.11,0,.2-.03,.27-.1,1.93-1.39,45.75-33.11,67.36-77.61,6.07-12.49,11.27-25.56,15.47-38.84,.2-39.44,.37-73.5,.79-106.21v-.09c.13-10.5,.3-23.58-8.3-34.49-13.48-17.1-39.63-17.76-54.2-16.58-3.13,11.98-3.32,12.37-3.4,12.51l-.5,.99c-.15,.3-.26,.53-.27,.53-1,2-.43,5.11-.42,5.14,.94,4.98-4.36,29.2-4.58,30.22-1.53,6.94-3.54,13.2-7.2,24.56-2.63,8.17-4.8,14.95-6.6,20.55-3.47,10.81-5.56,17.34-6.79,20.89-4.81,13.83-10.05,27.8-15.56,41.52-.82,1.61-1.75,3.13-2.78,4.54-4.08,5.6-8.88,8.35-11.75,9.99-1.45,.83-2.71,1.55-2.63,1.99,.02,.12,.16,.46,.96,.9,4.53,2.48,21.1,3.78,36.61-2.57,14.09-5.77,25.49-17.06,33.89-33.55,6.27-12.97,8.03-24.63,8.49-29.06,.06-.64,.1-1.21,.14-1.7,.02-.32,.03-.41,.17-.51l.36-.28,.2,.41s.02,.09,.02,.22h.02s0,.1-.01,.21c0,.08-.01,.16-.02,.24-.02,.37-.06,.88-.13,1.53-.54,5.7-2.36,17.09-8.56,29.28-5.42,11.2-11.65,18.03-21.09,28.37-8.49,9.31-19.06,20.9-35.49,32.06-9.14,6.21-18.91,12.41-25.5,16.51-7.45,4.64-10.43,6.46-11.66,7.14Z"/><path d="M211.14,499.1c-.3,0-.57-.05-.82-.17-2.16-.96-3.23-5.72-3.34-6.26l-.03-.15,.09-.14c.1-.16,.36-.55,.75-1.12-1.87,2.24-3.58,3.65-5.7,3.48-1.7-.12-3.42-1.25-4.29-2.8-1.45-2.58-.13-6.19,2.42-10.06-2.93,3.23-4.59,4.76-5.88,4.12-.45-.22-.78-.69-.99-1.39-.84-2.88,.51-9.69,3.85-15.23,2.33-3.87,4.7-5.64,10.41-9.94,2.53-1.91,5.69-4.28,9.79-7.55,7.59-6.05,9.61-8.17,10.14-8.88-.56,.19-1.61,.72-2.71,1.27-3.55,1.78-9.5,4.76-17.47,6.74-9.57,2.37-16.39,2.1-19.73-.78-.5-.43-2.02-1.75-1.7-3.1,.35-1.45,2.38-1.77,6.05-2.35,1.62-.26,3.45-.55,5.59-1,6.17-1.31,9.27-1.96,12.19-3.77,.56-.34,1.13-.73,1.75-1.15,1.93-1.31,4.34-2.93,8.18-4.54,.65-.27,1.16-.47,1.35-.54,5.63-1.72,11.14-3.84,16.41-6.33,7.31-3.45,14.28-7.64,20.73-12.48l.18-.14,.21,.1c6.47,3.21,12.78,6.86,18.74,10.84,2.23,1.49,4.44,3.04,6.58,4.62l.35,.26-.31,.31c-4.54,4.49-8.46,9.5-11.64,14.9-1.26,2.14-1.68,3.1-2.21,4.32-.54,1.24-1.21,2.79-3.03,6.13-2.91,5.35-8.34,15.3-13.63,20.79-.39,.4-.83,.99-1.33,1.67-.6,.8-1.28,1.7-2.15,2.7-1.96,2.24-4.17,4.76-7.27,6.92l-.1,.07c-.85,.59-8.31,5.66-10.7,3.71-1.17-.95-.68-3.05-.5-3.85,.81-3.51,3.81-5.6,4.95-6.39,7.22-5.03,12.55-12.82,12.98-14.5-.96,.27-4.3,2.26-8.25,5.32-4.56,3.52-7.58,6.61-12.16,11.29-2.02,2.07-4.31,4.41-7.16,7.21-4.33,4.28-8.15,7.83-10.57,7.83Zm-3.4-6.43c.39,1.73,1.44,4.94,2.88,5.58,1.88,.83,6.25-3.25,10.56-7.51,2.84-2.8,5.13-5.14,7.15-7.2,4.6-4.7,7.64-7.8,12.23-11.35,.34-.26,8.37-6.43,9.35-5.33,.11,.13,.15,.3,.13,.52-.19,1.61-5.81,9.97-13.25,15.15-1.14,.79-3.98,2.76-4.72,5.99-.14,.61-.56,2.45,.24,3.1,1.33,1.08,5.94-1.06,9.8-3.74l.1-.07c3.02-2.11,5.21-4.6,7.13-6.79,.86-.98,1.53-1.87,2.12-2.66,.52-.7,.97-1.3,1.39-1.74,5.22-5.41,10.62-15.31,13.52-20.63,1.8-3.31,2.47-4.84,3-6.07,.54-1.24,.97-2.22,2.25-4.4,3.15-5.33,7-10.29,11.45-14.74-2.02-1.49-4.1-2.95-6.2-4.34-5.87-3.92-12.08-7.52-18.45-10.69-6.44,4.8-13.39,8.98-20.68,12.42-5.3,2.5-10.85,4.64-16.48,6.36-.16,.06-.66,.25-1.3,.52-3.77,1.58-6.14,3.19-8.05,4.47-.63,.42-1.21,.82-1.77,1.16-3.03,1.87-6.17,2.53-12.43,3.86-2.16,.46-4.08,.76-5.63,1.01-3.13,.5-5.21,.83-5.44,1.79-.15,.6,.35,1.39,1.46,2.35,3.15,2.72,9.74,2.93,19.06,.62,7.89-1.96,13.79-4.92,17.32-6.68,2.61-1.31,3.49-1.75,3.88-1.2,.31,.42,.77,1.06-10.52,10.07-4.11,3.28-7.27,5.66-9.81,7.56-5.63,4.23-7.96,5.99-10.22,9.73-3.25,5.38-4.57,11.91-3.78,14.63,.14,.49,.35,.81,.6,.93,1.02,.5,3.4-2.17,6.71-5.87,3.82-4.27,9.05-10.12,16.72-16.71,3.24-2.78,6.56-5.33,9.93-7.62,4.41-3.06,7.45-4.71,7.73-4.71h.18s.2,.3,.2,.3l-.04,.16q-.04,.18-.77,.59c-2.3,1.3-4.58,2.72-6.85,4.25-5.03,3.48-11.97,8.88-18.74,15.95-3.87,4.04-14.16,14.78-11.3,19.9,.74,1.33,2.26,2.32,3.69,2.42,2.58,.18,4.61-2.51,7.42-6.24,.81-1.07,1.64-2.18,2.58-3.35,1.97-2.44,3.9-4.44,6.54-6.9,5.79-6.15,11.61-10.34,16.76-14.04,4.05-2.92,5.87-4.08,6.72-4.5,.13-.08,.21-.14,.25-.16l.03,.04c.39-.16,.46-.07,.52,.02l.1,.13-.03,.16q-.03,.18-.81,.67c-6.16,3.91-11.87,8.2-16.96,12.75-2.42,2.17-4.38,3.91-6.05,5.47-.1,.11-.2,.21-.3,.32-5.59,6.01-10.34,13.06-11.17,14.3Z"/></svg>