<?xml version="1.0" encoding="UTF-8"?><svg xmlns="http://www.w3.org/2000/svg" viewBox="0 0 395 516"><defs><style>.cls-1{fill:#f9f4f1;font-family:AcuminConcept-Medium, 'Acumin Variable Concept';font-size:16.97px;font-variation-settings:'wght' 500, 'wdth' 100, 'slnt' 0;}.cls-2{letter-spacing:0em;}.cls-3{letter-spacing:0em;}.cls-4{fill:#240000;stroke:#000;}.cls-4,.cls-5{stroke-miterlimit:10;}.cls-6{letter-spacing:0em;}.cls-7{letter-spacing:0em;}.cls-5{fill:none;stroke:#fff;}.cls-8{letter-spacing:.03em;}.cls-9{letter-spacing:0em;}.cls-10{letter-spacing:.03em;}</style></defs><g id="Layer_6"><rect class="cls-4" x="-.87" y="0" width="395.65" height="516"/><path class="cls-5" d="M261.1,500.27c.14-4.56-.15-9.81-1.35-15.5-1.62-7.67-3.82-11-6.06-19.54-1.37-5.21-1.82-9.08-2.69-15.5-1.93-14.19-4.17-17.6-1.85-20.07,1.58-1.67,4.75-1.8,11.11-2.06,5.24-.21,7.86-.32,9.05,1.23,1.61,2.11-.89,4.66-1.23,12.34-.15,3.44,.2,6.12,.41,7.4,.73,4.54,1.86,5.56,3.29,10.28,.66,2.19,2.12,7.57,2.06,13.99-.06,5.82-1.29,5.09-1.23,10.28,.08,7.26,2.49,9,1.65,15.22-.15,1.11-.79,3.21-2.06,7.4-1.3,4.29-2.47,7.8-3.29,10.22h-10.53l2.73-15.73Z"/><path class="cls-5" d="M292.75,430.5c2.33,3.42,4.66,6.99,6.99,10.7,2.45,3.9,2.56,4.41,4.53,7.4,3.12,4.75,4.04,5.47,5.76,8.64,1.37,2.53,1.68,3.73,3.29,7.82,.17,.43,2.92,7.41,5.35,12.34,4.34,8.85,6.17,8.16,10.28,16.87,3.16,6.69,3.6,10.28,3.7,12.34,.2,3.98-.56,7.26-1.23,9.39h14.81s-2.06-12.27-2.06-12.27l-4.11-10.51-4.53-19.97-5.76-16.01-10.28-14.81-5.76-14.93-6.99,3h-13.99Z"/><text class="cls-1" transform="translate(118.1 55.16) scale(1.08 1)"><tspan x="0" y="0">D</tspan><tspan class="cls-8" x="12.29" y="0">E</tspan><tspan x="22.96" y="0">T </tspan><tspan class="cls-3" x="36.79" y="0">L</tspan><tspan class="cls-10" x="46.29" y="0">E</tspan><tspan class="cls-2" x="56.93" y="0">V</tspan><tspan class="cls-7" x="67.97" y="0">E</tspan><tspan class="cls-9" x="78.16" y="0">N</tspan><tspan x="90.9" y="0">DE </tspan><tspan class="cls-6" x="117.64" y="0">R</tspan><tspan class="cls-9" x="128.57" y="0">U</tspan><tspan x="140.82" y="0">M</tspan></text></g><g id="Layer_7"><path class="cls-5" d="M65.94,516c-3.94-4.06-4.81-7.41-4.76-9.85,.08-4.06,2.69-5.7,4.08-10.89,1.28-4.78,.41-8.4,0-11.57-1.36-10.4,1.51-19.47,3.4-25.86,3.72-12.53,7.84-12.19,11.57-25.18,.93-3.24,1.54-8.33,2.72-18.38,3.33-28.26,1.13-25.43,3.4-34.71,2.22-9.03,4.78-13.65,2.04-18.38-1.61-2.78-3.31-2.58-9.53-7.49-6.21-4.91-5.54-5.92-11.57-10.89-3.2-2.63-8-6.53-14.97-9.53-5.85-2.51-6.12-1.34-12.93-4.08-5.06-2.04-10.19-4.1-14.97-8.85-3.55-3.52-5.44-7.05-7.49-10.89-3.06-5.73-4.46-10.5-4.76-11.57-3.01-10.59,.16-11.76-3.02-18.82-.9-2-2.56-5.02-1.34-7.49,.35-.7,1.12-1.45,2.67-2.94,2.05-1.97,3.07-2.96,3.74-3.21,3.49-1.31,9.17,1.62,10.35,4.67,.18,.46,.46,1.44,1.34,1.92,1.08,.58,2.18-.09,2.49,.38,.31,.47-.29,1.81-1.34,2.3-1.61,.74-3.31-.96-4.22-.19-.69,.58-.04,1.84-.77,2.3-.44,.28-.92-.02-2.49-.38-1.65-.38-1.86-.52-2.11-.38-.85,.47-.41,2.82-.19,3.83,1.08,4.98,3.45,8.43,3.45,8.43,5.41,7.89,8.15,11.88,13.8,15.71,4.76,3.23,9.55,4.98,9.77,4.6,.24-.42-4.74-4.13-7.28-5.94-3.04-2.16-4.16-2.71-4.98-4.41-.64-1.32-.62-2.92-.57-6.13,.05-3.65,.1-5.49,1.34-6.52,1.12-.92,2.28-.5,2.87-1.53,.76-1.33-.5-3.14,0-3.45,.54-.34,1.81,1.92,3.45,1.72,.96-.11,1.05-.94,2.49-1.92,1.42-.96,2.84-1.17,4.02-1.34,1.16-.17,1.18,0,4.98,.19,0,0,.75,.04,5.17,.19-.52,2.16-.23,2.96,.19,3.26,.82,.58,2.21-.67,3.26,0,.7,.45,.46,1.3,.96,2.3,.79,1.59,2.66,2.06,4.04,2.52,3.77,1.27,9.13,4.27,8.99,6.68-.06,1.1-1.28,2.31-2.11,2.87-.22,.15-.28,.16-1.38,.69-2.02,.97-3.04,1.46-3.37,1.74-1.5,1.31-1.52,3.33-1.57,3.31-.06-.02,.09-2.66,1.57-3.31,.83-.37,1.25,.26,2.55-.07,1.24-.32,1.48-1.06,2.33-1.02,.67,.03,1.17,.52,1.89,1.38,1.83,2.2,2.71,3.96,4.3,6.26,.95,1.37,1.49,1.99,1.53,1.97,.11-.08-4.98-4.64-5.04-10.48-.03-2.81,1.11-6.3,3.27-8.85,1.13-1.34,1.64-1.35,2.45-2.59,1.47-2.25,1.36-4.66,1.09-8.3-.91-12.18-1.77-12.52-.82-14.97,.54-1.39,1.52-3.13,1.36-5.72-.1-1.58-.55-2.22-.95-3.68-.65-2.34-1.46-7.68,1.09-9.94,2.01-1.78,5.33-.93,8.44-.14,2.49,.64,5.89,1.51,6.94,4.08,.7,1.71-.39,2.33,0,5.58,.39,3.3,1.76,4.79,1.09,5.44-.77,.74-3.24-.54-4.49-1.36-3.05-1.99-4.39-4.77-4.63-4.63-.21,.13,1.07,2.12,1.91,5.04,.53,1.87,.52,2.87,.82,5.58,.15,1.39,.54,4.97,1.23,8.17,.9,4.18,1.58,4.24,2.86,9.53,1.25,5.13,.98,6.59,.27,7.62-.95,1.39-1.92,.9-3.95,2.45-2.51,1.91-4.63,5.4-4.08,8.44,.06,.32,.72,1.53,2.04,3.95,1.89,3.45,1.79,3.07,2.59,4.63,1.55,3.04,1.49,3.6,2.59,4.76,1.23,1.29,1.75,1.05,2.59,2.18,1.21,1.62,.62,2.78,1.23,4.93,.8,2.79,2.25,2.45,4.73,6.57,1.32,2.2,2.06,4.2,2.47,5.34,1.49,4.13,.79,4.74,2.05,6.37,1.75,2.25,3.59,1.74,4.73,4.11,.62,1.3,.23,1.79,1.03,3.49,.81,1.73,1.85,2.59,2.47,3.29,1.74,1.96,1.94,4.7,1.85,8.63-.14,6.31-.21,9.46-1.44,15.82-2,10.38-.26,19.07,1.44,27.53,2.03,10.13,3.38,16.84,9.04,21.98,2.78,2.53,4.62,2.88,6.57,5.96,2.26,3.57,1.72,6.16,1.85,16.44,.14,11.37,.88,14.51-.82,20.75-1.54,5.63-3.31,7.35-4.73,8.22-1.58,.97-2.38,.66-8.42,1.64-4.5,.74-6.75,1.1-8.63,1.85-3.08,1.22-3.74,2.24-7.4,3.49-1.92,.66-3.44,.96-4.93,1.23-9.93,1.83-12.22,.39-16.85,2.47-4.12,1.85-6.37,4.84-6.79,5.42-3.81,5.2-3.24,11.13-3.05,13.2,.51,5.41,2.93,9.28,4.32,11.17l-12.43,1.21Z"/><path class="cls-5" d="M48.89,300.38c-.81-.4-2.27-.63-2.92-.07-.78,.67-.33,2.3,.6,3.19,1.33,1.28,3.58,1.01,3.97,.96,1.57-.19,1.62-.82,3.23-.9,1.37-.06,2.51,.34,3.07,.6,.98,.44,1.49,.94,1.5,.93,0,0-.99-.91-2.59-1.33-.64-.17-1.16-.21-1.36-.22-1.99-.1-2.47,.86-4.43,.96-.49,.03-1.95,.1-3.09-.75-.73-.55-1.03-1.26-1.11-1.47-.13-.32-.3-.77-.17-1.3,.05-.18,.11-.45,.37-.68,.38-.34,.92-.37,1.25-.38,.14,0,.43,0,.78,.07,.82,.19,1.39,.66,1.38,.67,0,0-.21-.16-.49-.3Z"/></g><g id="Layer_8"><path class="cls-5" d="M145.53,310.36c-3.31-1.49-9.76-4.97-11.06-11.06-.73-3.4,.44-6.22,2.63-10.8,8.99-18.74,14.64-24.01,14.23-33.19-.04-.95-.42-7.78-3.42-8.69-4.27-1.3-11.18,10.11-11.59,10.8-5.81,9.74-4.41,15.96-11.33,25.03-1.84,2.42-3.71,4.3-6.32,4.74-3.56,.61-4.76-2.08-9.54-2.8-5.41-.81-10,1.74-12.85,3.32-3.39,1.88-6.19,3.44-7.32,6.65-1,2.86-.15,5.53,.94,8.96,.7,2.21,1.63,5.13,4.11,7.84,1.98,2.16,3.25,2.35,4.1,4.48,.77,1.94,.12,2.83,1.04,4.93,.73,1.67,1.43,1.76,3.02,3.74,2.47,3.08,3.54,6.29,3.91,7.43,1.14,3.52,.38,4.19,1.65,5.77,1.44,1.79,2.85,1.46,4.33,3.55,.95,1.34,.71,1.96,1.55,3.96,1.23,2.95,2.67,3.82,3.75,5.53,.57,.9,1.24,2.46,.78,10.17-.27,4.57-.64,6.2-1.36,12.73-.58,5.23-.86,7.85-.89,10.09-.04,3.45,.48,6.76,1.51,13.25,1.23,7.73,2.36,12.76,4.18,17.57,.75,1.99,1.46,3.52,2.64,5.12,1.88,2.56,4.42,4.59,5.39,5.35,1.53,1.21,1.95,1.33,2.86,2.32,.38,.42,1.72,1.94,2.6,4.41,.59,1.67,.57,2.65,.6,8.27,.02,5.05,.05,6.83,.05,7.35,.07,4.56,.19,4.44,.19,7,.02,5.61,.03,8.41-1.05,11.92-1.11,3.64-2.81,6.14-3.73,7.48-2.75,3.98-4.93,5.08-7.27,7.46-3.6,3.67-4.97,8.76-7.73,18.95-1.05,3.9-2.34,9.35-3.31,16.03h14.16l3.86-7.56,10.3-17.84,6.25-14.16,5.33-5.52,4.97-11.41,2.39-10.12c.91-4.84,1.83-9.67,2.74-14.51-.58,.08-1.17,.16-1.75,.25-3.08,.63-6.16,1.26-9.24,1.89-1.82,.5-3.65,.99-5.47,1.49-3.57,1.08-7.14,2.16-10.71,3.24,2.62-.83,5.25-1.65,7.87-2.48,4.71-1.15,9.42-2.3,14.14-3.45,2.65-.44,5.29-.89,7.94-1.33l3.31-3.68-1.66-6.99-1.66-4.6c-.75-.73-2.1-2.24-2.87-4.56-.61-1.84-.62-3.45-.55-4.43-.27-7.73-.54-15.47-.81-23.2l-.55-11.59-2.94-19.32-5.52-12.69-3.31-9.75-.74-11.59-1.1-11.04-1.67-.69Z"/></g><g id="Layer_9"><path class="cls-5" d="M147.95,478.81c.66,1.8,1.75,4.68,3.27,8.18,3.9,9,5.97,11.36,6.81,16.08,.5,2.81,.7,7.15-1.36,12.93h25.08l9.81-1.48v-3l-9.27-1.36-9.81-4.09-5.45-8.66-3.82-21.59v-18.53l1.36-10.09-.38-12.51-2.1,2.01-1.21,7.59-2.88,13.84-3.44,8.54-2.38,4.8-4.81,4.97,.57,2.39Z"/><path class="cls-5" d="M145.42,484.28c.3,1.89,.98,2.61,2.29,5.49,1.44,3.16,2.06,4.88,2.52,6.87,1.23,5.29-2.41,8.11-.69,10.07,1.15,1.3,3.81,1.5,5.44,1.63,1.48,.11,1.82,.17,2.11,0,1.7-.99,.93-5.21,.7-6.44-.85-4.64-2.65-6.99-4.98-11.4-4.28-8.08-4.86-12.7-6.12-12.5-1.05,.16-1.71,3.51-1.26,6.28Z"/><path class="cls-5" d="M152.21,259.38c1.08,.32,2.67,.87,4.44,1.85,1.69,.93,2.35,1.59,5.73,4.44,4.47,3.76,5.83,4.72,5.55,5.36-.26,.59-1.73,.53-2.59,.37-3.22-.59-5.16-3.9-5.18-3.88-.02,.02,2.58,3.01,4.62,5.73,1.3,1.72,2.51,2.6,2.22,3.14-.25,.47-1.4,.42-2.22,.18-1.77-.51-2.34-1.99-4.07-3.88-1.51-1.65-3.32-3.13-3.51-2.96-.19,.17,1.08,2.01,2.27,3.44,2.74,3.3,4.7,4.97,4.7,4.97,.9,.77,1.62,1.29,1.51,1.86-.13,.63-1.21,1.07-2.13,1.06-1.61-.02-2.82-1.42-4.35-3.19-1.36-1.59-2.66-3.28-2.66-3.28-.63-.83-1.06-1.42-1.24-1.33-.25,.12,.07,1.38,.35,2.22,.19,.57,.74,2,2.22,3.9,.91,1.17,1.72,1.93,2.31,3.46,.18,.46,.32,.97,.09,1.24-.37,.43-1.47,.05-1.86-.09-4.08-1.42-12.96-11.07-13.34-10.78,0,0,0,0-.08,.15-.15,.27-.25,.46-.25,.46-.22,.41,1.5,6.17,1.6,9.58,.04,1.56-.27,1.93-.3,5.27,0,1.15,.02,1.95,.08,2.69,.15,1.99,.36,4.74,1.11,4.87,.67,.11,1.81-1.92,2.21-3.98,.6-3.09-.68-5.14,0-5.53,.62-.35,2.33,1.01,3.1,2.65,.05,.11,1.11,2.46,0,4.65-.82,1.61-1.97,1.48-2.65,3.1-.55,1.31-.52,3.13,.22,3.54,1.08,.59,3.65-1.81,5.09-3.76,2.59-3.5,2.82-7.31,2.88-8.41,.06-1.19,.16-6.09-2.88-10.17-1.81-2.43-2.71-1.87-5.09-5.09-.76-1.03-1.92-2.78-2.86-2.55-.34,.08-.96,.5-1.37,1.11-.15,.22-.23,.41-.23,.41-.11,.26-.1,.36-.19,.56-.06,.12-.16,.28-.36,.45"/><path class="cls-5" d="M103.14,283.06c-.3-.33-.43-.64-.59-.98-.78-1.67-1.63-3.5-2.02-4.97-.78-2.95-.58-7.93,1.12-12.84,.79-2.28,2.21-6.23,5.95-9.86,1.61-1.56,4.54-4.39,8.93-5.21,2.03-.38,2.42,.04,6.7-.37,5.26-.5,6.51-.93,6.51-.93,2.23-.47,3.24-.84,4.19-.24,.87,.55,.66,1.26,1.76,3.27,1.34,2.45,2.26,2.5,2.4,3.73,.16,1.51-1.42,1.95-2.81,4.57-1.35,2.54-2.07,4.54-3.11,7.47-1.48,4.15-1.1,3.85-2.1,6.42-1.8,4.64-3.73,7.45-4.34,8.31-2.72,3.84-4.35,4.78-5.21,5.15-.7,.3-2.12,.9-3.8,.61-.47-.08-.6-.17-2.72-1.08-2.95-1.28-3.35-1.41-3.76-1.5-1.4-.3-2.36-.33-3.06-.38-1.76-.11-3.15-.21-4.04-1.17Z"/><path class="cls-5" d="M145.41,243.7c-1.96-1.49-5.93-4.32-6.4-8.65-.22-2.03,.41-3.74,.75-4.51,1.18-2.65,3.57-4.53,6.02-5.27,3.56-1.06,5.09,.93,6.77-.38,2.44-1.91,.97-7.53,.38-9.78-.56-2.13-.92-3.51-1.88-3.76-1.81-.48-3.1,3.73-7.52,6.4-2.86,1.73-3.68,.78-8.28,2.26-2.13,.68-10.98,3.52-12.04,8.65-.66,3.19,1.9,6.18,3.01,7.52,9.84,11.98,18.53,32.5,20.11,47.24,.77,7.21-.73,7.72,.21,20.1,.56,7.42,1.27,9.46,1.76,18.57,.37,6.83,.09,7.98,.74,11.59,1.31,7.39,4.19,12.29,5.64,15.09,4.05,7.89,4.82,15.62,6.35,31.1,2.12,21.46-1.15,34.73,4.3,36.92,1.33,.53,1.62-.21,10.19-.42,4.27-.11,4.11,.08,7.9,0,11.17-.24,14.78-1.91,16.18-2.63,2.05-1.06,3.43-1.77,4.51-3.39,1.48-2.2,1.62-4.88-.38-13.92-2.13-9.66-3.22-10.91-3.39-15.8-.14-4.18,.59-5.51,1.13-10.16,.93-8.05-.07-14.21-1.13-20.69-2.37-14.54-5.66-14.04-6.77-26.33-.26-2.87-.36-6.04-1.13-15.05-.51-6.04-.78-9.09-1.13-10.16-2.84-8.65-9.09-7.98-10.91-15.8-1.36-5.85-.75-11.66-.75-11.66,.27-2.6,.7-3.71,0-4.89-1.73-2.91-6.9-.63-12.79-1.88-9.17-1.95-7.6-9.8-21.44-20.31Z"/></g><g id="Layer_10"><path class="cls-5" d="M182.49,420.61c2.13,3.49,1.55,7.44,2.11,10.64,2.39,13.62,3.54,20.46,6.78,24.58,1.08,1.37,3.28,3.8,2.97,6.78-.22,2.04-1.7,5.09-1.7,5.09,.52,.93,1.23,2.37,1.7,4.22,.99,3.93-.1,5.68,0,10.64,.08,4.03,.16,7.71,2.66,9.62,1.48,1.13,3.69,1.55,5.53,.82,2.55-1.02,3.67-3.98,3.68-6.14,.02-2.03-.94-2.04-2.66-6.96-1.15-3.28-1.37-5.12-1.43-5.73-.22-2.06,.1-2.09,0-4.5-.15-3.61-.91-4.55-1.23-8.19-.18-2.04-.05-2.95,0-5.32,.11-5.04-.37-6.18-.82-13.72-.14-2.4-.23-5.56-.41-11.87-.11-3.89-.96-7.79-.61-11.67,.05-.57-.55-4.66-.55-4.66h0s-4.34,.99-8.52,1.52c-5.15,.65-10.23,.61-10.23,.61h0s2.24,3.43,2.74,4.25Z"/><path class="cls-5" d="M163.22,262.66c-.51-.69,.49-1.8,.79-3.45,.09-.49,.17-1.16-.06-3.34-.43-4.05-.64-6.08-1.49-7.85-1.28-2.67-2.59-2.93-2.76-5.09-.1-1.3,.22-3.17,1.27-3.61,.88-.37,1.56,.58,4.03,.85,1.1,.12,1.71,.18,2.12-.21,.71-.66-.01-1.8,.64-3.18,.14-.3,.36-.64,1.7-1.7,2.05-1.62,3.02-2.5,4.24-2.76,.52-.11,1.66-.33,2.84,.18,1.35,.59,2.11,1.85,2.29,2.19,.51,.91,.64,1.74,1.45,2.51,1.09,1.03,1.77,.52,2.55,1.49,.2,.26,1.04,1.18,.85,2.33-.04,.22-.14,.62-.48,1.06-.29,.32-.67,.84-.81,1.55-.24,1.24,.51,1.93,.65,3.12,.13,1.2-.44,2.09-1.51,3.76-1.29,2.01-2.1,2.18-3.58,4.51-.67,1.06-1.01,1.59-1.06,2.12-.17,1.78,1.44,2.47,2.55,5.09,.95,2.25,.95,4.57,.57,4.69-.32,.1-.58-1.39-1.91-2.28-1.31-.88-2.33-.29-6.02-.23,0,0-3.35,.04-5.79-.55-.7-.17-1.28-.4-2.24-.78-.66-.26-.75-.33-.82-.43Z"/></g><g id="Layer_11"><path class="cls-5" d="M149.95,245.7c-.12-.54-.39-2.03,.43-5.12,.96-3.61,1.43-5.42,2.98-6.54,1.36-.98,3.37-1.03,7.39-1.14,2.36-.06,2.65,.14,3.98-.14,1.49-.32,2.01-.76,5.12-2.27,2.61-1.27,3.93-1.91,4.69-1.99,1.87-.2,2.45,.56,5.83,1.56,3.42,1.02,5.12,1.56,6.96,1.28,3.86-.6,4.76-3.77,7.26-3.26,2.01,.41,3.09,2.79,3.68,4.11,.31,.7,2.14,4.74,.14,7.82-1.34,2.07-3.78,2.7-5.4,3.13-3.19,.83-4.82-.06-7.59,1.32-1.38,.69-2.08,1.47-2.39,2.29-.22,.6-.11,.87-.25,1.55-.19,1-.67,1.66-2.08,3.33-2.46,2.92-2.81,3.04-3.2,4.07-.23,.6-.63,1.72-.29,2.96,.28,1.01,.74,.97,1.63,2.42,.2,.32,1.17,1.95,1.35,4.13,.01,.17,.12,1.63-.2,1.71-.35,.09-.63-1.51-1.91-2.28-.86-.52-1.74-.4-2.65-.33-2.92,.25-5.83,.13-7.81-.2-1.18-.2-2.61-.45-4.22-1.35-1.63-.92-2.65-2.05-3.65-3.19-.86-.98-.78-1.06-2.95-4.04-1.35-1.86-2.03-2.79-2.61-3.45-1.5-1.71-1.96-1.83-2.82-3.15-.38-.59-1.1-1.71-1.44-3.24Z"/></g><g id="Layer_12"><path class="cls-5" d="M188.26,337.11c.4-1.47,1.13-2.54,4.58-6.18,2.15-2.26,3.23-3.4,3.79-3.79,1.81-1.26,3.15-1.58,3.39-2.79,.12-.62-.18-1.34-.8-2.79-.49-1.15-.69-1.33-1.2-2.39-1.02-2.12-.69-2.4-1.59-4.18-.32-.64-.84-1.66-1.79-2.79-1.02-1.21-1.73-1.6-2.11-2.75-.22-.65-.17-1.09-.16-1.92,.02-1.78-.16-3.07-.48-5.34-.43-3.13-.55-3.91-.79-4.56-.46-1.26-.95-1.93-.86-1.98,.17-.11,2.57,2.49,4.23,6.12,1.04,2.26,1.57,4.45,1.92,5.91,.78,3.17,.53,3.28,1.1,4.54,.8,1.76,1.54,2.12,3.44,4.54,.78,1,2.14,2.72,3.3,4.95,.97,1.85,2.2,4.21,2.34,7.42,.1,2.29-.4,4.01-.96,5.91-.5,1.72-1.08,3.7-2.61,5.77-.97,1.32-.96,.82-3.71,3.61-2.51,2.54-3.18,3.63-4.82,3.96-1.04,.2-2.46,.1-2.75-.55-.24-.55,.44-1.22,2.61-3.85,1.47-1.78,2.43-2.94,2.34-3.02-.1-.09-2.15,1.72-5.64,4.67-1.04,.88-1.67,1.41-1.98,1.21-.45-.28-.09-1.98,.72-3.29,.48-.77,1.17-1.38,2.57-2.61,1.13-1,1.94-1.58,1.98-2.52,.02-.33-.06-.78-.2-.8-.18-.03-.39,.72-.57,1.16-.82,2.08-2.58,1.96-4.21,4.24-.97,1.35-1.07,2.4-1.44,2.34-.4-.06-.73-1.37-.45-2.52,.1-.42,.25-.71,1.71-2.61,.62-.81,.98-1.28,1.62-2.07,.97-1.2,1.06-1.27,1.62-1.98,.79-1.02,1.92-2.61,1.8-2.7-.12-.1-1.43,1.29-2.68,2.61-.63,.67-1.29,1.31-1.91,1.99-.9,.99-1.23,1.44-1.44,1.35-.33-.14-.13-1.44,.1-2.31Z"/></g><g id="Layer_13"><path class="cls-5" d="M180,266.94c.96-3.44,2.05-3.58,2.08-6.18,.02-1.96-.59-2.58-.76-5.81-.08-1.55-.14-2.82,.21-4.44,.33-1.53,.78-3.59,2.56-5.19,.43-.38,2.86-2.47,5.83-1.77,2.19,.52,3.39,2.26,3.77,2.81,.88,1.28,1.05,2.37,1.51,7.57,.36,4.02,.54,6.04,.5,6.81-.16,4.07-1.08,4.16-1.26,7.82-.25,4.97,1.41,5.6,.5,8.83-.78,2.78-2.65,4.66-4.29,6.31-2.41,2.41-3.43,3.8-5.05,3.79-2.89-.02-4.8-3.88-5.01-4.32-.46-.95-.71-1.9-.9-5.11-.33-5.55-.49-8.33,.3-11.15Z"/><path class="cls-5" d="M199.44,285.49c-2.64-2.81-5.3-6.07-5.3-6.07h0s-1.41,1.98-2.46,3.27c-1.95,2.37-3.57,4.35-6.07,4.83-1.54,.29-2.3-.19-2.54,.21-.62,1.05,4.95,3.54,8.71,9.58,1.95,3.14,4.37,8.75,5.09,12.6,.08,.45,.29,1.65,.99,3.07,1.03,2.08,2.46,3.26,3.05,3.79,1.99,1.78,2.24,3.25,5.1,9.13,3.11,6.41,3.39,5.86,5.31,10.01,3.52,7.62,2.44,9.13,5.44,16.33,2.8,6.73,7.29,13.91,8.74,13.36,1.06-.4-.42-4.54-.85-13.4-.25-5.28,.19-5.55,.42-18.65,.18-10.23-.07-11.25-.42-12.29-.88-2.57-1.73-3.25-7.63-12.72-2.72-4.37-2.14-3.59-3.51-5.7-3.51-5.44-6.05-9.34-10.06-13.38-1.57-1.59-2.11-1.93-4.03-3.96Z"/></g><g id="Layer_14"><path class="cls-5" d="M216.17,358.79c-1.56,3.53-3.59,8.87-4.84,15.6-.51,2.75-.93,5.9-1.08,20.98-.21,21.39,.59,18.2,0,23.67-.6,5.62-1.45,9.03,0,13.98,.93,3.19,2.01,4.25,4.3,9.68,2.07,4.89,2.19,6.39,3.77,10.76,5.58,15.45,10.98,15.84,11.3,24.74,.11,3.16-.42,7.3,1.59,8.29,1.74,.86,4.22-1.25,5.76,0,1.01,.83,.37,2.11,1.37,3.02,1.49,1.35,5.38,.75,6.3-1.1,1.01-2-2.26-3.86-4.66-9.87-1.5-3.75-1.8-6.95-2.19-11.24-.58-6.3,.42-6.31-.27-10.97-.75-5.05-2.51-8.85-4.11-12.34-2.12-4.59-3.22-4.57-4.39-7.95-1.27-3.66-1.18-6.61-1.1-10.42,.13-5.57,.1-11.15,.27-16.72,.31-9.81,.32-10.98,.27-12.81-.17-6.31-.63-5.5-.82-12.13-.12-4.39-1.06-8.77-.82-13.16,.06-1.03,.24-3.55-1.31-5.21-.69-.74-1.05-.58-2.12-1.52-.33-.29-1.33-1.21-2.84-4.23s-1.56-4.11-2.22-4.16c-.46-.04-1.16,.49-2.16,3.11Z"/><path class="cls-5" d="M220.65,308.64c-.18-1.03-.84-5.19,1.17-9.33,1.8-3.71,3.46-3.75,8.55-8.55,4.39-4.14,5.48-7.79,6.61-7.38,.97,.35,.21,2.94,1.17,7.77,.71,3.63,1.32,6.68,3.5,7.77,1.24,.62,1.86,.04,7.77-.39,2.53-.19,3.81-.27,4.27,0,1.35,.79,2.36,3.17,.39,15.93-1.47,9.52-2.51,11.26-2.33,15.93,.11,2.95,1.19,6.1,3.11,12.43,2.44,8.04,3.33,8.77,3.5,12.05,.22,4.39-1.17,7.28-3.5,12.82-2.8,6.65-4.81,13.62-7.77,20.21-10.62,23.62-.37,62.51-5.83,63.73-2.52,.56-7.38-7.14-9.38-10.32,0,0-.42-.66-.98-1.66,0,0-1.03-1.82-1.85-3.62-1.93-4.23-1.07-11.55-1.07-11.55,.68-5.84,.02-11.77,.3-17.65,.6-12.58-.1-22.79-1.42-36.04-.87-8.78-1.49-10.67-1.52-17.01-.02-4.18,.24-6.16,.93-22.16,.34-7.92,.39-10-.76-12.95-1.71-4.37-4.05-5.47-4.84-10.05Z"/></g><g id="Layer_15"><path class="cls-5" d="M232.24,486.68c-2.93,1.37-1.09,6.51-3.36,12.52-3.15,8.33-11.7,11.59-10.69,13.41,.22,.4,2.25,.52,6.31,.77,2.18,.13,3.26,.15,3.7,.15,3.19,.03,4.79,.05,5.85-.46,1.15-.55,1.25-1.14,3.54-4.31,2.72-3.77,4.1-5.64,5.08-5.39,1.32,.34,1.53,4.13,1.54,4.31,.11,2.21-.61,3.02,0,3.85,.83,1.14,3.41,1.28,4.62,.15,.7-.66,.79-1.61,.17-6.15-.77-5.62-1.95-11.75-2.34-14.17,0-.02,0-.05-.02-.1-.12-.71-.7-4.07-1.47-4.08-.39,0-.41,.73-1.21,1.57-1.31,1.38-3.61,1.8-5.07,1.08-.19-.1-.62-.31-.97-.77-.54-.7-.4-1.31-.62-1.76-.55-1.11-3.39-1.43-5.06-.65Z"/></g><g id="Layer_16"><path class="cls-5" d="M239.35,296.03c-.38-1.12-.31-2.09-.15-3.27,.37-2.84,.56-4.26,1.31-6.26,2.08-5.56,.27-14.56,2.35-28.19,1.58-10.38,3.72-12.36,2.22-18.19-.29-1.11-.22-.47-4.58-10.35-1.57-3.55-3.24-7.41-5.91-12.27-2.83-5.16-4.27-6.88-6.51-7.69-2.31-.83-4.73-.42-5.47-.3-3.03,.51-4.29,2.48-7.25,2.22-.94-.08-2.05-.38-2.08-.78-.03-.37,.86-.61,2.72-1.66,1.91-1.08,2.21-1.52,2.32-1.7,.49-.8,.69-2.02,.15-3.11-.54-1.09-1.72-1.86-2.81-1.77-1.7,.14-2.57,2.36-2.81,2.22-.27-.16,.37-3.43,2.81-4.73,.43-.23,1.09-.49,4.88-.3,3.26,.17,4.89,.26,6.36,.74,.98,.32,2.66,1.01,5.18,3.11,3.51,2.93,5.47,5.98,6.8,7.98,5.24,7.92,6.29,8.29,12.72,18.48,1.96,3.1,3,4.89,3.4,7.54,.45,3-.34,4.35-.89,9.32-.29,2.64-.15,3.04-.3,9.76-.03,1.63-.03,1.05-.44,12.86-.32,9.07-3.56,18.49-1.04,27.21,.05,.16,.25,.79-.06,1.23-.37,.53-1.21,.39-2.52,.39-.07,0-1.76,.17-5.13,.51-1.87,.19-2.04,.23-2.46,.1-1.91-.59-2.7-2.8-2.8-3.1Z"/></g><g id="Layer_17"><path class="cls-5" d="M229.59,265.36c-.37-.56,.59-1.49,1.36-4.05,.2-.66,.32-1.15,.42-1.7,.26-1.43,.19-2.54,.49-4.8,.45-3.46,.88-3.1,1.97-8.32,.11-.52,.53-3.43,1.36-9.23,.42-2.93,.62-4.42,.15-5.75-1.08-3.04-3.96-4.48-4.08-4.54-3.05-1.47-5.7-.17-6.35-1.51-.36-.75,.09-1.93,.76-2.27,.62-.32,1.17,.23,3.18,.6,1.12,.21,1.86,.35,2.12,0,.42-.57-.77-2.09-.91-2.27-1.77-2.24-4.13-2.43-4.08-3.33,.02-.51,.82-.85,1.66-1.21,.58-.25,2.5-1.06,4.69-.3,1.6,.56,2.47,1.65,3.2,2.56,1.04,1.3,1.35,2.32,2.18,4.36,.65,1.58,1.28,2.86,2.47,5.44,1.69,3.66,1.82,3.73,2.06,4.63,.56,2.12,.29,3.51,.07,6.15-.11,1.29-.33,5.18-.15,9.53,.01,.32,.18,4.34-.19,8.04-.03,.26-.06,.58-.15,1-.16,.77-.78,3.19-2.83,4.96-1.33,1.15-3.18,1.47-6.89,2.1-1.52,.26-2.24,.28-2.49-.11Z"/><path class="cls-5" d="M232.39,286.44c-.1-.89-.16-1.33-.17-1.51-.1-1.34-.55-3.93-1.31-6.27-.87-2.71-1.39-4.36-2.55-4.56-1.17-.2-2.41,1.18-2.55,1.34-.6,.69-.55,1.11-1.48,2.82-.6,1.11-.98,1.81-1.21,1.74-.33-.09-.34-1.78,.13-3.35,.64-2.11,1.86-3.07,1.61-3.35-.26-.29-1.92,.4-3.09,1.74-1.3,1.5-1.27,2.98-1.61,2.95-.51-.04-1.5-3.46,0-5.9,.74-1.21,1.58-1.33,4.02-3.22,1.62-1.25,1.82-2.36,3.22-2.82,.56-.18,.57-.06,2.41-.27,1.43-.16,2.48-.35,3.49-.54,2.37-.43,3.55-.65,4.16-.94,3.21-1.52,4.97-5.55,4.97-5.55h0s-.58,6.68-.73,13.74c-.12,6.06,.2,6.18-.24,8.72-.53,3.07-1.19,3.93-1.72,7.81-.44,3.21-.36,5.31-.7,5.33-.36,.02-.92-2.38-1.13-4.34-.11-1-.14-2.07-.37-4.25-.19-1.79-.29-2.29-.6-2.38-.54-.16-1.38,1.02-2.34,2.36-1.12,1.57-1.56,2.57-1.88,2.48-.13-.04-.18-.25-.36-1.77Z"/><path class="cls-5" d="M254.52,260.43c.48-.13,1.06,.43,2.01,1.66,1.93,2.47,2.97,3.81,3.79,6.16,.94,2.69,.95,4.94,.95,5.57-.03,3.16-.71,5.45-.71,5.45-.48,1.61-1.01,2.51-.59,3.67,.05,.14,.54,1.44,1.66,1.78,.95,.28,1.74-.31,2.13,.12,.33,.36-.1,.9,.24,1.3,.29,.36,.91,.28,2.01,.12,1.24-.18,2.19-.5,2.72-.71,.73-.28,1.09-.42,1.54-.71,1.14-.74,1.13-1.32,2.13-2.01,.96-.67,2.12-.92,2.25-.71,.13,.22-.9,.84-2.13,2.49-.53,.71-.8,1.07-.95,1.54-.48,1.53,.49,2.43,0,3.08-.56,.74-2.39,.29-3.55,0-1.99-.49-3.15-1.29-3.43-.95-.29,.35,.8,1.33,.47,1.89-.47,.82-3.21-.51-4.14,.59-.51,.6,0,1.36-.59,1.89-.57,.51-1.78,.47-2.37-.12-.82-.81,.1-2.12-.71-2.96-.66-.69-1.55-.08-2.49-.83-.59-.47-.52-.93-1.07-2.25-.86-2.1-1.53-2.17-1.88-3.45-.37-1.37,.09-2.4,.51-3.84,.68-2.32,.75-4.05,.91-7.52,.12-2.66-.09-4.76,.35-8.77,.11-.98,.28-2.31,.93-2.48Z"/><path class="cls-5" d="M313.73,427.5c-1.33,1.8-3.47,2.27-6.99,3-4.99,1.03-8.11,.46-13.99,0-11.64-.91-11.53,.38-19.02-.87-7-1.17-6.85-2.26-10.83-2.1-7.26,.29-10.77,4.02-13.76,2.15-.96-.6-1.84-1.75-2.55-7.98-.93-8.09-.06-11.5,0-21.13,.04-7.33-.44-8.69,.48-12.66,.83-3.6,1.95-5.58,3.81-9.69,1.1-2.43,2.77-6.87,6.12-15.75,7.42-19.7,5.12-19.06,9.77-28.42,3.72-7.48,5.89-9.3,6.48-14.89,.57-5.43-1.02-8.01,1.2-12.25,.89-1.7,1.14-1.27,6.24-7.93,2.93-3.82,3.84-5.04,3.84-5.04,2.48-3.33,3.49-4.85,5.52-6.48,1.48-1.19,2.18-1.99,3.36-2.16,1.5-.22,3.48,.32,3.84,1.44,.33,1.03-.9,1.96-4.08,5.52-2.59,2.89-3.89,4.37-4.56,6-1.12,2.73-1.36,6.47,0,7.2,1.18,.63,2.83-1.37,6.24-3.6,3.44-2.25,3.78-1.54,12.25-5.04,8.13-3.36,9.17-4.57,13.21-5.04,4.47-.52,8.14,.06,8.17,.48,.02,.43-3.84,0-6.96,2.4-2.62,2.01-3.45,5.01-4.08,7.44-.85,3.25-.85,5.83-.24,13.69,.87,11.23,1.34,11.82,.48,13.93-.63,1.54-3.14,4.15-8.17,9.37-3.99,4.14-5.45,5.34-6,7.93-.42,1.98,.22,2.28,.96,7.44,.48,3.35,1,7.17,.48,11.53-.42,3.5-1,3.08-1.68,7.2-.3,1.82-.94,6.42-.24,11.77,.38,2.95,.94,4.31,3.12,10.81,0,0,1.23,3.66,4.8,14.89,3.85,12.09,4.32,14.75,2.77,16.85Z"/></g><g id="Layer_18"><path class="cls-5" d="M290.53,285.04c-1.44-.46-3.92,0-5.55,1.34-1.17,.97-1.69,2.95-2.68,6.88-.67,2.65-1.11,4.41-.73,4.57,.47,.2,1.49-2.31,4.31-5.71,2.88-3.47,6.51-6.48,6.47-6.45h0s-1.56-.54-1.83-.63Z"/><path class="cls-5" d="M297.02,287.9s-1.84,2.11-2.87,3.29c-2.79,3.2-4.18,4.8-4.3,4.99-2.3,3.53-2.21,6.08-2.16,6.8,.06,.84,.16,2.12,.93,2.5,.97,.47,2.24-.86,4.61-2.46,1.9-1.28,3.46-2,6.59-3.44,3.09-1.42,3.14-1.06,7.29-2.75,4.85-1.97,4.39-2.3,7.59-3.36,3.62-1.2,5.64-2.03,8.48-1.88,1.95,.1,5.31,.68,5.31,.68h0s.4-1.54,1-2.57c.33-.57,.76-.75,2.32-2.16,2.06-1.86,2.32-1.42,2.99-2.32,1.48-2.02,0-3.97,1.33-5.14,.59-.53,.9-.14,4.31-.5,0,0,1.9-.2,4.48-.83,2.25-.55,2.43-.81,2.49-1,.34-1.13-2.74-3-3.82-3.65-1.25-.76-1.87-1.13-2.82-1.33-1.85-.38-2.64,.35-3.82-.33-.97-.56-1.43-1.64-1.66-2.16-.53-1.22-.22-1.72-.83-2.49-.49-.62-1.43-1.24-2.16-1-.84,.28-.57,1.43-1.49,1.99-.91,.55-2.22,.05-3.65-.5-1.41-.54-1.49-.88-2.65-1.16-.85-.2-1.78-.42-2.65,0-1.15,.55-1.55,1.88-1.83,2.82-.45,1.52-.22,2.3-.33,3.48-.19,2.06-1.25,3.48-2.49,5.14-1.46,1.96-2,1.79-6.47,5.48-3.65,3.01-4.19,3.86-5.97,4.15-1.21,.2-2.75,.1-4.31,0-1.34-.09-3.43-.3-3.43-.3Z"/></g><g id="Layer_19"><path class="cls-5" d="M348.95,277.04c1.54-.38,2.1,.44,3.4,.2,1.57-.28,1.69-1.63,2.8-1.6,1.19,.04,2.59,1.64,2.6,3.2,.02,2.26-2.89,2.97-2.8,5,.02,.56,.28,1.42,3,3.4,3.14,2.29,4.22,2.18,7.2,4,4.29,2.62,4.49,4.33,7.2,4.6,.11,.01,1.67-.19,4.8-.6,2.67-.35,3.99-.53,5.6,0,.86,.28,2.48,.99,2.4,1.6-.15,1.19-6.57,.95-6.6,1.6-.02,.47,3.26,1.78,6.8,1.2,1.75-.29,2.8-.91,4.4-.4,.32,.1,1.69,.53,2.4,1.8,.17,.3,.6,1.18,0,4-.52,2.48-.79,3.73-1.8,5-1.6,2.01-3.87,2.6-5.4,3-3,.78-3.52-.14-6.6,.6-2.73,.66-4.65,1.95-5.6,2.6-1.55,1.06-1.54,1.4-5,4.6-2.32,2.14-3.5,3.23-4.6,3.8-2.69,1.4-5.26,1.41-6.2,1.4-4.88-.04-8.26-2.65-9.2-3.4-2.17-1.73-1.45-2.11-4.6-5.2-3.37-3.3-4.53-3.19-6-5.6-.74-1.22-1.16-2.81-2-6-.4-1.51-1.01-4.08-1.6-6.8-.65-2.95-.77-3.75-1.6-4.6-1.45-1.48-3.1-1.08-3.46-2.18-.46-1.43,1.91-3.48,2.67-4.14,1.96-1.7,3-1.48,3.65-2.91,.2-.43,.37-1.33,.72-3.12,.26-1.36,.27-1.69,.61-2.03,.61-.61,1.42-.36,3.2-.4,2.09-.05,3.7-.47,4.57-.69,.89-.23,2.08-.54,3.52-1.23,.9-.43,.99-.57,1.54-.71Z"/></g><g id="Layer_20"><path class="cls-5" d="M334.33,302.51c1.04,5.82,1.95,10.83,.65,16.4-.48,2.08-.51,.95-2.38,6.43-1.49,4.36-2.57,7.53-3.34,11.68-.92,4.99-.3,5.56-1.43,9.05-.8,2.47-1.75,4.14-3.34,6.91-2.1,3.65-2.71,4.03-6.2,9.29-4.97,7.5-4.24,7.51-6.43,9.77-1.72,1.77-3,2.62-3.81,4.77-.83,2.2-.64,4.36-.48,6.2,.22,2.46,.84,4.41,1.19,5.48,.79,2.41,1.21,2.59,1.67,4.53,.53,2.25,.02,2.27,.48,4.77,.34,1.88,.8,4.37,2.62,6.43,.96,1.09,1.81,1.49,1.67,1.8-.21,.48-2.62,.32-4.34-.93-1.35-.98-1.67-2.18-2.79-5.17-1.96-5.22-1.94-4.16-3.06-7.56-.8-2.44-1.6-4.86-2.05-8.04-.34-2.45-.99-7.38,.65-12.84,.28-.93,.47-1.38,4.15-8.17,4.42-8.16,5.32-9.7,6.83-12.93,1.79-3.85,2.68-5.77,3.31-8.38,.28-1.16,1.21-5.32,.83-10.86-.11-1.63-.19-1.3-.62-4.85-.53-4.44-.74-7.74-.95-11.16-.33-5.37-.48-8.09-.26-10.07,.38-3.24,.75-6.13,2.96-8.72,.51-.6,2.26-2.59,5.2-3.37,.81-.22,2.21-.57,3.9-.13,.51,.13,2.46,.64,3.54,2.35,.4,.64,.47,1.11,.77,2.59,.66,3.26,.73,2.87,1.06,4.72Z"/><path class="cls-5" d="M275.81,500.22c.35,.69,.86,1.81,1.24,3.25,.5,1.92,.47,3.3,.46,7.59,0,.92,0,2.66,0,4.94h-8.62l2.58-7.89,2.95-8.21,1.39,.31Z"/><polygon class="cls-5" points="345.39 513.69 340.94 513.69 333.06 513.69 332.04 513.69 332.33 512.19 339.74 512.19 345.39 512.19 345.39 513.69"/><polygon class="cls-5" points="270.13 512.19 266.29 511 259.71 511 259.71 509.33 265.55 509.33 270.6 510.76 270.13 512.19"/><polygon class="cls-5" points="260.11 505.95 272.13 505.95 271.46 508.11 260.11 507.95 260.11 505.95"/></g></svg>