<?xml version="1.0" encoding="UTF-8"?><svg id="Layer_6" xmlns="http://www.w3.org/2000/svg" viewBox="0 0 395 516"><defs><style>.cls-1{fill:#fff;}.cls-2{fill:#fbc263;}.cls-3{fill:#bbddfb;}.cls-4{fill:#240000;}</style></defs><g><rect class="cls-2" x="0" y="0" width="395" height="516"/><path d="M395.5,516.5H-.5V-.5H395.5V516.5ZM.5,515.5H394.5V.5H.5V515.5Z"/></g><g><path d="M108.72,498.01c-1.03,0-2.04-.44-2.63-.97-.45-.41-.5-.76-.46-.99,.12-.77,1.19-.98,3-1.09,1.39-.09,2.77-.11,3.04,.72h0c.06,.17,.08,.45-.12,.81-.34,.62-1.2,1.22-2.03,1.42-.26,.06-.53,.09-.8,.09Zm-2.06-1.75c.26,.28,1.48,.97,2.62,.69,.7-.17,1.26-.68,1.4-.93-.19-.08-.69-.15-1.99-.06-1.33,.08-1.84,.22-2.03,.31Z"/><path d="M123.07,495.83l-.24-.07c-1.17-.36-3.13-1.12-3.15-2.18-.02-.9,1.2-1.37,2.62-1.92,2.84-1.09,4.6-1.69,5.21-.78,.21,.31,.76,1.14-4.23,4.8l-.2,.15Zm3.4-4.4c-.79,0-2.87,.8-3.82,1.17-.65,.25-1.86,.72-1.98,.99,.08,.2,1.02,.74,2.22,1.14,1.61-1.2,3.31-2.67,3.67-3.29-.03,0-.06,0-.09,0Z"/><path d="M66.65,455.94s-.07,0-.1,0l-.22-.04-.26-.4,.1-.25c.19-.49,4.71-4.8,11.72-6.54,6.83-1.69,12.86-.11,13.23,.2l.2,.17-.03,.48-.18,.14c-.19,.14-.32,.12-.72,.05-3.79-.68-7.55-.63-11.16,.14-4.22,.91-8.23,2.82-11.92,5.69-.35,.27-.48,.37-.65,.37Z"/><g><g><g><g><g><g><g><g><path d="M0,199.8H0c-.84-.01-1.5-.03-1.39-61.18C-1.34,105.92-1.04,59.28-.5,0V-.5H150.33l.12,.07c10.19,5.91,17.28,13.7,20.51,22.51,4.81,13.12,1.34,28.78-10.04,45.28-9,13.05-19.74,22.08-20.2,22.46-5.34,4.46-10.62,6.05-15.73,7.59-6.04,1.82-11.74,3.54-17.1,9.85-2.66,3.12-10.58,12.44-8.98,24.1,1.22,8.93,7.7,16.95,17.17,21.77,2.41,.83,4.9,1.82,7.47,2.95l-.34,.94c-2.66-.78-5.18-1.77-7.52-2.96-11.11-3.85-20.32-4.49-27.46-1.89-.58,.21-1.18,.46-1.82,.71-2.2,.89-4.93,2-9.01,2.64-3.57,.56-6.27,.46-8.88,.37-2.89-.1-5.61-.19-9.24,.63-3.12,.71-6.16,1.93-9.01,3.62-2.24,1.45-4.25,3.2-5.96,5.18-2.87,3.33-4.16,6.45-5.11,8.73l-.1,.23c-2.28,5.49-5.12,11.48-8.43,17.8l-.53,1.02-.38-1.09c-.54-1.56-2.76-6.81-8.4-8.98-7.82-3-14.83,3-15.13,3.26-4.37,3.8-5.16,9.51-5.5,11.95-.15,1.1-.21,1.56-.74,1.56ZM.5,.5C-.77,138.87-.5,184.77,.08,196.03c.56-2.96,1.85-7.31,5.5-10.49,.78-.68,7.91-6.6,16.14-3.44,5.1,1.96,7.58,6.25,8.58,8.54,3.08-5.94,5.73-11.57,7.88-16.75l.1-.23c.97-2.34,2.3-5.55,5.27-9,1.77-2.06,3.86-3.87,6.19-5.38,2.96-1.76,6.09-3.01,9.32-3.74,3.75-.85,6.54-.75,9.49-.65,2.56,.09,5.21,.18,8.69-.36,3.97-.62,6.64-1.7,8.79-2.58,.65-.26,1.26-.51,1.85-.73,6.41-2.33,14.4-2.15,23.86,.54-7.63-5.04-12.73-12.3-13.83-20.27-1.66-12.1,6.48-21.68,9.16-24.82,5.61-6.59,11.45-8.35,17.63-10.22,5.01-1.51,10.19-3.07,15.37-7.4,.45-.37,11.09-9.32,20.01-22.26,11.35-16.45,14.69-31.38,9.93-44.36-3.14-8.56-10.04-16.14-19.96-21.92H.5Z"/><path d="M375.46,355.23l.84-2.5c2.65-7.94,7.78-28.85-1.93-51.41-12.61-29.3-40.75-38.98-46.26-40.62l-2.01-.6,2.06-.37c21.01-3.79,32.07-8.84,32.89-15.01,.3-2.26-.9-3.89-2.71-6.36-1.83-2.49-4.34-5.91-6.36-11.61-1.87-5.29-1.99-8.8-2.11-12.2-.1-2.93-.2-5.96-1.4-10.22-1.7-6.08-3.98-8.98-7.44-13.37-1.87-2.38-3.98-5.07-6.5-8.88-6.6-10.02-14.82-22.48-15.48-37.34-.29-6.64,1.09-10.12,3.85-17.07,1.84-4.63,4.35-10.96,7.37-20.89,3.22-10.6,3.99-15.35,4.61-19.17,.58-3.57,1.04-6.4,3.09-12.34,10.19-29.48,29.85-49.36,44.2-63.87,4.04-4.08,8.24-8.04,12.49-11.78l.83-.73V342.36l-.54-.05c-3.35-.29-6.25,.23-8.62,1.55-.03,.02-2.56,1.44-9.19,9.35l-1.69,2.02Zm-45.17-94.88c8.43,2.87,33.3,13.39,44.99,40.57,9,20.91,5.43,40.42,2.69,49.77,5.63-6.49,7.79-7.67,7.89-7.72,2.4-1.33,5.31-1.91,8.64-1.7V1.11c-3.95,3.5-7.85,7.2-11.61,11-14.29,14.45-33.86,34.23-43.97,63.49-2.02,5.86-2.48,8.64-3.05,12.17-.62,3.85-1.4,8.64-4.64,19.3-3.03,9.97-5.55,16.32-7.4,20.97-2.7,6.81-4.06,10.23-3.78,16.65,.64,14.58,8.78,26.92,15.31,36.84,2.49,3.78,4.59,6.45,6.45,8.81,3.4,4.33,5.86,7.45,7.61,13.72,1.23,4.38,1.33,7.47,1.44,10.46,.12,3.48,.23,6.76,2.05,11.9,1.97,5.56,4.33,8.77,6.23,11.35,1.89,2.57,3.25,4.42,2.9,7.08-.87,6.54-11.26,11.62-31.75,15.5Z"/><path d="M262.02,416.03c-9.6,0-18.25-7.54-24.74-13.19-17.7-15.42-23.58-34.82-25.79-42.12-4.17-13.76-7.78-25.65-2.55-37.95h0c4.58-10.77,13.59-16.97,21.55-22.44,6.18-4.25,10.29-6.01,15.97-8.45,2.31-.99,4.94-2.12,8.04-3.56,14.48-6.75,21.35-12.11,26.86-16.43,5.65-4.42,9.73-7.61,18.85-10,7.99-2.09,23.95-4.56,41.03,2.48,7.34,3.02,20.92,10.29,29.31,25,4.22,7.4,5.55,14,7.75,24.94,2.32,11.52,3.99,19.84,1.71,30.13-2.41,10.88-8.07,18.73-11.22,22.44-5.1,6-9.14,7.99-14.73,10.73-4.46,2.19-10.01,4.92-17.84,10.71-6.47,4.79-9.92,8.27-12.43,10.81-3.29,3.33-5.1,5.16-9.97,6.37-6.06,1.5-10.45,.41-14.7-.64-4.58-1.14-8.9-2.21-15.19-.22-4.96,1.57-7.42,3.85-9.81,6.06-2.39,2.22-4.65,4.31-9.07,5.07-1.02,.17-2.03,.26-3.03,.26Zm-52.62-93.07l.46,.2c-5.09,11.97-1.7,23.13,2.58,37.27,2.19,7.23,8.01,26.42,25.49,41.65,7.01,6.11,16.61,14.48,26.94,12.71,4.13-.71,6.18-2.61,8.56-4.81,2.35-2.18,5.01-4.65,10.18-6.28,6.56-2.08,11.23-.92,15.73,.2,4.13,1.03,8.4,2.09,14.21,.64,4.59-1.14,6.34-2.9,9.5-6.1,2.54-2.57,6.02-6.08,12.55-10.91,7.9-5.84,13.5-8.6,17.99-10.81,5.48-2.69,9.44-4.64,14.41-10.49,3.09-3.64,8.64-11.34,11-22.01,2.24-10.08,.67-17.89-1.71-29.71-2.18-10.84-3.5-17.38-7.64-24.64-8.24-14.45-21.6-21.6-28.82-24.58-16.81-6.92-32.52-4.5-40.39-2.44-8.91,2.33-12.93,5.47-18.48,9.82-5.55,4.34-12.47,9.75-27.05,16.54-3.12,1.45-5.75,2.58-8.07,3.57-5.63,2.41-9.7,4.16-15.8,8.35-7.84,5.39-16.73,11.51-21.19,22.01l-.46-.2Z"/><path d="M85.04,307.6c-12.48,0-22.63-19.52-36.56-46.32-.98-1.88-1.98-3.8-3-5.76-7.02-13.45-22.59-46.59-15.7-63.86,.97-2.43,4.27-9.25,6.92-14.72,.24-.49,.48-1.08,.77-1.77,1.08-2.62,2.71-6.57,6.09-10.5,.25-.3,.59-.69,1.07-1.18,1.29-1.35,5.95-5.8,12.76-7.58,.99-.26,1.74-.36,2.87-.52l.41-.06c3.19-.44,5.44-.43,7.83-.42h.68c6.69,.02,10.05,.03,12.51-.71,1.6-.49,2.26-.9,3.03-1.39,.71-.45,1.51-.96,3.16-1.58,5.65-2.15,10.78-1.71,14.18-1.41,4.75,.41,8.16,1.54,14.95,3.79,3.6,1.19,6.23,2.21,7.81,2.87,9.77,4.03,18.19,9.13,25.02,15.17,3.48,3.08,6.83,7.65,12.91,15.94,1.01,1.38,2.09,2.85,3.26,4.44,10.47,14.21,15.17,20.84,16.18,24.66,2.64,10.01,1.76,24.7-6.16,34.96-2.42,3.14-5.19,5.5-7.86,7.77-4.39,3.74-8.17,6.97-9.14,12.55-.75,4.3-.58,8.46-.57,8.64,.11,2.38,.4,3.74,.67,5.06,.31,1.47,.6,2.86,.6,5.4,0,2.84-.02,9.5-3.7,11.32-.53,.26-1,.35-1.28,.4-1.9,.35-4.42-.27-13.79-2.59-1.99-.49-4.29-1.06-6.96-1.72-17.97-4.41-19.41-4.72-21.88-4.52-7.58,.56-11.8,4.38-15.53,7.74-3.18,2.87-6.19,5.59-10.73,5.89h0c-.27,.02-.54,.03-.81,.03Zm-17.63-151.7c-1.97,0-3.97,.05-6.6,.42l-.41,.06c-1.13,.16-1.81,.25-2.75,.5-6.56,1.71-11.05,6-12.27,7.28-.48,.5-.81,.88-1.06,1.17-3.28,3.82-4.87,7.68-5.93,10.23-.29,.71-.54,1.32-.78,1.8-2.66,5.48-5.95,12.29-6.9,14.68-2.24,5.62-5.21,23.03,15.66,63.02,1.02,1.96,2.02,3.88,3,5.76,14.05,27.04,24.21,46.56,36.41,45.76h0c4.19-.28,6.94-2.76,10.13-5.64,3.84-3.47,8.2-7.4,16.12-8,2.62-.19,4.07,.1,22.19,4.55,2.67,.66,4.97,1.23,6.96,1.72,9.2,2.29,11.68,2.9,13.35,2.58,.26-.05,.62-.12,1.03-.32,3.13-1.55,3.14-7.77,3.15-10.43,0-2.43-.28-3.77-.58-5.19-.29-1.36-.58-2.77-.69-5.22,0-.18-.18-4.46,.58-8.86,1.03-5.93,5.13-9.43,9.48-13.14,2.63-2.25,5.36-4.57,7.72-7.62,7.71-9.99,8.56-24.32,5.98-34.09-.96-3.65-5.62-10.22-16.01-24.32-1.17-1.59-2.25-3.06-3.26-4.44-6.04-8.23-9.36-12.77-12.77-15.78-6.75-5.97-15.07-11.01-24.74-15-1.56-.65-4.18-1.66-7.74-2.84-6.71-2.22-10.08-3.34-14.72-3.74-3.5-.3-8.3-.72-13.73,1.35-1.55,.59-2.28,1.05-2.98,1.49-.79,.5-1.54,.97-3.27,1.5-2.6,.79-6.01,.77-12.8,.76h-.68c-.37,0-.73,0-1.09,0Z"/><path d="M198.23,516.5H81.33l-.15-.25c-3.05-5.21-6.29-10.45-9.64-15.58-3.31-5.06-5.67-8.4-7.39-10.84-2.34-3.32-3.76-5.32-5.25-8.32-2.61-5.27-2.89-8.47-3.91-20.35-.22-2.54-.47-5.48-.79-8.92-.68-7.41-1.3-13.29-1.79-18-1.64-15.65-1.98-18.9,.76-24.52h0c4.86-9.98,14.81-15.02,17.74-16.33,5.2-2.32,8.76-2.46,12.21-2.59,3.32-.13,6.45-.25,10.87-2.3,5.76-2.68,8.06-6.08,10.28-9.36,1.89-2.8,3.85-5.69,7.86-8.11,13.53-8.13,34.9-1.73,48.15,8.43,4.19,3.21,5.22,5.02,8.63,11.02,2.73,4.8,6.86,12.05,15.27,24.79,2.7,4.09,5.01,7.49,7.06,10.49,7.59,11.15,10.73,15.77,11.92,24.01,1.34,9.32-.42,19.07-5.23,28.98-3.21,8.79-4.16,18.1-2.74,26.89,.56,3.46,1.49,6.88,2.76,10.19l.26,.68Zm-116.32-1h114.87c-1.17-3.16-2.02-6.42-2.56-9.71-1.45-8.96-.48-18.45,2.81-27.44,4.74-9.77,6.47-19.33,5.16-28.45-1.15-8.01-4.25-12.57-11.75-23.59-2.04-3-4.36-6.4-7.06-10.5-8.43-12.76-12.57-20.03-15.31-24.84-3.34-5.86-4.34-7.63-8.37-10.72-17.4-13.34-37.21-14.27-47.02-8.37-3.82,2.3-5.63,4.98-7.55,7.81-2.3,3.4-4.68,6.91-10.69,9.71-4.61,2.14-7.99,2.27-11.26,2.4-3.36,.13-6.83,.26-11.84,2.5-2.85,1.28-12.53,6.19-17.25,15.86h0c-2.61,5.36-2.28,8.56-.67,23.98,.49,4.72,1.11,10.6,1.79,18.02,.32,3.45,.57,6.39,.79,8.93,1.01,11.73,1.28,14.88,3.81,19.99,1.45,2.93,2.85,4.91,5.17,8.19,1.73,2.45,4.1,5.8,7.41,10.87,3.31,5.06,6.51,10.23,9.52,15.37Z"/><path d="M163.61,337.53c-3.63,0-11.22-.77-31.43-2.83l-12.44-1.26c-31.93-3.23-35.03-3.43-41.43-2.6-10.56,1.37-16.94,1.64-20.09,.86-7.85-1.96-11.7-11.42-17.54-25.74-4.94-12.12-9.72-28.41-8.49-31.24,.15-.35,.38-.5,.54-.56,.74-.28,1.86,.07,5.77,7.15-.65-18.68,.9-18.9,1.74-19.03,1.31-.19,2.33,2.31,3.9,6.42,.65,1.7,1.61,4.22,2.12,4.7,.25-.49,.73-3.38-.84-18.06l-.37-3.44,1.33,3.2c2.79,6.74,5.96,13.37,9.39,19.7,10.62,19.55,17.27,23.95,22.68,26.54,.19,.08,1.14,.49,2.12,.81,1.71,.56,6.55-1.37,11.67-3.4,5.14-2.04,10.97-4.36,15.89-5.19,8.41-1.41,16.61,1.07,26.1,3.95,2.13,.65,4.36,1.1,6.52,1.54,2.11,.43,4.29,.88,6.4,1.5l1.21,.36c3.23,.98,5.36,1.63,7.16,.58,1.53-.89,2.53-2.82,2.98-5.73,.02-.11,.05-.39,.08-1.02,.12-2.18,.16-3.78,.05-5.47-.12-1.84-.36-3.03-.62-4.29-.15-.74-.31-1.5-.44-2.42-.02-.15-.53-3.7,.11-9.04,.69-5.74,5.45-10.3,9.65-14.32,1.25-1.2,2.43-2.33,3.48-3.46,10.2-10.98,14.76-28.89,10.39-40.78-1.6-4.35-8.44-13.07-11.18-16.29-.07,0-.12,0-.14,0h-.2s-.15-.15-.15-.15c-.88-1.2-1-1.41-.82-1.74l.16-.28,.33,.02c.19,.02,.67,.45,1.34,1.17,2.87,.16,14.58,1.05,22.05,5.43,7.25,4.26,9.93,11.4,13.99,22.22,2.13,5.68,7.11,18.98,5.8,36.75-1.16,15.77-6.64,26.68-11.05,35.44l-.34,.68c-7.21,14.37-16.19,32.25-33.44,38.64h0c-1.1,.41-1.88,.66-3.96,.66Zm-79.34-8.11c5.18,0,13.53,.79,35.58,3.02l12.44,1.26c30.91,3.14,32.12,3.27,34.94,2.23h0c16.89-6.25,25.76-23.94,32.9-38.15l.34-.68c4.36-8.69,9.79-19.49,10.94-35.07,1.29-17.56-3.63-30.71-5.74-36.33-3.98-10.62-6.61-17.64-13.56-21.71-6.62-3.88-16.72-4.96-20.61-5.24,3.38,3.99,9.34,12.26,10.67,15.86,4.49,12.21-.17,30.57-10.6,41.8-1.07,1.15-2.26,2.29-3.52,3.5-4.08,3.91-8.7,8.34-9.35,13.72-.63,5.19-.12,8.74-.12,8.78,.13,.89,.29,1.64,.43,2.37,.26,1.29,.51,2.51,.64,4.42,.11,1.74,.07,3.37-.05,5.59-.04,.7-.08,1-.09,1.09-.5,3.25-1.67,5.42-3.47,6.47-2.17,1.26-4.6,.53-7.95-.49l-1.2-.36c-2.07-.61-4.23-1.06-6.32-1.48-2.18-.45-4.44-.91-6.61-1.57-9.38-2.84-17.47-5.29-25.65-3.92-4.82,.81-10.59,3.11-15.69,5.13-5.75,2.29-10.29,4.09-12.35,3.42-1.02-.33-2.02-.76-2.21-.85-5.57-2.66-12.39-7.15-23.16-26.97-2.93-5.4-5.66-11.01-8.14-16.73,1.52,15.53,.42,15.75-.33,15.89-1.04,.2-1.77-1.6-3.21-5.38-.75-1.98-2.16-5.67-2.83-5.79-.35,.18-1.53,2.17-.79,20.14l.09,2.19-1.03-1.94c-3.92-7.37-5.22-8.41-5.54-8.55-.9,1.54,2.54,15.8,8.51,30.46,6.24,15.32,9.82,23.39,16.85,25.15,3.02,.75,9.29,.48,19.72-.88,2.03-.26,3.73-.42,6.08-.42Z"/><path d="M195.84,482.95l1.18-4.55c.06-.23,5.68-22.94-1.15-41.62-3.55-9.71-9.84-16.29-20.26-27.18-7.56-7.9-11.72-12.25-18.34-16.04-14.52-8.33-29.18-7.54-37.93-7.08-12.79,.69-36.6,1.96-50.27,18.45-11.28,13.61-12.18,33.44-12.66,44.09-.21,4.67-.32,6.59-.99,7.2-.17,.15-.35,.23-.58,.22h0c-.73-.03-.9-.72-1.42-2.76-.11-.43-.24-.94-.39-1.51-1.89-7.16-5.82-20.44-7.93-25.8-2.83-7.19-6.31-10.05-9.69-12.81-3.23-2.65-6.28-5.14-8.05-11.17-3.06-10.42,.61-20,3.03-26.34,3.2-8.36,12.69-19.35,29-33.58,12.16-10.61,18.26-15.93,22.36-17.74,35.4-15.55,76.3,19.34,82.36,26.41,3.46,4.04,5.87,8.22,5.9,8.26,1.51,2.84,2.39,5.44,3.41,8.45,1.98,5.87,4.44,13.17,13.1,26.23,5.81,8.75,10.38,14.38,14.05,18.91,5.69,7.01,9.12,11.24,10.92,19.8,4.61,21.99-12.83,45.05-13.58,46.02l-2.07,4.14Zm-68.59-97.73c8.56,0,19.56,1.19,30.52,7.47,6.75,3.87,10.94,8.25,18.56,16.21,10.52,10.99,16.86,17.62,20.49,27.53,5.6,15.31,2.95,33.38,1.68,39.85,4.15-6.03,15.83-25.07,12.01-43.29-1.74-8.32-4.93-12.25-10.71-19.37-3.69-4.54-8.27-10.19-14.1-18.98-8.74-13.17-11.22-20.54-13.22-26.46-1-2.97-1.87-5.53-3.33-8.29-.02-.03-2.39-4.14-5.78-8.1-4.02-4.69-15.98-14.8-30.96-21.97-13.05-6.24-32.36-12.03-50.23-4.17-3.96,1.74-10.02,7.03-22.1,17.56-16.2,14.13-25.59,24.98-28.73,33.19-2.38,6.21-5.97,15.6-3.01,25.7,1.68,5.73,4.48,8.02,7.72,10.67,3.31,2.71,7.06,5.79,9.98,13.22,2.12,5.39,6.07,18.73,7.96,25.91,.15,.58,.28,1.09,.39,1.52,.19,.74,.36,1.41,.49,1.78,.29-.9,.41-3.61,.53-6.24,.49-10.77,1.4-30.82,12.89-44.69,13.95-16.83,38.04-18.12,50.99-18.81,2.29-.12,4.98-.27,7.96-.27Z"/><path d="M274.66,502.55c-5.53,0-11.31-1.86-15.01-5.42-4.05-3.91-4-8.41-3.94-13.62,.06-5.01,.13-10.68-3.09-17.68-2.64-5.74-5.63-8.18-10.15-11.88-3.56-2.92-8-6.55-14-13.09-7.07-7.71-11.09-13.83-19.09-26.03-14.21-21.66-21.34-32.54-25.16-45.13-8.76-28.92-.51-54.65,2.6-64.34,9.67-30.17,21.46-46.3,35.03-47.94,7.03-.85,13.4,1.37,21.01,4.36,.09,.04,9.58,3.84,28.35,17.84l.63,.47-16.91,9.13c-.06,.03-5.73,3.04-11.98,7.2-6.31,4.2-19.44,12.94-26.65,28.36-2.12,4.53-4.74,11.78-5.15,20.58-1.34,29,22.45,56.54,44.62,61.8,3.76,.89,12.58,2.98,21.79-.58,3.4-1.32,5.13-2.74,6.97-4.25,1.48-1.22,3.02-2.48,5.51-3.78,6.06-3.16,11.22-2.21,16.21-1.28,4.59,.85,9.34,1.73,15-.47,1.53-.6,1.96-.94,3.54-2.21,1.3-1.05,3.27-2.63,7.12-5.4,8.89-6.4,14.24-9.35,18.54-11.73,4.68-2.59,7.77-4.29,12.41-8.89,6.36-6.3,13.43-15.87,13.5-15.96l.57-.78,.31,.91c.14,.41,3.35,10.02,3.55,15.94,.13,3.82-.12,17.12-8.76,28.02-3.17,4-5.58,5.35-15.75,11.06-1.53,.86-3.25,1.82-5.17,2.91-16.58,9.38-24.9,14.08-31.98,19.01-14.36,10.01-21.57,15.03-25.8,23.19-5.19,10-4.23,19.28-3.38,27.47,.79,7.62,1.47,14.19-3.66,18.55-2.91,2.47-7.19,3.66-11.62,3.66Zm-49.76-244.31c-.97,0-1.94,.06-2.92,.17-13.15,1.59-24.66,17.49-34.2,47.25-3.08,9.61-11.26,35.13-2.59,63.75,3.77,12.46,10.88,23.29,25.03,44.87,7.97,12.16,11.98,18.26,18.99,25.9,5.95,6.49,10.36,10.09,13.9,12.99,4.63,3.79,7.69,6.29,10.42,12.24,3.32,7.21,3.24,13.25,3.19,18.11-.06,5.19-.11,9.28,3.63,12.89,6.33,6.11,19.1,6.97,25.29,1.71,4.73-4.02,4.11-10.05,3.31-17.69-.82-7.91-1.84-17.76,3.49-28.03,4.35-8.38,11.62-13.45,26.12-23.55,7.12-4.96,15.45-9.67,32.06-19.07,1.92-1.09,3.63-2.05,5.17-2.91,10.03-5.63,12.41-6.97,15.46-10.81,8.43-10.63,8.67-23.63,8.55-27.37-.16-4.81-2.39-12.18-3.2-14.75-1.83,2.42-7.66,10-13.02,15.31-4.74,4.69-7.88,6.42-12.63,9.05-4.27,2.36-9.59,5.31-18.44,11.67-3.82,2.75-5.78,4.32-7.07,5.36-1.64,1.32-2.13,1.71-3.81,2.37-5.93,2.31-10.81,1.4-15.54,.52-5.04-.93-9.8-1.82-15.56,1.18-2.4,1.25-3.9,2.48-5.34,3.67-1.9,1.56-3.69,3.03-7.24,4.41-9.5,3.67-18.53,1.53-22.38,.62-22.55-5.35-46.75-33.35-45.39-62.82,.42-8.96,3.08-16.34,5.24-20.96,7.33-15.67,20.62-24.51,27-28.76,6.29-4.19,12-7.22,12.06-7.25l15.53-8.38c-18.22-13.51-27.4-17.2-27.49-17.24-6.39-2.51-11.9-4.47-17.61-4.47Z"/></g><path d="M50.99,215.68l.78-1.48c3.13-5.92,5.6-11.67,7.33-17.1l.14-.44c.84-2.65,1.89-5.95,4.96-8.41,2.06-1.66,4.73-2.72,6.14-3.2,1.94-.67,3.75-1.03,5.35-1.36,.33-.04,6.36-.61,18.98-.61h1.68l-1.4,.92c-3.12,2.04-4.39,2.96-4.4,2.97-1.47,1.18-2.3,2.02-3.04,2.77-.5,.51-.97,.98-1.56,1.48-.62,.52-.97,.76-1.48,1.09-1.52,.97-2.75,1.34-4.6,1.9l-.77,.24c-1.44,.44-2.91,.92-4.4,1.44-4.15,1.56-6.63,3.51-7.37,5.79-.06,.17-.11,.37-.17,.59-.21,.75-.49,1.78-1.17,3.05-.74,1.37-1.72,2.62-2.93,3.71l-.09,.07-11.98,6.6Zm42.01-31.6c-11.43,.05-16.9,.57-17.13,.59-1.54,.31-3.32,.67-5.2,1.32-1.08,.37-3.83,1.42-5.84,3.04-2.83,2.28-3.83,5.42-4.63,7.94l-.14,.44c-1.61,5.03-3.84,10.34-6.64,15.79l9.01-4.97c1.1-1,2-2.14,2.67-3.4,.63-1.17,.88-2.1,1.09-2.85,.06-.24,.12-.45,.18-.64,.84-2.58,3.52-4.74,7.98-6.42,1.51-.53,3-1.02,4.45-1.46l.78-.24c1.84-.56,2.95-.89,4.35-1.79,.48-.31,.79-.53,1.38-1.01,.56-.46,.99-.9,1.49-1.41,.75-.76,1.6-1.63,3.14-2.86,.06-.04,.94-.68,3.06-2.08Z"/><path d="M64.25,216.53c-6.57,0-12.11-1.6-12.17-1.62l-1.15-.34,11.51-6.34c.57-.52,1.08-1.11,1.52-1.74,.73-1.04,1.04-1.88,1.36-2.75,.27-.75,.56-1.53,1.11-2.49,.98-1.69,2.14-2.75,2.64-3.2,1.78-1.62,3.48-2.34,5.28-3.11,1.44-.62,2.95-1.11,4.5-1.47,.89-.21,2.14-.5,3.48-1.08,.53-.23,1.04-.52,1.6-.92,.91-.64,1.2-.97,1.65-1.48,.16-.18,.33-.38,.55-.62,.2-.21,.58-.6,1.08-1.07,2.66-2.49,5.87-4.45,7.04-5.04,.2-.87,.23-.91,.54-.97l.32-.06,.19,.26c.04,.06,.05,.21,.04,.45h.03s-.02,.1-.05,.19c-.29,2.41-2.77,10.59-3.9,12.53l-.21,.34c-.23,.38-.63,1.04-1.12,1.88-.72,1.22-1.16,2.03-1.48,2.6-.17,.31-.31,.56-.43,.77-1.01,1.73-3.1,5.34-6.5,6.12-1.3,.3-2.24,.08-2.99-.1-.74-.18-1.12-.25-1.56,.03-.54,.35-.56,1.03-.54,2.2,.02,1.13,.04,2.54-.78,3.83-1.07,1.69-3.12,2.5-7.54,2.99-1.35,.15-2.7,.21-4.01,.21Zm-10.68-2.27c2.49,.58,8.48,1.74,14.58,1.06,4.65-.52,6.08-1.39,6.81-2.54,.66-1.04,.64-2.18,.62-3.28-.02-1.17-.04-2.39,1-3.05,.82-.52,1.58-.34,2.33-.17,.69,.16,1.46,.35,2.54,.1,2.97-.68,4.92-4.04,5.86-5.65,.12-.21,.25-.44,.42-.75,.32-.58,.77-1.39,1.49-2.62,.49-.84,.9-1.51,1.13-1.89l.2-.33c1.27-2.19,2.73-7.7,3.43-10.6-1.32,.77-3.81,2.35-6.08,4.48-.48,.45-.85,.83-1.04,1.03-.21,.22-.38,.41-.53,.59-.47,.54-.82,.93-1.82,1.64-.61,.43-1.19,.76-1.78,1.02-1.42,.62-2.73,.92-3.59,1.13-1.55,.36-3.01,.84-4.4,1.43-1.72,.74-3.35,1.43-5,2.93-.46,.42-1.54,1.4-2.44,2.96-.51,.88-.78,1.62-1.04,2.33-.33,.9-.67,1.84-1.48,2.99-.49,.7-1.07,1.36-1.71,1.94l-.1,.07-9.41,5.18Z"/><path d="M349.8,341.57c-.37,0-.8-.42-1.56-1.16-.71-.69-1.78-1.74-3.29-2.97-1.77-1.44-2.89-2.13-3.97-2.79-1.14-.7-2.22-1.36-3.82-2.8-2.39-2.15-3.84-3.45-4.72-5.78-.39-1.02-.49-1.77-.59-2.55-.12-.88-.24-1.78-.8-3.22-.48-1.25-.89-1.86-1.29-2.45-.33-.49-.68-1.01-1.02-1.84-.94-2.29-.53-6.2-.03-9.07,.69-3.92,.78-6.73,.84-8.59,.07-1.93,.1-2.8,.88-2.89h0c.23-.02,.45,.05,.66,.23,.89,.73,1.89,3.64,2.14,6.24,.12,1.2,.07,2.3,.01,3.69-.04,1.11-.1,2.37-.09,4.05,0,.41,0,1.64,.52,3.15,.12,.36,.27,.71,.46,1.08,.54,1.05,1.15,1.62,1.79,2.23,.69,.65,1.4,1.33,2.01,2.57,.63,1.3,.74,2.16,.85,3.07,.07,.59,.15,1.2,.38,1.99,.57,1.99,1.46,2.93,2.93,4.48,.75,.79,1.68,1.78,2.76,3.12,3.23,4.02,5.68,8.55,5.54,9.63-.03,.24-.15,.38-.25,.45-.12,.09-.24,.13-.36,.13Zm-19.15-44.94c-.05,.39-.08,1.07-.1,1.73-.06,1.89-.16,4.74-.86,8.73-.68,3.88-.69,6.91-.03,8.52,.3,.74,.59,1.17,.92,1.66,.41,.6,.87,1.29,1.39,2.64,.6,1.55,.74,2.56,.86,3.45,.1,.76,.19,1.42,.54,2.33,.79,2.1,2.09,3.27,4.45,5.39,1.54,1.39,2.53,1.99,3.68,2.7,1.06,.65,2.26,1.39,4.08,2.88,1.54,1.26,2.63,2.33,3.35,3.03,.04,.04,.09,.08,.13,.13-.71-1.62-2.49-4.73-4.99-7.84-1.06-1.31-1.94-2.24-2.71-3.06-1.52-1.61-2.53-2.67-3.16-4.89-.25-.87-.33-1.55-.41-2.14-.11-.86-.2-1.61-.76-2.76-.52-1.08-1.14-1.66-1.79-2.28-.68-.64-1.37-1.3-1.99-2.5-.21-.41-.38-.81-.52-1.22-.56-1.67-.57-3.02-.57-3.46,0-1.7,.04-2.98,.09-4.1,.06-1.36,.1-2.42-.01-3.56-.24-2.45-1.08-4.67-1.6-5.37Z"/><path d="M349.67,344.16l-.32-3.07c-.45-4.32-1.64-8.14-3.52-11.37-.58-1-1.14-1.77-1.67-2.52-1.1-1.54-2.06-2.88-2.52-5.27-.08-.44-.15-.87-.21-1.3-.18-1.32-.36-2.58-1.24-3.95-.59-.91-1.1-1.28-1.71-1.71-.4-.28-.85-.61-1.36-1.11-2.02-2.03-2.19-4.3-2.37-6.7-.17-2.33-.36-4.75-2.17-7.41-.54-.8-1.13-1.52-1.6-2.1-.9-1.1-1.31-1.6-.88-2.06,.39-.42,.88-.38,3.76,1.75,.94,.88,1.9,1.69,2.88,2.44,1.44,1.11,2.57,1.75,3.56,2.31,.85,.48,1.59,.9,2.33,1.5,3.27,2.63,5.06,5.45,5.83,6.66,.98,1.54,3.28,5.16,4.06,10.37,.42,2.83,.14,5.27-.38,9.69-.42,3.61-1.03,7.26-1.82,10.83l-.67,3.01Zm-17.82-47.02c.47,.57,1.03,1.27,1.57,2.06,1.96,2.89,2.16,5.55,2.34,7.9,.17,2.31,.32,4.3,2.08,6.07,.44,.45,.84,.73,1.23,1,.66,.47,1.28,.91,1.97,1.98,1,1.56,1.2,2.98,1.39,4.35,.06,.42,.12,.83,.2,1.25,.42,2.18,1.27,3.37,2.35,4.88,.52,.73,1.12,1.56,1.72,2.59,1.54,2.62,2.62,5.62,3.25,8.94,.51-2.64,.92-5.31,1.23-7.95,.54-4.67,.77-6.84,.38-9.43-.75-5-2.97-8.49-3.92-9.98-.74-1.16-2.47-3.89-5.61-6.42-.68-.55-1.38-.95-2.19-1.41-1.02-.58-2.17-1.24-3.67-2.38-1.01-.78-1.99-1.61-2.92-2.47-.57-.42-1.02-.74-1.38-.98Z"/></g><path d="M273.54,339.21c-4.02,0-12.56-7.14-15.61-10.02-4.17-3.93-8.11-7.65-10-13.78-1.87-6.06-1.19-12.79,.09-14.75,.28-.42,.59-.65,.94-.69,.87-.08,1.12,.91,1.59,2.93,.55,2.31,1.46,6.17,3.83,10.59,2.48,4.63,5.57,10.39,11.83,13.98,.88,.5,1.76,.93,2.62,1.35,2.64,1.29,5.14,2.5,6.23,5.38,.21,.56,1.2,3.4-.14,4.56h0c-.36,.31-.83,.45-1.4,.45Zm-24.55-38.2c-.84,.7-2.24,7.18-.1,14.1,1.81,5.88,5.48,9.34,9.73,13.35,6.03,5.69,14.01,10.99,15.67,9.54,.64-.56,.27-2.37-.14-3.45-.95-2.51-3.17-3.58-5.73-4.83-.87-.42-1.78-.86-2.68-1.38-6.51-3.74-9.67-9.64-12.21-14.38-2.43-4.53-3.37-8.47-3.93-10.83-.21-.88-.43-1.79-.6-2.11Z"/><path d="M290.13,393.81c-.09,0-.19-.01-.3-.04-1.57-.36-5.42-3.86-7.65-8.31-1.62-3.22-1.99-6.08-2.21-8.5-.46-5.06-.48-11.21-.04-16.04,.81-8.94,2.66-9.11,3.27-9.17h0c1.61-.13,2.88,2.41,3.9,4.93,2.24,5.52,1.29,10.16,.37,14.65-.88,4.27-1.79,8.69-.05,14.05,.77,2.39,1.82,4.22,2.58,5.56,.82,1.43,1.26,2.22,.64,2.7-.14,.11-.31,.16-.5,.16Zm-6.8-41.06s-.03,0-.04,0h0c-2.1,.19-3.33,13.04-2.32,24.12,.21,2.34,.57,5.08,2.11,8.14,2.14,4.27,5.54,7.21,6.75,7.72-.15-.33-.43-.83-.69-1.28-.74-1.3-1.85-3.26-2.66-5.75-1.82-5.62-.89-10.17,.02-14.56,.93-4.54,1.81-8.83-.31-14.07-1.51-3.72-2.42-4.32-2.84-4.32Z"/><path d="M121.97,431.74c-.1,0-.2,0-.3,0-.91-.02-3.88-.21-4.2-1.63h0c-.24-1.07,.2-1.84,12.77-7.62,8.32-3.83,12.56-5.54,18.33-5.94,1.03-.07,2.07-.09,3.06-.08,7.4,.13,13.98,2.55,14.96,3.77,.2,.25,.21,.48,.18,.63-.15,.73-.94,.61-2.86,.32-2.73-.41-7.8-1.19-14.23-.21-5.44,.83-11.06,1.68-16.75,5.5-.67,.45-1.31,.92-1.96,1.39-2.59,1.9-5.27,3.86-9,3.86Zm29.01-14.28c-.77,0-1.56,.03-2.35,.08-5.6,.38-9.78,2.08-17.98,5.85-3.06,1.41-12.38,5.7-12.21,6.49h0c.09,.4,1.64,.81,3.25,.85,3.53,.11,6.03-1.73,8.68-3.67,.66-.48,1.31-.96,1.99-1.42,5.88-3.94,11.61-4.82,17.16-5.66,6.57-1,11.75-.21,14.53,.21,.34,.05,.69,.1,.99,.15-1.92-1.01-7.12-2.76-13.43-2.88-.21,0-.42,0-.63,0Z"/><path d="M55.94,450.96l-.41-.41c-.39-.39,.38-4.44,.45-4.63,.38-1.14,1.52-4.07,3.94-6.56,3.95-4.05,9.33-4.81,12.9-5.32,7.38-1.04,16.23-.11,18.93,2,.52,.41,.81,.86,.87,1.34,.14,1.32-1.52,2.43-2.53,2.97-2.7,1.45-5.73,.64-7.03,.29l-.17-.04c-7.09-1.87-18.06-.61-22.46,4.2,0,0,0,0,0,0,0,0-.31,.43-4.15,5.69l-.34,.47Zm23.24-16.35c-2.03,0-4.15,.13-6.23,.42-3.43,.48-8.62,1.22-12.32,5.02-2.34,2.4-3.43,5.33-3.7,6.17-.16,.48-.29,1.39-.38,2.21q3.12-4.28,3.16-4.32c4.7-5.14,15.92-6.47,23.45-4.49l.17,.04c1.18,.32,3.94,1.05,6.29-.21,1.24-.67,2.07-1.49,2.01-1.99h0c-.03-.25-.28-.5-.49-.66-1.63-1.27-6.47-2.22-11.94-2.22Z"/><path d="M87.74,292.68c-.63,0-1.26-.04-1.91-.13-5.44-.76-9.58-4.68-10.15-5.82-.13-.26-.14-.49-.03-.68,.28-.51,.79-.27,1.55,.08,1.1,.51,3.16,1.45,5.82,1.51,1.26,.03,5.65-.11,8.89-3.1,1.65-1.52,2.07-2.91,2.6-4.66,.57-1.88,1.22-4.01,3.57-6.78,1.1-1.3,3.69-4.36,6.71-3.92h0c1.22,.17,1.91,.69,2.28,1.1,2.29,2.54-.53,8.75-2.99,12.32-.75,1.09-7.25,10.09-16.33,10.09Zm-10.28-5.34c1.47,1.42,4.61,3.67,8.5,4.21,9.48,1.33,16.51-8.42,17.28-9.54,2.29-3.31,4.84-9.12,3.07-11.08-.25-.28-.75-.64-1.68-.78h0c-2.47-.36-4.81,2.4-5.8,3.58-2.21,2.61-2.83,4.64-3.38,6.43-.53,1.75-1.03,3.4-2.88,5.1-3.51,3.24-8.23,3.4-9.59,3.37-2.39-.05-4.29-.75-5.54-1.3Z"/><path d="M136.43,252.58c-1.44,0-2.53-.3-2.89-1.03h0c-.18-.37-.18-.83,.01-1.36,.8-2.22,4.78-5.58,8.68-7.33,1.71-.77,2.77-.95,3.7-1.12,.96-.17,1.79-.31,3.2-1.04,3.75-1.93,5.74-4.97,8.04-8.49,1.62-2.48,2.81-4.96,5.17-9.91,1.3-2.73,3.48-6.62,3.9-7.37l1.55-2.76-.63,3.15c-.26,1.31-2.05,9.93-5.07,16.71-1.51,3.38-6.09,13.67-16.21,18.24-2.77,1.25-6.75,2.31-9.47,2.31Zm-1.99-1.47c.49,.99,6.02,.51,11.04-1.75,9.77-4.41,14.24-14.43,15.71-17.73,1.99-4.47,3.45-9.78,4.26-13.18-.74,1.37-1.57,2.96-2.2,4.28-2.38,4.99-3.58,7.49-5.23,10.02-2.28,3.49-4.43,6.78-8.42,8.84-1.55,.8-2.49,.96-3.49,1.14-.92,.16-1.87,.33-3.47,1.04-4.01,1.8-7.52,5.01-8.15,6.76-.09,.25-.11,.47-.06,.58h0Z"/></g><path d="M143.4,516.5h-38.53l.84-2.48c2.02-4.34,4.32-6.69,6.83-6.98,1.28-.14,2.3,.27,3.2,.64,.97,.4,1.81,.74,2.89,.41,1.14-.35,1.59-1.13,2.17-2.13,.52-.91,1.12-1.94,2.35-2.71,2.37-1.48,5.47-.58,11.64,1.21,4.12,1.2,6.48,2.35,8.19,3.19,1.22,.6,2.11,1.03,3.07,1.23,.62,.12,2.33,.47,3.67,1.87l.38,.4-.39,.39-6.31,4.97Zm-37.13-1h36.79l5.58-4.39c-1.09-.9-2.29-1.15-2.73-1.24-1.15-.23-2.13-.71-3.37-1.32-1.69-.83-3.99-1.96-7.94-3.1-5.98-1.73-8.93-2.59-10.92-1.34-1.02,.64-1.52,1.51-2.01,2.36-.6,1.04-1.23,2.13-2.74,2.59-1.42,.43-2.51-.01-3.56-.44-.86-.35-1.67-.69-2.7-.57-2.14,.25-4.16,2.39-6.03,6.38l-.37,1.09Z"/></g><path d="M113.48,516.5h-.66l.56-1.97,.17-.1c1.94-1.18,4-2.15,6.14-2.9,5.38-1.88,9.91-1.87,12.09-1.88,4.37,0,9.12,.71,9.91,.83l.31-.03,.15,.35c.22,.4-.15,.62-.81,1.02-2.27,1.36-3.59,1.95-3.65,1.97-1.85,.81-3.48,1.17-5.94,1.7-1.91,.41-3.84,.75-5.78,.99h-12.48Zm.66-1h11.75c1.84-.24,3.75-.57,5.6-.97,2.44-.53,4.03-.88,5.78-1.65,.01,0,1.11-.49,2.99-1.59-1.85-.25-5.28-.64-8.49-.64-2.13,0-6.53,0-11.76,1.82-2.01,.7-3.95,1.61-5.78,2.71l-.09,.32Z"/></g><path d="M129.48,446.1c-1.02,0-1.38-.19-1.66-.59-1.22-1.7,1.09-5.25,3.27-7.05,2.35-1.93,4.98-2.3,7.09-2.59,2.88-.4,4.99-.16,7.87,.25,2.92,.41,4.71,.73,4.89,1.87,.13,.83-.64,1.34-3.19,3.04-2.98,1.98-4.02,2.67-4.27,2.79-1.08,.53-2.09,.91-8.91,1.78-2.61,.33-4.14,.5-5.1,.5Zm11.6-9.43c-.87,0-1.76,.06-2.76,.2-2.09,.29-4.46,.62-6.59,2.37-2.33,1.91-3.72,4.83-3.1,5.69h0c.21,.3,1.52,.23,5.82-.33,6.67-.86,7.61-1.2,8.6-1.69,.21-.1,1.86-1.2,4.16-2.72,1.32-.87,2.68-1.78,2.76-2.06-.08-.46-2.76-.84-4.05-1.02-1.84-.26-3.3-.45-4.83-.45Z"/><path d="M76.31,460.42c-1.32,0-2.72-.04-3.91-.08-5.21-.19-5.28-.29-5.43-.51l-.17-.26,.15-.27c.14-.25,.22-.28,.93-.25,.49-.92,2.02-3.57,4.22-5.36,1.41-1.15,2.72-1.64,3.88-2.08,4.83-1.81,9.28-1.03,10.74-.77,2.77,.49,5.81,1.55,6.99,1.99l.72,.26-.45,.58c-1.01,1.05-2.13,1.99-3.32,2.81-1.29,.88-4.92,3.01-10.66,3.77-.93,.12-2.26,.16-3.68,.16Zm-7.35-1.25c2.71,.17,8.41,.42,10.9,.1,5.53-.72,9-2.76,10.23-3.6,.92-.63,1.8-1.34,2.61-2.13-1.41-.5-3.89-1.31-6.16-1.71-1.39-.25-5.63-.99-10.21,.72-1.14,.43-2.32,.87-3.6,1.92-1.8,1.47-3.16,3.63-3.77,4.7Z"/><path d="M83.27,274.22c-1.2,0-2.19-.23-2.53-.89-.29-.57,0-.99,.58-1.83,.3-.43,.71-1.03,1.25-1.9l.07-.12c2.37-3.86,3.88-6.05,4.47-6.5,.46-.35,.97-.71,.97-.71,.39-.27,.55-.38,4.09-2.62,.06-.04,.16-.1,.3-.18,.68-.39,1.45-.66,1.48-.67,.92-.31,1.9-.66,2.08-.73,1.1-.39,1.68-.85,2.1-1.19,.39-.31,.77-.61,1.25-.43h0c.32,.11,.57,.42,.74,.92,.61,1.79,.28,6.11-1.93,9.54-2.55,3.96-6.84,5.63-8.09,6.04-.48,.16-.87,.26-1.18,.35-1.33,.35-3.76,.92-5.66,.92Zm15.82-16.79c-.08,.05-.21,.15-.31,.24-.45,.36-1.13,.9-2.37,1.34-.2,.07-1.19,.42-2.11,.74,0,0-.72,.25-1.31,.59-.12,.07-.21,.12-.26,.16-3.51,2.22-3.69,2.34-4.06,2.6,0,0-.5,.35-.94,.68-.18,.13-1,.98-4.23,6.23l-.07,.12c-.55,.89-.97,1.5-1.27,1.94-.26,.37-.5,.72-.52,.83,.32,.61,3.55,.36,7.04-.56,.3-.08,.67-.18,1.12-.33,1.17-.39,5.19-1.95,7.57-5.63,2.42-3.76,2.25-8.23,1.72-8.94Z"/><path d="M126.42,238.55l.62-.93c.86-1.28,1.75-2.55,2.65-3.78,4-5.46,5.58-6.59,6.6-6.98,1.35-.52,1.8-.71,2.55-1.04l.13-.06c.66-.29,1.06-.5,1.55-.74l1.55-.79c2.56-1.3,4.11-2.09,5.03-1.41,1.51,1.12-.28,5.13-1.02,6.45-1.34,2.36-3.2,3.7-4.09,4.34-.9,.65-2.34,1.53-5.46,2.62-2.87,1-5.9,1.73-9,2.17l-1.11,.16Zm19.83-14.98c-.67,0-2.22,.79-3.73,1.56l-1.55,.79c-.5,.26-.93,.47-1.6,.77l-.13,.06c-.76,.33-1.21,.53-2.59,1.05-.77,.29-2.24,1.3-6.15,6.64-.67,.92-1.33,1.85-1.99,2.8,2.64-.44,5.22-1.09,7.68-1.95,3-1.05,4.36-1.88,5.21-2.49,.9-.64,2.57-1.84,3.8-4.02,1.26-2.22,1.8-4.78,1.3-5.15-.06-.04-.14-.06-.25-.06Z"/><path d="M279.93,323.63l-1.01-.83c-.1-.08-2.42-2.01-4.14-4.73-.63-1-1.08-1.86-1.6-2.86-.6-1.17-1.29-2.53-1.79-4.01-.64-1.92-.94-4-.89-6.19-.37-.9-.54-1.47-.07-1.74l.19-.11,.26,.07c.83,.27,3.92,4.8,5.81,8.89,1.48,3.19,2.5,6.63,3.03,10.22l.19,1.29Zm-8.42-18.34c-.02,1.98,.26,3.86,.84,5.59,.48,1.42,1.14,2.74,1.73,3.87,.51,.98,.94,1.82,1.55,2.78,.93,1.47,2.07,2.71,2.88,3.52-.56-2.98-1.47-5.84-2.71-8.51-1.39-2.99-3.18-5.76-4.29-7.25Z"/><path d="M305.24,378.85l-.4-.12s-.13-.08-.26-.21h-.01s-.05-.06-.05-.06c-1.23-1.23-5.48-6.44-6.9-12.24-.49-2-.65-4.09-.49-6.21l.14-1.83,.81,1.65c.53,1.08,1.1,2.17,1.7,3.23,1.28,2.28,2.23,3.54,2.92,4.46,.53,.7,.95,1.26,1.29,1.96,.27,.54,.4,.99,.5,1.32l.04,.12c.74,2.37,.92,5.18,.95,7.17l.08,.12-.32,.64Zm-7.16-16.83c.03,1.35,.2,2.68,.52,3.96,1.17,4.79,4.31,9.02,5.85,10.89-.08-1.75-.3-3.85-.87-5.66l-.04-.13c-.09-.31-.21-.7-.44-1.16-.31-.62-.68-1.12-1.2-1.81-.71-.94-1.68-2.23-2.99-4.57-.28-.5-.56-1.01-.83-1.53Z"/></g><path d="M91.35,271.78c-.24,0-.48-.02-.73-.06-2.21-.38-4.11-2.54-4.32-4.91-.21-2.29,1.23-3.92,1.7-4.46,.65-.74,3.02-3.11,6.16-2.39,2.68,.6,4.18,4.48,4.57,5.65l.16,.26-.19,.2c-.15,.25-1.48,2.49-3.22,3.89-.77,.62-2.27,1.83-4.14,1.83Zm1.67-10.95c-2.23,0-3.92,1.78-4.27,2.18-.44,.5-1.62,1.85-1.45,3.71,.17,1.95,1.71,3.71,3.49,4.01,1.76,.3,3.26-.91,4.07-1.56,1.37-1.1,2.51-2.84,2.86-3.42-.37-1.03-1.7-4.35-3.78-4.82h0c-.32-.07-.62-.1-.92-.1Z"/><path d="M136.36,236.26h-.28l-.15-.24s-.75-1.21-1.04-1.73l-.12-.2c-.5-.88-1.19-2.09-1.12-3.25,.19-3.08,3.86-4.98,6.28-5.5,.81-.18,1.91-.41,3.19,.06,1.47,.55,2.98,1.97,3.01,3.63,.03,1.95-2.01,3.24-4.18,4.61-2.28,1.44-5.39,2.63-5.6,2.63Zm5.2-10.14c-.52,0-.99,.1-1.41,.19-2.04,.44-5.35,2.08-5.5,4.58h0c-.05,.87,.55,1.93,.99,2.7l.12,.21c.19,.33,.56,.96,.8,1.35,.86-.33,3.04-1.21,4.86-2.36,2-1.26,3.73-2.36,3.71-3.74-.02-1.15-1.22-2.28-2.36-2.71-.43-.16-.83-.22-1.22-.22Z"/><path d="M79.53,459.52c-1.56,0-3.14-.66-4.21-1.66-1.26-1.16-1.77-2.26-1.58-3.32h0c.13-.74,.61-1.21,1.11-1.71,1.11-1.09,2.31-1.56,2.93-1.74,1.98-.58,3.75-.12,4.63,.21l.13,.07c.57,.45,1.32,1.23,1.63,2.41,.48,1.87-.45,3.69-1.59,4.66-.88,.75-1.96,1.07-3.05,1.07Zm.21-7.7c-.52,0-1.09,.07-1.67,.24-.53,.16-1.56,.56-2.49,1.47-.46,.46-.78,.77-.86,1.2h0c-.09,.48,.06,1.28,1.24,2.37,1.56,1.46,4.3,2.02,5.97,.6,.9-.77,1.65-2.2,1.27-3.65-.23-.87-.77-1.46-1.22-1.82-.5-.18-1.3-.4-2.25-.4Z"/><path d="M136.48,445.07c-.63,0-1.25-.09-1.81-.27-1.86-.59-3.81-2.36-3.93-4.6-.03-.5,.04-1,.2-1.5l.05-.16,.13-.1c1.75-1.26,3.66-2.06,5.67-2.39,1.59-.26,3.09-.51,4.22,.44,1.6,1.34,1.41,4.23,.24,6.09-1.09,1.74-2.99,2.49-4.78,2.49Zm-4.63-5.91c-.09,.33-.13,.66-.11,.98,.1,1.78,1.74,3.23,3.23,3.7,1.79,.56,4.23,.13,5.44-1.79,.92-1.47,1.1-3.83-.04-4.79-.77-.65-1.99-.45-3.41-.22-1.8,.3-3.52,1.01-5.11,2.12Z"/><path d="M277.05,318.01c-.55,0-1.2-.25-1.73-.52-.92-.46-1.65-1.24-2.14-2.3-.49-1.04-.63-2.1-.41-3.14,0-.03,.56-2.62,1.86-2.62h.03c.71,.02,.94,.62,1.63,2.4,.18,.46,.39,1.01,.65,1.67,.18,.44,.33,.83,.47,1.17,.74,1.82,1.02,2.5,.49,3.04h0c-.22,.22-.51,.3-.84,.3Zm-2.49-7.6c-.14,.07-.62,.91-.82,1.85-.17,.82-.06,1.66,.34,2.51,.15,.32,.61,1.29,1.69,1.83,.79,.4,1.26,.45,1.39,.4,0-.25-.31-1.04-.69-1.96-.14-.34-.3-.73-.48-1.18-.26-.66-.48-1.21-.65-1.68-.36-.93-.64-1.66-.78-1.78Z"/><path d="M303.49,373.92c-.62,0-1.32-.43-1.83-.75-1.46-.91-2.01-2.15-2.31-2.82-.44-.97-.81-1.81-.41-2.63,.48-.97,1.83-1.51,2.89-1.16h0c.4,.13,1.02,.53,1.78,2.4,.8,1.98,1.49,4.08,.5,4.77-.19,.13-.4,.19-.62,.19Zm-2.35-6.46c-.52,0-1.1,.29-1.31,.71-.19,.38,.02,.87,.43,1.78,.27,.61,.73,1.63,1.86,2.33,1,.63,1.32,.69,1.43,.64,.02-.01,.42-.44-.85-3.56-.5-1.23-.93-1.75-1.17-1.83-.12-.04-.25-.06-.38-.06Z"/><path d="M80.09,456.31c-.09,0-.19,0-.29-.02-.68-.08-1.24-.43-1.47-.93-.34-.73,.06-1.77,.86-2.26,.58-.35,1.45-.48,2.1,.03,.8,.63,.8,1.85,.28,2.52-.33,.42-.87,.65-1.48,.65Zm.19-2.51c-.21,0-.42,.08-.56,.16h0c-.39,.24-.59,.75-.48,.99,.08,.17,.36,.31,.68,.35,.37,.04,.71-.06,.87-.26,.22-.28,.21-.86-.11-1.12-.12-.09-.26-.13-.4-.13Z"/><path d="M136.97,442.44c-.65,0-1.33-.31-1.75-.85s-.53-1.31-.31-2.05c.21-.69,.66-1.22,1.21-1.41h0c.86-.3,1.64,.3,1.72,.37,.57,.46,.91,1.3,.86,2.14-.04,.68-.33,1.25-.81,1.54-.27,.17-.59,.25-.92,.25Zm-.52-3.36c-.24,.08-.47,.38-.58,.75-.13,.43-.08,.87,.15,1.15,.31,.4,.99,.58,1.35,.36,.19-.12,.32-.41,.34-.76,.03-.52-.16-1.04-.49-1.3,0,0-.42-.32-.77-.2h0Z"/><path d="M92.53,268.62c-.23,0-.46-.04-.67-.11-.96-.35-1.29-1.4-1.37-1.71-.26-1.04,.06-2.44,1.17-2.99,.56-.28,1.24-.29,1.92-.02,.81,.32,1.68,1.17,1.68,2.28,0,.76-.43,1.52-1.16,2.03-.49,.34-1.05,.52-1.57,.52Zm.07-4.03c-.18,0-.34,.04-.49,.11h0c-.61,.3-.81,1.2-.65,1.85,.03,.14,.23,.83,.75,1.01,.36,.13,.88,.02,1.32-.29,.46-.32,.73-.77,.73-1.21,0-.61-.54-1.15-1.04-1.35-.22-.08-.42-.13-.62-.13Z"/><path d="M140.18,233.18c-.63,0-1.28-.25-1.79-.68-.49-.42-.76-.96-.78-1.52-.03-1.12,1-1.81,1.21-1.94h0c.22-.14,1.36-.78,2.48-.17,1.06,.59,1.5,2,.96,3.08-.43,.85-1.34,1.16-1.81,1.21-.09,.01-.18,.02-.27,.02Zm.09-3.57c-.46,0-.85,.24-.91,.27h0s-.75,.47-.74,1.07c0,.27,.16,.55,.43,.79,.37,.32,.86,.48,1.3,.43,.01,0,.73-.09,1.02-.67,.3-.59,.04-1.43-.55-1.76-.18-.1-.37-.14-.55-.14Z"/><path d="M89.66,269.59c-.67,0-1.32-.89-1.59-1.32-.9-1.41-1.15-3.51-.08-4.4,.51-.43,1.41-.62,1.96-.19h0c.48,.37,.45,.96,.4,1.69l-.02,.42c-.05,.99,0,1.71,.04,2.24,.05,.75,.09,1.29-.44,1.51-.09,.04-.18,.05-.27,.05Zm-.47-5.15c-.16,0-.38,.06-.56,.2-.56,.47-.42,2,.28,3.09,.16,.25,.33,.46,.47,.61,0-.08-.01-.16-.02-.24-.04-.52-.09-1.31-.04-2.36l.03-.44c.02-.33,.05-.75,0-.83l.3-.4-.3,.4s-.09-.03-.16-.03Z"/><path d="M137.22,233.87c-.12,0-.26-.03-.41-.14-.54-.37-1.21-1.7-1.31-3.01-.06-.85,.01-1.91,.71-2.12,.63-.19,1.23,.47,1.48,.97,.25,.49,.21,.9,.17,1.47l-.02,.31c-.05,.74-.03,1.22-.02,1.53,.01,.39,.03,.83-.42,.97-.05,.02-.11,.03-.18,.03Zm-.68-4.2c-.05,.23-.07,.63-.04,.98,.03,.48,.16,.93,.31,1.3,0-.2,.02-.43,.03-.68l.02-.32c.04-.53,.05-.71-.06-.93-.07-.15-.18-.27-.26-.35Z"/></g><path d="M304.06,382.23c-.43,0-2.34-.87-4.04-2.4-1.14-1.02-2.03-2.15-2.74-3.28-.01-.02-.02-.03-.03-.05-1.07-1.57-1.65-3.1-2.07-4.65-.15-.51-.25-.95-.32-1.29-.08-.38-.19-.98-.3-1.61-.07-.36-.13-.72-.19-1.08-.08-.44-.15-.85-.2-1.18l-.02-.14s0-.12,0-.31c-.42-3.72-.18-6.76,0-7.7,0-.01,0-.02,0-.02h0c.03-.15,.06-.24,.08-.27l.26-.32,.29,.29s.07,.07,.08,.34h.02s0,.03-.01,.08c.03,.65,.03,2.39,.02,7.38v.18c.06,.49,.12,1,.21,1.51,.06,.36,.13,.73,.19,1.09,0,0,0,.02,0,.03,.19,.97,.37,1.93,.63,2.87,.35,1.2,.96,2.8,1.97,4.41,2.05,2.98,4.89,4.56,5.96,5.16,.42,.24,.52,.29,.57,.48l.04,.16-.18,.29-.18,.03s-.02,0-.03,0Z"/><path d="M279.27,327.91c-.31,0-3.94-1.59-6.94-5.04-3.49-3.74-4.82-7.88-5.75-11.02-.62-1.94-1.14-4.21-1.3-6.64-.17-1.94-.15-4.02,.36-5.75,.52-1.76,.52-1.76,.79-1.68,.25,.07,.24,.11-.02,1.07-.18,.66-.44,1.57-.49,1.98-.19,1.36-.23,2.71-.16,4,.25,3.28,1.12,6.27,1.18,6.46,.04,.13,.08,.27,.12,.4,.85,2.65,1.88,4.7,2.41,5.75,.85,1.68,1.66,3.28,3.23,5.1,2.65,2.83,5.45,4.26,6.37,4.73,.34,.17,.4,.2,.43,.32l.03,.11-.13,.2h-.13s0,.01,0,.01Z"/><path d="M309.14,376.51h-.25s-.07-.1-.07-.1c-.07-.09-.06-.17-.02-.35,.47-2.4,.37-4.87-.3-7.15-.66-2.09-1.77-3.51-3.99-6.33-.51-.65-1.11-1.36-1.87-2.09h0c-1.27-1.03-2.63-1.83-3.36-2.26-.63-.37-.77-.45-.63-.69l.06-.09,.11-.03c.27-.04,1.57,.67,2.29,1.17,.72,.5,1.33,1.01,1.86,1.52,1.38,1.12,4.67,4.16,6,8.65,1.26,3.99,.34,7.51,.24,7.64l-.08,.1Z"/><path d="M281.32,323.47s-.05,0-.08,0c0,0,0,0,0,0h0s-.06-.01-.09-.03c-.34-.15-.33-.81-.33-.84v-.22s.23-.08,.23-.08l.22-.02,.07,.25s0,.03,0,.05c.23-.65,.57-1.88,.7-3.16,.03-.32,.05-.64,.06-.95-.02-2.12-.57-4.03-.87-4.93-.22-.65-.47-1.25-.73-1.82-.24-.49-.46-.89-.62-1.19-.03-.05-.06-.11-.09-.16-1.12-1.92-2.46-3.38-3.69-4.73-1.96-2.09-3.8-3.5-4.69-4.14-.17-.12-.34-.23-.5-.34-.12-.08-.18-.12-.19-.22l-.05-.28h.29s.08,.01,.15,.05h0s.07,.04,.07,.04c.04,.03,.08,.05,.11,.08,.21,.13,.5,.34,.85,.6,1.51,1.11,3.01,2.46,4.31,3.89l.24,.25c1.04,1.1,2.32,2.46,3.48,4.51,.27,.46,.53,.95,.77,1.46,.76,1.58,1.71,4.06,1.64,6.97,0,.89-.08,1.81-.3,2.71-.46,1.87-.72,2.22-.92,2.27h-.02s-.03,0-.04,0Z"/><path d="M286.82,342.93h-.25s-.28-.4-.28-.4l.05-.22c.06-.23,.19-.3,.51-.46,4.83-2.47,7.83-5.74,9.49-8.05,.06-.08,.11-.16,.17-.23,.82-1.26,1.46-2.39,1.99-3.46,.2-.46,.39-.92,.59-1.42,.53-1.31,1.16-2.85,2.42-5.23,.47-.95,1.02-1.96,1.71-3.05,1.07-1.82,2.87-4.49,6.15-6.71,1.42-.99,3.67-2.57,5.99-2.39,.34,.02,.68,.08,1.01,.19,2.13,.66,3.27,2.76,3.59,3.45,.06,.12,.09,.2,.1,.21l-.93,.37s-1.02-2.45-3.06-3.08c-.01,0-.02,0-.04-.01h0s0,0,0,0,0,0,0,0c0,0,0,0,0,0,0,0,0,0,0,0h0c-2.1-.61-4.4,.95-6.09,2.09-2.19,1.53-4.11,3.62-5.86,6.4-.68,1.15-1.24,2.16-1.71,3.04-.53,1.08-.97,2.1-1.42,3.15-.47,1.1-.95,2.22-1.56,3.43-.47,1.05-1.04,2.12-2.06,3.57-.16,.25-.33,.5-.51,.76-.3,.44-.64,.88-1.06,1.37-3.94,4.62-8.56,6.68-8.95,6.68Z"/><path d="M317.3,322.82s-.1,0-.15-.02c-.75-.15-2.26-1.7-3.18-3.26-1.03-1.74-1.25-2.82-.7-3.4,.46-.48,1.36-.46,1.97-.2l1.58,.71c1.96,1.85,2.64,3.06,2.22,3.9-.11,.22-.3,.41-.5,.61-.29,.29-.6,.6-.61,.94h0s-.5-.02-.5-.02l.5,.06c0,.11-.01,.37-.25,.54-.08,.06-.2,.12-.37,.12Zm-.37-.74s-.02,.06-.02,.08l.5-.06-.48-.02Zm-2.61-5.31c-.16,0-.29,.03-.33,.07,0,0-.22,.4,.84,2.19,.71,1.2,1.65,2.16,2.18,2.58,.17-.49,.53-.86,.82-1.14,.12-.12,.28-.28,.31-.35,.01-.02,.24-.57-1.95-2.67l-1.35-.58c-.17-.08-.36-.1-.52-.1Z"/><path d="M324.35,335.91s-.05,0-.08,0c-.85-.05-2.23-.9-2.96-2.19-.93-1.63-.9-4.12-.9-4.22v-.22s.17-.15,.17-.15c.7-.62,1.72-.75,2.54-.32,.83,.44,1.3,1.38,1.17,2.31,.17,.59,.82,2.95,.91,3.95h0c.02,.2-.03,.39-.14,.54-.09,.12-.3,.32-.7,.32Zm-.15-.76h0Zm-2.79-5.4c.02,.63,.13,2.35,.77,3.48,.57,1,1.53,1.54,1.99,1.66-.14-.93-.62-2.71-.87-3.61l-.03-.12,.02-.12c.11-.54-.15-1.1-.63-1.36-.39-.2-.87-.18-1.24,.06Z"/><path d="M106.58,220.27l-.06-.85,.21-.21c.15-.15,.35-.35,.57-.59,.42-.51,1-1.33,1.42-2.42,.58-1.49,.82-3.3,.6-4.84-.43-1.49-1.24-2.54-1.47-2.82-.06-.03-.17-.1-.56-.3-2.27-1.21-3.6-1.85-4.24-2.16-.59-.28-.94-.45-.75-.91l.11-.26,.29-.05c.43-.07,3.69,.48,5.83,2.92,.98,.73,1.54,1.94,1.76,3.33,.26,.91,.39,1.95,.23,3.08-.3,2.12-1.41,3.81-2.29,4.86-.48,.61-.89,.97-1.05,1.02l-.6,.17Z"/><path d="M86.75,223.7c-.45,0-.87-.08-1.19-.2-.48-.18-.79-.46-.89-.8-.16-.55,.06-.74,1.77-2.26l1.28-1.14c1.03-.92,1.27-1.13,1.73-.94,.47,.21,.62,.85,.65,1.35,.09,1.21-.36,2.76-1.55,3.51h0c-.55,.35-1.2,.48-1.8,.48Zm-1.06-1.23c.31,.22,1.48,.43,2.32-.1,.72-.45,.96-1.29,1.04-1.76,.09-.51,.05-.92,0-1.17-.17,.14-.4,.35-.67,.59l-1.28,1.14c-.71,.63-1.21,1.08-1.41,1.29Z"/><path d="M97.17,215.23c-.3,0-.56-.02-.79-.06-.57-.1-.9-.3-1.01-.62h0c-.17-.52,.28-.8,.81-1.13,.46-.28,1.15-.71,1.98-1.45,1.21-1.09,1.9-2.12,2.35-2.81,.47-.71,.81-1.21,1.39-1.03,.29,.09,.51,.36,.65,.8,.27,.88,.28,2.83-.89,4.33-1.16,1.49-3.12,1.98-4.5,1.98Zm-.37-1.01c1.02,.08,2.99-.19,4.07-1.58,.9-1.16,.9-2.69,.75-3.33-.09,.12-.18,.27-.28,.41-.48,.73-1.21,1.83-2.52,3-.84,.75-1.54,1.2-2.03,1.5Z"/><path d="M118.27,269.49l-.19-.14c-.23-.18-.24-.36-.31-1.38-.02-.28-.04-.61-.07-.98-.54-3.11-1.88-9.22-2.9-11.74l-.22-.54c-.18-.41-1.1-2.56-2.21-4.5-1.64-2.61-3.37-4.91-5.18-6.88-4.79-4.96-9.59-7.07-9.65-7.1-.17-.07-.34-.14-.51-.21-1.08-.43-2.19-.77-3.31-1.02-.12-.03-.23-.05-.35-.08-.87-.17-1.64-.26-2.38-.34-2.03-.23-3.78-.43-6.07-2.26-4.98-3.63-6.03-10.08-5.97-10.55l.04-.29,.49-.21,.21,.11c.22,.11,.25,.27,.33,.63,1.15,5.14,3.63,8.01,5.51,9.52,2.02,1.46,3.79,1.73,5.85,2.04,.75,.11,1.52,.23,2.35,.41,1.03,.21,2.19,.53,3.55,1.07,3.82,1.5,7.39,4.06,10.69,7.67,1.84,1.91,3.67,4.22,5.25,6.98,4.32,6.88,5.21,13.96,5.48,17.23,.2,1.2,.27,2.06,.16,2.26l-.11,.21-.47,.1Z"/><path d="M130.66,493.1l-.22-.06c-.13-.04-.44-.18-.34-.68,.06-.34,.12-.67,.18-.99,.11-.74,.21-1.35,.28-1.86,.08-.65,.14-1.26,.17-1.82h0c.02-.86,.03-1.52,0-2.04-.04-.41-.1-.75-.19-1.01-.05-.14-.12-.27-.21-.39-.28-.34-.45-.4-1.27-.66-.21-.07-.46-.14-.76-.24l-.06-.02s0,0-.01,0c-1.71-.57-3.27-1.41-4.65-2.51-2.7-2.12-4.08-4.61-4.37-5.42l-.08-.24c-.13-.26-.75-1.57-1.41-3.68-.41-1-.66-2.07-.88-3.23-.61-2.67-1.07-5.98-1-9.7,.01-1.44,.12-2.99,.37-4.63,.26-1.82,.66-3.67,1.21-5.52,.35-1.27,.7-2.32,.95-2.85,.01-.03,.02-.05,.02-.07h0c.08-.16,.15-.26,.21-.3l.19-.12,.43,.13,.1,.19c.1,.2,.05,.31-.07,.65-.29,.77-.55,1.55-.78,2.33-.44,1.51-.94,3.55-1.27,5.7-.21,1.5-.32,2.96-.35,4.36-.04,3.13,.36,5.73,.63,7.5,.12,.8,.24,1.55,.37,2.25,.25,1.1,.53,2.08,.8,2.93,0,.01,0,.02,.01,.03l.04,.1c.18,.44,.73,1.76,1.36,3.54,1.26,2.46,2.46,3.74,3.25,4.49,1.3,1.2,3.01,2.36,5.17,3.09,1.14,.04,2.08,.49,2.65,1.29,.08,.1,.15,.21,.21,.34,.27,.52,.37,1.1,.4,1.87,.04,.59,.03,1.24,0,1.91-.01,.5-.07,1.05-.16,1.77-.08,.7-.19,1.38-.3,2.01-.03,.17-.05,.34-.08,.52-.1,.61-.13,.79-.34,.92l-.19,.12Z"/><path d="M124.69,441.63s-.07,0-.1,0l-.22-.04-.26-.4,.1-.25c.19-.49,4.71-4.8,11.72-6.54,6.84-1.69,12.86-.11,13.23,.2l.2,.17-.04,.48-.18,.14c-.19,.14-.32,.12-.73,.05-3.79-.68-7.54-.63-11.16,.14-4.22,.91-8.23,2.82-11.92,5.69-.35,.27-.48,.37-.65,.37Z"/></g></g><rect class="cls-3" x="85.14" y="20.05" width="216.14" height="20.87"/><g><path class="cls-1" d="M52.53,50.01h20.52v7.08h-12.18v5.75h10.41v6.65h-10.41v13.45h-8.34V50.01Z"/><path class="cls-1" d="M77.63,82.94V50.01h13.83c2.56,0,4.53,.27,5.88,.81,1.36,.54,2.45,1.54,3.28,3,.83,1.46,1.25,3.24,1.25,5.33,0,1.83-.32,3.4-.95,4.73s-1.51,2.4-2.62,3.22c-.71,.52-1.68,.96-2.92,1.3,.99,.4,1.71,.81,2.16,1.21,.31,.27,.75,.85,1.33,1.73,.58,.88,.97,1.57,1.16,2.05l4.02,9.54h-9.38l-4.44-10.06c-.56-1.3-1.06-2.15-1.5-2.54-.6-.51-1.28-.76-2.03-.76h-.73v13.36h-8.34Zm8.34-19.59h3.5c.38,0,1.11-.15,2.2-.45,.55-.13,1-.48,1.35-1.03,.35-.55,.52-1.19,.52-1.91,0-1.06-.28-1.88-.82-2.45-.55-.57-1.58-.85-3.1-.85h-3.65v6.69Z"/><path class="cls-1" d="M102.38,50.01h9.22l5.41,11.11,5.42-11.11h9.17l-10.44,19.14v13.79h-8.32v-13.79l-10.46-19.14Z"/><path class="cls-1" d="M145.53,71.01v-6.85h12.83v14.04c-2.46,2.05-4.63,3.45-6.51,4.19-1.89,.74-4.12,1.11-6.71,1.11-3.19,0-5.79-.67-7.8-2-2.01-1.33-3.57-3.32-4.67-5.95-1.11-2.64-1.66-5.66-1.66-9.07,0-3.59,.6-6.72,1.81-9.38,1.21-2.66,2.98-4.68,5.31-6.05,1.82-1.06,4.27-1.59,7.35-1.59s5.19,.33,6.66,.99c1.47,.66,2.69,1.68,3.66,3.07,.97,1.39,1.7,3.14,2.19,5.27l-8.01,1.75c-.33-1.24-.89-2.19-1.68-2.85-.79-.66-1.79-.99-3.01-.99-1.82,0-3.27,.77-4.35,2.32s-1.62,4-1.62,7.36c0,3.56,.55,6.11,1.64,7.64s2.62,2.29,4.57,2.29c.93,0,1.81-.16,2.66-.49,.84-.33,1.81-.89,2.9-1.68v-3.1h-5.55Z"/><path class="cls-1" d="M161.4,50.01h25.23v8.13h-8.46v24.8h-8.3v-24.8h-8.46v-8.13Z"/><path class="cls-1" d="M190.36,50.01h22.24v7.03h-13.92v5.23h12.92v6.72h-12.92v6.49h14.33v7.46h-22.65V50.01Z"/><path class="cls-1" d="M217.53,50.01h7.75l10.11,18.22v-18.22h7.82v32.93h-7.82l-10.06-18.08v18.08h-7.81V50.01Z"/><path class="cls-1" d="M261.28,50.01h20.52v7.08h-12.18v5.75h10.41v6.65h-10.41v13.45h-8.34V50.01Z"/><path class="cls-1" d="M285.23,66.5c0-5.38,1.22-9.56,3.66-12.56,2.44-2.99,5.84-4.49,10.21-4.49s7.92,1.47,10.33,4.41c2.42,2.94,3.63,7.06,3.63,12.36,0,3.85-.53,7-1.58,9.47-1.06,2.46-2.58,4.38-4.58,5.75s-4.49,2.06-7.47,2.06-5.54-.59-7.52-1.77c-1.98-1.18-3.59-3.05-4.83-5.62-1.23-2.56-1.85-5.76-1.85-9.61Zm8.3,.04c0,3.32,.5,5.71,1.51,7.17,1.01,1.45,2.38,2.18,4.11,2.18s3.16-.71,4.14-2.13c.98-1.42,1.47-3.98,1.47-7.66,0-3.1-.51-5.36-1.53-6.79-1.02-1.43-2.4-2.15-4.15-2.15s-3.02,.73-4.03,2.18c-1.01,1.45-1.52,3.86-1.52,7.21Z"/><path class="cls-1" d="M317.64,82.94V50.01h13.83c2.56,0,4.53,.27,5.88,.81s2.45,1.54,3.28,3c.83,1.46,1.25,3.24,1.25,5.33,0,1.83-.32,3.4-.95,4.73s-1.51,2.4-2.62,3.22c-.71,.52-1.68,.96-2.91,1.3,.99,.4,1.71,.81,2.16,1.21,.31,.27,.75,.85,1.33,1.73,.58,.88,.97,1.57,1.16,2.05l4.02,9.54h-9.38l-4.44-10.06c-.56-1.3-1.06-2.15-1.5-2.54-.6-.51-1.28-.76-2.03-.76h-.73v13.36h-8.34Zm8.34-19.59h3.5c.38,0,1.11-.15,2.2-.45,.55-.13,1-.48,1.35-1.03,.35-.55,.52-1.19,.52-1.91,0-1.06-.28-1.88-.83-2.45-.55-.57-1.58-.85-3.1-.85h-3.65v6.69Z"/><path class="cls-1" d="M60.52,98.01h8.32v32.93h-8.32v-32.93Z"/><path class="cls-1" d="M74.82,98.01h8.3v12.44l8.69-12.44h11.04l-9.8,12.43,10.24,20.5h-10.22l-5.66-13.54-4.29,5.51v8.04h-8.3v-32.93Z"/><path class="cls-1" d="M106.08,98.01h8.3v12.44l8.69-12.44h11.04l-9.8,12.43,10.24,20.5h-10.22l-5.66-13.54-4.29,5.51v8.04h-8.3v-32.93Z"/><path class="cls-1" d="M137.28,98.01h22.24v7.03h-13.92v5.23h12.92v6.72h-12.92v6.49h14.33v7.46h-22.65v-32.93Z"/><path class="cls-1" d="M193.43,125.5h-9.42l-1.31,5.44h-8.47l10.1-32.93h9.05l10.09,32.93h-8.69l-1.34-5.44Zm-1.72-7.12l-2.96-11.84-2.93,11.84h5.9Z"/><path class="cls-1" d="M201.63,98.01h25.23v8.13h-8.46v24.8h-8.3v-24.8h-8.46v-8.13Z"/><path class="cls-1" d="M243.13,98.01h8.3v24.82h12.95v8.11h-21.25v-32.93Z"/><path class="cls-1" d="M268.14,98.01h22.24v7.03h-13.92v5.23h12.92v6.72h-12.92v6.49h14.33v7.46h-22.65v-32.93Z"/><path class="cls-1" d="M292.61,98.01h8.68l6.04,23.7,5.97-23.7h8.42l-9.97,32.93h-9l-10.14-32.93Z"/><path class="cls-1" d="M324.42,98.01h22.24v7.03h-13.92v5.23h12.92v6.72h-12.92v6.49h14.33v7.46h-22.65v-32.93Z"/></g><g><path class="cls-4" d="M94.11,25.89h1.4v7.21c0,2.87-1.41,3.75-3.26,3.75-.52,0-1.15-.11-1.49-.25l.2-1.14c.29,.11,.7,.21,1.18,.21,1.24,0,1.97-.57,1.97-2.68v-7.1Z"/><path class="cls-4" d="M99.22,25.89v6.39c0,2.41,1.07,3.43,2.52,3.43,1.59,0,2.62-1.06,2.62-3.43v-6.39h1.4v6.29c0,3.32-1.74,4.67-4.08,4.67-2.2,0-3.86-1.26-3.86-4.61v-6.36h1.4Z"/><path class="cls-4" d="M108.18,36.68v-10.79h1.53l3.46,5.45c.79,1.27,1.42,2.4,1.92,3.51l.04-.02c-.13-1.44-.15-2.76-.15-4.43v-4.52h1.31v10.79h-1.42l-3.43-5.47c-.74-1.21-1.47-2.44-2.01-3.61l-.05,.02c.08,1.37,.1,2.67,.1,4.45v4.61h-1.31Z"/><path class="cls-4" d="M127.93,31.18c0,3.7-2.26,5.68-5.01,5.68s-4.85-2.22-4.85-5.48,2.12-5.67,5-5.67,4.86,2.26,4.86,5.46Zm-8.38,.17c0,2.31,1.25,4.37,3.45,4.37s3.46-2.03,3.46-4.48c0-2.15-1.12-4.39-3.44-4.39s-3.47,2.14-3.47,4.5Z"/><path class="cls-4" d="M129.55,34.98c.62,.39,1.53,.7,2.49,.7,1.42,0,2.26-.74,2.26-1.84,0-1-.58-1.59-2.04-2.13-1.76-.62-2.85-1.55-2.85-3.06,0-1.68,1.4-2.93,3.5-2.93,1.1,0,1.91,.25,2.38,.52l-.39,1.14c-.34-.2-1.07-.51-2.04-.51-1.48,0-2.04,.88-2.04,1.61,0,1,.66,1.5,2.15,2.07,1.83,.72,2.75,1.6,2.75,3.18s-1.22,3.11-3.78,3.11c-1.04,0-2.18-.31-2.76-.7l.37-1.16Z"/><path class="cls-4" d="M141.01,26.04c.85-.14,1.87-.23,2.96-.23,2,0,3.43,.47,4.37,1.35,.96,.87,1.53,2.12,1.53,3.86s-.55,3.2-1.55,4.2c-1.02,1-2.69,1.56-4.78,1.56-1,0-1.83-.04-2.53-.12v-10.61Zm1.4,9.54c.35,.06,.87,.07,1.4,.07,2.99,0,4.59-1.66,4.59-4.57,.02-2.55-1.42-4.16-4.36-4.16-.72,0-1.26,.07-1.63,.14v8.52Z"/><path class="cls-4" d="M153.06,25.89v10.79h-1.4v-10.79h1.4Z"/><path class="cls-4" d="M155.31,34.98c.62,.39,1.53,.7,2.49,.7,1.42,0,2.26-.74,2.26-1.84,0-1-.58-1.59-2.04-2.13-1.76-.62-2.85-1.55-2.85-3.06,0-1.68,1.4-2.93,3.5-2.93,1.1,0,1.91,.25,2.38,.52l-.39,1.14c-.34-.2-1.07-.51-2.04-.51-1.48,0-2.04,.88-2.04,1.61,0,1,.66,1.5,2.15,2.07,1.83,.72,2.75,1.6,2.75,3.18s-1.22,3.11-3.78,3.11c-1.04,0-2.18-.31-2.76-.7l.37-1.16Z"/><path class="cls-4" d="M170.92,36.33c-.5,.25-1.54,.51-2.85,.51-3.04,0-5.32-1.92-5.32-5.46s2.28-5.66,5.63-5.66c1.33,0,2.19,.28,2.56,.47l-.34,1.13c-.52-.25-1.27-.44-2.17-.44-2.53,0-4.21,1.62-4.21,4.45,0,2.64,1.52,4.33,4.13,4.33,.86,0,1.72-.17,2.29-.44l.28,1.11Z"/><path class="cls-4" d="M172.66,26.02c.67-.12,1.55-.22,2.68-.22,1.37,0,2.38,.32,3.02,.9,.59,.52,.95,1.3,.95,2.26s-.29,1.75-.84,2.31c-.74,.79-1.94,1.18-3.3,1.18-.42,0-.81-.02-1.13-.1v4.33h-1.39v-10.66Zm1.39,5.2c.31,.09,.7,.12,1.16,.12,1.69,0,2.71-.83,2.71-2.3s-1.02-2.13-2.55-2.13c-.61,0-1.07,.06-1.32,.11v4.2Z"/><path class="cls-4" d="M181.17,25.89h1.4v9.61h4.61v1.18h-6.01v-10.79Z"/><path class="cls-4" d="M194.3,31.62h-4.18v3.9h4.68v1.16h-6.08v-10.79h5.83v1.16h-4.43v3.42h4.18v1.15Z"/><path class="cls-4" d="M199.98,26.02c.67-.12,1.55-.22,2.68-.22,1.37,0,2.38,.32,3.02,.9,.59,.52,.95,1.3,.95,2.26s-.29,1.75-.84,2.31c-.74,.79-1.94,1.18-3.3,1.18-.42,0-.81-.02-1.13-.1v4.33h-1.39v-10.66Zm1.39,5.2c.31,.09,.7,.12,1.16,.12,1.69,0,2.71-.83,2.71-2.3s-1.02-2.13-2.55-2.13c-.61,0-1.07,.06-1.32,.11v4.2Z"/><path class="cls-4" d="M208.5,26.04c.71-.14,1.72-.23,2.68-.23,1.48,0,2.45,.28,3.13,.89,.53,.47,.85,1.21,.85,2.05,0,1.42-.9,2.36-2.03,2.75v.04c.82,.29,1.32,1.07,1.58,2.18,.35,1.51,.61,2.54,.83,2.96h-1.45c-.17-.31-.41-1.23-.71-2.58-.32-1.48-.9-2.05-2.17-2.09h-1.32v4.68h-1.39v-10.64Zm1.39,4.91h1.42c1.49,0,2.44-.81,2.44-2.05,0-1.4-1.01-2.01-2.48-2.01-.68,0-1.14,.06-1.38,.12v3.94Z"/><path class="cls-4" d="M215.95,36.68l4.93-10.79h6.75v1.16h-4.58l.41,3.44h4.02v1.15h-3.85l.48,3.87h3.95v1.16h-5.15l-.48-3.8h-3.31l-1.73,3.8h-1.44Zm6.33-4.94l-.36-3.1c-.06-.51-.15-1.21-.19-1.75h-.06c-.19,.51-.45,1.13-.69,1.69l-1.4,3.16h2.7Z"/><path class="cls-4" d="M229.61,34.98c.62,.39,1.53,.7,2.49,.7,1.42,0,2.26-.74,2.26-1.84,0-1-.58-1.59-2.04-2.13-1.76-.62-2.85-1.55-2.85-3.06,0-1.68,1.4-2.93,3.5-2.93,1.1,0,1.91,.25,2.38,.52l-.39,1.14c-.34-.2-1.07-.51-2.04-.51-1.48,0-2.04,.88-2.04,1.61,0,1,.66,1.5,2.15,2.07,1.83,.72,2.75,1.6,2.75,3.18s-1.22,3.11-3.78,3.11c-1.04,0-2.18-.31-2.76-.7l.37-1.16Z"/><path class="cls-4" d="M243.26,31.62h-4.18v3.9h4.68v1.16h-6.08v-10.79h5.83v1.16h-4.43v3.42h4.18v1.15Z"/><path class="cls-4" d="M245.55,36.68v-10.79h1.53l3.46,5.45c.79,1.27,1.42,2.4,1.92,3.51l.04-.02c-.13-1.44-.15-2.76-.15-4.43v-4.52h1.31v10.79h-1.42l-3.43-5.47c-.74-1.21-1.47-2.44-2.01-3.61l-.05,.02c.08,1.37,.1,2.67,.1,4.45v4.61h-1.31Z"/><path class="cls-4" d="M258.14,27.07h-3.29v-1.18h7.99v1.18h-3.3v9.61h-1.4v-9.61Z"/><path class="cls-4" d="M269.61,31.62h-4.18v3.9h4.68v1.16h-6.08v-10.79h5.83v1.16h-4.43v3.42h4.18v1.15Z"/><path class="cls-4" d="M271.9,26.04c.71-.14,1.72-.23,2.68-.23,1.48,0,2.45,.28,3.13,.89,.53,.47,.85,1.21,.85,2.05,0,1.42-.9,2.36-2.03,2.75v.04c.82,.29,1.32,1.07,1.58,2.18,.35,1.51,.61,2.54,.83,2.96h-1.45c-.17-.31-.41-1.23-.71-2.58-.32-1.48-.9-2.05-2.17-2.09h-1.32v4.68h-1.39v-10.64Zm1.39,4.91h1.42c1.49,0,2.44-.81,2.44-2.05,0-1.4-1.01-2.01-2.48-2.01-.68,0-1.14,.06-1.38,.12v3.94Z"/><path class="cls-4" d="M286.09,31.62h-4.18v3.9h4.68v1.16h-6.08v-10.79h5.83v1.16h-4.43v3.42h4.18v1.15Z"/><path class="cls-4" d="M288.38,26.04c.71-.14,1.72-.23,2.68-.23,1.48,0,2.45,.28,3.13,.89,.53,.47,.85,1.21,.85,2.05,0,1.42-.9,2.36-2.03,2.75v.04c.82,.29,1.32,1.07,1.58,2.18,.35,1.51,.61,2.54,.83,2.96h-1.45c-.17-.31-.41-1.23-.71-2.58-.32-1.48-.9-2.05-2.17-2.09h-1.32v4.68h-1.39v-10.64Zm1.39,4.91h1.42c1.49,0,2.44-.81,2.44-2.05,0-1.4-1.01-2.01-2.48-2.01-.68,0-1.14,.06-1.38,.12v3.94Z"/></g></svg>