<?xml version="1.0" encoding="UTF-8"?><svg id="Layer_6" xmlns="http://www.w3.org/2000/svg" viewBox="0 0 395 516"><defs><style>.cls-1{letter-spacing:-.02em;}.cls-2{letter-spacing:0em;}.cls-3{fill:#f588cc;}.cls-3,.cls-4{stroke:#000;stroke-miterlimit:10;}.cls-5{letter-spacing:-.01em;}.cls-6{fill:#ffbf3e;font-family:AcuminConcept-Medium, 'Acumin Variable Concept';font-size:60px;font-variation-settings:'wght' 500, 'wdth' 100, 'slnt' 0;}.cls-4{fill:none;}</style></defs><rect class="cls-3" x="0" y=".14" width="395" height="515.71"/><g><path class="cls-4" d="M390.64,298.72c-2.82-1.14-6.35-3.04-9.41-6.36-6.3-6.82-6.82-15.51-6.82-15.51s.53,8.68,6.82,15.51c3.06,3.32,6.59,5.22,9.41,6.36Z"/><g><g><g><path class="cls-4" d="M322.92,193.69c-.53,.66-.59,1.54-.18,2.14,.59,.86,2.04,.94,2.67,.18,.45-.54,.41-1.4,0-1.96-.52-.7-1.61-.9-2.49-.36Z"/><g><g><path class="cls-4" d="M1.94,497.63c63.48-24.31,83.5-50.17,89.51-69.99,2.46-8.12,5.44-24.68,16.81-46.29,9.04-17.18,12.73-17.29,20.17-32.74,8.52-17.66,11.01-32.69,14.57-54.19,3.87-23.32,1.55-23.32,5.6-49.67,4.12-26.82,6.9-29.3,8.97-48.54,2.48-23.1-1.11-23.29,0-49.67,1.85-43.8,12.1-51.63,5.6-76.77-4.83-18.7-14.81-31-19.05-36.13C124.72,10.21,100.07,2.49,90.33,0H1.94V497.63Z"/><path class="cls-4" d="M267.41,0h129.53V478.44c-40.57-18.69-67.37-41.39-83.58-57.58-24.14-24.11-13.03-22.06-58.28-77.9-19.46-24-31.17-36.3-33.62-57.58-2.01-17.37,4.36-21.66,5.6-44.03,1.52-27.31-7.05-37.33-14.57-69.99-5.8-25.17-13.57-58.96-4.48-92.57,3.74-13.83,14.17-41.79,48.19-68.86L267.41,0Z"/><path class="cls-4" d="M267.41,0c-3.38,.09-8.11,.35-13.72,1.06-3.22,.41-13.02,1.65-20.03,4.06-15.15,5.2-23.95,18.1-28.13,24.23-8.37,12.28-10.65,23.54-13.56,36.6-3.22,14.44-3.42,26.68-3.34,62.57,.06,24.17,.99,33.37,1.25,47.03,.34,18-.55,39.41-9.17,92.39-9.55,58.74-15.02,61.12-21.68,112.55-5.05,38.99-4.46,57.54,.04,76.68,5.5,23.33,15.32,41.11,22.89,52.58l2.75,6.26h137.36c-21.46-24.38-42.92-48.77-64.38-73.15-6.19-5.99-14.8-15.7-21.39-29.55-5.64-11.85-7.32-21.51-10.39-41.25-4.42-28.44-8-42.75-8.56-58.49-.5-14.05-.78-23.74,2.13-36.47,2.11-9.24,4.36-13.39,6.13-23.14,2.32-12.76,1.7-23.57,.83-30.71-.54-3.77-1.5-9.42-3.23-16.17-2.91-11.4-5.65-16.67-8.7-26.52-1.8-5.81-4.03-14.24-5.52-24.92-3.05-11.18-6.41-28.47-5.03-49.57,.59-9.09,1.69-22.42,7.71-38.37,10.24-27.12,27.8-43.85,37.37-51.73L267.41,0Z"/></g><path class="cls-4" d="M68.62,174.76c-1.89-5.81,9.1-15.58,19.34-19.94,14.69-6.26,28.94-1.85,36.86,.6,9.36,2.9,17.11,5.3,21.75,12.69,3.51,5.59,3.55,12.19,3.63,25.38,.04,6.65-.41,15.59-1.81,15.71-1.59,.13-.66-11.46-8.46-19.94-6.19-6.73-14.94-8.28-19.34-9.06-9.75-1.73-12.26,1.16-24.77,1.21-5.88,.02-25,.1-27.19-6.65Z"/><path class="cls-4" d="M237.2,197.11c-.61-.06-1.45-11.35,2.42-24.17,2.62-8.67,6.4-14.78,7.9-17.07,0,0,.29-.44,.59-.87,7.63-11.03,48.82-29.36,48.82-29.36,21.19-9.38,23.26-12.1,29.89-10.73,12.64,2.61,23.51,16.31,21,21.6-1.14,2.39-5,3.03-8.66,3.11-10.04,1.51-18.14,3.68-24.01,5.53-5.72,1.81-9.96,3.14-15.55,5.7-4.75,2.17-7.7,3.83-13.39,5.81-2.39,.83-5.16,1.57-8.98,2.3-12.2,2.32-18.38,1.36-25.39,7.16-5.39,4.46-8.38,10.51-9.55,12.9-4.87,9.88-4.56,18.15-5.08,18.1Z"/><path class="cls-4" d="M116.67,237.83c1.76-3.9-7.21-12.06-14-16.67-19.82-13.44-47.35-11.31-48.67-6-.55,2.23,5.88,5.94,18.67,13.33,7.68,4.44,11.67,6.75,17.64,8.64,9.5,3.01,24.39,5.06,26.36,.7Z"/><path class="cls-4" d="M280,219.16c-2.2-3.42,5.9-14.12,15.33-20.67,11.94-8.29,24.41-8.78,33.29-9.13,1.57-.06,19.64-.68,20.63,3.76,.51,2.26-3.56,5.15-3.98,5.44-3.06,2.16-5.72,1.85-8.61,2.59-5.34,1.37-6.11,4.99-11.33,9.33-4.94,4.1-11.57,5.66-24.84,8.79-1.31,.31-6.83,1.57-14.02,1.26-3.83-.17-5.76-.27-6.47-1.38Z"/><path class="cls-4" d="M130.88,231.44c-.2,.05-.61-12.27-8.1-22.09-9.54-12.5-24.06-15.12-28.94-16-12.76-2.31-23.22,.82-27.79,2.69-4.75,1.94-8.91,4.89-9.2,5.1-3.78,2.7-6.5,5.7-6.4,5.81,.15,.17,5.79-6.77,15.61-10.92,5.2-2.2,9.59-2.78,12.34-3.12,3.02-.38,11.22-1.13,21.21,1.68,3.46,.97,7.88,2.22,12.9,5.48,10.13,6.59,14.41,16.05,15.92,20.05,2.25,5.95,2.69,11.25,2.46,11.31Z"/><path class="cls-4" d="M348.84,178.69c-.08,.16-8.87-5.84-21.76-8.37-5.45-1.07-12.47-2.37-21.35-.63-9.96,1.96-16.6,6.65-20.72,9.63-3.92,2.84-10.86,7.96-15.49,16.95-1.45,2.81-2.36,5.39-2.89,7.11-2.47,8.01-2.21,15.05-1.93,15.07,.35,.03-.95-10.87,4.81-22.18,4.57-8.97,11.47-14,15.49-16.95,3.74-2.75,12.33-8.89,24.45-10.2,4.04-.43,7.39-.21,9.54-.06,2.11,.15,9.21,.75,17.97,3.95,6.86,2.5,11.93,5.56,11.87,5.68Z"/><path class="cls-4" d="M294.07,203.12c-.65,4.59,4.12,8.67,6.95,10.33,5.2,3.05,10.61,1.87,12.64,1.42,2.06-.45,8.52-1.86,11.93-7.66,3.5-5.96,2.8-14.86-1.37-17.3-1.47-.86-3.75-.41-8.24,.5-4.29,.87-8.35,1.7-13.04,4.37-4.84,2.76-8.36,4.76-8.86,8.33Z"/><path class="cls-4" d="M310.28,196.54c-.46,.08-2.29,.37-3.21,1.96-.95,1.65-.32,3.65,.53,4.81,1.3,1.76,4.1,2.92,6.23,1.6,2.33-1.44,2.53-5.02,.89-6.94-1.58-1.85-4.26-1.46-4.45-1.42Z"/><path class="cls-4" d="M317.05,197.43c-.6,.83,.36,2.82,1.42,2.85,.95,.03,2.05-1.51,1.6-2.49-.47-1.02-2.47-1.12-3.03-.36Z"/><path class="cls-4" d="M88.84,216.59c-1.42-1.66-3.61-2.27-5.39-1.57-2.37,.93-2.97,3.75-2.7,5.62,.31,2.11,1.95,4.53,4.49,4.72,3.31,.24,5.51-3.51,5.17-4.04-.18-.28-1.03,.36-1.82-.08-.99-.55-1.63-2.62-.57-3.83,.66-.75,1.89-1.17,2.85-.65,1.14,.62,1.28,2.23,.81,3.26-.34,.77-.99,1.16-1.27,1.31"/><path class="cls-4" d="M75.76,212.18c-1.45,.26-2.32,.85-2.82,1.3-2.82,2.53-1.72,7.51-1.41,8.91,.17,.76,.59,2.35,1.63,4.13,1.69,2.88,3.94,4.4,5.29,5.29,1.9,1.25,5.47,3.61,10.35,3.29,1.04-.07,3.81-.28,6.63-2.17,.58-.39,3.65-2.52,5-6.63,.39-1.2,1.55-4.74-.12-6.64-.26-.3-1.08-.71-2.69-1.51-1.77-.88-2.66-1.32-3.92-1.87-.78-.34-2.81-1.19-5.55-2.08-.83-.27-2.47-.7-5.77-1.56-1.51-.4-2.48-.64-3.85-.68-1.16-.03-2.12,.1-2.76,.22Z"/><path class="cls-4" d="M91.76,214.47c.26-.86,4.27-.04,7.37,0,9.58,.13,17.63-6.98,17.43-7.37-.26-.5-16.47,5.75-15.87,9.61,.39,2.47,7.59,3.46,10.06,3.8,6.03,.83,11.17-.03,11.17,0,0,.05-14.12,.47-14.3,2.46-.16,1.68,9.66,4.11,14.97,5.14,4.73,.92,10.28,1.57,10.28,1.56,0-.01-13.72-3.42-15.42,0-1,2.01,2.37,5.97,5.36,8.27,9.03,6.95,20.93,3.8,21.01,4.69,.08,.91-12.41,3.26-21.23,0-1.6-.59-5.26-1.99-5.93-4.79-.23-.98,.09-1.33-.03-2.5-.25-2.51-2.09-4.22-4.58-6.42-4.64-4.1-6.97-6.15-7.96-6.74-2.42-1.43-5.36-2.7-10.42-5.9-.97-.61-2.08-1.33-1.93-1.81Z"/><path class="cls-4" d="M276.48,224.09c-3.13,3.85-2.22,8.87-1.92,8.91,.24,.03,.04-3.17,2.23-6.74,2.63-4.27,6.71-5.83,8.1-5.79,.03,0,.54,0,1.56,.06,.45,.03,1.05,.05,1.89,.07,1.48,.02,2.23,.03,2.9-.04,.96-.11,1.29-.25,1.39-.1,.32,.46-2.16,2.57-4,4.47-4.37,4.49-6.78,9.62-6.4,9.9,.29,.22,2.49-2.22,4.29-4.22,2.51-2.78,5.09-5.5,7.57-8.3,.71-.8,1.74-1.97,3.46-2.43,1.04-.28,2.97-.46,3.44,.33,1.27,2.12-8.09,9.68-7.75,10.07,.26,.3,7.05-2.78,8.21-7.93,.24-1.06,.41-2.97,1.75-3.69,.67-.36,1.63-.42,2.76-.49,1.49-.09,1.7-.12,1.85,.03,.46,.43,.05,1.25-.11,3.2-.09,1.09-.12,2.66,.11,2.71,.37,.07,.33-4.08,3.1-6.37,.41-.34,1.49-.89,3.66-2,.78-.4,1.32-.66,2.06-.66,.77,0,2.07,.24,2.45,1.03,.79,1.63-2.81,4.64-2.59,4.85,.14,.13,1.88-.84,2.62-2.75,.35-.89,.84-2.92-.06-3.76-1.05-.98-3.25,.77-8.88,2.53-2.24,.7-4.15,1.11-7.98,1.94-2.64,.57-3.96,.86-5.57,1.09-4.5,.65-8.3,.63-9.04,.62-3.5-.04-3.76-.36-5.33,0-.79,.19-3.67,.9-5.78,3.49Z"/></g><path class="cls-4" d="M273.46,213.45c.07-.13,.26-.52,.55-1.01,0,0,0,0,0,0,.02-.04,1.35-2.41,3-4.73,3.62-5.08,8.14-9.04,8.14-9.04,6.71-5.89,13.78-8.56,18.56-10.31,1.57-.58,8.85-3.19,18.77-4.18,5.19-.52,8.55-.96,13.2-.29,5.69,.83,10.06,3.09,10.07,3.07,0-.02-3.24-1.64-7.65-2.64-5.54-1.25-9.81-.8-15.61-.14-3.91,.44-9.5,1.11-16.6,3.43-4.16,1.37-10.65,3.57-17.78,8.68-7.18,5.14-11.94,11.83-14.09,16.15-.26,.52-1.72,3.49-1.73,3.48-.01,0,.9-1.89,1.18-2.47Z"/></g><path class="cls-4" d="M28.03,319c.77-.57,1.4-1.12,2.65-2.24,3.17-2.83,4.88-4.17,5.71-5.71,1.87-3.47,1.47-7,1.27-8.97-.89-8.75-.14-17.6-.9-26.36,0,0-.46-5.28-1.39-19.23-1.79-26.8-2.91-43.7,6.22-58.12,6.19-9.78,15.21-15.45,15.14-15.53-.07-.07-8.11,4.98-13.43,12.82-10.39,15.32-9.66,33.58-7.92,60.83,.65,10.21,1.17,20.44,1.78,30.65,.26,4.34-.19,8.72,.34,13.04,.38,3.08,.93,5.78-.3,8.98-.42,1.11-1.22,2.69-3.52,5.04-5.92,6.04-12.83,8.02-12.74,8.22,.06,.14,3.52-.8,7.1-3.43Z"/><path class="cls-4" d="M11.83,314.08c-.98-3.33-2.79-3.76-2.5-5.91,.35-2.61,3.36-4.38,5.46-5,2.11-.63,5.96-.89,7.96,1.59,1.97,2.44,1.04,6.19,0,8.18-1.55,2.98-3.83,3-4.55,5.91-.56,2.26,.51,3.52-.45,4.55-1.08,1.15-3.9,1.14-5.23-.23-1.79-1.83,.67-4.49-.68-9.09Z"/></g><path class="cls-4" d="M358.42,151.05c.1-.14,8.93,4.68,16.64,14.1,.98,1.2,2.44,2.99,4.03,5.59,5.63,9.18,6.74,18.17,6.38,18.28-.42,.12-1.43-12.18-10.41-23.87-7.58-9.88-16.74-13.96-16.64-14.1Z"/><path class="cls-4" d="M1.94,407.34c6.11-4.28,8.79-9.12,7.53-11.33-1.31-2.29-6.7-1.56-7.53-1.44v12.78Z"/><path class="cls-4" d="M1.94,391.85c.44,.24,4.05,2.11,7.5,.38,2.51-1.26,3.45-3.68,3.65-4.26,1.54-4.48-1.49-9.23-4.66-14.2-1.3-2.03-3.38-4.95-6.48-8.11v26.18Z"/><path class="cls-4" d="M91.37,0h67.93c3.76,.56,9,1.94,13.76,5.68,4.77,3.75,11.47,11.8,12.06,36.82,.66,27.75-7.2,34.02-10.16,68.15-1.09,12.52-.98,22.64-.85,34.92,.28,26.29,2.43,33.45,1.27,50.16-1.08,15.47-3.97,24.48-7.83,39.79-5.32,21.12-3.6,19.08-14.81,79.36-16.35,87.92-17.95,81.25-19.47,100.95-1.79,23.28-1.45,57.3,9.78,99.8H9.77l-8.49,.08,.65-18.08"/></g></g><text class="cls-6" transform="translate(102.12 48.12)"><tspan class="cls-2" x="0" y="0">G</tspan><tspan x="44.4" y="0">O </tspan><tspan class="cls-2" x="104.7" y="0">G</tspan><tspan x="149.1" y="0">O </tspan><tspan class="cls-1" x="-49.35" y="48">Y</tspan><tspan x="-14.97" y="48">O - </tspan><tspan class="cls-1" x="83.13" y="48">Y</tspan><tspan x="117.51" y="48">O</tspan><tspan class="cls-5" x="162.75" y="48">K</tspan><tspan x="200.67" y="48">U </tspan></text></svg>