<?xml version="1.0" encoding="UTF-8"?><svg id="Layer_7" xmlns="http://www.w3.org/2000/svg" viewBox="0 0 395 516"><defs><style>.cls-1{fill:#f47f27;}.cls-2{fill:#fff;}.cls-3{fill:#e6c9a2;}.cls-4{fill:#240000;}</style></defs><rect class="cls-3" x="-1.63" y="-.06" width="396.37" height="516.11"/><path d="M28.67,183.45L11.35,35.72l105.34-9.27,12.88,145.67-100.9,11.33ZM12.46,36.63L29.55,182.35l98.94-11.11L115.78,27.54,12.46,36.63Z"/><path d="M278.94,360.34l-19.35-154.04,.51-.05,111.06-10.64,14.63,151.92-.48,.06-106.37,12.74Zm-18.23-153.14l19.1,152.03,104.9-12.57-14.44-149.96-109.56,10.5Z"/><path d="M117.94,343.7l-.49-.04-103.18-7.6,7.48-125.79,.51,.05,107.29,10.05-11.61,123.33Zm-102.62-8.56l101.71,7.49,11.43-121.36-105.78-9.91-7.36,123.77Z"/><path d="M361.07,178.04l-.49-.03-100.87-6.01,.03-.5,8.23-148.01,105.38,8.83-12.28,145.72Zm-100.31-6.98l99.39,5.92,12.11-143.75-103.36-8.66-8.15,146.49Z"/><path d="M144.68,148.36l-4.35-118.63h108.43v116.69h-.49s-103.58,1.95-103.58,1.95Zm-3.32-117.63l4.28,116.62,102.11-1.91V30.72h-106.39Z"/><path d="M23.5,489l-4.21-120.17H124.23v118.2l-100.73,1.97Zm-3.18-119.17l4.14,118.15,98.76-1.93v-116.21H20.32Z"/><path d="M148.69,496.98l-.02-.49-4.23-127.66h105.75v126.05h-.49s-101.02,2.1-101.02,2.1Zm-3.21-127.15l4.18,126.13,99.54-2.06v-124.07h-103.72Z"/><path d="M280.83,488.64l-3.54-107.18h88.21v105.42h-.49s-84.18,1.76-84.18,1.76Zm-2.5-106.18l3.47,105.16,82.71-1.72v-103.44h-86.18Z"/><rect class="cls-3" y="280.26" width="395" height="83.52"/><g><path class="cls-4" d="M146.72,153.44c-6.44-6.18-2.08-20.14,1.79-27.28,1.01-1.85,9.11-16.31,22.73-17.99,6.04-.75,11.14,1.26,12.56-1.16,.9-1.53-.6-4.31-3.59-9.87-2.72-5.05-3.9-6.01-4.79-9.29-.71-2.63-.3-3.3-.6-7.55-.57-8.25-2.31-8.51-2.39-14.51-.03-2.14-.04-6.89,2.39-12.19,1.15-2.5,2.66-5.79,5.98-8.2,6.03-4.38,15.33-3.92,21.54,0,6.58,4.15,8.61,11.53,8.97,12.85,1.13,4.1,.31,6.12,2.39,11.61,1.03,2.72,1.78,3.65,1.79,5.8,.03,3.05-1.43,4.05-2.39,8.13-.96,4.08,.26,4.12-.6,6.97-1.71,5.69-7.04,7.01-6.58,9.87,.32,1.96,3.12,3.05,5.98,4.06,11.79,4.19,15.78,4.12,19.74,5.8,10.23,4.34,13.51,17.43,14.96,23.22,1.88,7.5,3.78,23.45-3.56,27.52-3.77,2.09-6.94-.63-17.38-3.15-10.53-2.54-18.54-2.46-33.5-2.32-9.87,.09-15.02,.85-29.31,.58-11.12-.21-13.94-.78-16.15-2.9Z"/><path d="M240.23,162.48c-1.71,0-3.63-.62-6.29-1.48-2.16-.7-4.86-1.58-8.37-2.42-10.47-2.52-18.6-2.45-33.37-2.31-3.74,.04-6.75,.16-9.94,.3-5.17,.22-10.51,.45-19.4,.28-11.05-.21-14.13-.78-16.49-3.04h0c-6.48-6.22-2.53-20.08,1.7-27.88,1.49-2.75,9.63-16.58,23.11-18.25,2.47-.31,4.73-.16,6.73-.04,2.77,.18,4.76,.3,5.46-.88,.76-1.28-.79-4.16-3.6-9.37-.96-1.79-1.74-3.07-2.36-4.1-1.17-1.94-1.88-3.11-2.47-5.29-.46-1.7-.47-2.66-.49-4.1,0-.87-.02-1.96-.13-3.54-.29-4.16-.88-6.26-1.4-8.11-.51-1.84-.96-3.42-1-6.42-.02-1.89-.09-6.89,2.44-12.41,1.15-2.49,2.71-5.91,6.14-8.4,5.87-4.26,15.37-4.27,22.1-.02,5.87,3.71,8.28,9.82,9.19,13.14,.47,1.7,.61,3.08,.75,4.41,.2,1.94,.41,3.95,1.63,7.15,.28,.74,.54,1.35,.77,1.89,.63,1.46,1.04,2.43,1.05,4.09,.02,1.83-.48,2.98-1.06,4.33-.44,1.02-.94,2.18-1.35,3.92-.48,2.05-.39,3.04-.32,3.9,.08,.84,.15,1.64-.29,3.09-.94,3.13-2.91,4.97-4.48,6.44-1.44,1.35-2.25,2.16-2.08,3.2,.26,1.63,2.83,2.67,5.66,3.67,6.79,2.41,11,3.41,14.07,4.14,2.31,.55,3.98,.95,5.7,1.67,10.46,4.44,13.81,17.83,15.25,23.56,.46,1.85,1.95,8.4,1.69,15.19-.26,6.67-2.1,11.01-5.5,12.9-1.03,.57-2.01,.81-3.07,.81Zm-39.52-7.27c9.85,0,16.71,.38,25.09,2.39,3.55,.86,6.27,1.74,8.45,2.44,4.17,1.35,6.26,2.03,8.57,.75,7-3.89,5.23-19.34,3.32-26.96-1.4-5.58-4.67-18.64-14.67-22.88-1.63-.69-3.27-1.08-5.54-1.62-3.1-.74-7.34-1.74-14.18-4.17-2.64-.94-5.93-2.11-6.31-4.45-.26-1.61,.97-2.76,2.39-4.09,1.49-1.4,3.34-3.13,4.21-6,.38-1.26,.32-1.9,.25-2.71-.08-.94-.18-2.01,.34-4.22,.43-1.82,.94-3.02,1.4-4.08,.58-1.34,.99-2.31,.98-3.92-.01-1.46-.37-2.31-.97-3.7-.23-.55-.5-1.17-.79-1.93-1.26-3.32-1.48-5.4-1.69-7.41-.14-1.35-.27-2.63-.72-4.25-.7-2.56-2.97-8.9-8.76-12.56-6.4-4.04-15.42-4.05-20.98-.02-3.22,2.34-4.66,5.48-5.82,8.01-2.44,5.31-2.37,10.15-2.35,11.98,.04,2.87,.47,4.4,.96,6.17,.53,1.9,1.14,4.05,1.43,8.31,.11,1.61,.12,2.72,.13,3.6,.01,1.46,.02,2.27,.45,3.85,.56,2.05,1.24,3.17,2.36,5.04,.63,1.04,1.41,2.34,2.38,4.14,3.17,5.9,4.62,8.59,3.58,10.36-1.01,1.71-3.38,1.57-6.39,1.37-1.95-.12-4.17-.26-6.55,.03-12.99,1.61-20.9,15.06-22.35,17.74-4.09,7.53-7.96,20.85-1.89,26.68h0c2,1.92,4.44,2.55,15.82,2.76,8.86,.17,14.18-.06,19.33-.28,3.2-.14,6.21-.27,9.96-.3,3.11-.03,5.93-.06,8.54-.06Z"/></g><path d="M235.88,287.13c-1.49,0-3.16-.53-5.47-1.27-1.87-.6-4.21-1.34-7.25-2.06-9.07-2.14-16.12-2.08-28.92-1.96-3.24,.03-5.85,.14-8.61,.25-4.48,.19-9.1,.38-16.81,.24-9.59-.18-12.27-.66-14.33-2.6h0c-5.65-5.32-2.22-17.14,1.46-23.8,1.3-2.35,8.37-14.13,20.08-15.55,2.14-.26,4.11-.14,5.85-.03,2.29,.14,4.09,.26,4.67-.72,.63-1.05-.7-3.48-3.12-7.89-.83-1.51-1.5-2.61-2.04-3.48-1.02-1.66-1.63-2.66-2.15-4.52-.4-1.46-.41-2.27-.42-3.51,0-.74-.02-1.66-.11-3-.25-3.53-.76-5.31-1.21-6.88-.45-1.57-.83-2.92-.87-5.48-.02-1.61-.08-5.88,2.12-10.58,.99-2.13,2.36-5.04,5.35-7.17,5.1-3.63,13.37-3.64,19.22-.02,5.11,3.16,7.2,8.38,8,11.21,.41,1.45,.53,2.63,.65,3.76,.17,1.65,.35,3.35,1.41,6.06,.24,.63,.47,1.15,.67,1.6,.53,1.21,.91,2.08,.92,3.51,.01,1.57-.42,2.56-.93,3.71-.38,.87-.81,1.85-1.16,3.32-.41,1.73-.34,2.56-.27,3.29,.07,.73,.13,1.41-.25,2.66-.82,2.68-2.53,4.25-3.91,5.51-1.23,1.13-1.92,1.81-1.78,2.65,.22,1.34,2.42,2.21,4.86,3.06,5.88,2.05,9.53,2.9,12.19,3.52,2.01,.47,3.46,.81,4.95,1.42,9.1,3.79,12.01,15.2,13.25,20.08,1.72,6.72,3.23,20.38-3.33,23.96-.9,.49-1.76,.7-2.69,.7Zm-34.24-6.33c8.53,0,14.48,.32,21.75,2.03,3.08,.73,5.43,1.48,7.32,2.08,3.6,1.15,5.41,1.72,7.38,.64,6.02-3.28,4.49-16.37,2.84-22.83-1.21-4.73-4.04-15.81-12.67-19.4-1.41-.59-2.83-.92-4.79-1.38-2.69-.62-6.36-1.48-12.29-3.55-2.31-.8-5.18-1.8-5.51-3.84-.23-1.41,.84-2.4,2.09-3.55,1.29-1.18,2.88-2.65,3.63-5.07,.33-1.06,.28-1.6,.21-2.28-.07-.77-.16-1.72,.3-3.61,.37-1.55,.82-2.58,1.22-3.49,.5-1.13,.85-1.95,.84-3.3-.01-1.23-.32-1.94-.84-3.12-.2-.46-.43-.99-.68-1.64-1.1-2.84-1.29-4.61-1.47-6.32-.12-1.14-.24-2.23-.62-3.6-.61-2.17-2.56-7.54-7.56-10.63-5.53-3.42-13.32-3.43-18.11-.02-2.78,1.98-4.02,4.64-5.02,6.78-2.1,4.49-2.05,8.6-2.03,10.14,.03,2.43,.4,3.72,.83,5.22,.46,1.62,.99,3.45,1.24,7.08,.1,1.37,.11,2.31,.11,3.07,.01,1.24,.02,1.92,.39,3.25,.48,1.73,1.06,2.68,2.04,4.26,.55,.89,1.22,1.99,2.07,3.53,2.77,5.04,4.03,7.34,3.1,8.89-.9,1.49-2.97,1.36-5.59,1.2-1.69-.11-3.61-.22-5.66,.02-11.23,1.36-18.07,12.77-19.33,15.04-3.53,6.38-6.88,17.66-1.65,22.58h0c1.72,1.62,3.83,2.15,13.67,2.33,7.67,.14,12.29-.05,16.75-.24,2.77-.12,5.39-.23,8.64-.26,2.7-.02,5.15-.05,7.41-.05Z"/><g><path class="cls-4" d="M30.45,191.9c-7.22-5.87-4.01-20.85-.67-28.66,.87-2.03,7.9-17.86,21.82-20.86,6.17-1.33,11.62,.31,12.87-2.35,.79-1.68-1.02-4.44-4.62-9.98-3.27-5.03-4.58-5.92-5.8-9.27-.98-2.68-.62-3.42-1.32-7.83-1.35-8.56-3.18-8.68-3.81-14.94-.23-2.23-.68-7.19,1.35-12.95,.95-2.72,2.21-6.29,5.42-9.11,5.83-5.12,15.48-5.49,22.25-1.96,7.18,3.74,9.96,11.26,10.46,12.6,1.55,4.18,.88,6.37,3.54,11.91,1.32,2.75,2.17,3.65,2.39,5.9,.31,3.18-1.11,4.36-1.72,8.71-.61,4.35,.65,4.29,.03,7.33-1.24,6.1-6.63,7.97-5.89,10.91,.51,2.02,3.51,2.9,6.56,3.7,12.57,3.3,16.68,2.87,20.93,4.27,10.97,3.6,15.56,16.98,17.6,22.89,2.63,7.67,6.07,24.15-1.14,29.07-3.7,2.53-7.23-.03-18.24-1.71-11.12-1.69-19.38-.89-34.83,.62-10.19,.99-15.44,2.25-30.23,3.27-11.51,.79-14.48,.45-16.96-1.56Z"/><path d="M38.68,194.35c-4.7,0-6.76-.61-8.55-2.07-7.26-5.9-4.46-20.72-.81-29.24,1.29-3.01,8.42-18.19,22.18-21.15,2.52-.54,4.87-.6,6.95-.65,2.88-.07,4.96-.12,5.58-1.43,.67-1.42-1.2-4.29-4.58-9.49-1.16-1.78-2.08-3.05-2.82-4.08-1.39-1.92-2.23-3.08-3.04-5.3-.63-1.73-.73-2.67-.88-4.23-.09-.91-.2-2.04-.46-3.69-.68-4.32-1.49-6.46-2.19-8.35-.7-1.87-1.31-3.49-1.62-6.61-.2-1.97-.73-7.19,1.37-13.17,.95-2.71,2.25-6.41,5.56-9.32,5.66-4.98,15.47-5.85,22.81-2.03,6.4,3.33,9.45,9.5,10.7,12.87,.64,1.73,.92,3.16,1.18,4.53,.39,2.01,.79,4.09,2.35,7.33,.36,.75,.69,1.36,.97,1.9,.78,1.47,1.3,2.44,1.46,4.17,.18,1.9-.22,3.15-.69,4.6-.36,1.11-.77,2.37-1.03,4.22-.31,2.19-.13,3.21,.03,4.12,.16,.87,.3,1.7-.01,3.24-.68,3.35-2.54,5.44-4.03,7.13-1.25,1.41-2.15,2.42-1.86,3.56,.43,1.69,3.18,2.54,6.2,3.34,7.24,1.9,11.68,2.56,14.92,3.05,2.44,.36,4.2,.63,6.04,1.23,11.2,3.68,15.91,17.36,17.91,23.21,2.77,8.05,6.05,24.6-1.33,29.65-2.63,1.8-5.15,1.21-9.73,.14-2.3-.54-5.16-1.2-8.87-1.77-11.06-1.68-19.46-.86-34.7,.62-3.85,.38-6.95,.78-10.23,1.22-5.32,.7-10.81,1.42-20.02,2.06-3.69,.25-6.52,.39-8.76,.39Zm29.47-122.2c-4.55,0-9,1.42-12.12,4.17-3.11,2.74-4.32,6.16-5.28,8.9-2.03,5.77-1.51,10.83-1.32,12.73,.3,3,.89,4.56,1.56,6.36,.72,1.94,1.55,4.13,2.24,8.55,.26,1.67,.38,2.83,.47,3.75,.15,1.48,.23,2.37,.82,3.99,.76,2.09,1.57,3.21,2.91,5.05,.75,1.03,1.67,2.31,2.84,4.11,3.82,5.86,5.56,8.54,4.65,10.47-.88,1.87-3.34,1.93-6.46,2-2.03,.05-4.33,.1-6.76,.63-13.28,2.86-20.21,17.64-21.47,20.57-3.53,8.25-6.3,22.53,.52,28.07h0c2.24,1.82,4.83,2.26,16.61,1.45,9.17-.63,14.65-1.35,19.95-2.05,3.29-.43,6.39-.84,10.26-1.22,15.33-1.49,23.77-2.32,34.95-.62,3.75,.57,6.63,1.24,8.95,1.78,4.44,1.04,6.67,1.56,8.93,0,6.88-4.7,3.63-20.7,.95-28.5-1.96-5.7-6.55-19.05-17.28-22.58-1.75-.58-3.48-.83-5.87-1.19-3.27-.49-7.74-1.15-15.03-3.07-3.45-.91-6.35-1.84-6.91-4.06-.41-1.64,.74-2.95,2.08-4.46,1.41-1.6,3.17-3.58,3.8-6.66,.28-1.36,.16-2.03,0-2.87-.17-.98-.37-2.08-.04-4.43,.27-1.94,.7-3.24,1.07-4.39,.45-1.4,.81-2.51,.65-4.2-.15-1.53-.6-2.38-1.35-3.79-.29-.55-.62-1.17-.99-1.94-1.61-3.35-2.03-5.5-2.43-7.58-.27-1.4-.53-2.72-1.14-4.38-.97-2.61-3.89-9.04-10.22-12.33-2.93-1.53-6.28-2.27-9.57-2.27Z"/></g><g><path class="cls-4" d="M18.77,321.15c-5.44-5.87-.29-17.51,3.87-23.31,1.08-1.51,9.72-13.24,22.43-13.51,5.63-.12,10.17,2.05,11.68,.09,.95-1.24-.2-3.76-2.51-8.8-2.1-4.58-3.11-5.51-3.66-8.4-.45-2.32-.01-2.87,.06-6.54,.14-7.14-1.45-7.52-1.03-12.69,.15-1.84,.52-5.93,3.19-10.28,1.26-2.05,2.92-4.75,6.18-6.54,5.92-3.24,14.46-2.05,19.87,1.86,5.73,4.14,7.01,10.66,7.24,11.83,.71,3.63-.21,5.29,1.27,10.19,.73,2.43,1.34,3.29,1.19,5.15-.22,2.63-1.65,3.36-2.87,6.78-1.21,3.43-.1,3.57-1.12,5.94-2.04,4.75-7.07,5.43-6.87,7.92,.13,1.72,2.63,2.89,5.19,4.01,10.54,4.62,14.22,4.91,17.74,6.7,9.08,4.62,11.05,16.16,11.92,21.26,1.13,6.62,1.59,20.5-5.52,23.37-3.65,1.48-6.35-1.14-15.78-4.21-9.51-3.09-16.9-3.72-30.72-4.89-9.11-.77-13.92-.57-27.09-2.03-10.24-1.14-12.8-1.88-14.67-3.89Z"/><path d="M104.92,337.1c-1.75,0-3.6-.75-6.29-1.85-1.94-.79-4.35-1.77-7.53-2.81-9.46-3.07-16.97-3.71-30.6-4.87-3.45-.29-6.23-.44-9.18-.6-4.78-.26-9.73-.52-17.92-1.43-10.18-1.13-12.98-1.89-14.98-4.05-5.51-5.94-.73-17.58,3.82-23.94,1.61-2.24,10.25-13.45,22.83-13.72,2.3-.04,4.38,.27,6.21,.55,2.44,.37,4.36,.67,5.08-.27,.77-1-.49-3.74-2.57-8.29-.74-1.62-1.35-2.79-1.84-3.73-.93-1.78-1.49-2.85-1.86-4.79-.29-1.52-.22-2.34-.12-3.59,.06-.75,.14-1.68,.17-3.05,.07-3.59-.3-5.44-.63-7.08-.33-1.63-.61-3.04-.4-5.64,.13-1.63,.48-5.96,3.27-10.5,1.26-2.05,2.99-4.86,6.37-6.72,5.76-3.16,14.53-2.35,20.4,1.89,5.13,3.7,6.86,9.19,7.44,12.13,.3,1.51,.32,2.71,.34,3.88,.03,1.68,.06,3.42,.92,6.27,.2,.66,.39,1.21,.56,1.69,.45,1.28,.77,2.2,.65,3.65-.14,1.59-.69,2.56-1.34,3.67-.49,.84-1.04,1.79-1.55,3.24-.6,1.71-.6,2.55-.6,3.3,0,.74,0,1.44-.53,2.67-1.13,2.63-3.1,4.05-4.68,5.19-1.42,1.02-2.22,1.64-2.15,2.5,.12,1.5,2.88,2.71,4.89,3.59,6.07,2.66,9.87,3.88,12.65,4.78,2.09,.67,3.6,1.16,5.12,1.93,9.31,4.73,11.32,16.57,12.18,21.63,1.19,6.98,1.5,20.96-5.82,23.92-.79,.32-1.53,.46-2.3,.46Zm-59.38-52.28c-.15,0-.3,0-.45,0-12.09,.26-20.48,11.13-22.03,13.3-4.36,6.1-9,17.18-3.9,22.68h0c1.68,1.82,3.88,2.57,14.35,3.74,8.16,.91,13.09,1.17,17.86,1.43,2.96,.16,5.75,.31,9.21,.6,13.71,1.16,21.26,1.8,30.83,4.91,3.21,1.04,5.64,2.04,7.59,2.83,3.74,1.52,5.61,2.29,7.84,1.39,6.73-2.72,6.35-16.12,5.21-22.82-.84-4.91-2.79-16.4-11.65-20.9-1.45-.74-2.93-1.21-4.98-1.87-2.8-.9-6.63-2.13-12.74-4.81-2.91-1.28-5.34-2.49-5.49-4.43-.11-1.46,1.13-2.35,2.56-3.39,1.48-1.07,3.33-2.39,4.35-4.77,.45-1.04,.45-1.58,.44-2.28,0-.79,0-1.76,.66-3.63,.54-1.54,1.12-2.53,1.63-3.41,.63-1.09,1.09-1.88,1.21-3.25,.11-1.24-.16-1.99-.59-3.23-.17-.49-.37-1.05-.57-1.73-.9-2.98-.93-4.79-.96-6.54-.02-1.17-.04-2.28-.32-3.7-.55-2.8-2.19-8.01-7.04-11.52-5.57-4.03-13.89-4.81-19.33-1.83-3.15,1.73-4.73,4.3-6,6.36-2.67,4.34-3,8.49-3.12,10.06-.2,2.46,.07,3.8,.39,5.36,.34,1.69,.72,3.6,.65,7.3-.03,1.4-.11,2.35-.17,3.12-.1,1.25-.16,1.94,.1,3.32,.34,1.79,.88,2.82,1.76,4.51,.5,.95,1.11,2.13,1.86,3.77,2.47,5.38,3.59,7.84,2.45,9.31-1.08,1.41-3.27,1.07-6.03,.65-1.67-.26-3.55-.54-5.59-.54Z"/></g><g><path class="cls-4" d="M260.08,174.26c-6.62-6.21-2.05-20.15,2-27.27,1.05-1.85,9.5-16.26,23.6-17.87,6.24-.71,11.51,1.32,13-1.09,.94-1.52-.6-4.31-3.66-9.89-2.78-5.07-4-6.03-4.9-9.31-.72-2.63-.3-3.31-.58-7.55-.55-8.25-2.35-8.53-2.4-14.52-.02-2.14,0-6.89,2.54-12.18,1.2-2.49,2.78-5.78,6.23-8.17,6.26-4.35,15.87-3.84,22.27,.12,6.78,4.19,8.84,11.57,9.21,12.89,1.15,4.11,.29,6.12,2.41,11.62,1.05,2.73,1.82,3.66,1.83,5.81,.01,3.05-1.5,4.04-2.52,8.11-1.01,4.07,.24,4.13-.65,6.96-1.8,5.68-7.32,6.98-6.86,9.83,.32,1.97,3.21,3.06,6.16,4.09,12.17,4.25,16.29,4.21,20.38,5.91,10.55,4.39,13.87,17.5,15.34,23.3,1.9,7.51,3.79,23.47-3.83,27.5-3.91,2.07-7.17-.67-17.95-3.24-10.88-2.59-19.15-2.56-34.63-2.5-10.2,.04-15.53,.77-30.31,.42-11.5-.27-14.41-.86-16.69-2.99Z"/><path d="M356.76,183.79c-1.78,0-3.77-.63-6.53-1.52-2.23-.71-5.01-1.6-8.65-2.47-10.82-2.58-19.23-2.55-34.51-2.49-3.86,.01-6.98,.13-10.28,.25-5.34,.19-10.86,.39-20.05,.18-11.41-.27-14.59-.85-17.02-3.12h0c-6.67-6.25-2.51-20.1,1.9-27.88,1.56-2.75,10.05-16.53,23.98-18.12,2.55-.29,4.89-.14,6.95,0,2.87,.19,4.94,.33,5.67-.86,.78-1.27-.8-4.15-3.67-9.38-.99-1.79-1.78-3.08-2.42-4.12-1.2-1.95-1.93-3.12-2.53-5.31-.47-1.71-.47-2.66-.48-4.11,0-.87,0-1.96-.12-3.54-.28-4.16-.87-6.26-1.4-8.12-.52-1.84-.97-3.43-1-6.43-.02-1.89-.06-6.9,2.59-12.4,1.2-2.49,2.83-5.89,6.39-8.37,6.08-4.22,15.89-4.18,22.81,.1,6.05,3.74,8.5,9.87,9.43,13.19,.48,1.71,.62,3.08,.75,4.42,.2,1.94,.4,3.95,1.65,7.16,.29,.75,.55,1.35,.79,1.89,.64,1.47,1.06,2.44,1.07,4.1,0,1.83-.52,2.99-1.12,4.33-.46,1.02-.98,2.18-1.41,3.91-.51,2.05-.42,3.03-.35,3.9,.07,.85,.14,1.65-.32,3.1-.99,3.12-3.03,4.95-4.67,6.42-1.5,1.34-2.34,2.15-2.17,3.18,.26,1.63,2.91,2.68,5.84,3.7,7.01,2.45,11.36,3.47,14.53,4.22,2.39,.56,4.11,.97,5.88,1.7,10.78,4.49,14.18,17.91,15.63,23.63,2,7.9,3.73,23.93-4.08,28.07-1.05,.56-2.05,.79-3.13,.79Zm-43.55-7.49c11.66,0,19.22,.29,28.61,2.53,3.67,.88,6.47,1.77,8.72,2.49,4.31,1.38,6.48,2.07,8.88,.8,7.25-3.85,5.51-19.3,3.58-26.94-1.42-5.58-4.73-18.66-15.05-22.96-1.69-.7-3.38-1.1-5.72-1.65-3.2-.75-7.57-1.78-14.63-4.25-3.34-1.17-6.14-2.31-6.49-4.49-.26-1.62,1.01-2.76,2.49-4.08,1.55-1.39,3.48-3.11,4.38-5.98,.4-1.26,.34-1.9,.27-2.71-.08-.95-.18-2.02,.37-4.22,.45-1.82,.99-3.02,1.47-4.08,.6-1.33,1.04-2.3,1.03-3.91,0-1.46-.37-2.3-.99-3.71-.24-.55-.51-1.17-.81-1.93-1.29-3.33-1.5-5.41-1.71-7.42-.14-1.35-.27-2.63-.72-4.25-.71-2.56-3.02-8.91-8.99-12.6-6.61-4.08-15.95-4.14-21.72-.13-3.34,2.32-4.85,5.46-6.06,7.98-2.54,5.29-2.5,10.13-2.49,11.96,.02,2.87,.46,4.4,.96,6.17,.54,1.9,1.15,4.06,1.44,8.33,.11,1.61,.11,2.72,.12,3.6,0,1.46,.01,2.27,.45,3.85,.56,2.05,1.26,3.18,2.41,5.05,.64,1.04,1.45,2.34,2.44,4.15,3.25,5.92,4.74,8.62,3.65,10.39-1.05,1.7-3.49,1.54-6.59,1.33-2.02-.13-4.31-.29-6.77,0-13.45,1.54-21.7,14.95-23.22,17.62-4.26,7.51-8.34,20.8-2.09,26.66h0c2.06,1.93,4.58,2.58,16.35,2.85,9.16,.22,14.66,.02,19.99-.18,3.31-.12,6.43-.23,10.31-.25,2.17,0,4.21-.02,6.13-.02Z"/></g><g><path class="cls-4" d="M24.34,480c4.84-5.4,7.95-8.87,13.31-10.39,3.65-1.04,3.88,.09,11.02-1.16,4.74-.83,7.16-1.28,9.79-2.9,2.98-1.83,7.38-5.86,6.73-9.87-.44-2.75-2.91-3.33-5.51-6.38-2.67-3.14-3.25-6.97-4.28-14.51-1.2-8.67,.07-7.61-.61-23.8-.14-3.4-.34-6.83,1.22-11.03,.67-1.81,1.87-5,4.9-7.55,1.52-1.27,3.93-2.75,13.47-4.06,7.84-1.08,11.76-2.05,15.3-1.16,2.2,.55,6.58,1.65,9.18,5.22,1.75,2.41,1.01,3.62,2.45,13.93,.7,5.03,.97,5.41,1.22,8.71,.18,2.33,.42,5.63,0,9.87-.32,3.21-.6,6.05-1.84,9.29-2.98,7.78-8.47,9.88-7.34,13.35,.78,2.4,3.62,2.03,4.9,5.22,1.03,2.6-.36,4.04,0,6.97,.41,3.28,2.66,5.45,5.51,8.13,6.25,5.86,9.43,4.8,15.91,10.45,2.04,1.77,4.74,4.17,6.73,8.13,.23,.46,5.01,10.18,1.04,14.06-1.99,1.95-5.19,1.45-11.55,.68-19.68-2.38-14.37-.71-23.79-2.41-15.69-2.84-15.93-4.85-25.3-5.12-6.42-.18-6.14,.77-15.88,.68-11.78-.1-12.24-1.5-18.05-.34-4.27,.85-7.19,2.24-10.11,.68-1.99-1.06-3.31-3.14-3.61-5.13-.13-.84-.34-3.39,5.18-9.55Z"/><path d="M123.07,502.36c-1.7,0-3.78-.25-6.4-.57l-.85-.1c-10.27-1.24-13.73-1.38-16.01-1.47-2.11-.08-3.28-.13-7.8-.95-7.08-1.28-10.96-2.38-14.08-3.26-3.65-1.03-6.05-1.71-11.15-1.85-2.97-.08-4.49,.08-6.26,.26-2.06,.22-4.4,.47-9.61,.42-5.19-.05-8.21-.34-10.42-.56-2.8-.27-4.34-.43-7.53,.21-.96,.19-1.86,.41-2.7,.62-2.97,.73-5.32,1.3-7.74,.02-2-1.07-3.52-3.23-3.87-5.5-.35-2.29,1.44-5.64,5.31-9.96,4.84-5.4,8.04-8.98,13.54-10.54,1.81-.52,2.84-.52,4.15-.52,1.44,0,3.23,0,6.92-.65,4.86-.85,7.12-1.3,9.62-2.83,2.52-1.55,7.12-5.5,6.5-9.36-.24-1.51-1.2-2.31-2.53-3.41-.87-.72-1.85-1.54-2.87-2.73-2.82-3.32-3.38-7.38-4.4-14.77-.64-4.62-.58-6.51-.49-9.64,.08-2.77,.19-6.57-.13-14.2v-.3c-.15-3.32-.3-6.76,1.26-10.92,.67-1.79,1.92-5.13,5.04-7.75,1.57-1.32,4.06-2.84,13.72-4.18,1.64-.23,3.1-.45,4.43-.65,5.09-.77,8.17-1.23,11.06-.5,2.19,.55,6.76,1.7,9.46,5.42,1.2,1.65,1.31,2.78,1.62,6.12,.17,1.83,.41,4.35,.92,8.03,.28,2.04,.5,3.31,.67,4.32,.25,1.47,.41,2.43,.56,4.41,.17,2.22,.43,5.58,0,9.95-.32,3.28-.6,6.12-1.87,9.42-1.47,3.83-3.5,6.27-5.12,8.23-1.63,1.96-2.71,3.26-2.21,4.79,.31,.96,1.01,1.39,1.89,1.94,1.06,.66,2.26,1.41,3,3.25,.64,1.6,.43,2.79,.21,4.04-.16,.91-.32,1.85-.18,3.04,.39,3.17,2.69,5.32,5.35,7.82,3.17,2.97,5.5,4.12,7.97,5.33,2.33,1.14,4.74,2.33,7.93,5.1,1.9,1.66,4.77,4.16,6.85,8.28,.21,.42,5.22,10.47,.94,14.65-1.14,1.12-2.63,1.5-4.71,1.5Zm-57.82-9.23c.48,0,.99,0,1.56,.02,5.22,.15,7.67,.84,11.39,1.89,3.1,.87,6.95,1.96,13.98,3.23,4.46,.81,5.6,.85,7.66,.93,2.3,.09,5.78,.23,16.09,1.48l.85,.1c5.7,.69,8.56,1.04,10.29-.65,3.76-3.67-1.08-13.38-1.13-13.48-1.99-3.95-4.77-6.37-6.61-7.97-3.09-2.69-5.44-3.85-7.71-4.96-2.43-1.19-4.94-2.42-8.22-5.5-2.8-2.63-5.22-4.9-5.66-8.43-.17-1.35,.02-2.41,.18-3.34,.2-1.16,.38-2.17-.15-3.5-.61-1.54-1.62-2.17-2.6-2.77-.93-.58-1.89-1.17-2.31-2.48-.67-2.06,.68-3.68,2.39-5.74,1.58-1.9,3.55-4.27,4.96-7.95,1.22-3.17,1.49-5.95,1.81-9.16,.42-4.28,.17-7.59,0-9.78-.15-1.94-.3-2.83-.55-4.33-.17-1.02-.39-2.3-.67-4.35-.52-3.71-.75-6.23-.92-8.08-.3-3.22-.39-4.19-1.43-5.63-2.49-3.43-6.66-4.47-8.9-5.03-2.7-.68-5.7-.23-10.67,.52-1.33,.2-2.8,.42-4.44,.65-9.4,1.3-11.75,2.72-13.21,3.95-2.93,2.46-4.07,5.51-4.75,7.34-1.49,3.98-1.34,7.31-1.21,10.53v.3c.34,7.66,.22,11.48,.14,14.27-.09,3.08-.15,4.94,.48,9.48,1.07,7.74,1.65,11.29,4.17,14.25,.96,1.13,1.91,1.92,2.75,2.61,1.38,1.14,2.57,2.13,2.88,4.02,.71,4.37-4.04,8.58-6.96,10.37-2.77,1.7-5.33,2.15-9.97,2.97-3.77,.66-5.61,.67-7.09,.67-1.28,0-2.2,0-3.88,.48-5.22,1.49-8.34,4.97-13.07,10.25h0c-2.52,2.81-5.44,6.67-5.06,9.14,.3,1.97,1.61,3.84,3.35,4.77,2.08,1.11,4.15,.6,7.03-.1,.86-.21,1.77-.43,2.75-.63,3.33-.66,4.93-.51,7.82-.22,2.19,.22,5.18,.51,10.33,.56,5.16,.04,7.46-.2,9.5-.42,1.46-.16,2.76-.29,4.83-.29Z"/></g><g><path class="cls-4" d="M151.74,484.07c4.6-5.4,7.56-8.87,12.65-10.39,3.47-1.04,3.69,.09,10.48-1.16,4.5-.83,6.81-1.28,9.31-2.9,2.83-1.83,7.02-5.86,6.4-9.87-.42-2.75-2.77-3.33-5.24-6.38-2.54-3.14-3.09-6.97-4.07-14.51-1.14-8.67,.07-7.61-.58-23.8-.14-3.4-.33-6.83,1.16-11.03,.64-1.81,1.78-5,4.66-7.55,1.44-1.27,3.73-2.75,12.8-4.06,7.46-1.08,11.18-2.05,14.55-1.16,2.1,.55,6.26,1.65,8.73,5.22,1.66,2.41,.96,3.62,2.33,13.93,.67,5.03,.92,5.41,1.16,8.71,.17,2.33,.4,5.63,0,9.87-.3,3.21-.57,6.05-1.75,9.29-2.83,7.78-8.05,9.88-6.98,13.35,.74,2.4,3.45,2.03,4.66,5.22,.98,2.6-.35,4.04,0,6.97,.39,3.28,2.53,5.45,5.24,8.13,5.94,5.86,8.96,4.8,15.13,10.45,1.94,1.77,4.51,4.17,6.4,8.13,.22,.46,4.76,10.18,.99,14.06-1.89,1.95-4.94,1.45-10.98,.68-18.71-2.38-13.66-.71-22.62-2.41-14.92-2.84-15.15-4.85-24.05-5.12-6.11-.18-5.84,.77-15.1,.68-11.2-.1-11.64-1.5-17.16-.34-4.06,.85-6.84,2.24-9.61,.68-1.9-1.06-3.14-3.14-3.43-5.13-.12-.84-.32-3.39,4.93-9.55Z"/><path d="M245.62,506.43c-1.62,0-3.6-.25-6.1-.57l-.81-.1c-9.77-1.24-13.05-1.38-15.22-1.47-2.01-.08-3.12-.13-7.42-.95-6.73-1.28-10.42-2.38-13.39-3.26-3.59-1.07-5.75-1.71-10.59-1.85-2.82-.08-4.27,.08-5.94,.26-1.96,.22-4.19,.46-9.15,.42-4.94-.05-7.81-.34-9.91-.56-2.66-.27-4.12-.43-7.14,.21-.92,.19-1.77,.41-2.57,.62-2.84,.73-5.08,1.31-7.39,.01-1.91-1.07-3.35-3.23-3.68-5.5-.33-2.28,1.37-5.63,5.04-9.95,4.61-5.41,7.65-8.98,12.89-10.55,1.73-.52,2.71-.52,3.96-.52,1.37,0,3.07,0,6.57-.65,4.62-.85,6.76-1.3,9.13-2.83,2.4-1.55,6.77-5.5,6.18-9.37-.23-1.52-1.14-2.31-2.4-3.41-.83-.72-1.76-1.54-2.73-2.73-2.68-3.32-3.21-7.38-4.18-14.76-.6-4.62-.55-6.51-.46-9.64,.08-2.77,.18-6.57-.12-14.2v-.3c-.15-3.32-.29-6.75,1.19-10.91,.64-1.79,1.82-5.13,4.8-7.75,1.5-1.32,3.87-2.85,13.06-4.18,1.55-.23,2.95-.45,4.21-.65,4.85-.77,7.78-1.23,10.54-.5,2.09,.55,6.44,1.7,9.01,5.42,1.14,1.65,1.24,2.78,1.54,6.11,.16,1.84,.39,4.35,.87,8.04,.27,2.04,.47,3.31,.63,4.33,.23,1.46,.39,2.43,.53,4.41,.16,2.22,.41,5.58,0,9.95-.31,3.28-.57,6.12-1.77,9.41-1.4,3.83-3.32,6.27-4.87,8.23-1.55,1.96-2.58,3.26-2.1,4.8,.3,.96,.96,1.39,1.79,1.94,1.01,.66,2.16,1.41,2.85,3.25,.6,1.59,.41,2.78,.2,4.03-.15,.91-.31,1.85-.17,3.05,.38,3.17,2.56,5.33,5.09,7.83,3.01,2.97,5.23,4.12,7.57,5.33,2.22,1.14,4.51,2.33,7.54,5.11,1.81,1.66,4.54,4.16,6.51,8.28,.2,.42,4.95,10.46,.89,14.63-1.09,1.12-2.51,1.51-4.5,1.51Zm-54.98-9.23c.45,0,.94,0,1.48,.02,4.97,.15,7.3,.84,10.84,1.89,2.94,.87,6.61,1.96,13.29,3.23,4.23,.81,5.31,.85,7.28,.93,2.19,.09,5.5,.23,15.31,1.48l.81,.1c5.4,.69,8.12,1.04,9.75-.64,3.57-3.67-1.03-13.4-1.08-13.5-1.89-3.95-4.54-6.37-6.29-7.97-2.94-2.69-5.17-3.84-7.33-4.96-2.31-1.19-4.7-2.43-7.82-5.51-2.66-2.63-4.97-4.9-5.38-8.42-.16-1.34,.02-2.4,.17-3.33,.19-1.17,.36-2.17-.14-3.51-.58-1.54-1.54-2.16-2.47-2.77-.88-.58-1.8-1.18-2.2-2.48-.63-2.04,.65-3.67,2.27-5.72,1.5-1.9,3.38-4.27,4.72-7.95,1.16-3.17,1.42-5.95,1.72-9.16,.4-4.28,.16-7.59,0-9.79-.14-1.94-.29-2.83-.52-4.33-.16-1.02-.37-2.3-.64-4.35-.49-3.71-.72-6.23-.88-8.08-.29-3.23-.37-4.2-1.36-5.63-2.37-3.42-6.32-4.46-8.45-5.02-2.56-.68-5.41-.23-10.13,.52-1.26,.2-2.66,.42-4.22,.65-8.92,1.3-11.15,2.71-12.54,3.94-2.78,2.46-3.87,5.51-4.52,7.34-1.41,3.98-1.28,7.32-1.15,10.54v.3c.32,7.66,.21,11.48,.13,14.27-.09,3.08-.14,4.95,.46,9.48,1.02,7.74,1.57,11.29,3.97,14.26,.91,1.13,1.81,1.92,2.61,2.61,1.31,1.14,2.44,2.13,2.73,4.01,.67,4.36-3.85,8.57-6.62,10.36-2.64,1.71-5.07,2.16-9.49,2.97-3.59,.66-5.34,.67-6.75,.67-1.21,0-2.08,0-3.67,.48-4.96,1.48-7.92,4.97-12.41,10.24h0c-2.39,2.81-5.17,6.68-4.81,9.15,.29,1.97,1.53,3.85,3.18,4.77,1.96,1.1,3.93,.59,6.65-.11,.81-.21,1.68-.43,2.61-.63,3.17-.67,4.69-.51,7.45-.22,2.08,.22,4.93,.51,9.82,.56,4.9,.05,7.09-.2,9.03-.42,1.39-.15,2.63-.29,4.6-.29Z"/></g><g><path class="cls-4" d="M281.02,334.2c4.06-5.81,6.67-9.55,11.6-11.55,3.36-1.37,3.68-.26,10.32-2.15,4.4-1.26,6.65-1.93,8.99-3.78,2.65-2.09,6.42-6.5,5.43-10.43-.68-2.69-3.07-3.05-5.83-5.86-2.83-2.89-3.74-6.65-5.45-14.06-1.96-8.52-.66-7.58-2.86-23.63-.46-3.37-.98-6.77,.1-11.09,.47-1.86,1.29-5.15,3.91-7.95,1.31-1.41,3.45-3.09,12.35-5.27,7.32-1.79,10.93-3.11,14.37-2.54,2.14,.35,6.39,1.05,9.19,4.37,1.89,2.24,1.3,3.51,3.65,13.64,1.15,4.94,1.44,5.29,1.99,8.56,.39,2.3,.93,5.57,.95,9.82,0,3.22,.02,6.08-.85,9.41-2.08,8.01-7.07,10.61-5.67,13.95,.97,2.32,3.62,1.69,5.14,4.76,1.23,2.49,.04,4.05,.67,6.93,.7,3.23,3.04,5.18,5.99,7.59,6.47,5.27,9.38,3.92,16.06,8.96,2.1,1.58,4.89,3.72,7.15,7.48,.26,.44,5.72,9.68,2.33,13.91-1.7,2.12-4.77,1.92-10.87,1.73-18.85-.59-13.67,.6-22.74-.25-15.12-1.4-15.54-3.38-24.43-2.8-6.1,.4-5.74,1.32-14.96,2.12-11.16,.96-11.73-.38-17.11,1.3-3.96,1.23-6.59,2.88-9.5,1.6-1.99-.88-3.43-2.83-3.91-4.78-.2-.82-.64-3.34,3.99-9.98Z"/><path d="M283.14,349.93c-.8,0-1.59-.15-2.41-.51-2-.88-3.65-2.9-4.19-5.12-.55-2.24,.82-5.74,4.07-10.38h0c4.07-5.82,6.75-9.67,11.82-11.73,1.67-.68,2.65-.78,3.89-.9,1.36-.13,3.05-.3,6.48-1.28,4.51-1.29,6.6-1.94,8.82-3.69,2.24-1.77,6.21-6.12,5.25-9.92-.38-1.49-1.36-2.19-2.72-3.17-.89-.64-1.9-1.36-2.98-2.46-2.99-3.04-3.91-7.04-5.58-14.29-1.04-4.54-1.17-6.42-1.39-9.55-.19-2.77-.45-6.56-1.48-14.12l-.04-.29c-.45-3.29-.92-6.7,.15-10.98,.46-1.84,1.32-5.28,4.03-8.18,1.37-1.46,3.58-3.2,12.6-5.41,1.53-.37,2.89-.73,4.12-1.04,4.75-1.23,7.62-1.97,10.45-1.51,2.13,.35,6.57,1.08,9.49,4.54,1.3,1.54,1.5,2.65,2.12,5.94,.34,1.81,.8,4.29,1.64,7.91,.46,2.01,.79,3.25,1.05,4.25,.37,1.44,.62,2.38,.95,4.34,.38,2.2,.94,5.52,.95,9.91,0,3.3,.02,6.14-.86,9.54-1.02,3.94-2.71,6.56-4.06,8.65-1.36,2.1-2.25,3.49-1.63,4.98,.39,.93,1.09,1.29,1.97,1.76,1.07,.56,2.28,1.2,3.15,2.97,.75,1.53,.67,2.73,.58,4-.06,.92-.13,1.87,.13,3.05,.68,3.12,3.06,5.06,5.82,7.31,3.28,2.67,5.6,3.6,8.05,4.58,2.32,.93,4.71,1.89,8,4.36,1.96,1.48,4.92,3.71,7.28,7.62,.24,.4,5.92,9.94,2.29,14.48-1.78,2.22-4.86,2.12-10.45,1.94l-.82-.03c-9.84-.31-13.12-.13-15.29-.01-2.01,.11-3.12,.17-7.48-.24-6.83-.63-10.61-1.37-13.64-1.97-3.67-.72-5.89-1.15-10.71-.83-2.81,.19-4.24,.48-5.89,.83-1.93,.41-4.12,.86-9.07,1.29-4.92,.42-7.81,.4-9.92,.39-2.67-.02-4.14-.03-7.09,.89-.89,.28-1.72,.58-2.5,.86-1.82,.66-3.39,1.23-4.94,1.23Zm49.14-113.67c-2.21,0-4.74,.65-8.45,1.61-1.24,.32-2.61,.67-4.14,1.05-8.76,2.14-10.84,3.77-12.11,5.12-2.53,2.71-3.32,5.85-3.79,7.73-1.03,4.1-.57,7.41-.13,10.61l.04,.29c1.04,7.6,1.3,11.41,1.49,14.19,.21,3.08,.34,4.94,1.36,9.4,1.75,7.61,2.64,11.09,5.32,13.82,1.02,1.04,1.99,1.73,2.85,2.35,1.42,1.01,2.64,1.89,3.11,3.74,1.09,4.28-3.01,8.89-5.6,10.95-2.46,1.95-4.84,2.63-9.16,3.87-3.51,1-5.25,1.17-6.66,1.31-1.2,.12-2.08,.2-3.61,.83-4.79,1.95-7.27,5.5-11.38,11.38h0c-2.11,3.03-4.51,7.14-3.91,9.57,.47,1.94,1.89,3.68,3.62,4.45,2.06,.91,3.97,.22,6.61-.74,.79-.29,1.63-.59,2.54-.88,3.1-.96,4.63-.95,7.39-.93,2.09,.02,4.95,.04,9.83-.38,4.88-.42,7.04-.87,8.95-1.27,1.69-.35,3.14-.66,6.03-.85,4.95-.32,7.35,.14,10.97,.85,3.01,.59,6.77,1.32,13.54,1.95,4.29,.4,5.37,.34,7.34,.23,2.19-.12,5.5-.3,15.38,.01l.82,.03c5.44,.17,8.17,.26,9.64-1.57,3.2-3.99-2.31-13.24-2.37-13.34-2.26-3.75-5.13-5.91-7.02-7.34-3.18-2.4-5.51-3.33-7.77-4.23-2.41-.97-4.91-1.97-8.31-4.73-2.9-2.37-5.41-4.41-6.17-7.87-.29-1.32-.21-2.39-.15-3.33,.08-1.18,.15-2.2-.48-3.49-.73-1.47-1.74-2.01-2.72-2.52-.93-.49-1.9-1-2.43-2.26-.82-1.97,.3-3.71,1.72-5.91,1.31-2.04,2.95-4.57,3.93-8.36,.85-3.27,.84-6.06,.83-9.28-.01-4.3-.57-7.57-.94-9.74-.33-1.91-.56-2.79-.93-4.26-.26-1-.59-2.25-1.05-4.27-.84-3.64-1.31-6.14-1.65-7.96-.59-3.18-.77-4.14-1.9-5.48-2.68-3.18-6.72-3.84-8.89-4.2-.52-.08-1.04-.12-1.59-.12Z"/></g><g><path class="cls-4" d="M271.44,478.75c4.36-4.59,7.16-7.54,11.99-8.84,3.29-.88,3.5,.08,9.92-.99,4.27-.71,6.45-1.09,8.82-2.47,2.69-1.56,6.65-4.98,6.07-8.39-.4-2.34-2.62-2.83-4.96-5.43-2.41-2.67-2.92-5.93-3.86-12.34-1.08-7.37,.06-6.47-.55-20.24-.13-2.89-.31-5.81,1.1-9.38,.61-1.54,1.68-4.26,4.41-6.42,1.37-1.08,3.54-2.33,12.13-3.46,7.07-.92,10.59-1.74,13.78-.99,1.99,.47,5.93,1.41,8.27,4.44,1.58,2.05,.91,3.08,2.21,11.85,.63,4.27,.87,4.6,1.1,7.41,.16,1.98,.38,4.79,0,8.39-.28,2.73-.54,5.15-1.65,7.9-2.68,6.61-7.63,8.41-6.62,11.36,.7,2.04,3.26,1.72,4.41,4.44,.93,2.21-.33,3.43,0,5.92,.37,2.79,2.4,4.64,4.96,6.91,5.63,4.99,8.49,4.08,14.34,8.89,1.83,1.51,4.27,3.55,6.07,6.91,.21,.39,4.51,8.66,.93,11.96-1.8,1.66-4.68,1.24-10.4,.58-17.73-2.02-12.95-.6-21.43-2.05-14.13-2.41-14.35-4.13-22.79-4.35-5.79-.15-5.53,.66-14.31,.58-10.61-.09-11.03-1.27-16.26-.29-3.85,.72-6.48,1.9-9.1,.58-1.8-.9-2.98-2.67-3.25-4.37-.11-.71-.3-2.88,4.67-8.12Z"/><path d="M360.43,497.85c-1.51,0-3.39-.22-5.81-.5l-.77-.09c-9.25-1.06-12.36-1.17-14.42-1.25-1.9-.07-2.95-.11-7.03-.81-6.38-1.09-9.88-2.02-12.68-2.77-3.28-.88-5.45-1.45-10.04-1.57-2.67-.07-4.05,.07-5.63,.22-1.86,.19-3.96,.39-8.66,.36-4.67-.04-7.4-.29-9.39-.48-2.52-.23-3.91-.36-6.77,.18-.87,.16-1.68,.35-2.43,.53-2.68,.62-4.8,1.11-6.99,.01-1.82-.92-3.21-2.78-3.52-4.73-.12-.74-.48-2.98,4.8-8.55h0c4.37-4.6,7.25-7.64,12.22-8.98,1.63-.44,2.56-.44,3.74-.44,1.3,0,2.91,0,6.23-.56,4.37-.73,6.4-1.1,8.65-2.41,2.26-1.31,6.38-4.64,5.82-7.88-.22-1.25-1.02-1.89-2.25-2.85-.78-.61-1.67-1.31-2.59-2.33-2.56-2.84-3.06-6.31-3.98-12.61-.57-3.94-.52-5.55-.44-8.22,.07-2.36,.17-5.59-.12-12.07v-.25c-.14-2.84-.27-5.77,1.14-9.33,.61-1.53,1.73-4.38,4.57-6.63,1.42-1.13,3.66-2.42,12.38-3.56,1.47-.19,2.79-.38,3.99-.55,4.59-.65,7.36-1.05,9.98-.43,1.98,.47,6.1,1.45,8.55,4.63,1.1,1.43,1.2,2.47,1.48,5.25,.15,1.56,.36,3.7,.83,6.83,.26,1.73,.45,2.81,.6,3.68,.22,1.25,.37,2.08,.51,3.76,.15,1.9,.39,4.76,0,8.49-.29,2.8-.54,5.22-1.69,8.04-1.33,3.27-3.16,5.35-4.63,7.02-1.58,1.79-2.39,2.79-1.98,3.98,.27,.79,.89,1.15,1.67,1.61,.92,.54,2.06,1.21,2.73,2.8,.58,1.39,.38,2.46,.19,3.5-.14,.76-.29,1.55-.16,2.56,.35,2.66,2.41,4.49,4.8,6.6,2.85,2.52,4.95,3.5,7.17,4.53,2.1,.97,4.27,1.98,7.15,4.35,1.72,1.41,4.31,3.54,6.19,7.06,.19,.36,4.72,8.97,.83,12.57-1.04,.96-2.34,1.29-4.21,1.29Zm-52.14-8c.43,0,.89,0,1.41,.02,4.7,.12,6.92,.71,10.27,1.61,2.79,.74,6.26,1.67,12.59,2.75,4.01,.69,5.04,.72,6.9,.79,2.07,.08,5.21,.2,14.5,1.26l.77,.09c5.12,.59,7.69,.88,9.24-.54,3.33-3.07-.99-11.28-1.03-11.36-1.78-3.34-4.29-5.4-5.94-6.76-2.78-2.29-4.89-3.27-6.94-4.21-2.19-1.01-4.46-2.06-7.41-4.69-2.54-2.25-4.73-4.19-5.13-7.22-.15-1.16,.02-2.07,.17-2.87,.19-1.01,.34-1.81-.13-2.92-.54-1.28-1.44-1.81-2.31-2.33-.85-.5-1.72-1.01-2.11-2.15-.62-1.8,.61-3.2,2.17-4.97,1.42-1.61,3.19-3.62,4.45-6.74,1.09-2.69,1.34-5.04,1.62-7.76,.38-3.63,.15-6.44,0-8.3-.13-1.64-.27-2.41-.49-3.67-.15-.87-.35-1.96-.61-3.7-.47-3.16-.68-5.31-.83-6.88-.27-2.72-.35-3.54-1.27-4.74-2.23-2.9-5.98-3.79-7.99-4.26-2.43-.57-5.13-.19-9.61,.45-1.2,.17-2.52,.36-4,.55-8.46,1.1-10.57,2.31-11.88,3.35-2.62,2.08-3.65,4.66-4.26,6.21-1.33,3.36-1.2,6.19-1.08,8.92v.25c.3,6.52,.2,9.77,.13,12.15-.08,2.62-.13,4.2,.43,8.04,.96,6.56,1.48,9.57,3.74,12.08,.86,.96,1.71,1.63,2.47,2.21,1.25,.98,2.34,1.83,2.62,3.47,.65,3.77-3.66,7.38-6.31,8.91-2.5,1.45-4.81,1.83-8.99,2.53-3.4,.56-5.06,.57-6.39,.57-1.15,0-1.98,0-3.49,.41-4.69,1.26-7.35,4.06-11.75,8.7l-.36-.34,.36,.34c-2.25,2.38-4.87,5.64-4.54,7.7,.27,1.65,1.44,3.22,2.98,4,1.86,.94,3.73,.51,6.31-.09,.77-.18,1.59-.37,2.48-.53,3.01-.57,4.44-.43,7.05-.19,1.97,.18,4.67,.43,9.3,.47,4.64,.03,6.72-.17,8.56-.35,1.32-.13,2.49-.25,4.35-.25Z"/></g><g><path class="cls-1" d="M117.85,298.69h4.7l1.81,9.54,1.8-9.54h4.7v15.68h-2.93v-11.96l-2.26,11.96h-2.65l-2.25-11.96v11.96h-2.93v-15.68Z"/><path class="cls-1" d="M140.27,311.78h-4.06l-.56,2.59h-3.65l4.35-15.68h3.9l4.35,15.68h-3.75l-.58-2.59Zm-.74-3.39l-1.28-5.64-1.26,5.64h2.54Z"/><path class="cls-1" d="M145.75,298.69h3.34l4.36,8.67v-8.67h3.37v15.68h-3.37l-4.33-8.61v8.61h-3.36v-15.68Z"/><path class="cls-1" d="M159.24,298.69h5.31c1.05,0,1.89,.19,2.54,.58,.64,.38,1.18,.94,1.6,1.66,.42,.72,.73,1.56,.92,2.51,.19,.96,.28,1.97,.28,3.04,0,1.68-.14,2.98-.42,3.9s-.67,1.7-1.17,2.32-1.04,1.04-1.61,1.25c-.78,.29-1.49,.43-2.13,.43h-5.31v-15.68Zm3.58,3.55v8.57h.88c.75,0,1.28-.11,1.59-.34,.32-.22,.56-.62,.74-1.18,.18-.56,.27-1.47,.27-2.72,0-1.66-.2-2.8-.6-3.41s-1.06-.92-1.99-.92h-.89Z"/><path class="cls-1" d="M177.16,298.69h3.58v11.82h5.58v3.86h-9.16v-15.68Z"/><path class="cls-1" d="M188.09,298.69h3.58v15.68h-3.58v-15.68Z"/><path class="cls-1" d="M200.06,308.69v-3.26h5.53v6.68c-1.06,.98-1.99,1.64-2.81,2-.81,.35-1.78,.53-2.89,.53-1.37,0-2.49-.32-3.36-.95s-1.54-1.58-2.01-2.83c-.48-1.25-.71-2.69-.71-4.32,0-1.71,.26-3.2,.78-4.46,.52-1.27,1.28-2.23,2.29-2.88,.78-.51,1.84-.76,3.17-.76s2.24,.16,2.87,.47c.63,.31,1.16,.8,1.58,1.46,.42,.66,.73,1.5,.94,2.51l-3.45,.83c-.14-.59-.38-1.04-.72-1.36-.34-.31-.77-.47-1.3-.47-.78,0-1.41,.37-1.88,1.11s-.7,1.91-.7,3.5c0,1.7,.24,2.91,.71,3.64,.47,.73,1.13,1.09,1.97,1.09,.4,0,.78-.08,1.15-.24,.36-.16,.78-.42,1.25-.8v-1.48h-2.39Z"/><path class="cls-1" d="M213.53,308.69v-3.26h5.53v6.68c-1.06,.98-1.99,1.64-2.81,2-.81,.35-1.78,.53-2.89,.53-1.37,0-2.49-.32-3.36-.95s-1.54-1.58-2.01-2.83c-.48-1.25-.71-2.69-.71-4.32,0-1.71,.26-3.2,.78-4.46,.52-1.27,1.28-2.23,2.29-2.88,.78-.51,1.84-.76,3.17-.76s2.24,.16,2.87,.47c.63,.31,1.16,.8,1.58,1.46,.42,.66,.73,1.5,.94,2.51l-3.45,.83c-.14-.59-.38-1.04-.72-1.36-.34-.31-.77-.47-1.3-.47-.78,0-1.41,.37-1.88,1.11s-.7,1.91-.7,3.5c0,1.7,.24,2.91,.71,3.64,.47,.73,1.13,1.09,1.97,1.09,.4,0,.78-.08,1.15-.24,.36-.16,.78-.42,1.25-.8v-1.48h-2.39Z"/><path class="cls-1" d="M221.17,298.69h9.58v3.35h-6v2.49h5.57v3.2h-5.57v3.09h6.17v3.55h-9.76v-15.68Z"/><path class="cls-1" d="M232.9,314.37v-15.68h5.96c1.11,0,1.95,.13,2.53,.38,.58,.26,1.06,.73,1.41,1.43,.36,.7,.54,1.54,.54,2.54,0,.87-.14,1.62-.41,2.25-.27,.63-.65,1.14-1.13,1.54-.31,.25-.72,.46-1.26,.62,.43,.19,.74,.39,.93,.58,.13,.13,.32,.4,.57,.82s.42,.75,.5,.97l1.73,4.54h-4.04l-1.91-4.79c-.24-.62-.46-1.02-.65-1.21-.26-.24-.55-.36-.88-.36h-.32v6.36h-3.59Zm3.59-9.33h1.51c.16,0,.48-.07,.95-.21,.24-.06,.43-.23,.58-.49,.15-.26,.23-.57,.23-.91,0-.51-.12-.89-.35-1.17-.24-.27-.68-.41-1.33-.41h-1.57v3.19Z"/><path class="cls-1" d="M250.2,309.18l3.4-.29c.07,.75,.22,1.32,.45,1.71,.37,.63,.89,.95,1.58,.95,.51,0,.9-.16,1.18-.49s.41-.7,.41-1.13-.13-.77-.4-1.09c-.26-.32-.87-.62-1.83-.91-1.57-.48-2.69-1.11-3.35-1.9-.67-.79-1.01-1.8-1.01-3.03,0-.81,.17-1.57,.52-2.28,.34-.72,.86-1.28,1.56-1.69,.69-.41,1.64-.62,2.85-.62,1.48,0,2.61,.37,3.38,1.12s1.24,1.93,1.39,3.56l-3.37,.27c-.09-.71-.28-1.22-.56-1.54-.29-.32-.68-.48-1.19-.48-.42,0-.73,.12-.94,.36s-.32,.53-.32,.87c0,.25,.09,.47,.26,.67,.17,.21,.57,.4,1.2,.58,1.56,.46,2.68,.92,3.36,1.38s1.17,1.05,1.48,1.74c.31,.69,.46,1.46,.46,2.32,0,1-.21,1.93-.62,2.78-.41,.85-.98,1.49-1.72,1.93s-1.67,.66-2.79,.66c-1.97,0-3.33-.51-4.09-1.54-.76-1.03-1.19-2.33-1.29-3.91Z"/><path class="cls-1" d="M262.05,306.54c0-2.56,.53-4.55,1.58-5.98s2.52-2.14,4.4-2.14,3.41,.7,4.45,2.1c1.04,1.4,1.56,3.36,1.56,5.89,0,1.83-.23,3.33-.68,4.51-.46,1.17-1.11,2.09-1.97,2.74-.86,.65-1.93,.98-3.22,.98s-2.39-.28-3.24-.84c-.86-.56-1.55-1.46-2.08-2.67-.53-1.22-.8-2.75-.8-4.58Zm3.58,.02c0,1.58,.22,2.72,.65,3.41,.43,.69,1.02,1.04,1.77,1.04s1.36-.34,1.78-1.02c.42-.68,.63-1.89,.63-3.65,0-1.48-.22-2.55-.66-3.24-.44-.68-1.04-1.02-1.79-1.02s-1.3,.35-1.74,1.04c-.44,.69-.66,1.84-.66,3.43Z"/><path class="cls-1" d="M275.93,298.69h4.7l1.81,9.54,1.8-9.54h4.7v15.68h-2.93v-11.96l-2.26,11.96h-2.65l-2.25-11.96v11.96h-2.93v-15.68Z"/><path class="cls-1" d="M128.62,324.97h4.7l1.81,9.54,1.8-9.54h4.7v15.68h-2.93v-11.96l-2.26,11.96h-2.65l-2.25-11.96v11.96h-2.93v-15.68Z"/><path class="cls-1" d="M151.04,338.06h-4.06l-.56,2.59h-3.65l4.35-15.68h3.9l4.35,15.68h-3.75l-.58-2.59Zm-.74-3.39l-1.28-5.64-1.26,5.64h2.54Z"/><path class="cls-1" d="M156.52,324.97h3.34l4.36,8.67v-8.67h3.37v15.68h-3.37l-4.33-8.61v8.61h-3.36v-15.68Z"/><path class="cls-1" d="M170.01,324.97h5.31c1.05,0,1.89,.19,2.54,.58,.64,.38,1.18,.94,1.6,1.66,.42,.72,.73,1.56,.92,2.51,.19,.96,.28,1.97,.28,3.04,0,1.68-.14,2.98-.42,3.9s-.67,1.7-1.17,2.32-1.04,1.04-1.61,1.25c-.78,.29-1.49,.43-2.13,.43h-5.31v-15.68Zm3.58,3.55v8.57h.88c.75,0,1.28-.11,1.59-.34,.32-.22,.56-.62,.74-1.18,.18-.56,.27-1.47,.27-2.72,0-1.66-.2-2.8-.6-3.41s-1.06-.92-1.99-.92h-.89Z"/><path class="cls-1" d="M187.95,324.97h3.58v5.49h3.91v-5.49h3.59v15.68h-3.59v-6.34h-3.91v6.34h-3.58v-15.68Z"/><path class="cls-1" d="M208.52,338.06h-4.06l-.56,2.59h-3.65l4.35-15.68h3.9l4.35,15.68h-3.75l-.58-2.59Zm-.74-3.39l-1.28-5.64-1.26,5.64h2.54Z"/><path class="cls-1" d="M214.03,340.65v-15.68h5.96c1.11,0,1.95,.13,2.53,.38,.58,.26,1.06,.73,1.41,1.43,.36,.7,.54,1.54,.54,2.54,0,.87-.14,1.62-.41,2.25-.27,.63-.65,1.14-1.13,1.54-.31,.25-.72,.46-1.26,.62,.43,.19,.74,.39,.93,.58,.13,.13,.32,.4,.57,.82s.42,.75,.5,.97l1.73,4.54h-4.04l-1.91-4.79c-.24-.62-.46-1.02-.65-1.21-.26-.24-.55-.36-.88-.36h-.32v6.36h-3.59Zm3.59-9.33h1.51c.16,0,.48-.07,.95-.21,.24-.06,.43-.23,.58-.49,.15-.26,.23-.57,.23-.91,0-.51-.12-.89-.35-1.17-.24-.27-.68-.41-1.33-.41h-1.57v3.19Z"/><path class="cls-1" d="M232,340.65v-15.68h5.96c1.11,0,1.95,.13,2.53,.38,.58,.26,1.06,.73,1.41,1.43,.36,.7,.54,1.54,.54,2.54,0,.87-.14,1.62-.41,2.25-.27,.63-.65,1.14-1.13,1.54-.31,.25-.72,.46-1.26,.62,.43,.19,.74,.39,.93,.58,.13,.13,.32,.4,.57,.82s.42,.75,.5,.97l1.73,4.54h-4.04l-1.91-4.79c-.24-.62-.46-1.02-.65-1.21-.26-.24-.55-.36-.88-.36h-.32v6.36h-3.59Zm3.59-9.33h1.51c.16,0,.48-.07,.95-.21,.24-.06,.43-.23,.58-.49,.15-.26,.23-.57,.23-.91,0-.51-.12-.89-.35-1.17-.24-.27-.68-.41-1.33-.41h-1.57v3.19Z"/><path class="cls-1" d="M244.52,324.97h9.58v3.35h-6v2.49h5.57v3.2h-5.57v3.09h6.17v3.55h-9.76v-15.68Z"/><path class="cls-1" d="M256.25,324.97h5.31c1.05,0,1.89,.19,2.54,.58,.64,.38,1.18,.94,1.6,1.66,.42,.72,.73,1.56,.92,2.51,.19,.96,.28,1.97,.28,3.04,0,1.68-.14,2.98-.42,3.9s-.67,1.7-1.17,2.32-1.04,1.04-1.61,1.25c-.78,.29-1.49,.43-2.13,.43h-5.31v-15.68Zm3.58,3.55v8.57h.88c.75,0,1.28-.11,1.59-.34,.32-.22,.56-.62,.74-1.18,.18-.56,.27-1.47,.27-2.72,0-1.66-.2-2.8-.6-3.41s-1.06-.92-1.99-.92h-.89Z"/><path class="cls-1" d="M267.96,324.97h10.87v3.87h-3.65v11.81h-3.58v-11.81h-3.65v-3.87Z"/></g><g><path class="cls-2" d="M34.26,479.55v-.41h2.82v.41l-1.31,.15h-.2l-1.31-.15Zm1.51,5.83l1.31,.15v.41h-2.82v-.41l1.31-.15h.2Zm-.55-3.09c0-1.04,0-2.1-.03-3.14h.94c-.03,1.02-.03,2.08-.03,3.14v.77c0,.78,0,1.83,.03,2.88h-.94c.03-1.02,.03-2.08,.03-3.14v-.51Zm.43,1.2l3.53-4.34h.6l-4.14,5v-.66Zm1.87-1.96l2.44,4.41h-.95l-2.02-3.78,.52-.63Zm.37,4l1.21-.15h.15l1.21,.15v.41h-2.57v-.41Zm.11-5.98v-.41h2.32v.41l-1.11,.15-.2,.05-1.01-.2Z"/><path class="cls-2" d="M41.63,485.93c.02-.46,.03-1.5,.03-2.13v-.48c0-.56-.01-.87-.03-1.28l-.83-.09v-.35l1.52-.61,.15,.1-.03,1.37v1.34c0,.63,.01,1.67,.03,2.13h-.85Zm1.55-.35v.35h-2.32v-.35l1.11-.2h.2l1.01,.2Zm-1.81-6.36c0-.38,.29-.64,.67-.64s.67,.25,.67,.64-.29,.64-.67,.64-.67-.26-.67-.64Z"/><path class="cls-2" d="M45.3,478.43l.14,.08-.04,1.44v3.85c0,.71,.01,1.42,.03,2.13h-.87c.02-.71,.03-1.42,.03-2.13v-4.46l-.84-.1v-.35l1.54-.46Zm.94,7.14v.35h-2.48v-.35l1.14-.2h.2l1.14,.2Z"/><path class="cls-2" d="M48.29,478.43l.14,.08-.04,1.44v3.85c0,.71,.01,1.42,.03,2.13h-.87c.02-.71,.03-1.42,.03-2.13v-4.46l-.84-.1v-.35l1.54-.46Zm.94,7.14v.35h-2.48v-.35l1.14-.2h.2l1.14,.2Z"/><path class="cls-2" d="M51.84,487.79c.07-.28,.36-.43,.67-.43,.26,0,.46,.1,.74,.38l.31,.31-.39,.22-.27-.22c.68-.33,1.08-1.03,1.33-1.74l.31-.88,1.55-4.31h.54l-1.8,4.74c-.69,1.82-1.25,2.59-2.08,2.59-.49,0-.92-.27-.92-.67Zm1.03-6.16l-.99-.15v-.35h2.4v.37l-1.21,.14h-.2Zm1.5,4.82l-2.11-5.33h.94l1.58,4.32-.41,1.01Zm1.71-4.82l-1.07-.15v-.35h1.98v.35l-.71,.15h-.2Z"/><path class="cls-2" d="M57.25,483.55c0-1.68,1.14-2.55,2.3-2.55s2.3,.87,2.3,2.55-1.16,2.51-2.3,2.51-2.3-.83-2.3-2.51Zm3.69,0c0-1.36-.51-2.1-1.39-2.1s-1.39,.74-1.39,2.1,.49,2.06,1.39,2.06,1.39-.7,1.39-2.06Z"/><path class="cls-2" d="M63.97,484.14c0,.9,.26,1.22,.82,1.22,.51,0,1.04-.25,1.54-.76h.21v.52h-.51l.35-.15c-.57,.78-1.26,1.1-1.92,1.1-.81,0-1.31-.49-1.3-1.82l.03-2.67,.21,.19-.94-.2v-.35l1.45-.13,.1,.1-.05,1.42v1.55Zm2.4,1.87l-.14-1.19,.03-3.26,.21,.19-.94-.2v-.35l1.43-.13,.1,.1-.03,1.42v3.03l-.24-.24,.94,.2v.35l-1.36,.08Z"/><path class="cls-2" d="M69.27,483.8v-.48c0-.56,0-.87-.03-1.28l-.81-.09v-.35l1.37-.61,.15,.1,.12,1.27v1.44c0,.63,.01,1.67,.03,2.13h-.87c.02-.46,.03-1.5,.03-2.13Zm-.76,1.77l1.11-.2h.2l1.11,.2v.35h-2.42v-.35Zm1.16-3.14h.57l-.25,.07c.32-.94,.94-1.51,1.53-1.51,.29,0,.6,.14,.72,.34,0,.48-.18,.74-.58,.74-.23,0-.42-.09-.6-.24l-.27-.23,.49-.1c-.63,.32-.99,.83-1.22,1.61h-.38v-.68Z"/><path class="cls-2" d="M75.13,479.55v-.41h1.41v.56h-.1l-1.31-.15Zm1.41,5.83v.56h-1.41v-.41l1.31-.15h.1Zm-.45-3.09c0-1.04,0-2.1-.03-3.14h.97c-.03,1.02-.03,2.08-.03,3.14v.38c0,1.17,0,2.22,.03,3.26h-.97c.03-1.02,.03-2.08,.03-3.26v-.38Zm.45,3.18h1.3c1.58,0,2.45-1.07,2.45-2.92s-.87-2.94-2.36-2.94h-1.39v-.47h1.56c1.92,0,3.25,1.2,3.25,3.4s-1.49,3.38-3.45,3.38h-1.36v-.47Z"/><path class="cls-2" d="M83.96,483.27c.42-.15,1.06-.33,1.56-.43v.37c-.45,.09-1.05,.28-1.35,.4-.91,.36-1.01,.74-1.01,1.03,0,.54,.35,.75,.82,.75,.35,0,.55-.13,1.19-.59l.2-.15,.14,.21-.29,.29c-.61,.61-.95,.89-1.56,.89-.74,0-1.35-.43-1.35-1.27,0-.57,.3-1.02,1.65-1.52Zm1.16,1.72v-2.31c0-.99-.28-1.24-.95-1.24-.23,0-.53,.03-.91,.18l.4-.31-.26,.87c-.09,.29-.24,.46-.51,.46s-.43-.15-.45-.4c.19-.77,.94-1.25,1.95-1.25s1.54,.48,1.54,1.75v2.15c0,.46,.14,.62,.37,.62,.17,0,.28-.09,.39-.22l.2,.22c-.24,.38-.51,.52-.86,.52-.55,0-.92-.41-.92-1.03Z"/><path class="cls-2" d="M88.1,483.8v-.48c0-.56,0-.87-.03-1.28l-.81-.09v-.35l1.37-.61,.15,.1,.12,1.27v1.44c0,.63,.01,1.67,.03,2.13h-.87c.02-.46,.03-1.5,.03-2.13Zm-.76,1.77l1.11-.2h.2l1.11,.2v.35h-2.42v-.35Zm1.16-3.14h.57l-.25,.07c.32-.94,.94-1.51,1.53-1.51,.29,0,.6,.14,.72,.34,0,.48-.18,.74-.58,.74-.23,0-.42-.09-.6-.24l-.27-.23,.49-.1c-.63,.32-.99,.83-1.22,1.61h-.38v-.68Z"/><path class="cls-2" d="M92.84,478.43l.14,.08-.04,1.44v3.85c0,.71,.01,1.42,.03,2.13h-.87c.02-.71,.03-1.42,.03-2.13v-4.46l-.84-.1v-.35l1.54-.46Zm.94,7.14v.35h-2.48v-.35l1.14-.2h.2l1.14,.2Z"/><path class="cls-2" d="M95.15,485.93c.02-.46,.03-1.5,.03-2.13v-.48c0-.56-.01-.87-.03-1.28l-.83-.09v-.35l1.52-.61,.15,.1-.03,1.37v1.34c0,.63,.01,1.67,.03,2.13h-.85Zm1.55-.35v.35h-2.32v-.35l1.11-.2h.2l1.01,.2Zm-1.81-6.36c0-.38,.29-.64,.67-.64s.67,.25,.67,.64-.29,.64-.67,.64-.67-.26-.67-.64Z"/><path class="cls-2" d="M98.19,485.93c.02-.46,.03-1.5,.03-2.13v-.48c0-.56,0-.87-.03-1.28l-.81-.09v-.35l1.37-.61,.15,.1,.12,1.18v1.53c0,.63,.01,1.67,.03,2.13h-.87Zm1.57-.35v.35h-2.32v-.35l1.11-.2h.2l1.01,.2Zm2.33-2.71v.93c0,.65,.01,1.67,.03,2.13h-.87c.02-.46,.03-1.48,.03-2.13v-.85c0-.94-.24-1.25-.85-1.25-.5,0-.92,.2-1.49,.7h-.21v-.46h.51l-.43,.18c.47-.64,1.28-1.13,2-1.13,.87,0,1.28,.54,1.28,1.88Zm-.27,2.5l1.01,.2v.35h-2.32v-.35l1.11-.2h.2Z"/><path class="cls-2" d="M107.32,486.86c0-.46-.28-.8-1.02-.8h-1.19c-.17,0-.35-.01-.5-.03v-.03c-.51-.11-.78-.38-.78-.8,0-.35,.23-.74,.92-1.34l.22,.15c-.3,.32-.43,.55-.43,.85,0,.27,.11,.46,.58,.46h1.33c1.08,0,1.59,.48,1.59,1.3,0,.87-.83,1.74-2.46,1.74-1.45,0-2.09-.51-2.09-1.24,0-.5,.31-.87,1.33-1.31l.05,.06c-.4,.4-.56,.7-.56,1.09,0,.67,.51,.93,1.3,.93,1.11,0,1.7-.47,1.7-1.04Zm-1.78-5.87c1.03,0,1.8,.55,1.8,1.66s-.79,1.66-1.81,1.66-1.81-.55-1.81-1.66,.79-1.66,1.82-1.66Zm-1.03,1.67c0,.74,.36,1.25,.99,1.25s1.05-.54,1.05-1.29-.36-1.23-1-1.23-1.04,.53-1.04,1.27Zm3.43-1.67l.15,.1v.63h-1.48v-.27l1.33-.46Z"/><path class="cls-2" d="M108.86,485.68l-.04-1.1h.53l.27,1.2-.49-.23v-.34c.35,.27,.74,.42,1.24,.42,.78,0,1.14-.31,1.14-.78,0-.44-.3-.66-.94-.89l-.46-.17c-.74-.27-1.22-.67-1.22-1.36,0-.73,.62-1.41,1.73-1.41,.54,0,.97,.15,1.4,.42l-.04,1.02h-.5l-.2-1.02,.36,.16v.26c-.32-.25-.67-.38-1.03-.38-.62,0-.95,.27-.95,.7,0,.46,.25,.63,.94,.88l.3,.11c1.01,.38,1.39,.85,1.39,1.48,0,.75-.66,1.44-1.95,1.44-.56,0-1-.13-1.49-.38Z"/></g><g><path class="cls-2" d="M292.88,330.2h3.09v1.07h-3.09v-1.07Z"/><path class="cls-2" d="M302.37,330.34c0,.26-.02,.44-.07,.64h-4.67v-.63h2.24c.57,0,.72-.21,.72-.75,0-.78-.38-1.17-.81-1.17-.5,0-.95,.54-.95,2.26,0,1.46,.72,2.11,1.61,2.11,.64,0,1.09-.27,1.45-.64l.41,.39c-.49,.93-1.35,1.39-2.5,1.39-1.74,0-2.97-1.13-2.97-3.06s1.53-3.07,3.07-3.07,2.47,1.08,2.47,2.52Z"/><path class="cls-2" d="M303.66,333.77c.02-.54,.04-1.77,.04-2.51v-.69c0-.66-.01-.91-.04-1.38l-.73-.11v-.47l2.35-.79,.2,.13,.11,1.32v1.99c0,.74,.01,1.97,.04,2.51h-1.97Zm2.52-.56v.56h-3.14v-.56l1.11-.24h.91l1.12,.24Zm3.01-3.34v1.39c0,.76,.01,1.97,.04,2.51h-1.97c.02-.54,.04-1.74,.04-2.51v-1.25c0-.77-.19-1.04-.67-1.04-.42,0-1,.32-1.47,.88h-.41v-.77h.81l-.45,.33c.84-1.21,1.52-1.59,2.37-1.59,1.03,0,1.72,.68,1.72,2.05Zm-.55,3.1l1.17,.24v.56h-3.15v-.56l1.08-.24h.9Z"/><path class="cls-2" d="M313.6,326.26l-.74-.12v-.5l2.46-.54,.19,.12-.05,1.67v2.36l.04,.15v1.86c0,.74,.01,1.97,.04,2.51h-1.97c.02-.54,.04-1.77,.04-2.51v-5Zm2.48,6.95v.56h-3.14v-.56l1.11-.24h.91l1.12,.24Zm3.03-3.34v1.39c0,.76,.01,1.97,.04,2.51h-1.97c.02-.54,.04-1.74,.04-2.51v-1.25c0-.77-.16-1.04-.64-1.04-.44,0-.96,.37-1.45,.96h-.43v-.86h.78l-.46,.33c.84-1.21,1.5-1.59,2.35-1.59,1.05,0,1.75,.68,1.75,2.05Zm-.55,3.1l1.17,.24v.56h-3.15v-.56l1.08-.24h.9Z"/><path class="cls-2" d="M325.84,330.34c0,.26-.02,.44-.07,.64h-4.67v-.63h2.24c.57,0,.72-.21,.72-.75,0-.78-.38-1.17-.81-1.17-.5,0-.95,.54-.95,2.26,0,1.46,.72,2.11,1.61,2.11,.64,0,1.09-.27,1.45-.64l.41,.39c-.49,.93-1.35,1.39-2.5,1.39-1.74,0-2.97-1.13-2.97-3.06s1.53-3.07,3.07-3.07,2.47,1.08,2.47,2.52Z"/><path class="cls-2" d="M327.17,331.27v-.7c0-.66-.01-.9-.04-1.38l-.73-.11v-.47l2.35-.79,.2,.13,.11,1.47v1.85c0,.74,.01,1.97,.04,2.51h-1.97c.02-.54,.04-1.77,.04-2.51Zm-.67,1.95l1.14-.24h1.25l1.14,.24v.56h-3.54v-.56Zm1.69-3.53h.9l-.16,.32c.21-1.46,1.04-2.19,1.75-2.19,.52,0,.94,.29,1.04,.88-.03,.62-.37,.97-.85,.97-.36,0-.64-.18-.92-.55l-.35-.46,.48,.17c-.43,.31-.86,.94-1.01,1.66l-.88-.09v-.72Z"/><path class="cls-2" d="M332.72,331.27v-.7c0-.66-.01-.9-.04-1.38l-.73-.11v-.47l2.35-.79,.2,.13,.11,1.47v1.85c0,.74,.01,1.97,.04,2.51h-1.97c.02-.54,.04-1.77,.04-2.51Zm-.67,1.95l1.14-.24h1.25l1.14,.24v.56h-3.54v-.56Zm1.69-3.53h.9l-.16,.32c.21-1.46,1.04-2.19,1.75-2.19,.52,0,.94,.29,1.04,.88-.03,.62-.37,.97-.85,.97-.36,0-.64-.18-.92-.55l-.35-.46,.48,.17c-.43,.31-.86,.94-1.01,1.66l-.88-.09v-.72Z"/><path class="cls-2" d="M342.95,330.34c0,.26-.02,.44-.07,.64h-4.67v-.63h2.24c.57,0,.72-.21,.72-.75,0-.78-.38-1.17-.81-1.17-.5,0-.95,.54-.95,2.26,0,1.46,.72,2.11,1.61,2.11,.64,0,1.09-.27,1.45-.64l.41,.39c-.49,.93-1.35,1.39-2.5,1.39-1.74,0-2.97-1.13-2.97-3.06s1.53-3.07,3.07-3.07,2.47,1.08,2.47,2.52Z"/><path class="cls-2" d="M345.84,325.11l.19,.12-.05,1.67v4.37c0,.83,.01,1.67,.04,2.51h-1.97c.02-.83,.04-1.67,.04-2.51v-5l-.74-.12v-.5l2.5-.54Zm.83,8.11v.56h-3.26v-.56l1.14-.24h.9l1.22,.24Z"/><path class="cls-2" d="M347.28,330.86c0-1.83,1.32-3.04,3.03-3.04s3.03,1.18,3.03,3.04-1.18,3.09-3.03,3.09-3.03-1.25-3.03-3.09Zm4.04,.03c0-1.69-.34-2.44-1.01-2.44s-1.01,.75-1.01,2.44,.33,2.44,1.01,2.44,1.01-.74,1.01-2.44Z"/><path class="cls-2" d="M358.42,334.86c0-.35-.23-.68-.88-.68h-1.25c-.52,0-.97-.05-1.28-.18v-.08c-.61-.19-.86-.57-.86-1.02,0-.62,.44-1.17,1.18-1.76l.31,.2c-.18,.24-.26,.43-.26,.73,0,.28,.18,.45,.69,.45h1.39c1.82,0,2.45,.71,2.45,1.74,0,1.22-1.21,2.22-3.51,2.22-1.98,0-2.56-.67-2.56-1.4,0-.58,.43-1.05,1.33-1.37l.17,.11c-.25,.36-.35,.56-.35,.94,0,.71,.5,1.01,1.59,1.01,1.2,0,1.81-.39,1.81-.91Zm-1.8-7.04c1.7,0,2.49,.8,2.49,1.93s-.8,1.91-2.5,1.91-2.5-.81-2.5-1.91,.8-1.93,2.5-1.93Zm-.8,1.92c0,.84,.24,1.36,.79,1.36s.83-.52,.83-1.37-.28-1.34-.81-1.34-.81,.51-.81,1.35Zm4.03-1.94l.19,.12v.92h-1.71v-.39l1.52-.65Z"/><path class="cls-2" d="M365.83,330.34c0,.26-.02,.44-.07,.64h-4.67v-.63h2.24c.57,0,.72-.21,.72-.75,0-.78-.38-1.17-.81-1.17-.5,0-.95,.54-.95,2.26,0,1.46,.72,2.11,1.61,2.11,.64,0,1.09-.27,1.45-.64l.41,.39c-.49,.93-1.35,1.39-2.5,1.39-1.74,0-2.97-1.13-2.97-3.06s1.53-3.07,3.07-3.07,2.47,1.08,2.47,2.52Z"/></g></svg>