<?xml version="1.0" encoding="UTF-8"?><svg xmlns="http://www.w3.org/2000/svg" viewBox="0 0 711.07 627.08"><defs><style>.cls-1{fill:none;}.cls-2{fill:#fff995;}.cls-3{fill:#fffa96;}.cls-4{fill:#122aff;}</style></defs><g id="Layer_1"><g><path class="cls-1" d="M312.44,59.5c-138.26-17.79-212.47-27.34-233,1-28.07,38.75,77.37,102.6,76,212-1.72,137.55-170.43,198.49-146,261,23.36,59.76,210.59,88.58,342,33,32.48-13.74,63.98-33.66,107-26,68.98,12.28,84.4,80.65,125,78,68.41-4.47,103.43-203.78,106-219,12.49-74.01,32.07-190.02-35-293-19.79-30.39-64.37-98.83-124-99-52.9-.15-80.1,53.53-164,57-17.07,.71-24.26-1.17-54-5Z"/><path class="cls-4" d="M581.13,626.58c-21.07,0-35.94-15.61-51.65-32.1-17.85-18.74-38.08-39.98-72.44-46.1-33.34-5.93-58.88,5.75-85.93,18.12-5.4,2.47-10.99,5.03-16.55,7.38-58.57,24.77-119.39,30.19-160.1,30.37-52.63,.23-103.55-8.37-139.69-23.61-27.81-11.72-46.06-27.01-52.78-44.22-12.76-32.65,17.29-62.88,52.09-97.88,41.19-41.43,92.44-92.99,93.36-166.13,.71-56.58-28.52-100.63-52.01-136.03-10.44-15.73-19.45-29.32-24.51-41.9-6.24-15.51-5.57-28.16,2.04-38.67,23.31-32.18,95.9-22.85,240.5-4.24,6.76,.87,12.29,1.63,17.17,2.3,16.26,2.23,22.98,3.16,35.48,2.64,43.96-1.82,71.96-18.23,96.66-32.71C484.09,11.31,504.24-.5,530.22-.5h.24c63.96,.18,110.71,71.98,130.68,102.63,30.38,46.65,46.29,99.46,48.62,161.43,1.96,51.95-6.03,99.26-12.44,137.27-1.03,6.12-10.62,61.37-28.62,114.76-24.1,71.49-52.61,108.8-84.75,110.9-.96,.06-1.91,.09-2.84,.09Zm-141.87-95.8c6.58,0,13.42,.57,20.59,1.85,39.52,7.03,62.64,31.31,81.22,50.81,14.93,15.68,26.76,28.05,41.86,27.08,13.03-.85,26.12-11.08,38.91-30.4,11.14-16.83,21.81-40.26,31.72-69.64,17.6-52.22,26.99-106.31,28-112.31,12.56-74.44,31.55-186.94-33.82-287.3-18.55-28.49-62.01-95.21-117.32-95.37h-.2c-21.65,0-39.13,10.25-59.36,22.1-26.32,15.42-56.14,32.91-104.09,34.89-13.92,.58-21.57-.47-38.32-2.78-4.84-.67-10.33-1.42-17.03-2.28-129.56-16.67-207.76-26.73-225.5-2.24-9.22,12.72,2.08,31.04,22.84,62.33,23.4,35.26,55.45,83.56,54.68,145.07-1,79.63-54.79,133.74-98.01,177.21-32.13,32.31-57.5,57.84-48.54,80.78,5.11,13.08,20.36,25.29,44.09,35.3,33.76,14.23,81.53,22.35,131.35,22.35,.68,0,1.36,0,2.04,0,39.25-.17,97.82-5.37,153.94-29.1,5.35-2.26,10.58-4.66,16.13-7.19,22.82-10.44,46.29-21.16,74.8-21.16Z"/></g></g><g id="Layer_2"><g><path class="cls-2" d="M280.12,179.38l-9.41-32.07h7.8l3.17,13.61c1.01,4.39,2.34,9.32,2.83,12.85h.14c.46-3.37,1.88-8.33,2.83-12.74l3.09-13.72h7.72l-9.28,32.07h-8.89Z"/><path class="cls-2" d="M321.54,164.37h-11.94v11.06h13.67l-.94,3.95h-19.96v-32.07h19.83v3.99h-12.61v9.11h11.94v3.95Z"/><path class="cls-2" d="M327.51,179.38v-32.07h8.45c2.46,5.12,9.34,21.36,10.04,23.45h.1c-.35-4.1-.4-8.61-.4-13.86v-9.58h6.71v32.07h-8.14c-2.19-4.75-9.59-22.36-10.33-24.22h-.08c.38,3.87,.42,8.55,.42,14.32v9.9h-6.77Z"/><path class="cls-2" d="M366.92,147.32v24.62c0,2.47,1.4,4,4.96,4s4.85-1.58,4.85-3.99v-24.63h7.25v24.52c0,5.02-3.8,8-12.23,8s-12.05-2.65-12.05-7.96v-24.56h7.22Z"/><path class="cls-2" d="M410.37,164.37h-11.94v11.06h13.67l-.94,3.95h-19.96v-32.07h19.83v3.99h-12.61v9.11h11.94v3.95Z"/><path class="cls-2" d="M422.4,170.12v1.93c0,2.65,1.43,4.1,4.85,4.1s4.62-1.76,4.62-4.44c0-3.58-1.31-4.81-7.04-7.49-5.78-2.71-8.8-4.4-8.8-9.14,0-4.16,2.1-8.27,11.29-8.25,9.13,.01,10.91,3.79,10.91,7.52v1.62h-7.16v-1.5c0-2.41-.73-3.92-3.88-3.92s-3.93,1.62-3.93,3.91c0,2.57,.84,3.68,5.66,5.82,7.81,3.47,10.24,5.45,10.24,10.8,0,4.53-2.46,8.76-12.1,8.76s-11.87-3.62-11.87-7.84v-1.88h7.22Z"/></g><g><path class="cls-3" d="M281.24,244.72h3.61c4.46,0,5.12,2.69,4.23,6.85l-1.61,7.53c-.77,3.56-1.75,5.66-5.93,5.66h-4.56l4.26-20.04Zm-.73,17.52h.98c1.8,0,2.46-.96,2.92-3.17l1.81-8.51c.45-2.1,.33-3.3-1.57-3.3h-.94l-3.21,14.98Z"/><path class="cls-3" d="M299.61,254.18l-1.24,5.88c-.69,3.3-1.79,4.95-5.07,4.95-3.09,0-4.43-1.89-3.74-5.15l1.33-6.21c.61-2.91,1.95-4.65,5.02-4.65s4.35,2.02,3.7,5.18Zm-5.66-.53l-1.44,6.75c-.28,1.27,.05,2.09,1.1,2.09,.97,0,1.36-.78,1.64-2.12l1.44-6.7c.25-1.18,.18-2.15-1.05-2.15-1.1,0-1.42,.91-1.68,2.13Z"/><path class="cls-3" d="M304.7,249.24c-.59,6.76-.8,9.57-1.03,11.23h.03c.57-1.89,1.56-4.32,4.21-11.23h2.71c-.34,6.04-.49,9.27-.72,11.17h.03c.48-1.64,.9-3.15,3.65-11.17h3.03l-6.21,15.53h-2.84c.27-4.48,.35-8.29,.57-10.57h-.03c-.61,2.05-2.2,5.77-4.06,10.57h-2.9l.57-15.53h3Z"/><path class="cls-3" d="M317.2,254.03c.66-3.15,.86-4.11,.98-4.79h2.97c-.06,.42-.09,.73-.19,1.17,.61-.78,1.57-1.42,2.92-1.42,2.01,0,2.88,1.52,2.39,3.82l-2.55,11.95h-3.03l2.38-11.22c.3-1.4-.05-2.03-.92-2.03-1.02,0-1.54,.78-1.97,2.84l-2.23,10.41h-3.03l2.27-10.74Z"/><path class="cls-3" d="M335.96,260.23c-.49,2.28-.79,3.74-.91,4.54h-2.97c.03-.32,.1-.83,.19-1.31-.93,1.31-1.67,1.55-2.93,1.55s-2.97-.67-2.14-4.55l2.38-11.22h3.03l-2.37,11.08c-.29,1.43-.06,2.04,.83,2.04,.98,0,1.57-.77,2.01-2.82l2.17-10.29h3.06l-2.35,10.99Z"/><path class="cls-3" d="M339.88,254.03c.66-3.15,.86-4.11,.98-4.79h2.97c-.06,.42-.09,.73-.19,1.17,.61-.78,1.57-1.42,2.92-1.42,2.01,0,2.88,1.52,2.39,3.82l-2.55,11.95h-3.03l2.38-11.22c.3-1.4-.05-2.03-.92-2.03-1.02,0-1.54,.78-1.97,2.84l-2.23,10.41h-3.03l2.27-10.74Z"/><path class="cls-3" d="M361.89,243.85l-3.53,16.61c-.51,2.37-.7,3.41-.85,4.31h-2.95c.03-.44,.04-.77,.13-1.22-.66,.92-1.35,1.46-2.76,1.46-2.56,0-2.89-2.42-2.29-5.23l1.27-5.9c.54-2.45,1.41-4.88,4.18-4.88,1.11,0,2.06,.42,2.39,1.14l1.32-6.29h3.08Zm-7.91,10.04l-1.32,6.15c-.23,1.1-.26,2.31,.88,2.31,1.2,0,1.67-1.09,2.06-2.92l1.1-5.12c.38-1.71,.35-2.79-.95-2.79-1.02,0-1.46,.95-1.76,2.37Z"/><path class="cls-3" d="M364.17,257.81c-.02,.08-.5,2.33-.52,2.44-.27,1.23-.21,2.26,.91,2.26s1.36-1.08,1.54-1.95l.09-.44h2.98l-.07,.32c-.48,2.32-1.28,4.57-4.82,4.57-3.94,0-4.04-2.98-3.48-5.61l1.14-5.37c.51-2.42,1.36-5,4.95-5,3.84,0,4.15,2.62,3.57,5.34-.02,.08-.72,3.36-.74,3.46h-5.56Zm3.14-2.41c.01-.07,.42-1.98,.43-2.05,.21-1.04,.11-1.97-.99-1.97-.99,0-1.39,.77-1.64,1.95l-.45,2.07h2.64Z"/><path class="cls-3" d="M372.57,254.5c.54-2.58,.89-4.14,1.07-5.26h2.87c-.03,.37-.14,1.16-.39,2.3,.84-1.92,2.28-2.52,3.69-2.53l-.8,3.58c-2.04,0-3.22,.84-3.86,3.86l-1.73,8.32h-3.03l2.18-10.27Z"/><path class="cls-3" d="M282.88,336.76l-.62-7.46h-.03l-3.49,7.46h-3.17l5.62-10.65-1.38-9.39h3.17l.6,6.45h.03l3.07-6.45h3.2l-5.21,9.47,1.31,10.57h-3.09Z"/><path class="cls-3" d="M290.94,329.81c-.02,.08-.5,2.33-.52,2.44-.27,1.23-.21,2.26,.91,2.26s1.36-1.08,1.54-1.95l.09-.44h2.98l-.07,.32c-.48,2.32-1.28,4.57-4.82,4.57-3.94,0-4.04-2.98-3.48-5.61l1.14-5.37c.51-2.42,1.36-5,4.95-5,3.84,0,4.15,2.62,3.57,5.34-.02,.08-.72,3.36-.74,3.46h-5.56Zm3.14-2.41c.01-.07,.42-1.98,.43-2.05,.21-1.04,.11-1.97-.99-1.97-.98,0-1.39,.77-1.64,1.95l-.45,2.07h2.64Z"/><path class="cls-3" d="M299.44,326.03c.66-3.15,.86-4.11,.98-4.79h2.97c-.06,.42-.09,.73-.19,1.17,.61-.78,1.57-1.42,2.92-1.42,2.01,0,2.88,1.52,2.39,3.82l-2.55,11.95h-3.03l2.38-11.22c.3-1.4-.05-2.03-.92-2.03-1.02,0-1.54,.78-1.97,2.84l-2.23,10.41h-3.03l2.27-10.74Z"/><path class="cls-3" d="M319.23,326.18l-1.24,5.88c-.69,3.3-1.79,4.95-5.07,4.95-3.09,0-4.43-1.89-3.74-5.15l1.33-6.21c.61-2.91,1.95-4.65,5.02-4.65s4.35,2.02,3.7,5.18Zm-5.66-.53l-1.44,6.75c-.28,1.27,.05,2.09,1.1,2.09,.97,0,1.36-.78,1.64-2.12l1.44-6.7c.25-1.18,.18-2.15-1.05-2.15-1.1,0-1.42,.91-1.68,2.13Z"/><path class="cls-3" d="M321.49,326.03c.66-3.15,.86-4.11,.98-4.79h2.97c-.06,.42-.09,.73-.19,1.17,.61-.78,1.57-1.42,2.92-1.42,2.01,0,2.88,1.52,2.39,3.82l-2.55,11.95h-3.03l2.38-11.22c.3-1.4-.05-2.03-.92-2.03-1.02,0-1.54,.78-1.97,2.84l-2.23,10.41h-3.03l2.27-10.74Z"/><path class="cls-3" d="M328.76,339.3c1.49-2.41,2.35-4.35,2.92-6.98h2.82c-.43,2.37-1.74,5.28-3.38,6.98h-2.36Z"/><path class="cls-3" d="M344.77,319.53h-3.07l.61-2.81h9.2l-.61,2.81h-3.09l-3.65,17.23h-3.03l3.65-17.23Z"/><path class="cls-3" d="M351.36,329.81c-.02,.08-.5,2.33-.52,2.44-.27,1.23-.21,2.26,.91,2.26s1.36-1.08,1.54-1.95l.09-.44h2.98l-.07,.32c-.48,2.32-1.28,4.57-4.82,4.57-3.94,0-4.04-2.98-3.48-5.61l1.14-5.37c.51-2.42,1.36-5,4.95-5,3.84,0,4.15,2.62,3.57,5.34-.02,.08-.72,3.36-.74,3.46h-5.56Zm3.14-2.41c.01-.07,.42-1.98,.43-2.05,.21-1.04,.11-1.97-.99-1.97-.98,0-1.39,.77-1.64,1.95l-.45,2.07h2.64Z"/><path class="cls-3" d="M366.49,332.93c-.25,1.23-.7,3.32-.77,3.83h-2.95c.03-.29,.1-.79,.19-1.26-.73,1.02-1.49,1.5-2.75,1.5-2.44,0-2.79-2.32-2.29-4.71,.79-3.61,2.55-4.55,6.18-5.1,.21-.03,.39-.06,.6-.09l.41-1.88c.23-1.09,.14-1.83-.79-1.83s-1.14,.79-1.4,1.87l-.11,.47h-3l.06-.25c.42-1.93,.94-4.48,4.69-4.48,3.12,0,4.09,1.64,3.56,4.16l-1.64,7.78Zm-2.23-3.47c-.16,.03-.31,.06-.47,.09-1.6,.34-2.4,.86-2.81,2.59-.24,1.05-.27,2.21,.83,2.21s1.63-1.07,2.08-3.19l.37-1.7Z"/><path class="cls-3" d="M370.1,321.24h1.64l.87-3.75h3l-.87,3.75h1.93l-.55,2.6h-1.93l-2.09,9.4c-.16,.79-.09,1.3,.82,1.3,.3,0,.59-.01,.96-.07l-.5,2.3c-.55,.15-1.3,.23-1.9,.23-1.91,0-3.1-.63-2.52-3.32l2.17-9.85h-1.59l.55-2.6Z"/><path class="cls-3" d="M379.11,329.81c-.02,.08-.5,2.33-.52,2.44-.27,1.23-.21,2.26,.91,2.26s1.36-1.08,1.54-1.95l.09-.44h2.98l-.07,.32c-.48,2.32-1.28,4.57-4.82,4.57-3.94,0-4.04-2.98-3.48-5.61l1.14-5.37c.51-2.42,1.36-5,4.95-5,3.84,0,4.15,2.62,3.57,5.34-.02,.08-.72,3.36-.74,3.46h-5.56Zm3.14-2.41c.01-.07,.42-1.98,.43-2.05,.21-1.04,.11-1.97-.99-1.97-.98,0-1.39,.77-1.64,1.95l-.45,2.07h2.64Z"/><path class="cls-3" d="M387.51,326.5c.54-2.58,.89-4.14,1.07-5.26h2.87c-.03,.37-.14,1.16-.39,2.3,.84-1.92,2.28-2.52,3.69-2.53l-.8,3.58c-2.04,0-3.22,.84-3.86,3.86l-1.73,8.32h-3.03l2.18-10.27Z"/><path class="cls-3" d="M400.51,315.85l-1.38,6.5c.65-.83,1.62-1.36,2.87-1.36,2.25,0,2.82,1.78,2.34,4l-2.51,11.77h-3.03l2.37-11.19c.28-1.28,.21-2.06-.89-2.06s-1.55,.83-1.93,2.58l-2.28,10.67h-3.03l4.44-20.91h3.03Z"/><path class="cls-3" d="M414.08,332.23c-.49,2.28-.79,3.74-.91,4.54h-2.97c.03-.32,.1-.83,.19-1.31-.93,1.31-1.67,1.55-2.93,1.55s-2.97-.67-2.14-4.55l2.38-11.22h3.03l-2.37,11.08c-.29,1.43-.06,2.04,.83,2.04,.98,0,1.57-.77,2.01-2.82l2.17-10.29h3.06l-2.35,10.99Z"/><path class="cls-3" d="M419.09,331.91l-.14,.64c-.22,1.09-.14,2.04,.9,2.04,.77,0,1.09-.49,1.3-1.34,.37-1.54-.13-2.46-1.3-3.6-1.97-1.88-2.47-3.07-2.05-5.31,.42-2.19,1.84-3.35,4.01-3.35,2.86,0,4.08,1.8,3.57,4.35l-.12,.6h-2.84l.12-.72c.21-1.21,.05-1.82-.74-1.82-.61,0-.96,.47-1.1,1.3-.13,.81-.08,1.38,1.15,2.56,2.24,2.18,2.78,3.56,2.29,5.96-.49,2.43-1.84,3.78-4.42,3.78-3.48,0-4.28-2.15-3.62-4.85l.06-.25h2.95Z"/><path class="cls-3" d="M429.33,329.81c-.02,.08-.5,2.33-.52,2.44-.27,1.23-.21,2.26,.91,2.26s1.36-1.08,1.54-1.95l.09-.44h2.98l-.07,.32c-.48,2.32-1.28,4.57-4.82,4.57-3.94,0-4.04-2.98-3.48-5.61l1.14-5.37c.51-2.42,1.36-5,4.95-5,3.84,0,4.15,2.62,3.57,5.34-.02,.08-.72,3.36-.74,3.46h-5.56Zm3.14-2.41c.01-.07,.42-1.98,.43-2.05,.21-1.04,.11-1.97-.99-1.97-.98,0-1.39,.77-1.64,1.95l-.45,2.07h2.64Z"/><path class="cls-3" d="M437.71,321.24h1.64l.87-3.75h3l-.87,3.75h1.93l-.55,2.6h-1.93l-2.09,9.4c-.16,.79-.09,1.3,.82,1.3,.3,0,.59-.01,.96-.07l-.5,2.3c-.55,.15-1.3,.23-1.9,.23-1.91,0-3.1-.63-2.52-3.32l2.17-9.85h-1.59l.55-2.6Z"/><path class="cls-3" d="M276.46,406.78l8.01-15.27h-4.85l.61-2.78h8.35l-.52,2.33-7.77,14.92h5.27l-.97,2.78h-8.56l.44-1.99Z"/><path class="cls-3" d="M290.46,401.81c-.02,.08-.5,2.33-.52,2.44-.27,1.23-.21,2.26,.91,2.26s1.36-1.08,1.54-1.95l.09-.44h2.98l-.07,.32c-.48,2.32-1.28,4.57-4.82,4.57-3.94,0-4.04-2.98-3.48-5.61l1.14-5.37c.51-2.42,1.36-5,4.95-5,3.84,0,4.15,2.62,3.57,5.34-.02,.08-.72,3.36-.74,3.46h-5.56Zm3.14-2.41c.01-.07,.42-1.98,.43-2.05,.21-1.04,.11-1.97-.99-1.97-.98,0-1.39,.77-1.64,1.95l-.45,2.07h2.64Z"/><path class="cls-3" d="M301.01,388.72h4.04c3.21,0,4.34,1.76,3.76,4.92l-.2,1.08c-.39,2.04-1.35,3.21-2.8,3.54,1.5,.65,2.03,2.1,1.64,4.09l-.26,1.35c-.66,3.43-2.06,5.06-5.76,5.06h-4.67l4.26-20.04Zm-.75,17.52h1.32c1.72,0,2.17-.82,2.57-2.89l.26-1.38c.3-1.63,.2-2.6-1.81-2.6h-.87l-1.48,6.87Zm3-9.37c1.58,0,2.05-.52,2.45-2.56l.15-.79c.27-1.54,.03-2.25-1.71-2.25h-.71l-1.17,5.61h1Z"/><path class="cls-3" d="M318.08,404.23c-.49,2.28-.79,3.74-.91,4.54h-2.97c.03-.32,.1-.83,.19-1.31-.93,1.31-1.67,1.55-2.93,1.55s-2.97-.67-2.14-4.55l2.38-11.22h3.03l-2.37,11.08c-.29,1.43-.06,2.04,.83,2.04,.98,0,1.57-.77,2.01-2.82l2.17-10.29h3.06l-2.35,10.99Z"/><path class="cls-3" d="M279.22,480.76l.87-20.04h3.09l-.67,8.05c-.23,2.7-.58,6.71-.81,8.71h.06c.63-2.16,1.9-5.84,2.85-8.66l2.73-8.1h3.23l-7.59,20.04h-3.76Z"/><path class="cls-3" d="M298.26,470.18l-1.24,5.88c-.69,3.3-1.79,4.95-5.07,4.95-3.09,0-4.43-1.89-3.74-5.15l1.33-6.21c.61-2.91,1.95-4.65,5.02-4.65s4.35,2.02,3.7,5.18Zm-5.66-.53l-1.44,6.75c-.28,1.27,.05,2.09,1.1,2.09,.97,0,1.36-.78,1.64-2.12l1.44-6.7c.25-1.18,.18-2.15-1.05-2.15-1.1,0-1.42,.91-1.68,2.13Z"/><path class="cls-3" d="M303.21,465.24c.25,1.57,.66,4.21,.74,4.96h.03c.54-1.1,1.48-2.99,2.48-4.96h3.17l-4.56,7.42,1.51,8.1h-3c-.29-1.81-.66-4.45-.76-5.33h-.03c-.41,.72-1.59,2.95-2.9,5.33h-3.12l4.92-8.06-1.52-7.46h3.03Z"/><path class="cls-3" d="M306.41,483.3c1.49-2.41,2.35-4.35,2.92-6.98h2.82c-.43,2.37-1.74,5.28-3.38,6.98h-2.36Z"/><path class="cls-3" d="M322.42,463.53h-3.07l.61-2.81h9.2l-.61,2.81h-3.09l-3.65,17.23h-3.03l3.65-17.23Z"/><path class="cls-3" d="M329.01,473.81c-.02,.08-.5,2.33-.52,2.44-.27,1.23-.21,2.26,.91,2.26s1.36-1.08,1.54-1.95l.09-.44h2.98l-.07,.32c-.48,2.32-1.28,4.57-4.82,4.57-3.94,0-4.04-2.98-3.48-5.61l1.14-5.37c.51-2.42,1.36-5,4.95-5,3.84,0,4.15,2.62,3.57,5.34-.02,.08-.72,3.36-.74,3.46h-5.56Zm3.14-2.41c.01-.07,.42-1.98,.43-2.05,.21-1.04,.11-1.97-.99-1.97-.98,0-1.39,.77-1.64,1.95l-.45,2.07h2.64Z"/><path class="cls-3" d="M344.14,476.93c-.25,1.23-.7,3.32-.77,3.83h-2.95c.03-.29,.1-.79,.19-1.26-.73,1.02-1.49,1.5-2.75,1.5-2.44,0-2.79-2.32-2.29-4.71,.79-3.61,2.55-4.55,6.18-5.1,.21-.03,.39-.06,.6-.09l.41-1.88c.24-1.09,.14-1.83-.79-1.83s-1.14,.79-1.4,1.87l-.11,.47h-3l.06-.25c.42-1.93,.94-4.48,4.69-4.48,3.12,0,4.09,1.64,3.56,4.16l-1.64,7.78Zm-2.23-3.47c-.16,.03-.31,.06-.47,.09-1.6,.34-2.4,.86-2.81,2.59-.24,1.05-.27,2.21,.83,2.21s1.63-1.07,2.08-3.19l.37-1.7Z"/><path class="cls-3" d="M347.75,465.24h1.64l.87-3.75h3l-.87,3.75h1.93l-.55,2.6h-1.93l-2.09,9.4c-.16,.79-.09,1.3,.82,1.3,.3,0,.59-.01,.96-.07l-.5,2.3c-.55,.15-1.3,.23-1.9,.23-1.91,0-3.1-.63-2.52-3.32l2.17-9.85h-1.59l.55-2.6Z"/><path class="cls-3" d="M356.76,473.81c-.02,.08-.5,2.33-.52,2.44-.27,1.23-.21,2.26,.91,2.26s1.36-1.08,1.54-1.95l.09-.44h2.98l-.07,.32c-.48,2.32-1.28,4.57-4.82,4.57-3.94,0-4.04-2.98-3.48-5.61l1.14-5.37c.51-2.42,1.36-5,4.95-5,3.84,0,4.15,2.62,3.57,5.34-.02,.08-.72,3.36-.74,3.46h-5.56Zm3.14-2.41c.01-.07,.42-1.98,.43-2.05,.21-1.04,.11-1.97-.99-1.97-.98,0-1.39,.77-1.64,1.95l-.45,2.07h2.64Z"/><path class="cls-3" d="M365.16,470.5c.54-2.58,.89-4.14,1.07-5.26h2.87c-.03,.37-.14,1.16-.39,2.3,.84-1.92,2.28-2.52,3.69-2.53l-.8,3.58c-2.04,0-3.22,.84-3.86,3.86l-1.73,8.32h-3.03l2.18-10.27Z"/><path class="cls-3" d="M382.15,459.85l-1.38,6.5c.65-.83,1.62-1.36,2.87-1.36,2.25,0,2.82,1.78,2.34,4l-2.51,11.77h-3.03l2.37-11.19c.28-1.28,.21-2.06-.89-2.06s-1.55,.83-1.93,2.58l-2.28,10.67h-3.03l4.44-20.91h3.03Z"/><path class="cls-3" d="M395.72,476.23c-.49,2.28-.79,3.74-.91,4.54h-2.97c.03-.32,.1-.83,.19-1.31-.93,1.31-1.67,1.55-2.93,1.55s-2.97-.67-2.14-4.55l2.38-11.22h3.03l-2.37,11.08c-.29,1.43-.06,2.04,.83,2.04,.98,0,1.57-.77,2.01-2.82l2.17-10.29h3.06l-2.35,10.99Z"/><path class="cls-3" d="M400.73,475.91l-.14,.64c-.22,1.09-.14,2.04,.9,2.04,.77,0,1.09-.49,1.3-1.34,.37-1.54-.13-2.46-1.3-3.6-1.97-1.88-2.47-3.07-2.05-5.31,.42-2.19,1.84-3.35,4.01-3.35,2.86,0,4.08,1.8,3.57,4.35l-.12,.6h-2.84l.12-.72c.21-1.21,.05-1.82-.74-1.82-.61,0-.96,.47-1.1,1.3-.13,.81-.08,1.38,1.15,2.56,2.24,2.18,2.78,3.56,2.29,5.96-.49,2.43-1.84,3.78-4.42,3.78-3.48,0-4.28-2.15-3.62-4.85l.06-.25h2.95Z"/><path class="cls-3" d="M410.97,473.81c-.02,.08-.5,2.33-.52,2.44-.27,1.23-.21,2.26,.91,2.26s1.36-1.08,1.54-1.95l.09-.44h2.98l-.07,.32c-.48,2.32-1.28,4.57-4.82,4.57-3.94,0-4.04-2.98-3.48-5.61l1.14-5.37c.51-2.42,1.36-5,4.95-5,3.84,0,4.15,2.62,3.57,5.34-.02,.08-.72,3.36-.74,3.46h-5.56Zm3.14-2.41c.01-.07,.42-1.98,.43-2.05,.21-1.04,.11-1.97-.99-1.97-.98,0-1.39,.77-1.64,1.95l-.45,2.07h2.64Z"/><path class="cls-3" d="M419.35,465.24h1.64l.87-3.75h3l-.87,3.75h1.93l-.55,2.6h-1.93l-2.09,9.4c-.16,.79-.09,1.3,.82,1.3,.3,0,.59-.01,.96-.07l-.5,2.3c-.55,.15-1.3,.23-1.9,.23-1.91,0-3.1-.63-2.52-3.32l2.17-9.85h-1.59l.55-2.6Z"/></g><polygon class="cls-4" points="407.71 243.5 396.12 265.5 420.94 265.5 407.71 243.5"/><path class="cls-4" d="M472.71,317.55c-4.93,.51-8.36,4.76-8.78,8.86-.53,5.24,3.75,10.88,9.58,11.08,6.01,.2,11.02-5.48,10.38-11.08-.58-4.99-5.59-9.45-11.17-8.86Z"/><path class="cls-4" d="M457.71,460.55c-1.43,.14-1.36,2.23-3.77,4.95-3.01,3.39-5.98,3.35-6,5-.02,1.57,2.68,1.66,6,5,2.85,2.87,3.06,5,4.57,4.99,1.43,0,1.72-1.93,4.43-4.99,3.47-3.92,6.2-4.39,6-6-.19-1.52-2.64-1.27-6-4-3.28-2.66-3.68-5.1-5.23-4.95Z"/><rect class="cls-4" x="350.2" y="392.76" width="21.22" height="15.36"/></g></svg>