<?xml version="1.0" encoding="UTF-8"?><svg xmlns="http://www.w3.org/2000/svg" viewBox="0 0 711.07 627.08"><defs><style>.cls-1{fill:none;}.cls-2{fill:#fff995;}.cls-3{fill:#fffa96;}.cls-4{fill:#122aff;}</style></defs><g id="Layer_1"><g><path class="cls-1" d="M312.44,59.5c-138.26-17.79-212.47-27.34-233,1-28.07,38.75,77.37,102.6,76,212-1.72,137.55-170.43,198.49-146,261,23.36,59.76,210.59,88.58,342,33,32.48-13.74,63.98-33.66,107-26,68.98,12.28,84.4,80.65,125,78,68.41-4.47,103.43-203.78,106-219,12.49-74.01,32.07-190.02-35-293-19.79-30.39-64.37-98.83-124-99-52.9-.15-80.1,53.53-164,57-17.07,.71-24.26-1.17-54-5Z"/><path class="cls-4" d="M581.13,626.58c-21.07,0-35.94-15.61-51.65-32.1-17.85-18.74-38.08-39.98-72.44-46.1-33.34-5.93-58.88,5.75-85.93,18.12-5.4,2.47-10.99,5.03-16.55,7.38-58.57,24.77-119.39,30.19-160.1,30.37-52.63,.23-103.55-8.37-139.69-23.61-27.81-11.72-46.06-27.01-52.78-44.22-12.76-32.65,17.29-62.88,52.09-97.88,41.19-41.43,92.44-92.99,93.36-166.13,.71-56.58-28.52-100.63-52.01-136.03-10.44-15.73-19.45-29.32-24.51-41.9-6.24-15.51-5.57-28.16,2.04-38.67,23.31-32.18,95.9-22.85,240.5-4.24,6.76,.87,12.29,1.63,17.17,2.3,16.26,2.23,22.98,3.16,35.48,2.64,43.96-1.82,71.96-18.23,96.66-32.71C484.09,11.31,504.24-.5,530.22-.5h.24c63.96,.18,110.71,71.98,130.68,102.63,30.38,46.65,46.29,99.46,48.62,161.43,1.96,51.95-6.03,99.26-12.44,137.27-1.03,6.12-10.62,61.37-28.62,114.76-24.1,71.49-52.61,108.8-84.75,110.9-.96,.06-1.91,.09-2.84,.09Zm-141.87-95.8c6.58,0,13.42,.57,20.59,1.85,39.52,7.03,62.64,31.31,81.22,50.81,14.93,15.68,26.76,28.05,41.86,27.08,13.03-.85,26.12-11.08,38.91-30.4,11.14-16.83,21.81-40.26,31.72-69.64,17.6-52.22,26.99-106.31,28-112.31,12.56-74.44,31.55-186.94-33.82-287.3-18.55-28.49-62.01-95.21-117.32-95.37h-.2c-21.65,0-39.13,10.25-59.36,22.1-26.32,15.42-56.14,32.91-104.09,34.89-13.92,.58-21.57-.47-38.32-2.78-4.84-.67-10.33-1.42-17.03-2.28-129.56-16.67-207.76-26.73-225.5-2.24-9.22,12.72,2.08,31.04,22.84,62.33,23.4,35.26,55.45,83.56,54.68,145.07-1,79.63-54.79,133.74-98.01,177.21-32.13,32.31-57.5,57.84-48.54,80.78,5.11,13.08,20.36,25.29,44.09,35.3,33.76,14.23,81.53,22.35,131.35,22.35,.68,0,1.36,0,2.04,0,39.25-.17,97.82-5.37,153.94-29.1,5.35-2.26,10.58-4.66,16.13-7.19,22.82-10.44,46.29-21.16,74.8-21.16Z"/></g></g><g id="Layer_2"><g><path class="cls-2" d="M280.12,179.38l-9.41-32.07h7.8l3.17,13.61c1.01,4.39,2.34,9.32,2.83,12.85h.14c.46-3.37,1.88-8.33,2.83-12.74l3.09-13.72h7.72l-9.28,32.07h-8.89Z"/><path class="cls-2" d="M321.54,164.37h-11.94v11.06h13.67l-.94,3.95h-19.96v-32.07h19.83v3.99h-12.61v9.11h11.94v3.95Z"/><path class="cls-2" d="M327.51,179.38v-32.07h8.45c2.46,5.12,9.34,21.36,10.04,23.45h.1c-.35-4.1-.4-8.61-.4-13.86v-9.58h6.71v32.07h-8.14c-2.19-4.75-9.59-22.36-10.33-24.22h-.08c.38,3.87,.42,8.55,.42,14.32v9.9h-6.77Z"/><path class="cls-2" d="M366.92,147.32v24.62c0,2.47,1.4,4,4.96,4s4.85-1.58,4.85-3.99v-24.63h7.25v24.52c0,5.02-3.8,8-12.23,8s-12.05-2.65-12.05-7.96v-24.56h7.22Z"/><path class="cls-2" d="M410.37,164.37h-11.94v11.06h13.67l-.94,3.95h-19.96v-32.07h19.83v3.99h-12.61v9.11h11.94v3.95Z"/><path class="cls-2" d="M422.4,170.12v1.93c0,2.65,1.43,4.1,4.85,4.1s4.62-1.76,4.62-4.44c0-3.58-1.31-4.81-7.04-7.49-5.78-2.71-8.8-4.4-8.8-9.14,0-4.16,2.1-8.27,11.29-8.25,9.13,.01,10.91,3.79,10.91,7.52v1.62h-7.16v-1.5c0-2.41-.73-3.92-3.88-3.92s-3.93,1.62-3.93,3.91c0,2.57,.84,3.68,5.66,5.82,7.81,3.47,10.24,5.45,10.24,10.8,0,4.53-2.46,8.76-12.1,8.76s-11.87-3.62-11.87-7.84v-1.88h7.22Z"/></g><g><path class="cls-3" d="M275.78,232.05h4.09c5.05,0,5.8,3.05,4.79,7.76l-1.83,8.53c-.87,4.03-1.98,6.42-6.72,6.42h-5.16l4.83-22.71Zm-.83,19.86h1.11c2.04,0,2.79-1.09,3.31-3.59l2.05-9.65c.52-2.38,.37-3.73-1.78-3.73h-1.06l-3.63,16.97Z"/><path class="cls-3" d="M296.6,242.77l-1.41,6.66c-.78,3.74-2.03,5.61-5.74,5.61-3.5,0-5.02-2.14-4.24-5.83l1.5-7.03c.69-3.3,2.21-5.27,5.69-5.27s4.93,2.29,4.19,5.87Zm-6.41-.6l-1.63,7.65c-.31,1.44,.05,2.37,1.24,2.37,1.09,0,1.54-.88,1.86-2.4l1.63-7.59c.28-1.33,.2-2.44-1.19-2.44-1.24,0-1.61,1.03-1.91,2.42Z"/><path class="cls-3" d="M302.37,237.17c-.66,7.66-.9,10.85-1.17,12.73h.03c.65-2.15,1.76-4.9,4.77-12.73h3.07c-.39,6.85-.55,10.5-.82,12.66h.03c.54-1.86,1.02-3.57,4.14-12.66h3.44l-7.03,17.6h-3.22c.31-5.07,.4-9.4,.64-11.98h-.03c-.69,2.32-2.5,6.54-4.6,11.98h-3.28l.64-17.6h3.4Z"/><path class="cls-3" d="M316.53,242.59c.74-3.58,.98-4.66,1.11-5.43h3.37c-.06,.48-.11,.83-.22,1.33,.7-.88,1.78-1.6,3.31-1.6,2.27,0,3.26,1.72,2.7,4.33l-2.89,13.54h-3.43l2.7-12.71c.34-1.59-.06-2.3-1.04-2.3-1.15,0-1.75,.88-2.23,3.21l-2.53,11.8h-3.43l2.58-12.17Z"/><path class="cls-3" d="M337.8,249.62c-.56,2.59-.9,4.24-1.03,5.14h-3.37c.03-.36,.11-.94,.22-1.48-1.05,1.48-1.9,1.75-3.32,1.75s-3.37-.76-2.43-5.16l2.69-12.71h3.43l-2.69,12.55c-.33,1.62-.07,2.31,.94,2.31,1.11,0,1.78-.88,2.28-3.2l2.46-11.67h3.47l-2.66,12.46Z"/><path class="cls-3" d="M342.23,242.59c.74-3.58,.98-4.66,1.11-5.43h3.37c-.06,.48-.11,.83-.22,1.33,.7-.88,1.78-1.6,3.31-1.6,2.27,0,3.26,1.72,2.7,4.33l-2.89,13.54h-3.43l2.7-12.71c.34-1.59-.06-2.3-1.04-2.3-1.15,0-1.75,.88-2.23,3.21l-2.53,11.8h-3.43l2.58-12.17Z"/><path class="cls-3" d="M367.18,231.06l-4,18.82c-.58,2.68-.79,3.86-.96,4.88h-3.34c.03-.5,.04-.87,.15-1.39-.75,1.04-1.53,1.66-3.13,1.66-2.9,0-3.27-2.74-2.59-5.92l1.44-6.68c.61-2.78,1.6-5.54,4.74-5.54,1.26,0,2.33,.48,2.71,1.29l1.49-7.12h3.5Zm-8.97,11.37l-1.49,6.97c-.27,1.25-.29,2.62,.99,2.62,1.36,0,1.89-1.24,2.33-3.31l1.24-5.8c.43-1.94,.4-3.16-1.08-3.16-1.15,0-1.66,1.07-1.99,2.68Z"/><path class="cls-3" d="M369.77,246.89c-.02,.09-.56,2.65-.59,2.76-.3,1.39-.23,2.56,1.03,2.56s1.54-1.22,1.74-2.21l.1-.5h3.38l-.08,.36c-.54,2.63-1.45,5.18-5.46,5.18-4.47,0-4.58-3.38-3.94-6.36l1.3-6.08c.57-2.74,1.54-5.67,5.6-5.67,4.35,0,4.7,2.97,4.05,6.05-.02,.09-.81,3.81-.84,3.92h-6.3Zm3.56-2.73c.02-.08,.47-2.25,.49-2.33,.23-1.18,.12-2.23-1.12-2.23-1.12,0-1.57,.87-1.85,2.21l-.51,2.35h2.99Z"/><path class="cls-3" d="M379.29,243.13c.61-2.92,1.01-4.7,1.22-5.96h3.25c-.03,.42-.16,1.32-.44,2.61,.95-2.17,2.58-2.86,4.18-2.87l-.9,4.06c-2.31,0-3.65,.95-4.38,4.38l-1.96,9.42h-3.43l2.47-11.63Z"/><path class="cls-3" d="M277.64,334.76l-.71-8.45h-.03l-3.96,8.45h-3.59l6.37-12.07-1.56-10.64h3.59l.69,7.31h.03l3.47-7.31h3.62l-5.91,10.74,1.49,11.97h-3.5Z"/><path class="cls-3" d="M286.78,326.89c-.02,.09-.56,2.65-.59,2.76-.3,1.39-.23,2.56,1.03,2.56s1.54-1.22,1.74-2.21l.1-.5h3.37l-.08,.36c-.54,2.63-1.45,5.18-5.46,5.18-4.47,0-4.58-3.38-3.94-6.36l1.3-6.08c.57-2.74,1.54-5.67,5.6-5.67,4.35,0,4.7,2.97,4.05,6.05-.02,.09-.81,3.81-.84,3.92h-6.3Zm3.56-2.73c.02-.08,.47-2.25,.49-2.33,.23-1.18,.12-2.23-1.12-2.23-1.12,0-1.57,.87-1.85,2.21l-.51,2.35h2.99Z"/><path class="cls-3" d="M296.4,322.59c.74-3.58,.98-4.66,1.11-5.43h3.37c-.06,.48-.11,.83-.22,1.33,.7-.88,1.78-1.6,3.31-1.6,2.27,0,3.26,1.72,2.7,4.33l-2.89,13.54h-3.43l2.7-12.71c.34-1.59-.06-2.3-1.04-2.3-1.15,0-1.75,.88-2.23,3.21l-2.53,11.8h-3.43l2.58-12.17Z"/><path class="cls-3" d="M318.84,322.77l-1.41,6.66c-.78,3.74-2.03,5.61-5.74,5.61-3.5,0-5.02-2.14-4.24-5.83l1.5-7.03c.69-3.3,2.21-5.27,5.69-5.27s4.93,2.29,4.19,5.87Zm-6.41-.6l-1.63,7.65c-.31,1.44,.05,2.37,1.24,2.37,1.09,0,1.54-.88,1.86-2.4l1.63-7.59c.28-1.33,.2-2.44-1.19-2.44-1.24,0-1.61,1.03-1.91,2.42Z"/><path class="cls-3" d="M321.39,322.59c.74-3.58,.98-4.66,1.11-5.43h3.37c-.06,.48-.11,.83-.22,1.33,.7-.88,1.78-1.6,3.31-1.6,2.27,0,3.26,1.72,2.7,4.33l-2.89,13.54h-3.43l2.7-12.71c.34-1.59-.06-2.3-1.04-2.3-1.15,0-1.75,.88-2.23,3.21l-2.53,11.8h-3.43l2.58-12.17Z"/><path class="cls-3" d="M329.64,337.64c1.69-2.74,2.67-4.93,3.31-7.91h3.2c-.49,2.69-1.97,5.98-3.83,7.91h-2.68Z"/><path class="cls-3" d="M347.78,315.24h-3.48l.69-3.18h10.42l-.69,3.18h-3.51l-4.14,19.53h-3.43l4.14-19.53Z"/><path class="cls-3" d="M355.25,326.89c-.02,.09-.56,2.65-.59,2.76-.3,1.39-.23,2.56,1.03,2.56s1.54-1.22,1.74-2.21l.1-.5h3.38l-.08,.36c-.54,2.63-1.45,5.18-5.46,5.18-4.47,0-4.58-3.38-3.94-6.36l1.3-6.08c.57-2.74,1.54-5.67,5.6-5.67,4.35,0,4.7,2.97,4.05,6.05-.02,.09-.81,3.81-.84,3.92h-6.3Zm3.56-2.73c.02-.08,.47-2.25,.49-2.33,.23-1.18,.12-2.23-1.12-2.23-1.12,0-1.57,.87-1.85,2.21l-.51,2.35h2.99Z"/><path class="cls-3" d="M372.4,330.42c-.29,1.4-.8,3.76-.87,4.34h-3.34c.04-.33,.11-.89,.21-1.43-.82,1.16-1.69,1.7-3.12,1.7-2.76,0-3.16-2.63-2.59-5.34,.89-4.09,2.89-5.16,7.01-5.78,.23-.03,.44-.07,.68-.1l.47-2.14c.27-1.24,.16-2.08-.89-2.08s-1.29,.89-1.59,2.12l-.13,.54h-3.4l.06-.29c.48-2.19,1.07-5.07,5.32-5.07,3.53,0,4.64,1.86,4.04,4.71l-1.85,8.81Zm-2.53-3.93c-.18,.03-.36,.07-.53,.1-1.81,.39-2.72,.97-3.18,2.94-.27,1.19-.3,2.5,.93,2.5s1.85-1.21,2.36-3.61l.42-1.93Z"/><path class="cls-3" d="M376.48,317.17h1.86l.99-4.25h3.4l-.98,4.25h2.19l-.63,2.94h-2.19l-2.37,10.65c-.19,.9-.1,1.47,.93,1.47,.34,0,.66-.01,1.09-.08l-.57,2.61c-.62,.17-1.47,.26-2.15,.26-2.16,0-3.51-.71-2.86-3.76l2.46-11.16h-1.8l.63-2.94Z"/><path class="cls-3" d="M386.7,326.89c-.02,.09-.56,2.65-.59,2.76-.3,1.39-.23,2.56,1.03,2.56s1.54-1.22,1.74-2.21l.1-.5h3.38l-.08,.36c-.54,2.63-1.45,5.18-5.46,5.18-4.47,0-4.58-3.38-3.94-6.36l1.3-6.08c.57-2.74,1.54-5.67,5.6-5.67,4.35,0,4.7,2.97,4.05,6.05-.02,.09-.81,3.81-.84,3.92h-6.3Zm3.56-2.73c.02-.08,.47-2.25,.49-2.33,.23-1.18,.12-2.23-1.12-2.23-1.12,0-1.57,.87-1.85,2.21l-.51,2.35h2.99Z"/><path class="cls-3" d="M396.22,323.13c.61-2.92,1.01-4.7,1.22-5.96h3.25c-.03,.42-.16,1.32-.44,2.61,.95-2.17,2.58-2.86,4.18-2.87l-.9,4.06c-2.31,0-3.65,.95-4.38,4.38l-1.96,9.42h-3.43l2.47-11.63Z"/><path class="cls-3" d="M410.96,311.06l-1.56,7.37c.74-.94,1.83-1.54,3.25-1.54,2.55,0,3.2,2.02,2.66,4.53l-2.84,13.34h-3.43l2.69-12.68c.31-1.45,.24-2.33-1.01-2.33s-1.75,.93-2.19,2.92l-2.58,12.09h-3.43l5.03-23.7h3.43Z"/><path class="cls-3" d="M426.33,329.62c-.56,2.59-.9,4.24-1.03,5.14h-3.37c.03-.36,.11-.94,.22-1.48-1.05,1.48-1.9,1.75-3.32,1.75s-3.37-.76-2.43-5.16l2.69-12.71h3.43l-2.69,12.55c-.33,1.62-.07,2.31,.94,2.31,1.11,0,1.78-.88,2.28-3.2l2.46-11.67h3.47l-2.66,12.46Z"/><path class="cls-3" d="M432.01,329.26l-.16,.73c-.25,1.24-.16,2.31,1.02,2.31,.87,0,1.24-.56,1.47-1.52,.42-1.74-.15-2.79-1.47-4.08-2.23-2.13-2.8-3.48-2.33-6.02,.47-2.48,2.09-3.79,4.55-3.79,3.24,0,4.63,2.04,4.04,4.93l-.14,.68h-3.22l.14-.82c.24-1.37,.06-2.06-.84-2.06-.69,0-1.09,.53-1.25,1.47-.15,.92-.09,1.56,1.3,2.9,2.54,2.48,3.15,4.03,2.59,6.75-.55,2.76-2.08,4.28-5.01,4.28-3.95,0-4.85-2.44-4.1-5.49l.07-.28h3.34Z"/><path class="cls-3" d="M443.62,326.89c-.02,.09-.56,2.65-.59,2.76-.3,1.39-.23,2.56,1.03,2.56s1.54-1.22,1.74-2.21l.1-.5h3.38l-.08,.36c-.54,2.63-1.45,5.18-5.46,5.18-4.47,0-4.58-3.38-3.94-6.36l1.3-6.08c.57-2.74,1.54-5.67,5.6-5.67,4.35,0,4.7,2.97,4.05,6.05-.02,.09-.81,3.81-.84,3.92h-6.3Zm3.56-2.73c.02-.08,.47-2.25,.49-2.33,.23-1.18,.12-2.23-1.12-2.23-1.12,0-1.57,.87-1.85,2.21l-.51,2.35h2.99Z"/><path class="cls-3" d="M453.12,317.17h1.86l.99-4.25h3.4l-.98,4.25h2.19l-.63,2.94h-2.19l-2.37,10.65c-.19,.9-.1,1.47,.93,1.47,.34,0,.66-.01,1.09-.08l-.57,2.61c-.62,.17-1.47,.26-2.15,.26-2.16,0-3.51-.71-2.86-3.76l2.46-11.16h-1.8l.63-2.94Z"/><path class="cls-3" d="M270.36,412.51l9.07-17.3h-5.49l.69-3.15h9.46l-.59,2.65-8.8,16.91h5.97l-1.1,3.15h-9.7l.5-2.25Z"/><path class="cls-3" d="M286.23,406.89c-.02,.09-.56,2.65-.59,2.76-.3,1.39-.23,2.56,1.03,2.56s1.54-1.22,1.74-2.21l.1-.5h3.37l-.08,.36c-.54,2.63-1.45,5.18-5.46,5.18-4.47,0-4.58-3.38-3.94-6.36l1.3-6.08c.57-2.74,1.54-5.67,5.6-5.67,4.35,0,4.7,2.97,4.05,6.05-.02,.09-.81,3.81-.84,3.92h-6.3Zm3.56-2.73c.02-.08,.47-2.25,.49-2.33,.23-1.18,.12-2.23-1.12-2.23-1.12,0-1.57,.87-1.85,2.21l-.51,2.35h2.99Z"/><path class="cls-3" d="M298.18,392.05h4.58c3.64,0,4.92,1.99,4.26,5.57l-.23,1.23c-.44,2.31-1.53,3.64-3.17,4.01,1.7,.74,2.3,2.38,1.86,4.63l-.3,1.54c-.75,3.89-2.34,5.74-6.53,5.74h-5.3l4.83-22.71Zm-.85,19.86h1.49c1.95,0,2.46-.93,2.92-3.28l.3-1.57c.34-1.85,.22-2.95-2.05-2.95h-.98l-1.68,7.79Zm3.4-10.61c1.79,0,2.33-.59,2.77-2.9l.17-.9c.31-1.74,.03-2.55-1.94-2.55h-.8l-1.33,6.36h1.13Z"/><path class="cls-3" d="M317.53,409.62c-.56,2.59-.9,4.24-1.03,5.14h-3.37c.03-.36,.11-.94,.22-1.48-1.05,1.48-1.9,1.75-3.32,1.75s-3.37-.76-2.43-5.16l2.69-12.71h3.43l-2.69,12.55c-.33,1.62-.07,2.31,.94,2.31,1.11,0,1.78-.88,2.28-3.2l2.46-11.67h3.47l-2.66,12.46Z"/><path class="cls-3" d="M273.49,494.76l.99-22.71h3.5l-.75,9.12c-.26,3.06-.66,7.6-.92,9.87h.06c.72-2.45,2.16-6.62,3.23-9.82l3.09-9.17h3.66l-8.6,22.71h-4.26Z"/><path class="cls-3" d="M295.07,482.77l-1.41,6.66c-.78,3.74-2.03,5.61-5.74,5.61-3.5,0-5.02-2.14-4.24-5.83l1.5-7.03c.69-3.3,2.21-5.27,5.69-5.27s4.93,2.29,4.19,5.87Zm-6.41-.6l-1.63,7.65c-.31,1.44,.05,2.37,1.24,2.37,1.09,0,1.54-.88,1.86-2.4l1.63-7.59c.28-1.33,.2-2.44-1.19-2.44-1.24,0-1.61,1.03-1.91,2.42Z"/><path class="cls-3" d="M300.68,477.17c.29,1.77,.75,4.77,.84,5.63h.03c.62-1.24,1.68-3.39,2.81-5.63h3.6l-5.17,8.42,1.71,9.18h-3.4c-.33-2.05-.75-5.05-.86-6.04h-.03c-.46,.82-1.8,3.34-3.28,6.04h-3.54l5.58-9.14-1.72-8.46h3.43Z"/><path class="cls-3" d="M304.31,497.64c1.69-2.74,2.67-4.93,3.31-7.91h3.2c-.49,2.69-1.97,5.98-3.83,7.91h-2.68Z"/><path class="cls-3" d="M322.45,475.24h-3.48l.69-3.18h10.42l-.69,3.18h-3.51l-4.14,19.53h-3.43l4.14-19.53Z"/><path class="cls-3" d="M329.92,486.89c-.02,.09-.56,2.65-.59,2.76-.3,1.39-.23,2.56,1.03,2.56s1.54-1.22,1.74-2.21l.1-.5h3.37l-.08,.36c-.54,2.63-1.45,5.18-5.46,5.18-4.47,0-4.58-3.38-3.94-6.36l1.3-6.08c.57-2.74,1.54-5.67,5.6-5.67,4.35,0,4.7,2.97,4.05,6.05-.02,.09-.81,3.81-.84,3.92h-6.3Zm3.56-2.73c.02-.08,.47-2.25,.49-2.33,.23-1.18,.12-2.23-1.12-2.23-1.12,0-1.57,.87-1.85,2.21l-.51,2.35h2.99Z"/><path class="cls-3" d="M347.07,490.42c-.29,1.4-.8,3.76-.87,4.34h-3.34c.04-.33,.11-.89,.21-1.43-.82,1.16-1.69,1.7-3.12,1.7-2.76,0-3.16-2.63-2.59-5.34,.89-4.09,2.89-5.16,7.01-5.78,.23-.03,.44-.07,.68-.1l.47-2.14c.27-1.24,.16-2.08-.89-2.08s-1.29,.89-1.59,2.12l-.13,.54h-3.4l.06-.29c.48-2.19,1.07-5.07,5.32-5.07,3.53,0,4.64,1.86,4.04,4.71l-1.85,8.81Zm-2.53-3.93c-.18,.03-.36,.07-.53,.1-1.81,.39-2.72,.97-3.18,2.94-.27,1.19-.3,2.5,.94,2.5s1.85-1.21,2.36-3.61l.42-1.93Z"/><path class="cls-3" d="M351.15,477.17h1.86l.99-4.25h3.4l-.98,4.25h2.19l-.63,2.94h-2.19l-2.37,10.65c-.19,.9-.1,1.47,.93,1.47,.34,0,.67-.01,1.09-.08l-.57,2.61c-.63,.17-1.47,.26-2.15,.26-2.16,0-3.51-.71-2.86-3.76l2.46-11.16h-1.8l.63-2.94Z"/><path class="cls-3" d="M361.37,486.89c-.02,.09-.56,2.65-.59,2.76-.3,1.39-.23,2.56,1.03,2.56s1.54-1.22,1.74-2.21l.1-.5h3.38l-.08,.36c-.54,2.63-1.45,5.18-5.46,5.18-4.47,0-4.58-3.38-3.94-6.36l1.3-6.08c.57-2.74,1.54-5.67,5.6-5.67,4.35,0,4.7,2.97,4.05,6.05-.02,.09-.81,3.81-.84,3.92h-6.3Zm3.56-2.73c.02-.08,.47-2.25,.49-2.33,.23-1.18,.12-2.23-1.12-2.23-1.12,0-1.57,.87-1.85,2.21l-.51,2.35h2.99Z"/><path class="cls-3" d="M370.89,483.13c.61-2.92,1.01-4.7,1.22-5.96h3.25c-.03,.42-.16,1.32-.44,2.61,.95-2.17,2.58-2.86,4.18-2.87l-.91,4.06c-2.31,0-3.65,.95-4.38,4.38l-1.96,9.42h-3.43l2.47-11.63Z"/><path class="cls-3" d="M390.15,471.06l-1.56,7.37c.74-.94,1.83-1.54,3.25-1.54,2.55,0,3.2,2.02,2.66,4.53l-2.84,13.34h-3.43l2.69-12.68c.31-1.45,.24-2.33-1.01-2.33s-1.75,.93-2.19,2.92l-2.58,12.09h-3.43l5.03-23.7h3.43Z"/><path class="cls-3" d="M405.52,489.62c-.56,2.59-.9,4.24-1.03,5.14h-3.37c.03-.36,.11-.94,.22-1.48-1.05,1.48-1.9,1.75-3.32,1.75s-3.37-.76-2.43-5.16l2.69-12.71h3.43l-2.69,12.55c-.33,1.62-.07,2.31,.94,2.31,1.11,0,1.78-.88,2.28-3.2l2.46-11.67h3.47l-2.66,12.46Z"/><path class="cls-3" d="M411.2,489.26l-.16,.73c-.25,1.24-.16,2.31,1.02,2.31,.87,0,1.24-.56,1.47-1.52,.42-1.74-.15-2.79-1.47-4.08-2.23-2.13-2.8-3.48-2.33-6.02,.47-2.48,2.09-3.79,4.55-3.79,3.24,0,4.63,2.04,4.04,4.93l-.14,.68h-3.22l.14-.82c.24-1.37,.06-2.06-.84-2.06-.69,0-1.09,.53-1.25,1.47-.15,.92-.09,1.56,1.3,2.9,2.54,2.48,3.15,4.03,2.59,6.75-.55,2.76-2.08,4.28-5.01,4.28-3.95,0-4.85-2.44-4.1-5.49l.07-.28h3.34Z"/><path class="cls-3" d="M422.81,486.89c-.02,.09-.56,2.65-.59,2.76-.3,1.39-.23,2.56,1.03,2.56s1.54-1.22,1.74-2.21l.1-.5h3.38l-.08,.36c-.54,2.63-1.45,5.18-5.46,5.18-4.47,0-4.58-3.38-3.94-6.36l1.3-6.08c.57-2.74,1.54-5.67,5.6-5.67,4.35,0,4.7,2.97,4.05,6.05-.02,.09-.81,3.81-.84,3.92h-6.3Zm3.56-2.73c.02-.08,.47-2.25,.49-2.33,.23-1.18,.12-2.23-1.12-2.23-1.12,0-1.57,.87-1.85,2.21l-.51,2.35h2.99Z"/><path class="cls-3" d="M432.31,477.17h1.86l.99-4.25h3.4l-.98,4.25h2.19l-.63,2.94h-2.19l-2.37,10.65c-.19,.9-.1,1.47,.93,1.47,.34,0,.66-.01,1.09-.08l-.57,2.61c-.62,.17-1.47,.26-2.15,.26-2.16,0-3.51-.71-2.86-3.76l2.46-11.16h-1.8l.63-2.94Z"/></g><polygon class="cls-4" points="407.71 232.5 396.12 254.5 420.94 254.5 407.71 232.5"/><path class="cls-4" d="M479.71,315.55c-4.93,.51-8.36,4.76-8.78,8.86-.53,5.24,3.75,10.88,9.58,11.08,6.01,.2,11.02-5.48,10.38-11.08-.58-4.99-5.59-9.45-11.17-8.86Z"/><path class="cls-4" d="M457.71,470.55c-1.43,.14-1.36,2.21-3.77,4.91-3.01,3.36-5.98,3.32-6,4.96-.02,1.56,2.68,1.65,6,4.96,2.85,2.84,3.06,4.95,4.57,4.95,1.43,0,1.72-1.91,4.43-4.95,3.47-3.88,6.2-4.35,6-5.95-.19-1.5-2.64-1.26-6-3.96-3.28-2.64-3.68-5.06-5.23-4.91Z"/><rect class="cls-4" x="330.2" y="396.76" width="21.22" height="15.36"/></g></svg>