<?xml version="1.0" encoding="UTF-8"?><svg id="Layer_1" xmlns="http://www.w3.org/2000/svg" width="4272" height="1736" viewBox="0 0 4272 1736"><defs><style>.cls-1{fill:#122aff;}</style></defs><path class="cls-1" d="M4276,1422.2c-79.68-.58-158.01-8.69-233.71-34.47-46.25-15.75-90.88-35.82-139.45-43.66-178.96-28.88-352.74,65.35-509.73,137.89-86.38,39.92-172.47,81.76-262.22,113.71-77.59,27.63-161.39,49.59-244.26,37.93-150.15-21.13-289.95-93.28-428.4-150.9-130.9-54.48-263.08-103.79-406.29-106.26-125.17-2.16-243.12,29.75-357.23,79.39-114.4,49.77-227.6,105.63-339.04,161.69-58.29,29.32-116.69,59.14-178.82,79.6-62.15,20.46-128.15,31.01-193.26,36.12-157.35,12.36-306.64-25.96-455.25-73.86-171.26-55.2-345.98-126.07-528.34-128.33C.09,1144.56,3.8,758.06,3.8,371.55V0H4276c0,474.07,0,948.14,0,1422.2Z"/></svg>