<?xml version="1.0" encoding="UTF-8"?><svg id="Layer_1" xmlns="http://www.w3.org/2000/svg" width="1125" height="742" viewBox="0 0 1125 742"><defs><style>.cls-1{fill:#122aff;}</style></defs><path class="cls-1" d="M1125.5,588.5c-26.06-1.13-46.76-5.9-69.29-18.63-14.54-8.22-27.12-15.07-44.26-15.49-61.5-1.51-117.81,60.49-165.76,92.01-24.26,15.95-52.48,33.88-82.83,29.88-25.51-3.36-50.13-19.32-71.37-32.78-42.93-27.21-87.88-67.61-140.37-73.2-94.74-10.09-161.28,84.75-235.21,127.99C202.55,764.89,109.31,641.23-.5,633.5-.43,422.5,.5,211.5,.5,.5H1125.5V588.5Z"/></svg>