<?xml version="1.0" encoding="UTF-8"?><svg id="Layer_1" xmlns="http://www.w3.org/2000/svg" width="4272" height="2470" viewBox="0 0 4272 2470"><defs><style>.cls-1{fill:#122aff;}</style></defs><path class="cls-1" d="M4276,2023.53c-81.57-.84-159.91-13.29-233.71-49.04-45.91-22.24-89.12-50.57-139.45-62.12-72.44-16.63-150.54-2.46-218.2,25.43-104.07,42.9-198.31,109.47-291.94,171.04-85.36,56.12-170.06,114.98-261.32,161.27-74.42,37.75-160.07,71.15-244.74,54.22-156.09-31.22-293.63-134.87-427.91-214.41-127.21-75.35-258.31-148.25-409.31-151.54-132.6-2.9-251.33,48.2-361.88,117.48-54.98,34.46-107.73,72.31-161.03,109.26-55.58,38.53-112.67,74.7-167.68,114.06-55.36,39.6-110.6,80.37-171.82,110.62-60.89,30.09-128.47,47.06-195.7,55.38-164.96,20.42-315.44-36.52-462.98-104.18-166.24-76.23-340.65-179.27-528.34-182.59C.02,1625.44,3.8,1072.46,3.8,519.49V0H4276c0,162.2,0,324.4,0,486.6,0,512.31,0,1024.62,0,1536.92Z"/></svg>