<?xml version="1.0" encoding="UTF-8"?><svg id="Layer_1" xmlns="http://www.w3.org/2000/svg" width="2957" height="1736" viewBox="0 0 2957 1736"><defs><style>.cls-1{fill:#122aff;}</style></defs><path class="cls-1" d="M2961,1422.2c-55.98-.84-109.45-9.06-160.16-33.56-32.19-15.55-62.22-35.91-97.41-44.33-129.8-31.06-255.1,71.44-355.68,138.49-61.26,40.84-122.08,83.97-188.18,116.78-49.6,24.62-106.36,45.53-162.39,33.91-110.01-22.82-206.27-97.07-300.82-153.55-84.07-50.22-172.21-100.24-272.25-103.36-92.45-2.89-174.31,30.4-251.61,78.76-78.65,49.21-155.55,104.03-230.66,158.45-39.79,28.83-79.37,58.78-123.56,80.66-41.72,20.66-88.1,32.37-134.17,38.15-252.3,31.62-442.01-195.28-687.11-201.56C-2.94,1144.55-.37,758.05-.37,371.55V0H2961c0,474.07,0,948.14,0,1422.2Z"/></svg>