<?xml version="1.0" encoding="UTF-8"?><svg id="Layer_7" xmlns="http://www.w3.org/2000/svg" viewBox="0 0 462.07 972.47"><defs><style>.cls-1{fill:#ffe1f4;}.cls-2{fill:#ffbbd5;}.cls-3{fill:#ffcfe5;}.cls-4{fill:#0bb000;}</style></defs><path class="cls-4" d="M192.06,968.47c-.15-2.37,7.84-4.63,9-5,56.29-17.97,51-190,51-190-.43-13.91-1.48-36.93-18-151-18.08-124.8-26.65-165.16-15-227,7.74-41.07,24.65-92.91,38-92,2.08,.14,7.24,1.78,8,5,1.15,4.88-8.4,10.91-10,12-41.75,28.61-28,176-28,176,5.61,60.12,10.26,70.96,21,148,12.78,91.72,18.77,138.54,13,187-8.16,68.46-34.41,140.05-58,141-2.12,.09-10.84-1.56-11-4Z"/><path class="cls-3" d="M261.06,304.47c5.94,1.09,5.72,3.81,18,12,13.65,9.1,35.04,23.36,49,18,15.42-5.92,6.16-29.77,25-47,18.07-16.53,36-3.22,55-20,13.53-11.95,6.88-20.86,23-50,17.13-30.97,30.56-31.6,31-47,.64-22.17-27.06-24.76-45-58-20.87-38.68,1.29-63.59-19-84-14.46-14.54-27.78-3.97-86-14C263.42,6.09,258.22-3.78,236.06,1.47c-26.96,6.39-24.02,22.14-61,41-38.75,19.77-59.6,11.46-72,31-7.49,11.8-1.08,17.19-3,50-3.03,51.7-20.12,63.59-10,82,11.85,21.54,38.4,10.95,54,35,13.76,21.22-2.1,36.73,12,61,10.12,17.42,32.64,33.83,53,31,23.96-3.33,32.48-31.58,52-28Z"/><path class="cls-1" d="M229.06,254.47c-26.46-5.82-43.28-24.39-50-32-6.52-7.39-15.93-18.06-21-35-7.03-23.52-4.77-56.08,14-75,13.39-13.5,23.11-7.89,39-25,13.59-14.64,10.5-23.07,22-30,19.35-11.66,46.36,1.26,50,3,11.06,5.29,12.46,9.49,33,28,30.05,27.08,33.51,23.9,41,35,16.71,24.76,10.08,56.32,7,71-1.47,6.98-13.42,63.86-46,71-15.26,3.34-20.63-7.39-57-10-19.87-1.43-19.92,1.66-32-1Z"/><path class="cls-2" d="M243.06,124.47c-12.92-2.08-22.48-3.62-29,2-6.9,5.95-2.83,13.4-8,37-4.01,18.31-7.99,20.85-6,29,3.41,13.94,19.77,25.66,28,22,7.87-3.5,10.35-21.98,6.56-30.91-.19-.45-.5-1.11-.56-2.09-.45-7.58,15.06-18.05,27-16,12.62,2.17,15.83,17.39,21,16,5.94-1.6,10.03-23.91,0-39-8.72-13.12-24.72-15.7-39-18Z"/><path class="cls-2" d="M298.99,214.16c6.6-.32,11.48-.56,14.32-3.43,3.01-3.04,.43-5.69,1.28-15.72,.66-7.78,2.46-9.17,.87-12.3-2.72-5.34-11.74-8.62-15.58-6.39-3.67,2.13-3.55,9.84-1.01,13.12,.13,.16,.33,.41,.43,.8,.78,3.03-6.19,8.68-12.3,8.92-6.45,.26-9.17-5.62-11.65-4.59-2.85,1.19-3.25,10.6,2.86,15.81,5.31,4.53,13.48,4.13,20.78,3.78Z"/><path class="cls-4" d="M235.88,601.4c-40.71-15.69-90.38-42.15-129.32-89.03C26.89,416.47,36.73,288.88,32.52,289.34c-2.93,.32-8.24,62.18,17.18,131.76,7.58,20.75,41.2,106.08,131.85,164.24,23.34,14.98,44.59,24.38,59.51,30.13l-5.18-14.07Z"/><path class="cls-4" d="M19.68,314.99c-16.59-11.07-22.28-32.57-18.62-47.52,3.42-13.98,16.85-29.76,17-30h0c-.85,3.91-1.66,10.2-.07,17.5,2.71,12.45,11.59,22.15,20.69,28.02,21.96,14.15,59.79-.58,59.38-.52,0,0-13.45,25.21-32.38,34.52-2.73,1.35-26.06,11.3-46-2Z"/><path class="cls-3" d="M22.55,312.57c-14.69-10.38-16.2-37-5.84-47.75,9.55-9.9,36.68-10.29,47.11-15.67,3.68-1.9,5.97-4.26,5.97-4.26,3.71-3.84,3.63-6.9,5-7.13,3.34-.57,14.02,16.03,12.29,34.21-1.66,17.4-13.74,34.57-31.41,41.31-4.52,1.72-20.86,7.95-33.11-.71Z"/><path class="cls-4" d="M21.38,310.05c-.81-8.16,19.17-17.93,19.17-17.93-2.1-8.64,9.51,20.45,3,26.51-3.64,3.39-11.72,.05-13.03-.49-2.03-.84-8.69-3.59-9.14-8.09Z"/></svg>