<?xml version="1.0" encoding="UTF-8"?><svg id="Layer_5" xmlns="http://www.w3.org/2000/svg" viewBox="0 0 473.12 630.02"><defs><style>.cls-1{fill:#ffd878;}.cls-2{fill:#fff;opacity:.45;stroke:#000;stroke-miterlimit:10;stroke-width:2px;}</style></defs><g><path class="cls-2" d="M177.12,292.43c-42.95-8.67-77.56-15.67-108-45-10.74-10.35-42.08-40.55-41-79,.62-22.27,11.59-28.55,7-50-3.06-14.3-9.2-17.42-24-50C-.64,42.55,.23,37.89,2.12,35.43c6.83-8.85,34.23,1.77,43,5,42.72,15.73,94.48,17.16,198,20,76.56,2.1,114.84,3.15,154-10,30.45-10.23,66.22-28.2,74-18,2.44,3.19,.64,7.19-8,31-15.22,41.95-17.32,50.71-18,60-1.3,17.78,3.77,21.9,5,38,3.04,39.72-23.35,72.7-30,81-35.85,44.79-92.73,50.97-139,56-47.33,5.15-83.34-1.83-104-6Z"/><path class="cls-2" d="M216.12,339.43s-.01,.05-.01,.05c-.01,.05-.11,.4-.13,.47-.08,.29-.74,2.7-.77,2.82-8.24,31.16-6.09,67.66-6.09,67.66,1.26,21.38,3.55,16.21,6,45,1.96,23.11,3.4,34.62,2,45-3.94,29.32-19.09,46.9-14,51,3.37,2.71,9.79-5.15,28-7,8.13-.82,15.56-.14,17,0,2.38,.23,6.66,.66,12,2,11.16,2.79,14.34,6.37,16,5,3.35-2.77-10.3-16.91-12-39-.1-1.26,.23-8.89,2-24,1.17-9.97,1.78-17.31,3-32,1.58-19.02,.85-17.33,2-29,2.39-24.26,4.77-23.74,5-38,.17-10.53-1.22-19.02-4-36-2.87-17.54-4.6-20.23-6-22-9.18-11.57-28.99-14.12-37-8-1.93,1.48-4.83,4.37-7,7-2.86,3.46-4.78,6.69-6,9Z"/><path class="cls-2" d="M205.99,301.75c-7.34,6.44-7.73,21.92-.93,29,4.41,4.6,8.66,2.35,16.02,8.96,1.6,1.44,1.36,1.51,7.02,7.98,6.29,7.2,9.47,10.86,11.03,10.97,5.84,.43,6.91-9.47,17.96-17.04,9.85-6.75,15.29-3.2,19.98-9.05,6.24-7.8,4.39-23.88-4.08-30.99-.94-.79-1.84-1.36-2.8-1.77-10.04-4.28-16.2,0-30.2-.15-12.58-.13-17.36-4.34-28-.93-3.84,1.23-5.38,2.47-5.99,3.01Z"/><path class="cls-2" d="M220.12,539.43c-6.28,2.04-16.66,5.42-24,15-5.03,6.56-4.08,10.1-7,15-8.53,14.31-32.06,10.04-68,15-17.47,2.41-57.37,11.09-58,21-1.64,25.65,261.76,29.95,323,15,5.26-1.28,19.34-4.75,20-11,.83-7.87-20.54-16.89-35-21-25.7-7.31-52.51-5.59-74-13-4.77-1.65-9.28-3.79-13-8-4.97-5.62-3.95-9.83-8-16-4.53-6.89-11.22-9.87-16-12-16.9-7.52-33.43-2.14-40,0Z"/><path class="cls-2" d="M3.12,29.43c.14,1.27,7.95,.28,23,4,12.57,3.11,16.58,6.14,29,10,4.48,1.39,11.42,3.32,29,6,16.79,2.56,38.54,5.08,75,7,17.31,.91,30.77,1.31,54,2,11.81,.35,7.85,.18,39,1,4.74,.13,22.58,.6,45,1,14.38,.26,20.11,.3,28,0,11.17-.42,20.46-1.27,27-2,6.93-.77,19.1-2.12,32-5,6.62-1.47,11.38-3.11,15.51-4.43,20.88-6.69,25.55-11.01,40.49-15.57,18.39-5.61,27.86-4.09,28-6,.42-5.66-65.62-17.45-131-23-27.33-2.32-100.47-7.32-200,2C63.4,13.34,2.74,25.88,3.12,29.43Z"/></g><path class="cls-1" d="M58.12,132.43c23.43-38.69,99.59-35.54,147-21,64.48,19.77,86.4,64.06,122,52,29.21-9.9,37.55-46.82,63-44,15.32,1.7,24.48,16.43,26,19,15.73,26.52-7.23,69.75-29,93-48.45,51.76-129.99,44.51-192,39-52.08-4.63-89.05-8.49-116-39-22.73-25.73-38.32-70.4-21-99Z"/></svg>