<?xml version="1.0" encoding="UTF-8"?><svg id="Layer_1" xmlns="http://www.w3.org/2000/svg" width="1574" height="264.5" viewBox="0 0 1574 264.5"><defs><style>.cls-1{fill:#122851;}.cls-2{fill:#fffa96;}</style></defs><g><path class="cls-1" d="M100.84,224.92v-95.46h10.79v-8.63l-10.79-10.79V14.58h230.84l48.54,48.54v95.73l2.7,2.7v111.91H149.38l-48.54-48.54Z"/><path class="cls-1" d="M362.14,224.92l-27.51-95.19-19.69-19.69V14.58h243.24l48.54,48.54v95.46h-14.56l-32.63,114.88h-148.86l-48.54-48.54Z"/><path class="cls-1" d="M541.47,224.92v-95.46h10.79v-8.63l-10.79-10.79V14.58h230.84l48.54,48.54v95.73l2.7,2.7v111.91h-233.53l-48.54-48.54Z"/><path class="cls-1" d="M758.83,224.92v-95.46h10.79v-8.63l-10.79-10.79V14.58h262.39l48.54,48.54v95.46h-10.79v114.88h-251.6l-48.54-48.54Z"/><path class="cls-1" d="M1052.22,224.92v-41.8l-48.54-48.54V14.58h257.8l48.54,48.54v120h-48.54v90.34h-160.72l-48.54-48.54Z"/><path class="cls-1" d="M1402.52,266.99l-.54,6.47h-109.21l-48.54-48.54V119.75h12.13c-9.17-10.52-15.1-24-15.1-41.53,0-46.92,37.75-67.96,76.04-67.96,15.64,0,29.66,3.24,42.34,9.98l.54-5.66h109.21l48.54,48.54v98.43h-8.09c10.52,10.79,17.53,25.35,17.53,45.84,0,49.89-38.02,70.38-79.01,70.38-17.53,0-32.09-3.51-45.84-10.79Z"/></g><g><path class="cls-2" d="M114.19,142.73h10.79v-46.38h-10.79V27.85h203.87V112.8h-78.74v-24.54h-27.51v14.83h16.72v32.9h-16.72v14.83h27.51v-24.54h81.44v84.95H114.19v-68.5Z"/><path class="cls-2" d="M339.1,96.35h-10.79V27.85h100.59V96.35l11.33,49.08h1.08l11.33-49.08h-12.94V27.85h104.9V96.35h-11.33l-32.63,114.88h-128.36l-33.17-114.88Z"/><path class="cls-2" d="M554.83,142.73h10.79v-46.38h-10.79V27.85h203.87V112.8h-78.74v-24.54h-27.51v14.83h16.72v32.9h-16.72v14.83h27.51v-24.54h81.44v84.95h-206.57v-68.5Z"/><path class="cls-2" d="M772.19,142.73h10.79v-46.38h-10.79V27.85h128.9l20.5,75.51h1.08V27.85h84.95V96.35h-10.79v114.88h-104.63l-33.98-118.65h-1.08v58.25h10.79v60.41h-95.73v-68.5Z"/><path class="cls-2" d="M1065.58,142.73h23.46v-54.47h-10.79v32.63h-61.21V27.85h230.84V120.89h-61.21v-32.63h-10.79v54.47h23.46v68.5h-133.76v-68.5Z"/><path class="cls-2" d="M1344.95,196.66h-1.08l-2.16,14.56h-84.14v-78.2h15.37c17.8,9.98,38.83,15.91,60.68,15.91,11.6,0,19.15-1.62,26.43-5.12v-1.08c-74.43-6.47-105.44-27.51-105.44-64.72,0-33.44,24.81-54.47,62.56-54.47,18.88,0,35.06,5.12,51.24,18.88h1.08l2.16-14.56h84.14V99.31h-15.37c-13.48-7.82-34.52-12.94-53.93-12.94-11.06,0-18.61,1.62-27.24,5.12v1.08c77.12,8.36,105.98,26.7,105.98,66.07,0,36.41-24.81,56.9-65.53,56.9-21.57,0-37.21-5.66-54.74-18.88Z"/></g></svg>