<?xml version="1.0" encoding="UTF-8"?><svg id="Lag_1" xmlns="http://www.w3.org/2000/svg" viewBox="0 0 32 32"><defs><style>.cls-1{fill:none;stroke:#fffa96;stroke-linecap:round;stroke-linejoin:round;stroke-width:2.67px;}.cls-2{fill:#fffa96;fill-rule:evenodd;}</style></defs><path class="cls-1" d="M4.95,28.22c-.65,0-1.17-.53-1.17-1.18h0V4.96c0-.65,.52-1.18,1.17-1.18H27.05c.65,0,1.17,.53,1.17,1.18V27.04c0,.65-.52,1.18-1.17,1.18H4.95Z"/><path class="cls-2" d="M24.14,12.6h-2.7c-.75,0-1.36,.61-1.36,1.36v2.72h4.06l-.59,4.07h-3.47v7.47h-4.47v-7.47h-3.69v-4.07h3.64l.05-3.87v-1.39c-.03-1.96,1.54-3.56,3.49-3.58,.01,0,.02,0,.03,0h5s0,4.75,0,4.75Z"/></svg>