<?xml version="1.0" encoding="UTF-8"?><svg id="Lag_1" xmlns="http://www.w3.org/2000/svg" viewBox="0 0 26.18 25.74"><defs><style>.cls-1{fill:none;stroke:#fffa96;stroke-linecap:round;stroke-linejoin:round;stroke-width:2.67px;}.cls-2{fill:#fffa96;fill-rule:evenodd;}</style></defs><path class="cls-1" d="M2.88,23.91c-.6,0-1.08-.49-1.08-1.08h0V2.53c0-.6,.48-1.08,1.08-1.08H23.19c.6,0,1.08,.49,1.08,1.08V22.83c0,.6-.48,1.08-1.08,1.08H2.88Z"/><path class="cls-2" d="M20.52,9.56h-2.48c-.69,0-1.25,.56-1.25,1.25v2.5h3.73l-.54,3.74h-3.19v6.87h-4.11v-6.87h-3.39v-3.74h3.35l.05-3.56v-1.28c-.03-1.8,1.42-3.27,3.21-3.29h4.62v4.37h0Z"/></svg>