<?xml version="1.0" encoding="UTF-8"?><svg id="Layer_1" xmlns="http://www.w3.org/2000/svg" width="2310" height="314" viewBox="0 0 2310 314"><defs><style>.cls-1{fill:#122851;}.cls-2{fill:#fffa96;}</style></defs><g><path class="cls-1" d="M94.09,234.47v-95.46h10.79v-8.63l-10.79-10.79V24.13h222.21l48.54,48.54v98.7h-32.36v42.07h-41.8v69.57H142.63l-48.54-48.54Z"/><path class="cls-1" d="M298.77,234.47v-95.46h10.79v-8.63l-10.79-10.79V24.13h230.84l48.54,48.54v95.73l2.7,2.7v111.91h-233.53l-48.54-48.54Z"/><path class="cls-1" d="M674.14,276.54l-.54,6.47h-109.22l-48.54-48.54v-105.17h12.13c-9.17-10.52-15.1-24-15.1-41.53,0-46.92,37.75-67.96,76.05-67.96,15.64,0,29.66,3.24,42.34,9.98l.54-5.66h109.21l48.54,48.54v98.43h-8.09c10.52,10.79,17.53,25.35,17.53,45.84,0,49.89-38.02,70.38-79.01,70.38-17.53,0-32.09-3.51-45.84-10.79Z"/><path class="cls-1" d="M772.03,234.47v-41.8l-48.54-48.54V24.13h257.8l48.54,48.54v120h-48.54v90.34h-160.72l-48.54-48.54Z"/><path class="cls-1" d="M963.76,234.47v-95.46h10.79v-8.63l-10.79-10.79V24.13h135.37l48.54,48.54v95.46h-10.79v8.63l10.79,10.79v95.46h-135.37l-48.54-48.54Z"/><path class="cls-1" d="M1129.61,234.47l-27.51-95.19-19.69-19.69V24.13h243.24l48.54,48.54v95.46h-14.56l-32.63,114.88h-148.86l-48.54-48.54Z"/><path class="cls-1" d="M1299.77,234.47v-95.46h14.02l2.97-11.06-8.36-8.36V24.13h194.16l48.54,48.54,26.43,95.46,19.42,19.42v95.46h-248.63l-48.54-48.54Z"/><path class="cls-1" d="M1531.68,234.47v-95.46h10.79v-8.63l-10.79-10.79V24.13h148.05l48.54,48.54v39.1h25.62l48.54,48.54v122.7h-222.21l-48.54-48.54Z"/><path class="cls-1" d="M1736.35,234.47v-95.46h10.79v-8.63l-10.79-10.79V24.13h230.84l48.54,48.54v95.73l2.7,2.7v111.91h-233.53l-48.54-48.54Z"/><path class="cls-1" d="M1953.71,234.47v-95.46h10.79v-8.63l-10.79-10.79V24.13h262.39l48.54,48.54v95.46h-10.79v114.88h-251.6l-48.54-48.54Z"/></g><g><path class="cls-2" d="M108.03,152.49h10.79v-46.38h-10.79V37.62h195.24V109.35h-81.44v-11.33h-16.18v20.5h65.26v32.9h-65.26v9.17h23.46v60.41H108.03v-68.5Z"/><path class="cls-2" d="M312.71,152.49h10.79v-46.38h-10.79V37.62h203.87V122.56h-78.74v-24.54h-27.51v14.83h16.72v32.9h-16.72v14.83h27.51v-24.54h81.44v84.95h-206.57v-68.5Z"/><path class="cls-2" d="M617.17,206.43h-1.08l-2.16,14.56h-84.14v-78.2h15.37c17.8,9.98,38.83,15.91,60.68,15.91,11.6,0,19.15-1.62,26.43-5.12v-1.08c-74.43-6.47-105.44-27.51-105.44-64.72,0-33.44,24.81-54.47,62.56-54.47,18.88,0,35.06,5.12,51.24,18.88h1.08l2.16-14.56h84.14V109.08h-15.37c-13.48-7.82-34.52-12.94-53.93-12.94-11.06,0-18.61,1.62-27.24,5.12v1.08c77.12,8.36,105.98,26.7,105.98,66.07,0,36.4-24.81,56.9-65.53,56.9-21.57,0-37.21-5.66-54.74-18.88Z"/><path class="cls-2" d="M785.98,152.49h23.46v-54.47h-10.79v32.63h-61.21V37.62h230.84v93.04h-61.21v-32.63h-10.79v54.47h23.46v68.5h-133.76v-68.5Z"/><path class="cls-2" d="M977.71,152.49h10.79v-46.38h-10.79V37.62h108.41V106.11h-10.79v46.38h10.79v68.5h-108.41v-68.5Z"/><path class="cls-2" d="M1107.14,106.11h-10.79V37.62h100.59V106.11l11.33,49.08h1.08l11.33-49.08h-12.94V37.62h104.9V106.11h-11.33l-32.63,114.88h-128.36l-33.17-114.88Z"/><path class="cls-2" d="M1313.71,152.49h10.79l12.94-46.38h-15.1V37.62h170.43l31.82,114.88h10.79v68.5h-101.4v-74.43h-26.7l-2.16,14.02h18.07v60.41h-109.49v-68.5Zm115.69-33.98l-8.63-36.95h-1.08l-8.63,36.95h18.34Z"/><path class="cls-2" d="M1545.62,152.49h10.79v-46.38h-10.79V37.62h121.08V106.11h-23.46v54.47h16.18v-35.33h81.44v95.73h-195.24v-68.5Z"/><path class="cls-2" d="M1750.3,152.49h10.79v-46.38h-10.79V37.62h203.87V122.56h-78.74v-24.54h-27.51v14.83h16.72v32.9h-16.72v14.83h27.51v-24.54h81.44v84.95h-206.57v-68.5Z"/><path class="cls-2" d="M1967.65,152.49h10.79v-46.38h-10.79V37.62h128.9l20.5,75.51h1.08V37.62h84.95V106.11h-10.79v114.88h-104.63l-33.98-118.65h-1.08v58.25h10.79v60.41h-95.73v-68.5Z"/></g></svg>