<?xml version="1.0" encoding="UTF-8"?><svg id="Layer_1" xmlns="http://www.w3.org/2000/svg" width="1575" height="803" viewBox="0 0 1575 803"><defs><style>.cls-1{fill:#ffcfe5;}.cls-2{fill:#ffe1f4;}.cls-3{fill:#122851;}.cls-4{fill:#0bb000;}.cls-5{fill:#fffa96;}.cls-6{fill:#ffbbd5;}</style></defs><g><path class="cls-4" d="M583.68,281.98c2.37-.15,4.63,7.84,5,9,17.97,56.29,190,51,190,51,13.91-.43,36.93-1.48,151-18,124.8-18.08,165.16-26.65,227-15,41.07,7.74,92.91,24.65,92,38-.14,2.08-1.78,7.24-5,8-4.88,1.15-10.91-8.4-12-10-28.61-41.75-176-28-176-28-60.12,5.61-70.96,10.26-148,21-91.72,12.78-138.54,18.77-187,13-68.46-8.16-140.05-34.41-141-58-.09-2.12,1.56-10.84,4-11Z"/><path class="cls-1" d="M1247.68,350.98c-1.09,5.94-3.81,5.72-12,18-9.1,13.65-23.36,35.04-18,49,5.92,15.42,29.77,6.16,47,25,16.53,18.07,3.22,36,20,55,11.95,13.53,20.86,6.88,50,23,30.97,17.13,31.6,30.56,47,31,22.17,.64,24.76-27.06,58-45,38.68-20.87,63.59,1.29,84-19,14.54-14.46,3.97-27.78,14-86,8.38-48.64,18.25-53.84,13-76-6.39-26.96-22.14-24.02-41-61-19.77-38.75-11.46-59.6-31-72-11.8-7.49-17.19-1.08-50-3-51.7-3.03-63.59-20.12-82-10-21.54,11.85-10.95,38.4-35,54-21.22,13.76-36.73-2.1-61,12-17.42,10.12-33.83,32.64-31,53,3.33,23.96,31.58,32.48,28,52Z"/><path class="cls-2" d="M1297.68,318.98c5.82-26.46,24.39-43.28,32-50,7.39-6.52,18.06-15.93,35-21,23.52-7.03,56.08-4.77,75,14,13.5,13.39,7.89,23.11,25,39,14.64,13.59,23.07,10.5,30,22,11.66,19.35-1.26,46.36-3,50-5.29,11.06-9.49,12.46-28,33-27.08,30.05-23.9,33.51-35,41-24.76,16.71-56.32,10.08-71,7-6.98-1.47-63.86-13.42-71-46-3.34-15.26,7.39-20.63,10-57,1.43-19.87-1.66-19.92,1-32Z"/><path class="cls-6" d="M1427.68,332.98c2.08-12.92,3.62-22.48-2-29-5.95-6.9-13.4-2.83-37-8-18.31-4.01-20.85-7.99-29-6-13.94,3.41-25.66,19.77-22,28,3.5,7.87,21.98,10.35,30.91,6.56,.45-.19,1.11-.5,2.09-.56,7.58-.45,18.05,15.06,16,27-2.17,12.62-17.39,15.83-16,21,1.6,5.94,23.91,10.03,39,0,13.12-8.72,15.7-24.72,18-39Z"/><path class="cls-6" d="M1337.99,388.91c.32,6.6,.56,11.48,3.43,14.32,3.04,3.01,5.69,.43,15.72,1.28,7.78,.66,9.17,2.46,12.3,.87,5.34-2.72,8.62-11.74,6.39-15.58-2.13-3.67-9.84-3.55-13.12-1.01-.16,.13-.41,.33-.8,.43-3.03,.78-8.68-6.19-8.92-12.3-.26-6.45,5.62-9.17,4.59-11.65-1.19-2.85-10.6-3.25-15.81,2.86-4.53,5.31-4.13,13.48-3.78,20.78Z"/><path class="cls-4" d="M950.75,325.8c15.69-40.71,42.15-90.38,89.03-129.32,95.9-79.67,223.49-69.83,223.03-74.04-.32-2.93-62.18-8.24-131.76,17.18-20.75,7.58-106.08,41.2-164.24,131.85-14.98,23.34-24.38,44.59-30.13,59.51l14.07-5.18h0Z"/><path class="cls-4" d="M1237.16,109.6c11.07-16.59,32.57-22.28,47.52-18.62,13.98,3.42,29.76,16.85,30,17h0c-3.91-.85-10.2-1.66-17.5-.07-12.45,2.71-22.15,11.59-28.02,20.69-14.15,21.96,.58,59.79,.52,59.38,0,0-25.21-13.45-34.52-32.38-1.35-2.73-11.3-26.06,2-46Z"/><path class="cls-4" d="M1242.1,111.3c8.16-.81,17.93,19.17,17.93,19.17,8.64-2.1-20.45,9.51-26.51,3-3.39-3.64-.05-11.72,.49-13.03,.84-2.03,3.59-8.69,8.09-9.14h0Z"/></g><g><path class="cls-3" d="M115.78,600.52l-41.12-41.12c-16.45-16.45-25.35-40.2-25.35-68.53,0-54.59,33.12-92.74,90-92.74,10.51,0,23.07,1.14,34.49,6.17l.46-2.51h73.32l41.12,41.12v69.21l2.28,2.28v106.67h-75.61l-1.83-1.83c-9.37,4.11-22.38,5.48-33.12,5.48-27.41,0-49.34-8.91-64.64-24.21Z"/><path class="cls-3" d="M487.43,540.21v80.86h-210.61l-41.12-41.12v-80.86h11.88l2.51-9.37-7.08-7.08v-80.86h55.51c-2.28-4.11-3.65-9.14-3.65-15.3,0-21.24,16.67-33.12,46.14-33.12,14.16,0,29.01,2.74,37.69,11.42l41.12,41.12c4.11,4.11,7.08,9.59,7.99,16.22l20.79,20.79,22.39,80.86,16.45,16.45Z"/><path class="cls-3" d="M473.26,579.96v-80.86h9.14v-7.31l-9.14-9.14v-80.86h216.55l41.12,41.12v80.86h-9.14v7.31l9.14,9.14v80.86h-216.55l-41.12-41.12Z"/><path class="cls-3" d="M730.23,601.89l-41.12-41.12c-9.59-9.59-16.22-23.76-16.22-43.17,0-30.38,17.82-52.77,50.71-52.77,4.11,0,8.22,.46,12.11,1.14v-64.19h125.18l41.12,41.12v80.86h-8.91v22.84c0,54.82-26.04,78.12-91.37,78.12-23.53,0-53.22-4.57-71.5-22.84Z"/><path class="cls-3" d="M847.64,579.96v-80.86h9.14v-7.31l-9.14-9.14v-80.86h195.53l41.12,41.12v81.09l2.28,2.28v94.8h-197.82l-41.12-41.12Z"/><path class="cls-3" d="M1031.75,579.96v-80.86h9.14v-7.31l-9.14-9.14v-80.86h271.14l41.12,41.12v80.86h-9.14v7.31l9.14,9.14v80.86h-271.14l-41.12-41.12Z"/></g><g><path class="cls-5" d="M60.38,490.86c0-51.17,30.84-81.32,78.58-81.32,18.04,0,31.98,4.11,41.34,12.11h.91l1.83-8.45h52.77v62.36h-71.27c-.91-2.74-5.94-5.48-11.65-5.48-9.14,0-14.39,6.85-14.39,20.79,0,14.85,5.94,20.79,16.22,20.79,4.34,0,7.54-1.14,9.82-2.74v-7.08h-13.48v-17.13h87.03v83.83h-55.05l-1.83-8.45h-.91c-9.37,8-23.3,12.11-41.34,12.11-47.74,0-78.58-30.15-78.58-81.32Z"/><path class="cls-5" d="M246.77,510.5h9.14l10.96-39.29h-12.79v-58.02h144.36l26.95,97.31h9.14v58.02h-85.89v-63.04h-22.61l-1.83,11.88h15.3v51.17h-92.74v-58.02Zm59.16-124.03c0-14.62,11.42-21.7,34.72-21.7s34.72,7.08,34.72,21.7-11.42,21.7-34.72,21.7-34.72-7.08-34.72-21.7Zm38.83,95.25l-7.31-31.29h-.91l-7.31,31.29h15.53Zm7.08-95.25c0-3.43-3.43-4.8-11.19-4.8s-11.19,1.37-11.19,4.8,3.43,4.8,11.19,4.8,11.19-1.37,11.19-4.8Z"/><path class="cls-5" d="M484.32,510.5h9.14v-39.29h-9.14v-58.02h92.28v51.17h-9.59v12.56h28.32v-12.56h-9.59v-51.17h92.28v58.02h-9.14v39.29h9.14v58.02h-92.28v-51.17h9.59v-12.56h-28.32v12.56h9.59v51.17h-92.28v-58.02Z"/><path class="cls-5" d="M683.96,517.58c0-26.04,14.62-41.34,39.29-41.34,22.39,0,35.86,12.56,35.86,32.89,0,10.74-3.66,18.73-10.51,23.53l.46,.91c11.65-2.06,17.59-11.42,17.59-28.1v-34.26h-19.87v-58.02h102.33v58.02h-8.91v34.26c0,48.65-21.47,66.7-79.95,66.7-49.8,0-76.29-19.42-76.29-54.59Z"/><path class="cls-5" d="M858.7,510.5h9.14v-39.29h-9.14v-58.02h172.69v71.95h-66.7v-20.79h-23.3v12.56h14.16v27.87h-14.16v12.56h23.3v-20.79h68.98v71.95h-174.97v-58.02Z"/><path class="cls-5" d="M1042.81,510.5h9.14v-39.29h-9.14v-58.02h112.61l9.14,39.29h.91l9.14-39.29h116.5v58.02h-9.14v39.29h9.14v58.02h-89.54v-51.17h9.14v-56.65h-.91l-26.95,107.82h-40.2l-26.95-107.82h-.91v56.65h9.14v51.17h-81.09v-58.02Z"/></g></svg>