<?xml version="1.0" encoding="UTF-8"?><svg id="Lag_1" xmlns="http://www.w3.org/2000/svg" viewBox="0 0 26.59 27.11"><defs><style>.cls-1{fill:#fffa96;fill-rule:evenodd;}</style></defs><path class="cls-1" d="M13.33,.22c-3.62,0-4.07,.02-5.5,.08-1.42,.07-2.39,.29-3.24,.62-.89,.33-1.7,.86-2.36,1.54-.68,.67-1.2,1.47-1.54,2.36-.33,.85-.55,1.82-.62,3.24C0,9.48,0,9.94,0,13.56S0,17.63,.07,19.06c.07,1.42,.29,2.39,.62,3.24,.33,.89,.86,1.7,1.54,2.36,.67,.68,1.47,1.2,2.36,1.54,.85,.33,1.82,.55,3.24,.62,1.42,.06,1.88,.08,5.5,.08s4.07-.02,5.5-.08c1.42-.07,2.39-.29,3.24-.62,.89-.33,1.7-.86,2.36-1.54,.68-.67,1.2-1.47,1.54-2.36,.33-.85,.55-1.82,.62-3.24,.06-1.42,.08-1.88,.08-5.5s-.02-4.07-.08-5.5c-.07-1.42-.29-2.39-.62-3.24-.33-.89-.86-1.7-1.54-2.36-.67-.68-1.47-1.2-2.36-1.54-.85-.33-1.82-.55-3.24-.62-1.42-.06-1.88-.08-5.5-.08m0,2.4c3.56,0,3.98,0,5.39,.08,1.3,.06,2.01,.28,2.48,.46,.62,.24,1.07,.53,1.53,1,.47,.47,.75,.91,1,1.53,.18,.47,.4,1.18,.46,2.48,.06,1.41,.08,1.83,.08,5.39s-.01,3.98-.08,5.39c-.06,1.3-.28,2.01-.46,2.48-.21,.58-.55,1.1-1,1.53-.47,.47-.91,.75-1.53,1-.47,.18-1.18,.4-2.48,.46-1.41,.06-1.83,.08-5.39,.08s-3.98-.01-5.39-.08c-1.3-.06-2.01-.28-2.48-.46-.58-.21-1.1-.55-1.53-1-.44-.43-.78-.95-1-1.53-.18-.47-.4-1.18-.46-2.48-.06-1.41-.08-1.83-.08-5.39s0-3.98,.08-5.39c.06-1.3,.28-2.01,.46-2.48,.24-.62,.53-1.07,1-1.53,.47-.47,.91-.75,1.53-1,.47-.18,1.18-.4,2.48-.46,1.41-.06,1.83-.08,5.39-.08m0,15.37c-2.45,0-4.44-1.99-4.44-4.44s1.99-4.44,4.44-4.44,4.44,1.99,4.44,4.44-1.99,4.44-4.44,4.44m0-11.29c-3.78,0-6.85,3.07-6.85,6.85s3.07,6.85,6.85,6.85,6.85-3.07,6.85-6.85-3.07-6.85-6.85-6.85m8.72-.27c0,.88-.72,1.6-1.6,1.6s-1.6-.72-1.6-1.6h0c0-.89,.72-1.6,1.6-1.6s1.6,.72,1.6,1.6"/></svg>