<?xml version="1.0" encoding="UTF-8"?><svg id="Layer_3" xmlns="http://www.w3.org/2000/svg" viewBox="0 0 395 516"><defs><style>.cls-1{stroke-width:.75px;}.cls-1,.cls-2,.cls-3,.cls-4{stroke:#000;stroke-miterlimit:10;}.cls-1,.cls-3,.cls-4{fill:none;}.cls-2{fill:#fbc263;}.cls-4{stroke-width:.5px;}</style></defs><rect class="cls-2" x="0" y="0" width="395" height="516"/><g><path class="cls-3" d="M111.19,495.84c-.17-.53-1.78-.43-2.54-.38-.71,.04-2.46,.15-2.54,.67-.09,.55,1.7,1.69,3.28,1.31,1.02-.25,1.95-1.14,1.8-1.6Z"/><path class="cls-3" d="M127.09,491.17c.5,.74-4.11,4.12-4.11,4.12,0,0-2.78-.85-2.8-1.71-.01-.54,1.06-.96,2.3-1.44,1.84-.71,4.19-1.61,4.62-.97Z"/><path class="cls-3" d="M66.63,455.43c.06,.1,4.83-4.39,12.49-6.04,6.5-1.4,11.68-.02,11.68-.1,0-.08-5.85-1.82-12.79-.1-7.07,1.75-11.44,6.15-11.38,6.24Z"/><g><g><g><g><g><g><g><g><path class="cls-3" d="M0,199.3C-1.45,199.28-.95,103.95,0,0H150.2c14.11,8.19,18.67,17.82,20.29,22.25,11.56,31.55-28.17,65.57-30.09,67.18-11.55,9.65-22.86,5.69-32.89,17.5-2.66,3.12-10.74,12.54-9.1,24.49,1.56,11.4,11.41,21.17,24.94,25.11-18.1-7.95-28.79-7.21-35.29-4.84-2.6,.95-5.54,2.52-10.73,3.33-7.49,1.17-11.19-.57-18.14,1.01-4.05,.92-7.17,2.5-9.15,3.68-1.62,1.05-3.89,2.74-6.08,5.29-3.02,3.51-4.34,6.82-5.29,9.09-1.73,4.16-4.36,10.03-8.41,17.76-.33-.95-2.52-6.91-8.7-9.28-8.17-3.13-15.33,3.08-15.64,3.35C.09,190.98,.43,199.31,0,199.3Z"/><path class="cls-3" d="M328.24,260.22c25.95-4.68,32.65-10.56,33.3-15.44,.65-4.92-5.11-6.94-9.1-18.19-3.44-9.7-.88-13.05-3.5-22.39-2.66-9.48-6.83-11.52-14-22.39-6.42-9.74-14.75-22.37-15.4-37.09-.48-11,3.76-13.32,11.2-37.79,6.12-20.14,3.38-19,7.7-31.49,10.15-29.37,30.11-49.55,44.09-63.68C387.72,6.51,392.18,2.47,395,0V341.81c-4.39-.38-7.2,.66-8.91,1.61,0,0-2.5,1.31-9.33,9.47h0c1.86-5.58,8.48-27.55-1.95-51.76-13.08-30.38-42.36-39.64-46.58-40.9Z"/><path class="cls-3" d="M209.4,322.96c4.52-10.63,13.62-16.89,21.37-22.22,8.7-5.99,13.38-7.05,23.93-11.97,29.17-13.59,27.66-21.69,45.62-26.39,6.4-1.68,22.83-4.9,40.71,2.46,5.89,2.43,20.28,9.38,29.06,24.79,4.18,7.33,5.49,13.84,7.69,24.79,2.35,11.65,3.97,19.73,1.71,29.92-2.53,11.42-8.55,19.21-11.11,22.22-9.2,10.82-15.1,8.52-32.48,21.37-14.75,10.91-13.77,14.99-22.22,17.1-12.29,3.06-17.49-4.79-29.92-.85-10.2,3.23-10.32,9.66-18.81,11.11-10.56,1.81-20.1-6.5-27.35-12.82-17.24-15.02-23.15-33.67-25.64-41.89-4.23-13.96-7.72-25.48-2.56-37.61Z"/><path class="cls-3" d="M85.82,307.07c-13.39,.9-23.99-21.32-39.89-51.79-4.16-7.96-23.03-45.03-15.68-63.44,.96-2.41,4.26-9.22,6.92-14.71,1.09-2.24,2.54-7.22,6.78-12.15,.25-.29,.58-.68,1.05-1.16,.5-.52,5.23-5.54,12.53-7.44,1.08-.28,1.84-.37,3.22-.56,3.46-.48,5.86-.42,8.45-.42,6.75,.02,10.13,.03,12.66-.74,3.17-.96,2.85-1.7,6.22-2.98,5.54-2.11,10.52-1.68,13.96-1.38,4.7,.41,8.08,1.53,14.83,3.76,1.04,.34,4.4,1.46,7.78,2.85,3.26,1.35,14.64,6.04,24.88,15.08,4.02,3.56,7.98,9.27,16.1,20.29,10.09,13.7,15.09,20.67,16.1,24.49,2.54,9.63,1.92,24.17-6.07,34.53-6.38,8.26-15.5,11.33-17.1,20.54-.77,4.43-.58,8.75-.58,8.75,.23,5.07,1.28,5.69,1.27,10.44,0,3.09-.09,9.22-3.43,10.87-.48,.24-.9,.31-1.16,.36-2.16,.41-5.37-.59-20.52-4.31-18.13-4.45-19.49-4.73-22.04-4.54-14.17,1.06-16.62,12.98-26.25,13.63Z"/><path class="cls-3" d="M53.63,409.94c-3.49,7.16-1.85,10.53,1.08,42.26,1.8,19.56,1.53,22.79,4.65,29.09,2.58,5.21,4.92,7.34,12.61,19.11,4.24,6.49,7.51,11.94,9.66,15.6h115.88c-1.12-2.91-2.15-6.36-2.78-10.28-1.9-11.74,.72-21.55,2.78-27.19,3.22-6.64,6.88-16.91,5.18-28.69-1.48-10.29-6.04-14.83-18.89-34.29-19.01-28.78-16.41-30.03-23.79-35.69-12.73-9.76-34.1-16.51-47.59-8.4-8.63,5.19-7.41,12.48-18.19,17.5-9.15,4.25-13.01,.4-23.09,4.9-1.98,.88-12.45,5.74-17.5,16.1Z"/><path class="cls-3" d="M167.4,336.4c-3.27,1.21-3.99,.95-47.6-3.46-31.49-3.19-34.98-3.45-41.54-2.6-11.35,1.47-17.09,1.57-19.9,.87-7.43-1.85-11.19-10.69-17.19-25.44-5.72-14.05-10.05-30.46-8.23-31.15,.63-.24,2.19,1.34,6.17,8.81-.68-16.74,.22-20.51,1.24-20.66,1.85-.27,4.58,11.45,6.01,11.17,1.16-.23,.73-7.97-.41-18.66,3.4,8.2,6.77,14.86,9.42,19.74,10.63,19.57,17.41,24.12,22.91,26.75,0,0,1.07,.48,2.17,.83,3.64,1.19,17.73-6.88,27.8-8.57,8.29-1.39,16.53,1.1,25.88,3.93,4.24,1.28,8.68,1.79,12.93,3.05,4.03,1.2,6.55,2.19,8.76,.9,2.53-1.47,3.07-5.08,3.23-6.11,.01-.09,.05-.38,.09-1.04,.11-2.15,.16-3.79,.05-5.53-.2-2.97-.71-4.29-1.07-6.75,0,0-.53-3.57,.12-8.91,.87-7.2,8.34-12.49,13-17.5,10.04-10.81,15.08-28.84,10.5-41.29-2.34-6.38-15.78-22.12-11.78-16.63,0,0,13.96,.41,22.45,5.4,7.1,4.17,9.71,11.14,13.77,21.97,2.36,6.3,7.05,19.22,5.77,36.54-1.19,16.09-7.01,27.31-11.34,35.94-7.3,14.55-16.1,32.08-33.17,38.39Z"/><path class="cls-3" d="M54.85,455.95c-.45-.02-.6-1.05-1.35-3.9-1.82-6.89-5.81-20.42-7.95-25.86-5.65-14.37-14.21-11.98-17.72-23.93-3.01-10.26,.58-19.64,3.02-26.02,1.78-4.64,6.84-14.17,28.86-33.38,12.14-10.59,18.2-15.88,22.24-17.65,33.78-14.84,74.03,17.23,81.78,26.27,3.47,4.05,5.84,8.19,5.84,8.19,4.44,8.34,3.45,14.99,16.53,34.71,14.98,22.58,22,24.73,24.89,38.53,4.67,22.29-13.49,45.61-13.49,45.62,0,0,5.78-22.91-1.16-41.91-3.52-9.62-9.38-15.86-20.37-27.35-7.67-8.02-11.77-12.3-18.45-16.13-14.36-8.24-28.87-7.64-38.21-7.14-12.7,.68-36.87,2.03-50.63,18.63-16.04,19.35-11.3,51.45-13.83,51.33Z"/><path class="cls-3" d="M270.93,280.01h0c-18.93-14.12-28.24-17.77-28.24-17.77-7.2-2.83-13.72-5.18-20.77-4.33-20.14,2.44-31.38,37.49-34.62,47.6-3.47,10.83-11.14,35.85-2.6,64.04,3.79,12.53,10.9,23.35,25.1,45,8,12.19,12,18.29,19.04,25.96,13.81,15.04,19.49,14.79,24.23,25.1,6.72,14.6-.67,23.84,6.92,31.16,6.31,6.08,19.35,7.35,25.96,1.73,10.14-8.6-3.32-26.13,6.92-45.87,4.29-8.27,11.51-13.3,25.96-23.37,7.1-4.95,15.41-9.64,32.02-19.04,14.54-8.22,17.19-9.33,20.77-13.85,8.96-11.31,8.74-25.03,8.65-27.69-.2-6-3.53-15.8-3.53-15.8,0,0-7.08,9.62-13.55,16.02-8.89,8.8-12.24,7.17-31,20.67-8.71,6.26-7.9,6.55-10.77,7.67-12.04,4.68-19.77-4.2-31.16,1.73-5.56,2.9-6.31,5.65-12.53,8.06-9.36,3.62-18.29,1.5-22.09,.6-23.17-5.49-46.33-33.59-45-62.31,.45-9.76,3.63-17.43,5.19-20.77,7.27-15.53,20.25-24.18,26.83-28.56,6.34-4.22,12.01-7.22,12.01-7.22,10.56-5.7,16.22-8.76,16.22-8.76Z"/></g><path class="cls-3" d="M94.68,183.58s0,0,0,0c-12.82,0-18.86,.6-18.86,.6-1.59,.32-3.39,.68-5.31,1.34-1.01,.35-3.86,1.41-5.99,3.12-3.12,2.51-4.08,5.96-4.93,8.62-1.33,4.16-3.52,9.91-7.37,17.18h0c1.85-1.02,3.7-2.04,5.55-3.06,1.65-.91,3.31-1.82,4.96-2.73,.8-.72,1.92-1.89,2.82-3.57,.86-1.59,1.06-2.79,1.31-3.56,.58-1.77,2.32-4.08,7.68-6.1,1.86-.65,3.38-1.13,4.42-1.45,2.32-.71,3.6-1.02,5.25-2.08,.47-.3,.81-.53,1.43-1.05,1.42-1.18,2.07-2.23,4.63-4.27,0,0,1.25-.9,4.42-2.98Z"/><path class="cls-3" d="M52.22,214.44s7.83,2.3,15.99,1.38c4.61-.52,6.3-1.38,7.18-2.77,1.5-2.36-.12-5.16,1.47-6.18,1.27-.82,2.33,.55,4.71,0,3.18-.73,5.24-4.27,6.18-5.88,.35-.59,.81-1.48,1.91-3.37,.7-1.2,1.22-2.04,1.33-2.22,2.07-3.57,4.64-15.85,3.71-11.83,0,0-3.8,1.96-7.14,5.08-.49,.46-.87,.85-1.06,1.05-.86,.91-1,1.27-2.28,2.17-.64,.45-1.18,.75-1.69,.97-1.41,.62-2.73,.92-3.57,1.11-1.85,.43-3.34,.99-4.42,1.45-1.76,.75-3.42,1.46-5.14,3.02-.53,.49-1.61,1.48-2.54,3.08-1.19,2.05-1.09,3.29-2.49,5.28-.61,.87-1.23,1.49-1.64,1.86t-10.51,5.79Z"/><path class="cls-3" d="M330.48,295.94c-.77,.08,0,3.71-1.29,11.06-.44,2.51-.93,6.54,0,8.8,.71,1.74,1.39,1.92,2.31,4.29,1.08,2.77,.6,3.68,1.4,5.78,.84,2.21,2.21,3.45,4.59,5.58,3.04,2.74,4.06,2.55,7.78,5.58,3.06,2.5,4.3,4.21,4.59,3.99,.45-.34-1.9-5.04-5.38-9.37-3.15-3.92-4.87-4.59-5.78-7.78-.59-2.06-.2-2.93-1.2-4.99-1.11-2.29-2.62-2.51-3.79-4.79-.2-.4-.36-.77-.49-1.15-.51-1.5-.54-2.75-.55-3.31-.02-3.84,.28-5.62,.08-7.7-.29-2.96-1.53-6.09-2.26-6.01Z"/><path class="cls-3" d="M349.85,341.04c-.57-5.45-2.18-9.15-3.59-11.57-1.83-3.13-3.48-4.25-4.13-7.63-.35-1.79-.28-3.5-1.51-5.43-1.05-1.63-1.91-1.68-3.13-2.9-3.75-3.77-.68-8.45-4.47-14.04-1.28-1.88-2.77-3.29-2.53-3.54,.22-.24,1.77,.83,3.1,1.81,.64,.6,1.62,1.47,2.88,2.44,2.7,2.06,4.31,2.55,5.88,3.8,3.14,2.53,4.9,5.25,5.72,6.54,1.05,1.66,3.24,5.18,3.99,10.17,.4,2.71,.15,5.03-.38,9.56-.36,3.08-.92,6.72-1.82,10.78Z"/></g><path class="cls-3" d="M274.61,338.38c-2.19,1.9-11.03-4.55-16.34-9.56-4.21-3.97-8.01-7.56-9.86-13.56-2.16-7.01-.83-14.64,.62-14.8,1.07-.12,.86,5.67,4.93,13.26,2.48,4.62,5.64,10.51,12.02,14.18,3.59,2.06,7.27,2.89,8.63,6.47,.09,.24,1.12,3.04,0,4.01Z"/><path class="cls-3" d="M283.24,352.25c-2.9,.27-3.68,14.76-2.77,24.66,.22,2.43,.6,5.23,2.16,8.32,2.51,4.99,6.97,8.57,7.71,8.01,.59-.45-1.91-3.14-3.39-7.71-3.63-11.21,3.98-18.12-.31-28.67-.51-1.25-1.93-4.76-3.39-4.62Z"/><path class="cls-3" d="M117.96,430c-.16-.74,1-1.77,12.49-7.06,8.44-3.88,12.57-5.51,18.15-5.89,1.34-.09,2.42-.09,3.02-.08,8.06,.15,14.82,3.01,14.66,3.8-.16,.78-6.82-1.79-16.68-.28-5.43,.83-11.17,1.7-16.96,5.58-3.42,2.29-6.34,5.3-10.96,5.17-.23,0-3.48-.12-3.73-1.24Z"/><path class="cls-3" d="M92.11,437.44c-.27-2.48-10.39-4.14-19.23-2.89-3.76,.53-8.86,1.32-12.61,5.17-2.54,2.61-3.62,5.76-3.82,6.37-.38,1.14-.58,4.21-.57,4.12h0c4.17-5.71,4.18-5.73,4.18-5.73,4.72-5.16,15.98-6.18,22.95-4.34,1.17,.31,4.18,1.21,6.82-.21,.25-.13,2.4-1.29,2.27-2.48Z"/><path class="cls-3" d="M104.72,269.67c-2.69-.38-5.08,2.37-6.25,3.75-4.45,5.25-2.63,8.18-6.21,11.49-3.55,3.28-8.41,3.25-9.24,3.23-4.08-.09-6.75-2.17-6.93-1.85-.23,.42,3.95,4.94,9.81,5.76,9.86,1.38,17.07-8.74,17.76-9.75,2.38-3.45,5.06-9.46,3.03-11.7-.68-.75-1.72-.9-1.98-.94Z"/><path class="cls-3" d="M134,251.33c.74,1.51,6.88,.66,11.7-1.52,9.95-4.48,14.49-14.68,15.96-17.98,3.23-7.24,5.05-16.66,5.05-16.68h0s-2.47,4.38-3.9,7.37c-2.38,4.98-3.57,7.47-5.2,9.97-2.29,3.51-4.36,6.67-8.23,8.67-2.91,1.5-3.57,.66-6.93,2.17-4.87,2.19-9.18,6.52-8.45,8.02Z"/></g><path class="cls-3" d="M106.17,514.23c2.44-5.24,4.77-6.5,6.43-6.69,2.47-.28,3.82,1.75,6.18,1.03,2.48-.75,2.21-3.37,4.63-4.89,2.19-1.37,5.24-.48,11.32,1.29,6.86,1.99,8.75,3.9,11.22,4.41,.43,.09,2.12,.39,3.41,1.72,.02,.02,.03,.04,.04,.05l-6.18,4.86h-37.66l.6-1.77Z"/></g><path class="cls-3" d="M113.81,514.85c1.41-.86,3.45-1.95,6.04-2.85,5.2-1.82,9.62-1.85,11.92-1.85,4.58,0,9.59,.79,9.89,.84,0,0,.01,0,.01,0,.02,.03-.45,.31-.61,.4-2.27,1.36-3.59,1.95-3.59,1.95-1.81,.8-3.44,1.15-5.88,1.68-1.43,.31-3.37,.68-5.71,.98h-12.41l.32-1.15Z"/></g><path class="cls-3" d="M128.23,445.22c-.92-1.28,.95-4.53,3.18-6.37,2.24-1.84,4.76-2.19,6.84-2.48,2.86-.4,4.92-.15,7.73,.25,2.3,.33,4.34,.63,4.47,1.45,.08,.48-.55,.93-2.97,2.54-2.66,1.76-3.99,2.64-4.21,2.76-1.06,.52-2.09,.88-8.76,1.73-5.25,.67-5.93,.62-6.29,.12Z"/><path class="cls-3" d="M93.61,453.33c-.07-.02-3.71-1.42-6.98-2-1.62-.28-5.86-.98-10.48,.75-1.15,.43-2.4,.9-3.74,2-2.56,2.09-4.23,5.48-4.24,5.49h0c-3.91-.19,7.87,.7,11.75,.19,6.12-.8,9.71-3.18,10.44-3.69,1.45-.99,2.52-1.99,3.24-2.74Z"/><path class="cls-3" d="M99.24,256.92c-.51-.18-.91,.87-3,1.62-.12,.04-1.15,.41-2.1,.73,0,0-.75,.26-1.4,.63-.13,.07-.22,.13-.28,.17-3.46,2.19-3.69,2.34-4.08,2.61,0,0-.51,.35-.96,.69-.86,.66-4.01,5.81-4.42,6.49-1.49,2.42-2.05,2.77-1.81,3.24,.77,1.49,7.25-.19,7.61-.29,.31-.08,.69-.18,1.15-.34,1.07-.35,5.31-1.92,7.83-5.84,2.68-4.15,2.41-9.38,1.45-9.72Z"/><path class="cls-3" d="M127.46,237.9c1.06-1.58,1.98-2.87,2.64-3.77,3.98-5.44,5.51-6.48,6.38-6.81,1.44-.55,1.86-.74,2.7-1.1,.89-.39,1.33-.64,2.09-1.02,2.84-1.43,4.77-2.54,5.53-1.97,.95,.71-.05,3.84-1.16,5.8-1.26,2.23-2.97,3.48-3.94,4.18-.8,.58-2.17,1.45-5.34,2.55-2.12,.74-5.13,1.61-8.9,2.14Z"/><path class="cls-3" d="M279.24,322.41s-2.34-1.93-4.04-4.61c-.62-.98-1.07-1.84-1.57-2.82-.59-1.15-1.27-2.49-1.76-3.94-.44-1.3-.94-3.36-.86-6.12-.23-.55-.44-1.15-.33-1.21,.32-.18,3.46,4.08,5.57,8.62,1.08,2.33,2.34,5.71,2.99,10.08Z"/><path class="cls-3" d="M297.63,360.04c-.11,1.41-.13,3.57,.47,6.06,1.62,6.6,6.87,12.15,6.87,12.15,0,0,0,0,0,0-.01-1.62-.13-4.63-.92-7.17-.1-.33-.23-.8-.51-1.37-.77-1.57-1.96-2.4-4.2-6.4-.77-1.37-1.35-2.52-1.71-3.26Z"/></g><path class="cls-3" d="M94.05,260.45c-3.03-.68-5.32,1.83-5.68,2.23-.46,.52-1.76,2.01-1.58,4.09,.19,2.12,1.86,4.11,3.9,4.46,1.98,.34,3.62-.98,4.47-1.67,1.75-1.41,3.1-3.75,3.1-3.75h0s-1.46-4.74-4.22-5.36Z"/><path class="cls-3" d="M134.15,230.86c-.07,1.1,.71,2.36,1.17,3.18,.29,.51,1.03,1.71,1.03,1.71h0s2.94-1.04,5.34-2.55c2.11-1.33,3.97-2.51,3.94-4.18-.02-1.41-1.39-2.68-2.69-3.17-1.14-.42-2.14-.21-2.91-.04-2.22,.48-5.72,2.22-5.89,5.04Z"/><path class="cls-3" d="M74.23,454.63c-.25,1.39,1.17,2.62,1.43,2.86,1.63,1.52,4.65,2.22,6.59,.57,1.04-.88,1.86-2.51,1.43-4.15-.3-1.17-1.1-1.87-1.45-2.14-.63-.24-2.34-.78-4.31-.2-.36,.11-1.59,.51-2.69,1.59-.49,.48-.89,.87-1,1.47Z"/><path class="cls-3" d="M131.41,438.85c-.1,.32-.21,.78-.18,1.32,.1,1.91,1.79,3.59,3.58,4.15,1.98,.62,4.68,.12,6.02-2.01,1.07-1.7,1.2-4.31-.14-5.44-.95-.8-2.3-.58-3.81-.33-2.37,.39-4.21,1.41-5.46,2.3Z"/><path class="cls-3" d="M277.53,317.36c-.46,.46-1.79-.21-1.99-.31-1.21-.61-1.74-1.69-1.92-2.07-.17-.35-.66-1.45-.38-2.82,.18-.84,.74-2.24,1.39-2.22,.49,.01,.67,.84,1.82,3.75,1,2.51,1.43,3.31,1.07,3.67Z"/><path class="cls-3" d="M301.67,367.04c-.82-.27-1.91,.14-2.29,.91-.3,.61,0,1.28,.42,2.2,.31,.7,.82,1.79,2.05,2.55,.53,.33,1.49,.96,1.97,.62,.8-.55-.31-3.28-.67-4.17-.75-1.84-1.3-2.06-1.48-2.12Z"/><path class="cls-3" d="M79.46,453.53c.4-.25,1.06-.37,1.53,0,.56,.44,.57,1.33,.19,1.82-.57,.73-2.06,.54-2.39-.19-.24-.51,.1-1.28,.67-1.63Z"/><path class="cls-3" d="M136.29,438.61c.61-.21,1.22,.26,1.24,.29,.84,.68,.93,2.35,.1,2.87-.58,.37-1.54,.13-2.01-.48-.68-.88-.18-2.38,.67-2.68Z"/><path class="cls-3" d="M91.88,264.26c.67-.33,1.36-.06,1.51,0,.71,.28,1.36,1,1.36,1.82,0,1.3-1.63,2.36-2.72,1.97-.76-.28-1.01-1.18-1.06-1.36-.21-.85,.05-1.99,.91-2.42Z"/><path class="cls-3" d="M139.09,229.45c.11-.07,1.07-.65,1.97-.15,.82,.46,1.18,1.59,.76,2.42-.41,.81-1.34,.93-1.41,.94-1.06,.12-2.26-.7-2.28-1.7-.02-.87,.86-1.44,.97-1.51Z"/><path class="cls-3" d="M89.66,264.08c-.33-.26-.96-.13-1.34,.18-.86,.72-.57,2.58,.18,3.75,.29,.45,.91,1.21,1.25,1.07,.36-.14-.02-1.08,.09-3.3,.05-.94,.15-1.45-.18-1.7Z"/><path class="cls-3" d="M136.36,229.07c-.45,.14-.36,1.52-.36,1.61,.1,1.45,.96,2.77,1.25,2.68,.17-.05-.02-.51,.09-2.05,.05-.74,.13-1.09-.09-1.52-.2-.39-.61-.8-.89-.71Z"/></g><path class="cls-1" d="M294.52,358.5s0,8.02,0,8.04c0,.01,0,.02,0,.02,0,0,.48,2.85,.71,3.94,.3,1.41,1.42,5.8,5.05,9.06,1.85,1.67,3.74,2.38,3.78,2.3,.07-.11-3.88-1.72-6.5-5.56-1.64-2.4-2.12-4.73-2.63-7.38-1.12-5.76-.42-10.42-.41-10.42Z"/><path class="cls-4" d="M279.26,327.66c-.04,.07-3.7-1.44-6.74-4.96-1.57-1.81-2.39-3.41-3.27-5.16-1.28-2.53-4.6-9.29-3.57-16.76,.1-.7,.73-2.77,.69-2.78-.03,0-.44,1.36-.48,1.51-1.31,4.45,.66,11.31,.81,11.83,.95,3.23,2.21,7.48,5.82,11.35,3.27,3.5,6.78,4.89,6.74,4.96Z"/><path class="cls-4" d="M309.02,376.26s.96-3.5-.28-7.42c-.67-2.13-1.79-3.56-4.03-6.41-.82-1.04-1.96-2.38-3.74-3.62-1-.7-2.07-1.18-2.1-1.13-.04,.07,2.03,1.09,3.93,2.62,1.14,.92,4.58,3.92,5.94,8.54,1.19,4.03,.24,7.42,.28,7.42Z"/><path class="cls-4" d="M282.06,321.14c.81-3.31-.29-6.8-.59-7.69-1.22-3.6-3.25-5.88-5.18-7.99-2.73-2.99-5.33-4.57-5.32-4.58,0-.01,2.58,1.67,5.32,4.58,1.09,1.16,2.54,2.63,3.81,4.94,.8,1.47,2.62,4.89,2.19,9.03-.2,1.86-.84,3.81-1.01,3.78-.1-.01-.19-.64-.19-.64h0c-.05-.22-.03,.61,.19,.64,.27,.04,.71-1.79,.78-2.08Z"/><path class="cls-3" d="M319.61,315.35s-1.07-2.66-3.37-3.37c-2.34-.72-4.79,.93-6.58,2.14-3.09,2.09-4.86,4.62-6,6.55-4.87,8.28-3.66,8.91-6.9,13.42-4.26,5.92-9.96,8.28-9.92,8.34,.04,.05,4.63-1.89,8.56-6.5,.4-.47,.73-.9,1.03-1.33,3.9-5.69,3.95-8.72,7.23-13.93,2.34-3.72,4.59-5.57,6-6.55,1.65-1.15,4.19-2.87,6.58-2.14,2.3,.71,3.37,3.37,3.37,3.37Z"/><path class="cls-3" d="M317.42,322.1c0,.1,0,.16-.04,.2-.29,.21-1.93-1.24-2.97-3-.26-.45-1.31-2.23-.77-2.8,.28-.3,.95-.28,1.41-.08,.48,.21,.95,.41,1.43,.62,2.08,1.97,2.34,2.87,2.12,3.31-.21,.43-1.13,.94-1.17,1.76Z"/><path class="cls-3" d="M324.7,335.1s0,.13-.04,.2c-.31,.42-2.07-.36-2.91-1.83-.87-1.53-.83-3.97-.83-3.97,.55-.49,1.34-.59,1.97-.25,.68,.35,1.04,1.13,.89,1.9,.06,.22,.83,2.93,.92,3.96Z"/><path class="cls-3" d="M102.77,205.38s1.24,.55,4.76,2.43c.57,.3,.6,.33,.66,.36,2.12,1.54,2.05,5.52,1,8.21-.81,2.09-2.14,3.24-2.15,3.23-.01,0,2.52-2.2,2.98-5.47,.47-3.3-1.7-5.83-1.83-5.98-2.1-2.44-5.39-2.86-5.42-2.79Z"/><path class="cls-3" d="M88.29,222.8c-1.18,.74-2.96,.36-3.13-.24-.09-.3,.25-.52,2.77-2.77,.96-.86,1.15-1.04,1.33-.96,.55,.24,.65,2.97-.96,3.98Z"/><path class="cls-3" d="M95.85,214.39c-.1-.3,1.03-.59,2.65-2.05,2.28-2.04,2.76-3.89,3.26-3.74,.55,.17,.81,2.68-.48,4.34-1.68,2.16-5.26,1.96-5.43,1.45Z"/><path class="cls-3" d="M79.45,221.82c.09-.03,.86,6.18,5.77,10.1,4.05,3.23,6.14,1.11,12.5,3.85,0,0,9.23,3.97,15.06,14.18,1.23,2.15,2.25,4.58,2.25,4.58s.11,.27,.22,.54c1.37,3.39,3.48,13.83,3.14,13.89-.31,.06,.31-9.56-5.62-19-1.72-2.75-8.18-13.03-18.97-15.45-3.27-.73-5.68-.46-8.6-2.58-4.95-3.59-5.86-10.06-5.77-10.1Z"/><path class="cls-3" d="M130.57,492.56s.11-.55,.11-.55c.35-2.24,.52-3.37,.54-4.31,.04-1.97,.06-2.96-.5-3.75-.71-.99-1.86-1.09-2.34-1.09-1.31-.44-3.38-1.33-5.38-3.19-.98-.92-2.18-2.29-3.41-4.7,0,0-4.57-9.1-2.89-20.98,.68-4.79,2.2-8.38,2.17-8.39-.06-.02-1.49,3.89-2.17,8.39-.79,5.2-.11,9.48,.29,12.09,.31,1.98,.58,3.72,1.2,5.24,.12,.3,.71,1.7,1.4,3.65,.06,.17,.08,.22,.09,.27,.29,.81,2.89,5.68,8.7,7.62,1.49,.5,1.84,.48,2.34,1.09,1.3,1.6-.16,8.61-.15,8.61Z"/><path class="cls-3" d="M124.67,441.12c.06,.1,4.83-4.39,12.49-6.04,6.5-1.4,11.68-.02,11.68-.1,0-.08-5.85-1.82-12.79-.1-7.07,1.75-11.44,6.15-11.38,6.24Z"/></g></g></svg>