<?xml version="1.0" encoding="UTF-8"?><svg id="Layer_1" xmlns="http://www.w3.org/2000/svg" width="1739" height="347" viewBox="0 0 1739 347"><defs><style>.cls-1{fill:#122851;}.cls-2{fill:#fffa96;}</style></defs><g><path class="cls-1" d="M208.24,280.14v18.88H72.87l-48.54-48.54v-95.46h10.79v-8.63l-10.79-10.79V40.13h243.51l48.54,48.54v95.46h-10.25l14.29,14.29v96c-14.56,7.28-25.08,8.9-44.76,8.9-31.28,0-52.05-7.28-67.42-23.19Z"/><path class="cls-1" d="M327.97,271.51l-48.54-48.54c-17.8-17.8-28.32-43.42-28.32-77.67,0-75.51,51.51-109.48,119.19-109.48,36.94,0,69.3,10.25,90.88,31.82l48.54,48.54c17.8,17.8,28.32,43.42,28.32,77.66,0,75.51-51.51,109.49-119.19,109.49-36.94,0-69.3-10.25-90.88-31.82Z"/><path class="cls-1" d="M468.2,250.47v-95.46h10.79v-8.63l-10.79-10.79V40.13h262.39l48.54,48.54v95.46h-10.79v114.88h-251.6l-48.54-48.54Z"/><path class="cls-1" d="M761.59,250.47v-41.8l-48.54-48.54V40.13h257.8l48.54,48.54v120h-48.54v90.34h-160.72l-48.54-48.54Z"/><path class="cls-1" d="M945.24,250.47v-95.46h14.02l2.97-11.06-8.36-8.36V40.13h194.16l48.54,48.54,26.43,95.46,19.42,19.42v95.46h-248.63l-48.54-48.54Z"/><path class="cls-1" d="M1361.06,280.14v18.88h-135.37l-48.54-48.54v-95.46h10.79v-8.63l-10.79-10.79V40.13h243.51l48.54,48.54v95.46h-10.25l14.29,14.29v96c-14.56,7.28-25.08,8.9-44.76,8.9-31.28,0-52.05-7.28-67.42-23.19Z"/><path class="cls-1" d="M1451.67,250.47v-41.8l-48.54-48.54V40.13h257.8l48.54,48.54v120h-48.54v90.34h-160.72l-48.54-48.54Z"/></g><g><path class="cls-2" d="M153.69,198.97l-16.72-33.71h-1.08v9.17c0,13.48,3.51,25.62,10.79,36.13v26.43H38.27v-68.5h10.79v-46.38h-10.79V53.62h108.41v60.41h-10.79v23.46h1.08l20.5-23.46V53.62h97.35V122.11h-13.48l-17.53,18.88,11.6,17.8c4.58,7.01,9.17,9.71,17.26,9.71,2.7,0,4.58-.27,6.2-.81v69.3c-6.74,2.97-18.07,4.31-31.28,4.31-39.37,0-58.79-12.13-73.89-42.34Z"/><path class="cls-2" d="M265.06,145.3c0-61.48,38.02-96,105.71-96s105.71,34.52,105.71,96-38.02,96-105.71,96-105.71-34.52-105.71-96Zm119.19,0c0-14.56-4.32-21.57-13.48-21.57s-13.48,7.01-13.48,21.57,4.31,21.57,13.48,21.57,13.48-7.01,13.48-21.57Z"/><path class="cls-2" d="M482.14,168.49h10.79v-46.38h-10.79V53.62h128.9l20.5,75.51h1.08V53.62h84.95V122.11h-10.79v114.88h-104.63l-33.98-118.65h-1.08v58.25h10.79v60.41h-95.73v-68.5Z"/><path class="cls-2" d="M775.54,168.49h23.46v-54.47h-10.79v32.63h-61.21V53.62h230.84v93.04h-61.21v-32.63h-10.79v54.47h23.46v68.5h-133.76v-68.5Z"/><path class="cls-2" d="M959.18,168.49h10.79l12.94-46.38h-15.1V53.62h170.43l31.82,114.88h10.79v68.5h-101.4v-74.43h-26.7l-2.16,14.02h18.07v60.41h-109.49v-68.5Zm115.69-33.98l-8.63-36.95h-1.08l-8.63,36.95h18.34Z"/><path class="cls-2" d="M1306.51,198.97l-16.72-33.71h-1.08v9.17c0,13.48,3.51,25.62,10.79,36.13v26.43h-108.41v-68.5h10.79v-46.38h-10.79V53.62h108.41v60.41h-10.79v23.46h1.08l20.5-23.46V53.62h97.35V122.11h-13.48l-17.53,18.88,11.6,17.8c4.58,7.01,9.17,9.71,17.26,9.71,2.7,0,4.58-.27,6.2-.81v69.3c-6.74,2.97-18.07,4.31-31.28,4.31-39.37,0-58.79-12.13-73.89-42.34Z"/><path class="cls-2" d="M1465.62,168.49h23.46v-54.47h-10.79v32.63h-61.21V53.62h230.84v93.04h-61.21v-32.63h-10.79v54.47h23.46v68.5h-133.76v-68.5Z"/></g></svg>