<?xml version="1.0" encoding="UTF-8"?><svg id="Layer_1" xmlns="http://www.w3.org/2000/svg" width="5495" height="3587" viewBox="0 0 5495 3587"><defs><style>.cls-1{fill:#122851;}</style></defs><path class="cls-1" d="M3.48,703.15c104.94,.95,204.85,19.43,297.59,69.7,59.55,32.28,114.78,74.19,181.24,91.59,94.88,24.85,198.28,2.6,285.03-38.55,136.47-64.73,257.63-162.18,378.25-251.83,108.23-80.45,215.59-164.73,333.08-231.49,92.56-52.59,203.91-101.88,312.45-75.8,97.57,23.44,188.29,73.93,272.95,126.29,96.04,59.4,187.14,126.23,281.03,188.86,89.36,59.61,181.09,117.86,279.4,161.74,79.72,35.57,157.37,52.42,244.44,54.23,173.77,3.62,326.14-74.76,464.45-173.23,71.45-50.87,139.56-106.23,208.61-160.25,69.82-54.62,141.82-106.17,210.75-161.94,69.1-55.9,138.01-113.46,215.5-157.59,78.96-44.95,168.78-71.12,258.54-83.4,95.2-13.02,191.65-6.46,284.18,19.5,109.4,30.69,212.38,82.17,312.82,134.34,112.25,58.3,222.6,120.67,338,172.68,106.34,47.93,218.81,88.42,336.67,90.26,0,376.06-4.88,752.1-4.88,1128.16-209.26,4.05-416.63-27.86-621.33-68.47-97.73-19.39-195.06-40.76-292.52-61.47-91.02-19.34-186.88-26.87-279.57-33.51-89.88-6.44-181.51-10.2-271.11,1.32-86.93,11.18-171.48,35.24-254.57,62.53-38.28,12.57-77.19,24.6-114.83,39.01-41.06,15.72-80.63,36.89-120.16,56.12-75.26,36.61-150.15,74.02-226.64,108.04-148.47,66.04-307.5,117.58-471.91,112.69-20.57-.61-36.27-6.61-55.78-11.29-17.56-4.21-37.39-2.87-55.48-3.93-42.23-2.47-84.39-5.92-126.49-10.01-87-8.45-173.72-19.65-260.25-32.02-353.97-50.6-703.54-127.17-1060.51-155.91-102.85-8.28-204.96-8.7-307.95-3.18-53.22,2.85-105.66,4.64-158.37,12.86-50.39,7.86-100.45,17.61-150.3,28.34-100.79,21.69-200.73,47.22-301.98,66.75-119.03,22.96-239.1,36.01-360.37,36.83V703.15Z"/><rect class="cls-1" y="1374" width="5525" height="2213"/></svg>