<?xml version="1.0" encoding="UTF-8"?><svg id="Layer_1" xmlns="http://www.w3.org/2000/svg" width="2374" height="1394" viewBox="0 0 2374 1394"><defs><style>.cls-1{fill:#ffcfe5;}.cls-2{fill:#ffe1f4;}.cls-3{fill:#122851;}.cls-4{fill:#0bb000;}.cls-5{fill:#fffa96;}.cls-6{fill:#ffbbd5;}</style></defs><g><path class="cls-4" d="M111.59,124.26c5.55,1.48,4.57,21.55,4.53,24.49-2.2,142.93,396.34,263.45,396.34,263.45,32.23,9.74,85.82,25.08,360.12,75.16,300.11,54.78,399.26,66.25,532.08,140.65,88.21,49.42,194.03,128.17,181.65,158.08-1.92,4.66-9.66,15.23-17.63,14.49-12.08-1.13-18.54-27.67-19.8-32.18-33.41-117.79-381.98-199.92-381.98-199.92-142.18-33.5-170.62-31.19-355.56-65.97-220.17-41.42-332.15-63.79-438.82-114.39C221.84,316.62,77.92,201.23,93.94,146.4c1.43-4.93,11.94-23.65,17.65-22.14Z"/><path class="cls-1" d="M1580.94,794.5c-7.08,12.78-13.15,10.18-41.4,32.02-31.39,24.28-80.58,62.33-79.06,98.48,1.68,39.92,63.51,37.08,88.49,93.57,23.97,54.18-20.38,85.03,3.45,141.54,16.97,40.24,42.53,31.86,96.91,91.29,57.81,63.16,48.89,94.44,83.87,107.33,50.34,18.56,77.64-42.96,167.69-58.46,104.79-18.03,144.82,51.99,207.26,21.21,44.49-21.94,30.52-60.64,98.42-186.4,56.72-105.07,83.36-109.38,88.41-164.24,6.14-66.75-32.24-72.15-46.98-171.49-15.45-104.1,19.68-145.5-15.56-189-21.28-26.27-38.58-15.73-112.34-45.43-116.21-46.81-130.3-95.17-180.32-86.16-58.53,10.56-54.72,79.61-121.9,96.83-59.27,15.19-82.6-33.14-149.13-19.52-47.75,9.77-102.74,48.76-111.95,97.62-10.84,57.51,47.37,98.83,24.11,140.83Z"/><path class="cls-2" d="M1720.26,759.68c33.75-56.18,89.3-80.43,111.93-89.97,21.97-9.25,53.7-22.6,96.45-21.16,59.35,2.02,132.27,32.31,161.18,89.94,20.63,41.11,.27,59.08,27.25,108.7,23.09,42.45,44.8,41.87,51.83,73.58,11.82,53.36-38.64,105.33-45.43,112.34-20.66,21.28-31.37,21.25-89.65,54.08-85.27,48.02-80.64,58.41-111.87,67.02-69.66,19.22-136.91-20.32-168.2-38.7-14.87-8.75-136.08-80.02-127.33-160.23,4.11-37.57,32.85-41.61,66.88-122.99,18.6-44.46,11.55-46.96,26.97-72.6Z"/><path class="cls-6" d="M2007.56,892.03c14.73-28.02,25.64-48.76,17.78-68.04-8.32-20.41-28.54-16.82-78.67-46.88-38.89-23.31-41.65-34.4-61.87-36.12-34.59-2.93-74.08,25.55-72.04,47.24,1.96,20.74,42.42,40.68,65.82,38.88,1.18-.09,2.93-.29,5.22,.33,17.73,4.81,29.78,48.45,15.87,74.25-14.71,27.26-52.08,22.89-52.88,35.82-.91,14.85,47.09,41.44,89.43,30.07,36.81-9.88,55.06-44.58,71.35-75.55Z"/><path class="cls-6" d="M1758.77,951.11c-4.36,15.38-7.57,26.76-3.18,35.48,4.65,9.25,12.72,5.37,35.06,15.06,17.33,7.51,19.13,12.71,27.53,11.48,14.34-2.12,28.82-20.27,26.67-30.8-2.05-10.06-19.83-15.73-29.31-12.43-.47,.17-1.19,.44-2.17,.37-7.55-.55-15.13-20.89-10.97-35.08,4.38-14.99,19.96-16.69,19.51-23.17-.53-7.45-21.8-15.63-38.46-5.63-14.48,8.68-19.86,27.73-24.69,44.73Z"/><path class="cls-4" d="M919.49,507.8c67.37-81.25,166.34-174.74,303.87-227.88,281.33-108.73,566.31,12.22,568.5,2.21,1.53-6.97-136.22-66.84-315.37-62.21-53.42,1.38-275.01,12.67-478.27,175.68-52.35,41.97-90.29,83.45-114.98,113.22l36.26-1.03h0Z"/><path class="cls-4" d="M1742.95,232.9c38.18-29.5,91.86-25.97,123.32-6.05,29.42,18.62,55.25,61.59,55.68,62.11h0c-8.31-4.96-22.11-11.67-40.07-13.65-30.64-3.39-59.73,9.5-80.2,25.84-49.38,39.44-44.77,137.55-44.6,136.56,0,0-47.44-50.28-54.19-100.87-.99-7.3-5.82-68.47,40.06-103.94Z"/><path class="cls-4" d="M1752.96,240.61c19.34,4.43,26.33,57.78,26.33,57.78,21.43,1.85-54.23,6.04-63.1-13.56-4.97-10.96,8.92-26.91,11.17-29.5,3.49-4.01,14.93-17.16,25.6-14.72h0Z"/></g><g><g><path class="cls-3" d="M64.12,522.51l-27.51-95.19-19.69-19.69v-95.46h243.24l48.54,48.54v95.46h-14.56l-32.63,114.88H112.66l-48.54-48.54Z"/><path class="cls-3" d="M243.45,522.51v-95.46h10.79v-8.63l-10.79-10.79v-95.46h135.37l48.54,48.54v95.46h-10.79v8.63l10.79,10.79v95.46h-135.37l-48.54-48.54Z"/><path class="cls-3" d="M363.18,522.51v-95.46h10.79v-8.63l-10.79-10.79v-95.46h148.05l48.54,48.54v39.1h25.62l48.54,48.54v122.7h-222.21l-48.54-48.54Z"/><path class="cls-3" d="M567.86,522.51v-95.46h10.79v-8.63l-10.79-10.79v-95.46h118.92c37.48,0,70.92,8.9,93.04,31.01l48.54,48.54c16.72,16.72,26.7,40.72,26.7,74.16,0,77.67-53.93,105.17-119.73,105.17h-118.92l-48.54-48.54Z"/><path class="cls-3" d="M945.39,564.58l-.54,6.47h-109.22l-48.54-48.54v-105.17h12.13c-9.17-10.52-15.1-24-15.1-41.53,0-46.92,37.75-67.96,76.05-67.96,15.64,0,29.66,3.24,42.34,9.98l.54-5.66h109.21l48.54,48.54v98.43h-8.09c10.52,10.79,17.53,25.35,17.53,45.84,0,49.89-38.02,70.38-79.01,70.38-17.53,0-32.09-3.51-45.84-10.79Z"/><path class="cls-3" d="M1184.85,552.17v18.88h-135.37l-48.54-48.54v-95.46h10.79v-8.63l-10.79-10.79v-95.46h243.51l48.54,48.54v95.46h-10.25l14.29,14.29v96c-14.56,7.28-25.08,8.9-44.76,8.9-31.28,0-52.05-7.28-67.42-23.19Z"/><path class="cls-3" d="M1307.82,550.82l-48.54-48.54c-15.91-15.91-20.76-38.56-20.76-63.64v-20.22l-10.79-10.79v-95.46h241.08l48.54,48.54v95.46h-10.79v31.01c0,69.84-39.64,88.18-109.75,88.18-33.71,0-68.5-4.05-88.99-24.54Z"/><path class="cls-3" d="M1452.36,522.51v-95.46h10.79v-8.63l-10.79-10.79v-95.46h118.92c37.48,0,70.92,8.9,93.04,31.01l48.54,48.54c16.72,16.72,26.7,40.72,26.7,74.16,0,77.67-53.93,105.17-119.73,105.17h-118.92l-48.54-48.54Z"/><path class="cls-3" d="M24.08,846.11v-95.46h10.79v-8.63l-10.79-10.79v-95.46H246.29l48.54,48.54v98.7h-32.36v42.07h-41.8v69.57H72.62l-48.54-48.54Z"/><path class="cls-3" d="M228.75,846.11v-95.46h10.79v-8.63l-10.79-10.79v-95.46h230.84l48.54,48.54v95.73l2.7,2.7v111.91h-233.53l-48.54-48.54Z"/><path class="cls-3" d="M604.13,888.18l-.54,6.47h-109.22l-48.54-48.54v-105.17h12.13c-9.17-10.52-15.1-24-15.1-41.53,0-46.92,37.75-67.96,76.05-67.96,15.64,0,29.66,3.24,42.34,9.98l.54-5.66h109.21l48.54,48.54v98.43h-8.09c10.52,10.79,17.53,25.35,17.53,45.84,0,49.89-38.02,70.38-79.01,70.38-17.53,0-32.09-3.51-45.84-10.79Z"/><path class="cls-3" d="M702.02,846.11v-41.8l-48.54-48.54v-120h257.8l48.54,48.54v120h-48.54v90.34h-160.72l-48.54-48.54Z"/><path class="cls-3" d="M893.75,846.11v-95.46h10.79v-8.63l-10.79-10.79v-95.46h135.37l48.54,48.54v95.46h-10.79v8.63l10.79,10.79v95.46h-135.37l-48.54-48.54Z"/><path class="cls-3" d="M1059.59,846.11l-27.51-95.19-19.69-19.69v-95.46h243.24l48.54,48.54v95.46h-14.56l-32.63,114.88h-148.86l-48.54-48.54Z"/><path class="cls-3" d="M1229.75,846.11v-95.46h14.02l2.97-11.06-8.36-8.36v-95.46h194.16l48.54,48.54,26.43,95.46,19.42,19.42v95.46h-248.63l-48.54-48.54Z"/><path class="cls-3" d="M1461.67,846.11v-95.46h10.79v-8.63l-10.79-10.79v-95.46h148.05l48.54,48.54v39.1h25.62l48.54,48.54v122.7h-222.21l-48.54-48.54Z"/></g><g><path class="cls-5" d="M45.8,397.9h-10.79v-68.5h100.59v68.5l11.33,49.08h1.08l11.33-49.08h-12.94v-68.5h104.9v68.5h-11.33l-32.63,114.88H78.97l-33.17-114.88Z"/><path class="cls-5" d="M261.53,444.28h10.79v-46.38h-10.79v-68.5h108.41v68.5h-10.79v46.38h10.79v68.5h-108.41v-68.5Z"/><path class="cls-5" d="M381.26,444.28h10.79v-46.38h-10.79v-68.5h121.08v68.5h-23.46v54.47h16.18v-35.33h81.44v95.73h-195.24v-68.5Z"/><path class="cls-5" d="M585.94,444.28h10.79v-46.38h-10.79v-68.5h105.44c70.11,0,106.25,31.28,106.25,91.69s-36.13,91.69-106.25,91.69h-105.44v-68.5Zm99.51,0c14.29,0,19.96-6.47,19.96-23.19s-5.66-23.19-19.96-23.19h-1.89v46.38h1.89Z"/><path class="cls-5" d="M892.55,498.21h-1.08l-2.16,14.56h-84.14v-78.2h15.37c17.8,9.98,38.83,15.91,60.68,15.91,11.6,0,19.15-1.62,26.43-5.12v-1.08c-74.43-6.47-105.44-27.51-105.44-64.72,0-33.44,24.81-54.47,62.56-54.47,18.88,0,35.06,5.12,51.24,18.88h1.08l2.16-14.56h84.14v71.46h-15.37c-13.48-7.82-34.52-12.94-53.93-12.94-11.06,0-18.61,1.62-27.24,5.12v1.08c77.12,8.36,105.98,26.7,105.98,66.07,0,36.41-24.81,56.9-65.53,56.9-21.57,0-37.21-5.66-54.74-18.88Z"/><path class="cls-5" d="M1134.44,474.75l-16.72-33.71h-1.08v9.17c0,13.48,3.51,25.62,10.79,36.14v26.43h-108.41v-68.5h10.79v-46.38h-10.79v-68.5h108.41v60.41h-10.79v23.46h1.08l20.5-23.46v-60.41h97.35v68.5h-13.48l-17.53,18.88,11.6,17.8c4.58,7.01,9.17,9.71,17.26,9.71,2.7,0,4.58-.27,6.2-.81v69.3c-6.74,2.97-18.07,4.31-31.28,4.31-39.37,0-58.79-12.13-73.89-42.34Z"/><path class="cls-5" d="M1256.6,442.39v-44.5h-10.79v-68.5h97.62v101.13c0,9.98,4.58,12.13,10.79,12.13s10.79-2.16,10.79-12.13v-32.63h-10.79v-68.5h105.71v68.5h-10.79v44.5c0,55.28-25.08,74.7-96.27,74.7s-96.27-19.42-96.27-74.7Z"/><path class="cls-5" d="M1470.44,444.28h10.79v-46.38h-10.79v-68.5h105.44c70.11,0,106.25,31.28,106.25,91.69s-36.14,91.69-106.25,91.69h-105.44v-68.5Zm99.51,0c14.29,0,19.96-6.47,19.96-23.19s-5.66-23.19-19.96-23.19h-1.89v46.38h1.89Z"/><path class="cls-5" d="M42.16,767.88h10.79v-46.38h-10.79v-68.5H237.4v71.73h-81.44v-11.33h-16.18v20.5h65.26v32.9h-65.26v9.17h23.46v60.41H42.16v-68.5Z"/><path class="cls-5" d="M246.83,767.88h10.79v-46.38h-10.79v-68.5h203.87v84.95h-78.74v-24.54h-27.51v14.83h16.72v32.9h-16.72v14.83h27.51v-24.54h81.44v84.95H246.83v-68.5Z"/><path class="cls-5" d="M551.29,821.81h-1.08l-2.16,14.56h-84.14v-78.2h15.37c17.8,9.98,38.83,15.91,60.68,15.91,11.6,0,19.15-1.62,26.43-5.12v-1.08c-74.43-6.47-105.44-27.51-105.44-64.72,0-33.44,24.81-54.47,62.56-54.47,18.88,0,35.06,5.12,51.24,18.88h1.08l2.16-14.56h84.14v71.46h-15.37c-13.48-7.82-34.52-12.94-53.93-12.94-11.06,0-18.61,1.62-27.24,5.12v1.08c77.12,8.36,105.98,26.7,105.98,66.07,0,36.41-24.81,56.9-65.53,56.9-21.57,0-37.21-5.66-54.74-18.88Z"/><path class="cls-5" d="M720.1,767.88h23.46v-54.47h-10.79v32.63h-61.21v-93.04h230.84v93.04h-61.21v-32.63h-10.79v54.47h23.46v68.5h-133.76v-68.5Z"/><path class="cls-5" d="M911.83,767.88h10.79v-46.38h-10.79v-68.5h108.41v68.5h-10.79v46.38h10.79v68.5h-108.41v-68.5Z"/><path class="cls-5" d="M1041.27,721.5h-10.79v-68.5h100.59v68.5l11.33,49.08h1.08l11.33-49.08h-12.94v-68.5h104.9v68.5h-11.33l-32.63,114.88h-128.36l-33.17-114.88Z"/><path class="cls-5" d="M1247.83,767.88h10.79l12.94-46.38h-15.1v-68.5h170.43l31.82,114.88h10.79v68.5h-101.4v-74.43h-26.7l-2.16,14.02h18.07v60.41h-109.49v-68.5Zm115.69-33.98l-8.63-36.95h-1.08l-8.63,36.95h18.34Z"/><path class="cls-5" d="M1479.75,767.88h10.79v-46.38h-10.79v-68.5h121.08v68.5h-23.46v54.47h16.18v-35.33h81.44v95.73h-195.24v-68.5Z"/></g></g></svg>