<?xml version="1.0" encoding="UTF-8"?><svg id="Layer_1" xmlns="http://www.w3.org/2000/svg" width="1737" height="591" viewBox="0 0 1737 591"><defs><style>.cls-1{fill:#122851;}.cls-2{fill:#fffa96;}</style></defs><g><path class="cls-1" d="M61.12,214.51l-27.51-95.19-19.69-19.69V4.17h243.24l48.54,48.54v95.46h-14.56l-32.63,114.88H109.66l-48.54-48.54Z"/><path class="cls-1" d="M240.45,214.51V119.04h10.79v-8.63l-10.79-10.79V4.17h135.37l48.54,48.54v95.46h-10.79v8.63l10.79,10.79v95.46h-135.37l-48.54-48.54Z"/><path class="cls-1" d="M360.18,214.51V119.04h10.79v-8.63l-10.79-10.79V4.17h148.05l48.54,48.54v39.1h25.62l48.54,48.54v122.7h-222.21l-48.54-48.54Z"/><path class="cls-1" d="M564.86,214.51V119.04h10.79v-8.63l-10.79-10.79V4.17h118.92c37.48,0,70.92,8.9,93.04,31.01l48.54,48.54c16.72,16.72,26.7,40.72,26.7,74.16,0,77.67-53.93,105.17-119.73,105.17h-118.92l-48.54-48.54Z"/><path class="cls-1" d="M942.39,256.58l-.54,6.47h-109.22l-48.54-48.54V109.34h12.13c-9.17-10.52-15.1-24-15.1-41.53C781.13,20.89,818.88-.15,857.18-.15c15.64,0,29.66,3.24,42.34,9.98l.54-5.66h109.21l48.54,48.54v98.43h-8.09c10.52,10.79,17.53,25.35,17.53,45.84,0,49.89-38.02,70.38-79.01,70.38-17.53,0-32.09-3.51-45.84-10.79Z"/><path class="cls-1" d="M1181.85,244.17v18.88h-135.37l-48.54-48.54V119.04h10.79v-8.63l-10.79-10.79V4.17h243.51l48.54,48.54v95.46h-10.25l14.29,14.29v96c-14.56,7.28-25.08,8.9-44.76,8.9-31.28,0-52.05-7.28-67.42-23.19Z"/><path class="cls-1" d="M1304.82,242.82l-48.54-48.54c-15.91-15.91-20.76-38.56-20.76-63.64v-20.22l-10.79-10.79V4.17h241.08l48.54,48.54v95.46h-10.79v31.01c0,69.84-39.64,88.18-109.75,88.18-33.71,0-68.5-4.05-88.99-24.54Z"/><path class="cls-1" d="M1449.36,214.51V119.04h10.79v-8.63l-10.79-10.79V4.17h118.92c37.48,0,70.92,8.9,93.04,31.01l48.54,48.54c16.72,16.72,26.7,40.72,26.7,74.16,0,77.67-53.93,105.17-119.73,105.17h-118.92l-48.54-48.54Z"/><path class="cls-1" d="M21.08,538.11v-95.46h10.79v-8.63l-10.79-10.79v-95.46H243.29l48.54,48.54v98.7h-32.36v42.07h-41.8v69.57H69.62l-48.54-48.54Z"/><path class="cls-1" d="M225.75,538.11v-95.46h10.79v-8.63l-10.79-10.79v-95.46h230.84l48.54,48.54v95.73l2.7,2.7v111.91h-233.53l-48.54-48.54Z"/><path class="cls-1" d="M601.13,580.18l-.54,6.47h-109.22l-48.54-48.54v-105.17h12.13c-9.17-10.52-15.1-24-15.1-41.53,0-46.92,37.75-67.96,76.05-67.96,15.64,0,29.66,3.24,42.34,9.98l.54-5.66h109.21l48.54,48.54v98.43h-8.09c10.52,10.79,17.53,25.35,17.53,45.84,0,49.89-38.02,70.38-79.01,70.38-17.53,0-32.09-3.51-45.84-10.79Z"/><path class="cls-1" d="M699.02,538.11v-41.8l-48.54-48.54v-120h257.8l48.54,48.54v120h-48.54v90.34h-160.72l-48.54-48.54Z"/><path class="cls-1" d="M890.75,538.11v-95.46h10.79v-8.63l-10.79-10.79v-95.46h135.37l48.54,48.54v95.46h-10.79v8.63l10.79,10.79v95.46h-135.37l-48.54-48.54Z"/><path class="cls-1" d="M1056.59,538.11l-27.51-95.19-19.69-19.69v-95.46h243.24l48.54,48.54v95.46h-14.56l-32.63,114.88h-148.86l-48.54-48.54Z"/><path class="cls-1" d="M1226.75,538.11v-95.46h14.02l2.97-11.06-8.36-8.36v-95.46h194.16l48.54,48.54,26.43,95.46,19.42,19.42v95.46h-248.63l-48.54-48.54Z"/><path class="cls-1" d="M1458.67,538.11v-95.46h10.79v-8.63l-10.79-10.79v-95.46h148.05l48.54,48.54v39.1h25.62l48.54,48.54v122.7h-222.21l-48.54-48.54Z"/></g><g><path class="cls-2" d="M41.8,85.9h-10.79V17.4h100.59V85.9l11.33,49.08h1.08l11.33-49.08h-12.94V17.4h104.9V85.9h-11.33l-32.63,114.88H74.97L41.8,85.9Z"/><path class="cls-2" d="M257.53,132.28h10.79v-46.38h-10.79V17.4h108.41V85.9h-10.79v46.38h10.79v68.5h-108.41v-68.5Z"/><path class="cls-2" d="M377.26,132.28h10.79v-46.38h-10.79V17.4h121.08V85.9h-23.46v54.47h16.18v-35.33h81.44v95.73h-195.24v-68.5Z"/><path class="cls-2" d="M581.94,132.28h10.79v-46.38h-10.79V17.4h105.44c70.11,0,106.25,31.28,106.25,91.69s-36.13,91.69-106.25,91.69h-105.44v-68.5Zm99.51,0c14.29,0,19.96-6.47,19.96-23.19s-5.66-23.19-19.96-23.19h-1.89v46.38h1.89Z"/><path class="cls-2" d="M888.55,186.21h-1.08l-2.16,14.56h-84.14V122.57h15.37c17.8,9.98,38.83,15.91,60.68,15.91,11.6,0,19.15-1.62,26.43-5.12v-1.08c-74.43-6.47-105.44-27.51-105.44-64.72,0-33.44,24.81-54.47,62.56-54.47,18.88,0,35.06,5.12,51.24,18.88h1.08l2.16-14.56h84.14V88.86h-15.37c-13.48-7.82-34.52-12.94-53.93-12.94-11.06,0-18.61,1.62-27.24,5.12v1.08c77.12,8.36,105.98,26.7,105.98,66.07,0,36.41-24.81,56.9-65.53,56.9-21.57,0-37.21-5.66-54.74-18.88Z"/><path class="cls-2" d="M1130.44,162.75l-16.72-33.71h-1.08v9.17c0,13.48,3.51,25.62,10.79,36.14v26.43h-108.41v-68.5h10.79v-46.38h-10.79V17.4h108.41v60.41h-10.79v23.46h1.08l20.5-23.46V17.4h97.35V85.9h-13.48l-17.53,18.88,11.6,17.8c4.58,7.01,9.17,9.71,17.26,9.71,2.7,0,4.58-.27,6.2-.81v69.3c-6.74,2.97-18.07,4.31-31.28,4.31-39.37,0-58.79-12.13-73.89-42.34Z"/><path class="cls-2" d="M1252.6,130.39v-44.5h-10.79V17.4h97.62V118.53c0,9.98,4.58,12.13,10.79,12.13s10.79-2.16,10.79-12.13v-32.63h-10.79V17.4h105.71V85.9h-10.79v44.5c0,55.28-25.08,74.7-96.27,74.7s-96.27-19.42-96.27-74.7Z"/><path class="cls-2" d="M1466.44,132.28h10.79v-46.38h-10.79V17.4h105.44c70.11,0,106.25,31.28,106.25,91.69s-36.14,91.69-106.25,91.69h-105.44v-68.5Zm99.51,0c14.29,0,19.96-6.47,19.96-23.19s-5.66-23.19-19.96-23.19h-1.89v46.38h1.89Z"/><path class="cls-2" d="M38.16,455.88h10.79v-46.38h-10.79v-68.5H233.4v71.73h-81.44v-11.33h-16.18v20.5h65.26v32.9h-65.26v9.17h23.46v60.41H38.16v-68.5Z"/><path class="cls-2" d="M242.83,455.88h10.79v-46.38h-10.79v-68.5h203.87v84.95h-78.74v-24.54h-27.51v14.83h16.72v32.9h-16.72v14.83h27.51v-24.54h81.44v84.95H242.83v-68.5Z"/><path class="cls-2" d="M547.29,509.81h-1.08l-2.16,14.56h-84.14v-78.2h15.37c17.8,9.98,38.83,15.91,60.68,15.91,11.6,0,19.15-1.62,26.43-5.12v-1.08c-74.43-6.47-105.44-27.51-105.44-64.72,0-33.44,24.81-54.47,62.56-54.47,18.88,0,35.06,5.12,51.24,18.88h1.08l2.16-14.56h84.14v71.46h-15.37c-13.48-7.82-34.52-12.94-53.93-12.94-11.06,0-18.61,1.62-27.24,5.12v1.08c77.12,8.36,105.98,26.7,105.98,66.07,0,36.41-24.81,56.9-65.53,56.9-21.57,0-37.21-5.66-54.74-18.88Z"/><path class="cls-2" d="M716.1,455.88h23.46v-54.47h-10.79v32.63h-61.21v-93.04h230.84v93.04h-61.21v-32.63h-10.79v54.47h23.46v68.5h-133.76v-68.5Z"/><path class="cls-2" d="M907.83,455.88h10.79v-46.38h-10.79v-68.5h108.41v68.5h-10.79v46.38h10.79v68.5h-108.41v-68.5Z"/><path class="cls-2" d="M1037.27,409.5h-10.79v-68.5h100.59v68.5l11.33,49.08h1.08l11.33-49.08h-12.94v-68.5h104.9v68.5h-11.33l-32.63,114.88h-128.36l-33.17-114.88Z"/><path class="cls-2" d="M1243.83,455.88h10.79l12.94-46.38h-15.1v-68.5h170.43l31.82,114.88h10.79v68.5h-101.4v-74.43h-26.7l-2.16,14.02h18.07v60.41h-109.49v-68.5Zm115.69-33.98l-8.63-36.95h-1.08l-8.63,36.95h18.34Z"/><path class="cls-2" d="M1475.75,455.88h10.79v-46.38h-10.79v-68.5h121.08v68.5h-23.46v54.47h16.18v-35.33h81.44v95.73h-195.24v-68.5Z"/></g></svg>