<?xml version="1.0" encoding="UTF-8"?><svg id="Layer_1" xmlns="http://www.w3.org/2000/svg" width="1125" height="1655" viewBox="0 0 1125 1655"><defs><style>.cls-1{fill:#ff70f0;}</style></defs><path class="cls-1" d="M1125,1497c-23.57-1.78-36.5-8.75-50.14-27.49-9.8-13.46-17.79-25.38-34.44-30.66-28.27-8.97-54.99,6.02-78.52,20.3-35.1,21.3-66.75,47.94-100.25,71.58-24.12,17.02-54.3,40.83-85.2,42.81-25.81,1.66-49.44-13.74-69.29-28.46-46.9-34.79-80.88-84.6-127.72-118.94-45.44-33.31-117.14-26.85-168.02-11.28-25.2,7.71-50.28,19.5-67.63,39.94-20.23,23.83-33.9,53.88-48.68,81.16-23.84,43.99-64.3,132.72-127.34,96.11-60.67-35.24-94.53-123.29-167.78-135.07V379.96c0-56.37-3.98-114.48,3.6-170.46,3.01-22.25,7.23-50.84,23.78-67.64,20.83-21.14,45.49-5.1,64.62,10.14,37.59-8.35,66.67-22.17,69.97-64.24,1.33-16.92-5.85-45.98,8.12-58.89,34.64-32,111.73,42.75,136.9,60.64,20.13,14.32,42.87,30.46,68.2,33.11,25.34,2.64,48.42-11.32,67.9-25.85,35-26.1,71.97-73.39,119.41-73.77,26.99-.21,54.73,13.18,78.65,23.85,31.66,14.12,62.27,30.5,93.87,44.75,43.17,19.47,92.91,41.25,127.79-2.45,25.38-31.8,42.93-78.15,93.15-63.2,65.94,19.63,99.08,96.73,170.04,106.05-.35,454.99-1,910-1,1365Z"/></svg>