<?xml version="1.0" encoding="UTF-8"?><svg id="Layer_1" xmlns="http://www.w3.org/2000/svg" width="1791" height="2836" viewBox="0 0 1791 2836"><defs><style>.cls-1{fill:#ff70f0;}</style></defs><path class="cls-1" d="M1790.41,2570.17c-32.25-1.66-55.09-12.38-73.83-38.82-12.44-17.55-21.73-37.96-39.15-51.42-72.06-55.71-171.74,40.55-223.8,82.62-43.25,34.95-85.46,71.74-131.68,102.8-26.74,17.97-59.29,39.37-92.86,39.07-69-.61-131.63-72.54-174.93-118.13-29.44-31-57.42-63.32-86.5-94.64-19.21-20.69-38.97-43.84-63.62-58.2-60.02-34.97-141.73-31.77-207.29-17.86-72.25,15.33-132.06,47.92-170.28,112.29-46.82,78.85-76.1,168.82-132.13,242.14-21.11,27.62-51.62,58.66-89.81,51.92-36.43-6.43-67.36-38.2-91.76-63.58-39.3-40.89-73.39-86.5-113.03-127.07-28.05-28.7-58.54-56.43-99.74-61.12V616.04c0-97.42-6.38-197.46,6.09-294.28,4.95-38.43,11.66-88.52,40.07-117.76,32.4-33.34,73.15-3.67,100.25,20.93,43.74-9.02,84.77-23.62,102.49-67.82,13.81-34.43,7.59-71.98,9.31-107.99,1.09-22.81,7.06-44.82,32.62-48.39,33-4.6,65.82,14.52,92.25,32.04,61.65,40.87,112.16,103.04,181.45,131.71,63.12,26.12,115.14-12.53,160.95-53.41,43.29-38.64,88.44-93.66,147.21-108.21,30.02-7.43,61.04,1.88,89.09,12.5,39.84,15.08,77.7,35.46,115.22,55.46,37.07,19.76,73.87,40.17,111.92,58.01,33.18,15.56,71.49,33.89,109.16,33.31,54.44-.84,79.65-53.74,104.2-94.09,15.24-25.05,33.1-52.51,61.98-63.01,34.05-12.38,68.25,1.47,96.89,20.68,74.76,50.15,134.8,155.37,230.85,164.32-.06,141.18-1.59,282.34-1.59,423.53v1956.58Z"/></svg>