<?xml version="1.0" encoding="UTF-8"?><svg id="Lag_1" xmlns="http://www.w3.org/2000/svg" viewBox="0 0 1366 172.79"><defs><style>.cls-1{fill:#ff70f0;}</style></defs><path class="cls-1" d="M1.8,126.26c11.52-21.63,21.97-45.22,37.91-64.06,15.94-18.84,38.1-30.72,59.4-40.46C147.12-.19,201.86,6.12,250.6,22.35c23.95,7.97,46.93,18.5,68.81,31.09,22.06,12.69,42.74,27.52,64.01,41.45,39.23,25.7,82.83,49.37,131.34,43.25,48.67-6.14,88.13-38.33,127.88-64.28,21.39-13.96,43.76-26.98,68.44-34.16,25.07-7.29,51.17-7.16,76.6-1.75,49.62,10.55,92.75,38.22,136.37,62.72,20.82,11.69,42.05,22.69,64.45,31.05,10.64,3.97,21.68,8.21,33.17,8.5,10.63,.27,20.35-3.78,29.3-9.19,20.28-12.26,39.02-26.88,59.56-38.84,21.69-12.64,44.51-23.57,68.79-30.2,24.9-6.79,50.75-8.51,76.45-7.11s50.48,5.21,73.66,14.68c12.22,4.99,23.76,11.69,32.91,21.31,1.33,1.4,3.45-.72,2.12-2.12-15.91-16.74-38.84-25.29-60.91-30.35-24.08-5.51-49.1-7.63-73.76-6.79-50.12,1.69-94.75,21.24-136.65,47.63-10.57,6.66-20.99,13.58-31.19,20.8s-20.81,14.89-33.3,16.74c-13.51,2-26.92-3.31-39.36-7.95s-24.41-10.03-36.2-15.97c-44.64-22.49-85.93-51.77-133.24-68.75-23.3-8.37-48.01-13.81-72.88-13.12-23.26,.65-45.67,7.39-66.53,17.46-46.45,22.44-84.51,60.06-133.08,78.41-25.38,9.59-52.75,12.03-79.23,5.75-24.34-5.77-46.74-17.53-67.9-30.57-22.25-13.7-43.34-29.19-65.54-42.97-20.8-12.91-42.55-24.2-65.36-33.13C223.82,8.14,171.84-2.71,123.56,9.8c-23.22,6.02-44.74,18-64.55,31.29-18.97,12.72-31.11,30.93-42.12,50.55-6.13,10.91-11.8,22.07-17.68,33.11-.91,1.7,1.68,3.22,2.59,1.51h0Z"/><path class="cls-1" d="M180.3,156.6h187.42C367.73,71.16,283.13,.85,180.3,.85S-6.98,71.02-7.12,156.4l187.42,.2Z"/><path class="cls-1" d="M397.84,150.5l-98.92-5.54C225.2,85.22,184.56,32.89,197.32,14.13c16.81-24.72,121.17,16.49,231.17,91.3,21.11,14.36,41.58,29.37,60.65,44.49l-91.3,.57h0Z"/><ellipse class="cls-1" cx="755" cy="124" rx="129" ry="91"/><path class="cls-1" d="M573.5,175.5l-99.75-15.94c15.53-17.74,55.42-29.56,99.75-29.56,58.42,0,106.5,20.54,106.5,45.5h-106.5Z"/><path class="cls-1" d="M481.48,162.47l43.72,6.92c-.15-13.95-20.01-28.57-44-32.36-21.75-3.44-40.25,3.05-43.07,15.12l43.35,10.32Z"/><ellipse class="cls-1" cx="609" cy="139" rx="71" ry="22"/><ellipse class="cls-1" cx="634.6" cy="105.33" rx="92.11" ry="20.4" transform="translate(10.52 261.35) rotate(-23.46)"/><ellipse class="cls-1" cx="666.62" cy="82.32" rx="92.11" ry="20.4" transform="translate(48.15 344.34) rotate(-30)"/><ellipse class="cls-1" cx="888.33" cy="100.64" rx="20.4" ry="97.08" transform="translate(332.48 800.85) rotate(-58.02)"/><ellipse class="cls-1" cx="957.08" cy="139.16" rx="20.4" ry="97.08" transform="translate(396.24 927.09) rotate(-62.83)"/><ellipse class="cls-1" cx="899.37" cy="138.75" rx="17.42" ry="64.08" transform="translate(365.25 875.52) rotate(-62.83)"/><path class="cls-1" d="M929.09,167.16l-67.8-18.63c-14.35-11.66-21.02-20.91-18.56-25.7,5.11-9.96,48.3,1.86,95.68,26.18,15.51,7.96,30.28,16.65,42.77,25.16l-52.08-7.01h-.01Z"/><path class="cls-1" d="M1366.12,191.03c-.02-26.25-.59-52.49-.61-78.73-.14-.62-.29-1.24-.44-1.85-.45-1.8,.17-3.41,1.27-4.57-.33-6-.48-12.01-.29-18.01-33.88-23.91-79.03-38.61-128.33-38.61-103.98,0-189.58,65.33-189.72,144.81l189.72,.19h129.07c-.03-.24-.05-.49-.05-.76-.39-.68-.62-1.5-.62-2.47Z"/><ellipse class="cls-1" cx="1022.45" cy="166.75" rx="20.4" ry="97.08" transform="translate(407.22 1000.24) rotate(-62.83)"/><ellipse class="cls-1" cx="1088.3" cy="129.15" rx="76.32" ry="20.52" transform="translate(69.77 533.7) rotate(-28.43)"/><ellipse class="cls-1" cx="1037.21" cy="156.94" rx="36.56" ry="20.52" transform="translate(11.75 378.01) rotate(-20.77)"/><ellipse class="cls-1" cx="1021.98" cy="159.96" rx="20.52" ry="36.56" transform="translate(702.74 1143.89) rotate(-80.92)"/><rect class="cls-1" y="145" width="567" height="30.5"/><rect class="cls-1" x="803" y="145" width="220" height="42.08"/><path class="cls-1" d="M514.1,162.56l52.9,6.54c-.07-13.9-24.01-28.29-53.03-31.88-26.31-3.25-48.78,3.37-52.3,15.41l52.42,9.93Z"/></svg>