<?xml version="1.0" encoding="UTF-8"?><svg id="Lag_1" xmlns="http://www.w3.org/2000/svg" viewBox="0 0 1366 172.79"><defs><style>.cls-1{fill:#ff70f0;}</style></defs><path class="cls-1" d="M1364.33,41.88c-11.36,21.71-21.64,45.38-37.45,64.33-15.8,18.95-37.88,30.99-59.11,40.89-47.85,22.28-102.63,16.36-151.49,.48-24.01-7.8-47.06-18.16-69.03-30.59-22.15-12.53-42.94-27.21-64.31-40.99-39.41-25.42-83.18-48.77-131.65-42.3-48.62,6.49-87.85,38.97-127.41,65.2-21.29,14.11-43.56,27.3-68.19,34.65-25.02,7.47-51.12,7.53-76.59,2.3-49.69-10.19-93.02-37.55-136.82-61.73-20.9-11.54-42.21-22.39-64.67-30.58-10.67-3.89-21.74-8.05-33.23-8.26-10.63-.19-20.32,3.93-29.23,9.4-20.19,12.41-38.82,27.16-59.28,39.27-21.6,12.8-44.34,23.89-68.57,30.7-24.85,6.97-50.69,8.88-76.4,7.66-25.71-1.21-50.52-4.85-73.76-14.15-12.26-4.9-23.84-11.52-33.06-21.07-1.34-1.39-3.44,.74-2.1,2.14,16.03,16.62,39.02,25.01,61.13,29.91,24.12,5.34,49.15,7.27,73.81,6.26,50.11-2.05,94.59-21.92,136.3-48.62,10.52-6.74,20.89-13.73,31.04-21.02s20.7-15.04,33.18-16.98c13.5-2.1,26.94,3.12,39.42,7.67s24.48,9.85,36.31,15.71c44.8,22.17,86.3,51.15,133.73,67.79,23.36,8.2,48.11,13.46,72.97,12.59,23.25-.82,45.62-7.72,66.4-17.94,46.29-22.78,84.07-60.67,132.51-79.37,25.31-9.77,52.66-12.41,79.19-6.32,24.38,5.59,46.87,17.19,68.12,30.08,22.35,13.54,43.55,28.88,65.85,42.5,20.89,12.76,42.72,23.89,65.6,32.66,45.64,17.47,97.69,27.94,145.88,15.09,23.18-6.19,44.61-18.32,64.32-31.76,18.88-12.86,30.89-31.15,41.75-50.85,6.05-10.95,11.64-22.15,17.44-33.24,.9-1.71-1.7-3.21-2.6-1.49h0Z"/><path class="cls-1" d="M1187,24.42l-179,1.29c.57,79.54,81.85,144.41,180.04,143.7s178.39-66.62,177.95-146.1l-179,1.1Z"/><path class="cls-1" d="M964.46,20.53l98.96,4.82c74.15,59.21,115.17,111.24,102.54,130.09-16.63,24.84-121.29-15.61-231.82-89.63-21.21-14.21-41.79-29.07-60.97-44.05l91.29-1.23h0Z"/><ellipse class="cls-1" cx="611.17" cy="49.58" rx="129" ry="91" transform="translate(-.34 4.42) rotate(-.41)"/><path class="cls-1" d="M792.29-3.23l99.86,15.22c-15.4,17.85-55.2,29.96-99.53,30.28-58.42,.42-106.65-19.77-106.83-44.73l106.5-.77Z"/><path class="cls-1" d="M898.9,12l-117.75-7.72c-.92,13.96,51.48,28.93,116.08,33.16,58.57,3.84,109.31-2.32,118.09-14.33l-116.42-11.11Z"/><ellipse class="cls-1" cx="757.05" cy="33.53" rx="71" ry="22" transform="translate(-.22 5.47) rotate(-.41)"/><ellipse class="cls-1" cx="731.69" cy="67.38" rx="92.11" ry="20.4" transform="translate(35.34 301.9) rotate(-23.87)"/><ellipse class="cls-1" cx="699.84" cy="90.62" rx="92.11" ry="20.4" transform="translate(50.43 366.76) rotate(-30.41)"/><ellipse class="cls-1" cx="478.01" cy="73.9" rx="20.4" ry="97.08" transform="translate(164.81 442.5) rotate(-58.43)"/><ellipse class="cls-1" cx="408.98" cy="35.88" rx="20.4" ry="97.08" transform="translate(192.82 384.92) rotate(-63.24)"/><ellipse class="cls-1" cx="466.69" cy="35.88" rx="17.42" ry="64.08" transform="translate(224.56 436.45) rotate(-63.24)"/><path class="cls-1" d="M436.77,7.68l67.93,18.14c14.43,11.56,21.17,20.76,18.75,25.57-5.04,10-48.31-1.51-95.87-25.49-15.57-7.85-30.4-16.43-42.95-24.85l52.13,6.63h.01Z"/><path class="cls-1" d="M-.42-13.03C-.21,13.22,.55,39.45,.76,65.69c.14,.62,.3,1.24,.45,1.85,.46,1.8-.15,3.41-1.24,4.58,.37,6,.57,12.01,.42,18.01,34.05,23.66,79.31,38.04,128.61,37.68,103.98-.75,189.1-66.7,188.67-146.18l-189.72,1.18L-1.12-16.25c.03,.24,.05,.49,.06,.76,.39,.68,.63,1.5,.64,2.47Z"/><ellipse class="cls-1" cx="343.41" cy="8.77" rx="20.4" ry="97.08" transform="translate(180.98 311.46) rotate(-63.24)"/><ellipse class="cls-1" cx="277.83" cy="46.84" rx="76.32" ry="20.52" transform="translate(11.87 139.85) rotate(-28.84)"/><ellipse class="cls-1" cx="328.73" cy="18.68" rx="36.56" ry="20.52" transform="translate(15.46 120.05) rotate(-21.18)"/><ellipse class="cls-1" cx="343.93" cy="15.55" rx="20.52" ry="36.56" transform="translate(276.74 353.21) rotate(-81.33)"/><rect class="cls-1" x="798.89" y="-5.32" width="567" height="30.5" transform="translate(-.04 7.82) rotate(-.41)"/><rect class="cls-1" x="342.87" y="-12.35" width="220" height="42.08" transform="translate(-.05 3.27) rotate(-.41)"/></svg>