<?xml version="1.0" encoding="UTF-8"?><svg id="Layer_1" xmlns="http://www.w3.org/2000/svg" viewBox="0 0 737 767.54"><defs><style>.cls-1{fill:#1b1464;}.cls-2{fill:#fffa96;stroke:#1b1464;stroke-miterlimit:10;stroke-width:10px;}</style></defs><path class="cls-2" d="M371.94,5.04C239.96,2.99,120.04,75.55,56.96,181.66-40,344.76,.35,582.03,164.47,697.03c129.26,90.57,311.89,88.9,437.57-15.44,153.53-127.47,164.6-360.43,66.96-510.55C607.64,76.7,498.08,7.01,371.94,5.04Z"/><path class="cls-1" d="M167,441.73c15.49,129.67,114,189.99,114,189.99,9.24,5.66,20.57,12.51,34.43,18.34,0,0,0,0,0,0,0,0,21.99,10.32,49.57,12.24,23.31,1.62,60.54-4.68,96-23.43,36.84-19.47,57.31-44.73,68-58.2,4.83-6.09,22.24-28.66,36-64.78,15.98-41.93,35.95-125.21,3-145.13-9.48-5.73-25.67-7.38-29-2.04-4.03,6.46,9.45,20.93,15,28.54,31.27,42.84,1.7,140.27-63,196.54-17,14.78-66.42,57.77-131,50.14-45.8-5.41-75-33.06-97-55.05-54.2-54.14-96.88-148.74-66-199.79,6.52-10.78,22.41-29.18,18-34.66-3.45-4.27-19.53-1-30.92,6.07,0,0,0,0,0,0,0,0-.04,.02-.08,.05-.01,0-24.1,21.75-17,81.16Z"/><path class="cls-1" d="M301,332.24c11.78,18.29,35.83,22.76,38,19.15,1.94-3.23-12.72-13.7-16-32.65-.87-5.02-.15-6.51,3.74-28.85,2.81-16.12,4.82-29.06,6.42-40.98,1.29-9.61,2.17-21.54,1.84-37.44,0,0-.81-38.66-18.95-56.19-2.9-2.8-6.2-4.96-6.2-4.96,0,0,0,0,0,0-9.66-2.68-22-4.85-26.85,.52-7.88,8.72,13.98,26.29,21,57.83,.73,3.28,1.17,6.03,1.34,8.81,2.32,38.24-13.29,51.15-11.34,87.26,.5,9.16,1.1,18.33,7,27.48Z"/><path class="cls-1" d="M407.52,332.04c10.8,18.92,34.59,24.66,36.94,21.16,2.11-3.13-11.99-14.38-14.27-33.51-.6-5.07,.19-6.53,5.25-28.68,3.65-15.99,6.34-28.83,8.57-40.68,1.8-9.55,3.3-21.44,3.8-37.37,0,0,1.22-38.73-15.98-57.23-2.74-2.95-5.93-5.29-5.93-5.29,0,0,0,0,0,0-9.51-3.18-21.71-6.01-26.84-.89-8.32,8.32,12.58,27.04,17.94,58.98,.56,3.32,.85,6.09,.87,8.89,.31,38.39-15.96,50.49-15.9,86.74,.02,9.19,.14,18.4,5.55,27.87Z"/></svg>