<?xml version="1.0" encoding="UTF-8"?><svg id="Layer_1" xmlns="http://www.w3.org/2000/svg" width="1684" height="275.5" viewBox="0 0 1684 275.5"><defs><style>.cls-1{fill:#122851;}.cls-2{fill:#fffa96;}</style></defs><g><path class="cls-1" d="M101.81,210.53l-27.51-95.19-19.69-19.69V.19h243.24l48.54,48.54v95.46h-14.56l-32.63,114.88H150.35l-48.54-48.54Z"/><path class="cls-1" d="M271.97,210.53V115.07h15.64l3.5-8.9-10.52-10.52V.19h331.96l48.54,48.54v95.73l2.7,2.7v111.91H320.51l-48.54-48.54Z"/><path class="cls-1" d="M782.99,244.78v14.29h-135.37l-48.54-48.54V115.07h10.79v-8.63l-10.79-10.79V.19h146.97c22.92,0,56.63,2.43,75.78,21.57l48.54,48.54c9.98,9.98,16.45,24.54,16.45,45.57,0,12.4-2.43,24.27-8.09,34.52l8.09,8.09v96l-8.36,3.51c-11.6,4.85-24.81,5.39-34.52,5.39-27.51,0-46.65-5.66-60.95-18.61Z"/><path class="cls-1" d="M870.63,210.53V115.07h10.79v-8.63l-10.79-10.79V.19h320.1l48.54,48.54v95.46h-10.79v8.63l10.79,10.79v95.46h-320.1l-48.54-48.54Z"/><path class="cls-1" d="M1175.08,210.53V115.07h10.79v-8.63l-10.79-10.79V.19h230.84l48.54,48.54v95.73l2.7,2.7v111.91h-233.53l-48.54-48.54Z"/><path class="cls-1" d="M1392.44,210.53V115.07h10.79v-8.63l-10.79-10.79V.19h118.92c37.48,0,70.92,8.9,93.04,31.01l48.54,48.54c16.72,16.72,26.7,40.72,26.7,74.16,0,77.66-53.93,105.17-119.73,105.17h-118.92l-48.54-48.54Z"/></g><g><path class="cls-2" d="M78.66,82.11h-10.79V13.62h100.59V82.11l11.33,49.08h1.08l11.33-49.08h-12.94V13.62h104.9V82.11h-11.33l-32.63,114.88H111.83l-33.17-114.88Z"/><path class="cls-2" d="M285.23,128.49h11.06l19.15-46.38h-21.57V13.62h305V98.56h-78.74v-24.54h-27.51v14.83h16.72v32.9h-16.72v14.83h27.51v-24.54h81.44v84.95h-193.08V122.56h-25.89l-5.12,14.02h20.23v60.41h-112.45v-68.5Zm123.24-33.98V57.57h-1.08l-15.37,36.95h16.45Z"/><path class="cls-2" d="M724.52,158.97l-13.48-29.66h-1.08v10.52c0,18.61,6.74,30.2,10.79,36.14v21.03h-108.41v-68.5h10.79v-46.38h-10.79V13.62h133.49c55.82,0,78.74,16.18,78.74,53.66,0,22.92-8.36,36.95-26.97,44.23l4.58,7.28c4.58,7.01,8.63,9.71,16.72,9.71,2.43,0,4.31-.27,5.66-.81v69.3c-7.01,2.97-16.45,4.31-29.39,4.31-37.48,0-56.63-11.33-70.65-42.34Zm7.82-78.2c0-8.36-5.12-12.4-14.29-12.4h-8.09v22.38c2.97,1.35,6.2,1.89,9.44,1.89,8.63,0,12.94-4.04,12.94-11.87Z"/><path class="cls-2" d="M883.89,128.49h10.79v-46.38h-10.79V13.62h132.95l10.79,46.38h1.08l10.79-46.38h137.53V82.11h-10.79v46.38h10.79v68.5h-105.71v-60.41h10.79V69.71h-1.08l-31.82,127.28h-47.46l-31.82-127.28h-1.08v66.88h10.79v60.41h-95.73v-68.5Z"/><path class="cls-2" d="M1188.34,128.49h10.79v-46.38h-10.79V13.62h203.87V98.56h-78.74v-24.54h-27.51v14.83h16.72v32.9h-16.72v14.83h27.51v-24.54h81.44v84.95h-206.57v-68.5Z"/><path class="cls-2" d="M1405.69,128.49h10.79v-46.38h-10.79V13.62h105.44c70.11,0,106.25,31.28,106.25,91.69s-36.14,91.69-106.25,91.69h-105.44v-68.5Zm99.51,0c14.29,0,19.96-6.47,19.96-23.19s-5.66-23.19-19.96-23.19h-1.89v46.38h1.89Z"/></g></svg>